<?xml version="1.0" encoding="UTF-8"?>
<svg xmlns="http://www.w3.org/2000/svg" width="800" height="800" xmlns:xlink="http://www.w3.org/1999/xlink" viewBox="0 0 800 800">
  <g id="Layer_2" data-name="Layer 2">
    <g>
      <line x1="199.83" y1="764.3" x2="285.5" y2="35.63" style="fill: #727c92; stroke: #727c92; stroke-linecap: round; stroke-linejoin: round; stroke-width: 18.7px;"/>
      <path d="m255.84,288.39c-.61,3.48,70,66.84,197.06,55.55,127.06-11.3,191.49-41.54,191.49-41.54l-5.94-222.13s-182.07,97.48-354.46-29.49c-23.66,125.53-28.15,237.61-28.15,237.61Z" style="fill: #727c92; stroke-width: 0px;"/>
      <g>
        <path d="m437.59,134.51c1.67.13,3.48.61,4.8.88,25.24,3.47,43.29,13.09,53.19,32.48.85,2.08,1.82,2.49,4.73,1.71,13.67-3.14,26.24-3,38.15,1.45,8.15,3.15,13.8,8.12,17.31,14.77,1.76,3.32.18,6.39-3.84,8.43-4.02,2.04-7.64,1.09-9.39-2.24-9.27-16.83-34.35-17.93-55.12-5.45-3.88,2.38-7.91,2.41-10.42.2-2.17-2.35-1.07-5.62,2.8-8.01q4.78-3.15,3.08-7.31c-7.46-16.35-27.87-25.82-48.3-26.4-22.3-.22-41.57,8.02-50.3,23.29-.55.63-.96,1.6-.82,1.95,5.3,3.1,10.66,5.36,15.47,8.25,4.18,2.34,4.62,5.39,2.41,7.91-2.7,2.31-6.73,2.33-10.7-.49-13.25-8.75-30.21-10.73-42.75-4.82-11.85,5.63-16.15,17.88-8.86,29.85,5.26,7.96,13.7,13.81,25.24,16.39,23.44,5,47.36,8.2,71.81,8.75,6.88.03,10.43,1.82,9.97,5.64-.26,3.34-4.07,4.89-10.95,4.86-24.94-.76-49.21-3.81-72.79-9.17-25.39-5.83-40.78-23.8-40.25-41.38.21-.49-.08-1.18-.22-1.53.89-2.78,1.77-5.57,2.31-8.21.21-.49.76-1.12.96-1.6,7.85-12.48,22.54-18.05,41.72-16.57,2.16.33,3.05-.43,3.67-1.9,9.76-17.7,25.55-26.55,49.5-30.23,2.36-.15,5.07-.45,7.29-.95,3.75-.72,6.94-.8,10.28-.55Z" style="fill: #fff; stroke-width: 0px;"/>
        <path d="m476.12,226.26c.89-2.78,1.22-4.94,2.04-6.89,1.23-2.92,4.56-4.68,8.45-5.05,3.89-.37,7.37.24,8.84,2.87,3.01,4.43,2.97,9.29.22,14.45-1.37,2.58-4.35,4.19-8.24,4.56-3.89.37-7.37-.24-8.7-2.52-1.47-2.63-1.77-5.34-2.61-7.42Zm15.55-1.48c-.36-1.87-.72-3.75-1.28-5.13-.28-.69-1.89-1.66-2.92-1.23-1.18.08-3.12,1.27-2.84,1.96-.12,3.68-.38,7.02-.15,10.56-.06.83,1.89,1.66,2.92,1.23,1.18-.08,2.77-1.13,3.18-2.1.13-1.67.61-3.48,1.08-5.29Z" style="fill: #fff; stroke-width: 0px;"/>
        <path d="m570.35,207.72c-.13,1.67-.12,3.68-.25,5.35-.81,3.96-3.57,7.11-8.7,8.39-5.34,1.77-9.3.96-10.37-2.65-1.06-3.61-1.57-7.84-1.11-11.66.26-3.34,3.65-5.93,7.81-7.62,4.3-1.34,7.78-.74,9.94,1.61.63.55.91,1.25,1.33,2.28.56,1.39,1.13,2.77,1.34,4.3Zm-6.17,1.7c-.7-1.73-.58-3.4-1.97-4.85-.77-.9-2.23-1.52-3.62-.95-.69.28-2.84,1.96-2.56,2.65.23,3.54.46,7.08,1.38,10.34.28.69,2.23,1.52,3.27,1.09s2.49-1.82,2.9-2.8c.82-1.95.61-3.48.59-5.49Z" style="fill: #fff; stroke-width: 0px;"/>
        <path d="m525.38,251.05c.13-1.67.61-3.48,1.08-5.29,1.3-3.76,4.48-5.86,9.27-7s8.26-.53,10.37,2.65c2.38,3.88,2.41,7.91.7,12.64-1.44,3.41-4.62,5.51-9.41,6.65-5.13,1.28-8.4.19-10.37-2.65-.28-.69-1.05-1.59-.99-2.43-.08-1.18-.29-2.71-.65-4.58Zm6.74-.32c.22,1.53.58,3.4,1.63,4.99.28.69,2.23,1.52,3.27,1.09,1.39-.56,3.32-1.76,3.39-2.59.12-3.68-.11-7.22-.34-10.77-.28-.69-2.23-1.52-3.27-1.09s-2.98,1.62-3.39,2.59c-.82,1.95-.95,3.62-1.29,5.77Z" style="fill: #fff; stroke-width: 0px;"/>
        <path d="m491.43,266.88c-2.36.15-4.23.51-6.6.66.25-5.35.63-10.35.88-15.71-2.28,1.33-3.53,2.24-5.61,3.09-1.12-.76-1.89-1.66-3.35-2.27,5.06-2.46,8.09-6.92,15.59-6.34-.52,6.67-.55,13.55-.92,20.57Z" style="fill: #fff; stroke-width: 0px;"/>
        <path d="m542.39,226.36c-2.22.5-4.09.86-6.31,1.36-.45-5.07-.89-10.14-1.27-16.04-2.14,1.68-3.74,2.73-5.19,4.13-1.12-.76-2.09-1.17-3.35-2.27,4.78-3.15,6.83-8.03,14.26-8.63.46,7.08,1.26,14.03,1.86,21.46Z" style="fill: #fff; stroke-width: 0px;"/>
        <path d="m467.91,236.87c-2.01.01-4.03.02-6.39.18.39-5,.78-10.01.88-15.71-1.94,1.19-3.67,1.9-5.26,2.95-1.12-.76-1.89-1.66-3.14-2.76,4.85-1.97,7.88-6.44,14.55-5.92.25,7.57-.27,14.24-.64,21.26Z" style="fill: #fff; stroke-width: 0px;"/>
        <path d="m510.63,248.57c-2.14,1.68-3.74,2.73-5.67,3.92-1.12-.76-2.23-1.52-3.35-2.27,5.06-2.46,7.95-7.27,15.17-7.38-.03,6.88.08,14.1.05,20.98-1.87.36-4.23.51-6.45,1.01.25-5.35.15-10.56.25-16.26Z" style="fill: #fff; stroke-width: 0px;"/>
        <path d="m451.54,253.22c5.69-1.91,8.72-6.37,15.88-5.65-.52,6.67-.89,13.69-1.76,20.5-2.01.01-4.03.02-6.74.32.39-5,.78-10.01,1.37-15.5-2.28,1.33-4.02,2.04-5.75,2.74-.97-.41-1.6-.96-3-2.41Z" style="fill: #fff; stroke-width: 0px;"/>
        <path d="m564.25,269.17c-.33,2.16-.46,3.82-1.08,5.29-1.03,2.44-3.17,4.12-6.92,4.83-3.26.92-6.11.87-7.65-.93-2.45-3.04-2.33-6.72-.34-10.77,1.17-2.09,3.45-3.42,6.37-4.21s5.76-.73,6.81.86c1.54,1.8,1.9,3.67,2.81,4.92Zm-5.69,1.91c.06-.83.13-1.67-.15-2.36-.77-.9-2.23-1.52-3-2.41-1.1,1.26-2.21,2.51-2.62,3.49-.48,1.81-.26,3.34.31,4.72.42,1.04,1.89,1.66,3,2.41,1.1-1.26,1.86-2.37,2.62-3.49.06-.83-.22-1.53-.15-2.36Z" style="fill: #fff; stroke-width: 0px;"/>
        <path d="m526.33,295.09c.48-1.81.75-3.13,1.36-4.59,1.03-2.44,3.52-4.26,7.27-4.97s6.88.03,7.38,2.25c.78,2.91.73,5.76-.02,8.89-.68,2.3-3.52,4.26-7.27,4.97s-6.39.18-7.58-1.76c-.36-1.87-.58-3.4-1.14-4.79Zm11.93-2.43c-.08-1.18-.15-2.36-.43-3.05s-1.74-1.31-2.44-1.03c-.83-.06-2.63,1.47-2.49,1.82-.33,2.16-.53,4.66-.38,7.02.28.69,1.6.96,2.58,1.37.9-.77,2.63-1.47,2.7-2.31.62-1.46.19-2.5.46-3.82Z" style="fill: #fff; stroke-width: 0px;"/>
        <path d="m582.32,282.82c-.48,1.81-.46,3.82-1.77,5.57s-4.15,3.71-6.71,4.35c-2.22.5-5.9.38-6.81-.86-3.14-2.76-2.68-6.58-.69-10.62,1.17-2.09,3.8-3.56,6.71-4.35,3.26-.92,5.76-.73,6.95,1.21.91,1.25,1.61,2.98,2.32,4.71Zm-12.14,2.92c.08,1.18.15,2.36.92,3.26.28.69,1.6.96,2.78.89.69-.28,2.28-1.33,2.35-2.17.19-2.5.04-4.86-.11-7.22-.14-.35-1.6-.96-2.78-.89-1.04.42-2.14,1.68-2.35,2.17-.96,1.6-.89,2.78-.81,3.96Z" style="fill: #fff; stroke-width: 0px;"/>
        <path d="m500.75,280.86c-.48,1.81-.95,3.62-1.91,5.22-1.17,2.09-3.45,3.42-7,3.65-3.4.58-6.18-.31-7.38-2.25-1.76-3.32-1.5-6.66.78-10.01,1.17-2.09,3.74-2.73,6.79-3.17s5.7.11,6.89,2.04c1.26,1.1,1.27,3.12,1.83,4.5Zm-5.27.93c-.08-1.18-.15-2.36-.58-3.4-.28-.69-1.6-.96-2.58-1.37-.83-.06-2.43.99-2.28,1.33-.33,2.16-.53,4.66-.38,7.02-.21.49,1.4,1.45,2.58,1.37.49.21,2.08-.85,2.49-1.82.06-.83.33-2.16.75-3.13Z" style="fill: #fff; stroke-width: 0px;"/>
        <path d="m463.11,283.65c-.62,1.46-.75,3.13-1.85,4.39-1.17,2.09-3.94,3.22-7.48,3.45-3.68-.12-6.47-1-6.97-3.22-.29-2.71-.04-6.04,1.2-8.97.68-2.3,3.59-3.08,7.14-3.31,3.54-.23,5.98.8,6.82,2.88,1.05,1.59.92,3.26,1.14,4.79Zm-4.86-.04c-.08-1.18-.15-2.36-.72-3.75-.28-.69-1.4-1.45-2.09-1.17-.83-.06-2.43.99-2.28,1.33-.68,2.3-.88,4.8-1.07,7.3-.21.49,1.4,1.45,2.09,1.17.83.06,2.08-.85,2.63-1.47.9-.77.82-1.95,1.44-3.41Z" style="fill: #fff; stroke-width: 0px;"/>
        <path d="m579.2,273.18c-3.67,1.9-5.34,1.77-5.49-.59.05-2.85-.38-5.9-.47-9.1-1.94,1.19-2.84,1.96-4.08,2.87-.97-.41-1.6-.96-2.58-1.37,2.49-1.82,4.15-3.71,6.64-5.53,3.04-2.45,4.85-1.97,5,.39.51,4.23.82,8.96.98,13.33Z" style="fill: #fff; stroke-width: 0px;"/>
        <path d="m467.96,281.67c-.42-1.04-1.05-1.59-.99-2.43.96-1.6,7.69-3.93,10.54-3.88-.39,5-.92,9.66-1.3,14.67-4.79,1.14-4.93.79-4.87-2.06.19-2.5.59-5.49.99-8.48-1.25.91-2.28,1.33-4.36,2.18Z" style="fill: #fff; stroke-width: 0px;"/>
        <path d="m505.25,279.03c-.42-1.04-1.4-1.45-.99-2.43.96-1.6,7.41-4.63,10.6-4.72-.04,4.86-.43,9.87-.33,15.08-1.18.08-2.71.29-4.58.65.12-3.68.24-7.37.56-11.54-1.94,1.19-3.32,1.76-5.26,2.95Z" style="fill: #fff; stroke-width: 0px;"/>
        <path d="m553.16,297.51c.12-3.68-.11-7.22-.13-11.25-1.59,1.05-2.63,1.47-4.22,2.53-.97-.41-1.46-.62-2.44-1.03,4.01-4.05,6.98-5.67,11.08-6.52-.04,4.86.06,10.07.16,15.28-.83-.06-2.22.5-4.44,1Z" style="fill: #fff; stroke-width: 0px;"/>
        <path d="m502.4,313.71c-.06.83-.13,1.67-.54,2.64-.82,1.95-2.62,3.49-6.16,3.72-3.2.09-5.49-.59-5.5-2.61-.22-1.53-.09-3.2.39-5,.68-2.3,2.62-3.49,6.51-3.86s4.94,1.22,5.64,2.95c-.21.49-.27,1.32-.33,2.16Zm-2.85-.05c-1.26-1.1-2.17-2.35-2.94-3.25-.76,1.12-2.56,2.65-2.62,3.49-.27,1.32.99,2.43,1.9,3.67,1.1-1.26,2.35-2.17,3.66-3.91Z" style="fill: #fff; stroke-width: 0px;"/>
        <path d="m455.44,302.52c-.81,3.96-3.3,5.79-7.96,5.26-3.34-.26-4.67-2.54-4.06-6.02.75-3.13,2.89-4.81,6.43-5.04,4.17.32,6.2,2.33,5.59,5.8Zm-9.03-.36c1.05,1.59,1.82,2.49,2.38,3.88,1.1-1.26,2.7-2.31,2.97-3.63.27-1.32-.99-2.43-1.41-3.47-1.45,1.4-2.7,2.31-3.94,3.22Z" style="fill: #fff; stroke-width: 0px;"/>
        <path d="m505.02,310.22c2.77-1.13,5.4-2.6,9.07-4.5-.32,4.17-.58,7.51-.98,10.5-.21.49-1.25.91-2.28,1.33-.49-.21-1.81-.48-1.6-.96-.01-2.01.32-4.17.31-6.18-1.53.22-3.2.09-4.72.31.49.21.35-.14.21-.49Z" style="fill: #fff; stroke-width: 0px;"/>
        <path d="m467.15,296.55c-.46,3.82-.86,6.81-1.26,9.8-.21.49-1.8,1.54-2.49,1.82-.49-.21-.97-.41-1.32-.27.19-2.5.88-4.8.86-6.81-1.67-.13-2.99-.4-4.17-.32.9-.77,1.8-1.54,2.84-1.96,1.24-.91,2.98-1.61,5.54-2.26Z" style="fill: #fff; stroke-width: 0px;"/>
      </g>
    </g>
  </g>
  <g id="Layer_1" data-name="Layer 1">
    <a xlink:href="https://stackoverflow.com/questions/49664154/push-docker-image-to-ecr-using-cloudformation"/>
  </g>
</svg>