<?xml version="1.0" encoding="UTF-8"?><svg xmlns="http://www.w3.org/2000/svg" xmlns:xlink="http://www.w3.org/1999/xlink" viewBox="0 0 1001.73 646.97"><defs><style>.cls-1{fill:url(#linear-gradient);}.cls-1,.cls-2,.cls-3,.cls-4,.cls-5,.cls-6,.cls-7{stroke-width:0px;}.cls-2{fill:#223654;}.cls-3{fill:url(#linear-gradient-5);}.cls-4{fill:#fff;}.cls-5{fill:url(#linear-gradient-2);}.cls-6{fill:url(#linear-gradient-3);}.cls-7{fill:url(#linear-gradient-4);}</style><linearGradient id="linear-gradient" x1="462.81" y1="-830.41" x2="868.38" y2="-830.41" gradientTransform="translate(-329.54 -583.88) rotate(90)" gradientUnits="userSpaceOnUse"><stop offset=".48" stop-color="#223654"/><stop offset=".52" stop-color="#38554c"/><stop offset=".59" stop-color="#5e8940"/><stop offset=".66" stop-color="#7bb336"/><stop offset=".72" stop-color="#91d12f"/><stop offset=".77" stop-color="#9ee32b"/><stop offset=".81" stop-color="#a3ea2a"/></linearGradient><linearGradient id="linear-gradient-2" x1="753.84" y1="382.78" x2="753.84" y2="552.75" gradientUnits="userSpaceOnUse"><stop offset=".48" stop-color="#223654"/><stop offset=".53" stop-color="#38554c"/><stop offset=".63" stop-color="#5e8940"/><stop offset=".71" stop-color="#7bb336"/><stop offset=".79" stop-color="#91d12f"/><stop offset=".86" stop-color="#9ee32b"/><stop offset=".91" stop-color="#a3ea2a"/></linearGradient><linearGradient id="linear-gradient-3" x1="247.9" y1="382.78" x2="247.9" y2="552.75" xlink:href="#linear-gradient-2"/><linearGradient id="linear-gradient-4" x1="380.55" y1="347.69" x2="224.17" y2="347.69" gradientTransform="matrix(1,0,0,1,0,0)" xlink:href="#linear-gradient"/><linearGradient id="linear-gradient-5" x1="-41.91" y1="347.69" x2="-198.29" y2="347.69" gradientTransform="translate(579.52) rotate(-180) scale(1 -1)" xlink:href="#linear-gradient"/></defs><g id="Layer_1"><rect class="cls-2" x="374.76" y="259.56" width="252.21" height="110.08" rx="12" ry="12"/><rect class="cls-2" x="170.61" y="373.58" width="154.58" height="67.47" rx="12" ry="12"/><rect class="cls-2" x="676.55" y="373.58" width="154.58" height="67.47" rx="12" ry="12"/><path class="cls-4" d="M461.21,306.8h3.74v16.63h-3.74v-16.63Z"/><path class="cls-4" d="M468.55,311.24c.61-.18,1.39-.34,2.35-.49.96-.15,1.97-.23,3.02-.23s1.96.14,2.68.42c.71.28,1.28.68,1.69,1.19s.71,1.12.89,1.82c.18.71.26,1.49.26,2.35v7.13h-3.58v-6.7c0-1.15-.15-1.97-.46-2.45-.3-.48-.87-.72-1.7-.72-.26,0-.53.01-.82.04-.29.02-.54.05-.77.08v9.74h-3.58v-12.19Z"/><path class="cls-4" d="M493.58,321.85c0,2.06-.52,3.6-1.57,4.6s-2.67,1.5-4.86,1.5c-.77,0-1.54-.07-2.3-.2s-1.48-.32-2.14-.54l.62-3c.56.22,1.15.4,1.76.53s1.32.19,2.1.19c1.02,0,1.75-.22,2.17-.67.42-.45.64-1.02.64-1.73v-.46c-.38.18-.78.31-1.19.4s-.85.13-1.33.13c-1.74,0-3.08-.52-4.01-1.55-.93-1.03-1.39-2.48-1.39-4.33,0-.93.14-1.77.43-2.53.29-.76.71-1.41,1.26-1.96.55-.54,1.23-.96,2.03-1.26s1.7-.44,2.71-.44c.43,0,.88.02,1.33.06.46.04.91.09,1.36.16.45.06.88.14,1.28.23.41.09.77.18,1.09.28v10.61ZM485.74,316.71c0,2,.81,3,2.42,3,.37,0,.71-.05,1.03-.14.32-.1.59-.21.82-.34v-5.71c-.18-.03-.38-.06-.62-.08-.24-.02-.52-.04-.84-.04-.94,0-1.65.31-2.11.94s-.7,1.42-.7,2.38Z"/><path class="cls-4" d="M504.55,313.97c-.32-.08-.7-.16-1.13-.25s-.9-.13-1.39-.13c-.22,0-.49.02-.8.06-.31.04-.55.08-.71.13v9.65h-3.58v-11.95c.64-.22,1.4-.44,2.27-.64.87-.2,1.84-.3,2.92-.3.19,0,.42.01.7.04.27.02.54.06.82.1s.54.09.82.14c.27.06.5.12.7.2l-.6,2.95Z"/><path class="cls-4" d="M506.23,317.21c0-1.12.17-2.1.52-2.94.34-.84.79-1.54,1.36-2.1s1.2-.98,1.93-1.27c.73-.29,1.48-.43,2.24-.43,1.79,0,3.21.55,4.25,1.64,1.04,1.1,1.56,2.71,1.56,4.84,0,.21,0,.44-.02.68s-.03.47-.05.66h-8.11c.08.74.42,1.32,1.03,1.75.61.43,1.42.65,2.45.65.66,0,1.3-.06,1.93-.18s1.15-.27,1.55-.44l.48,2.9c-.19.1-.45.19-.77.29s-.68.18-1.07.25c-.39.07-.81.13-1.26.18-.45.05-.9.07-1.34.07-1.14,0-2.12-.17-2.96-.5s-1.54-.8-2.09-1.38-.96-1.28-1.22-2.08c-.26-.8-.4-1.66-.4-2.59ZM514.63,315.85c-.02-.3-.07-.6-.16-.89s-.22-.54-.41-.77c-.18-.22-.42-.41-.7-.55-.28-.14-.63-.22-1.04-.22s-.74.07-1.03.2-.53.32-.72.54c-.19.22-.34.48-.44.78-.1.3-.18.6-.23.9h4.73Z"/><path class="cls-4" d="M524.47,320.86c.66,0,1.12-.06,1.39-.19.27-.13.41-.38.41-.74,0-.29-.18-.54-.53-.76-.35-.22-.89-.46-1.61-.73-.56-.21-1.07-.42-1.52-.65-.46-.22-.84-.49-1.16-.8-.32-.31-.57-.68-.74-1.12-.18-.43-.26-.95-.26-1.56,0-1.18.44-2.12,1.32-2.81.88-.69,2.09-1.03,3.62-1.03.77,0,1.5.07,2.21.2s1.26.28,1.68.44l-.62,2.78c-.42-.14-.87-.27-1.36-.38-.49-.11-1.04-.17-1.64-.17-1.12,0-1.68.31-1.68.94,0,.14.02.27.07.38s.14.22.29.32c.14.1.34.22.59.34.25.12.56.25.95.4.78.29,1.43.58,1.94.86.51.28.92.59,1.21.92s.5.69.62,1.09c.12.4.18.86.18,1.39,0,1.25-.47,2.19-1.4,2.83-.94.64-2.26.96-3.97.96-1.12,0-2.05-.1-2.8-.29-.74-.19-1.26-.35-1.55-.48l.6-2.9c.61.24,1.23.43,1.87.56.64.14,1.27.2,1.9.2Z"/><path class="cls-4" d="M536.11,320.86c.66,0,1.12-.06,1.39-.19.27-.13.41-.38.41-.74,0-.29-.18-.54-.53-.76-.35-.22-.89-.46-1.61-.73-.56-.21-1.07-.42-1.52-.65-.46-.22-.84-.49-1.16-.8-.32-.31-.57-.68-.74-1.12-.18-.43-.26-.95-.26-1.56,0-1.18.44-2.12,1.32-2.81.88-.69,2.09-1.03,3.62-1.03.77,0,1.5.07,2.21.2s1.26.28,1.68.44l-.62,2.78c-.42-.14-.87-.27-1.36-.38-.49-.11-1.04-.17-1.64-.17-1.12,0-1.68.31-1.68.94,0,.14.02.27.07.38s.14.22.29.32c.14.1.34.22.59.34.25.12.56.25.95.4.78.29,1.43.58,1.94.86.51.28.92.59,1.21.92s.5.69.62,1.09c.12.4.18.86.18,1.39,0,1.25-.47,2.19-1.4,2.83-.94.64-2.26.96-3.97.96-1.12,0-2.05-.1-2.8-.29-.74-.19-1.26-.35-1.55-.48l.6-2.9c.61.24,1.23.43,1.87.56.64.14,1.27.2,1.9.2Z"/><g id="arrow_styles_for_diagrams_etc"><g id="arrow_styles_for_diagrams_etc-2"><path class="cls-1" d="M500,271.49l-13.14-22.84c-.39-.67.1-1.52.88-1.52h6.78V12.05c0-2.02,1.64-3.67,3.67-3.67h5.38c2.02,0,3.66,1.64,3.66,3.66v235.08h6.78c.78,0,1.26.84.88,1.52l-13.14,22.84c-.39.67-1.35.67-1.74,0Z"/></g></g><rect class="cls-2" x="436.65" y="107.78" width="128.43" height="56.06" rx="12" ry="12"/><path class="cls-4" d="M477.48,125.72v3.19h-5.02v13.44h-3.74v-13.44h-5.02v-3.19h13.78Z"/><path class="cls-4" d="M485.59,132.9c-.32-.08-.7-.16-1.13-.25-.43-.09-.9-.13-1.39-.13-.22,0-.49.02-.8.06-.31.04-.55.08-.71.13v9.65h-3.58v-11.95c.64-.22,1.4-.44,2.27-.64.87-.2,1.84-.3,2.92-.3.19,0,.42.01.7.04.27.02.54.06.82.1.27.04.54.09.82.14.27.06.5.12.7.2l-.6,2.95Z"/><path class="cls-4" d="M492.41,129.39c1.06,0,1.94.12,2.64.36.7.24,1.27.58,1.69,1.03.42.45.72.99.9,1.63.18.64.26,1.35.26,2.14v7.44c-.51.11-1.22.24-2.14.4-.91.15-2.02.23-3.31.23-.82,0-1.56-.07-2.22-.22-.66-.14-1.24-.38-1.72-.71-.48-.33-.85-.76-1.1-1.28-.26-.53-.38-1.18-.38-1.94s.15-1.36.44-1.87c.3-.51.69-.92,1.19-1.22.5-.3,1.06-.52,1.7-.66s1.3-.2,1.99-.2c.46,0,.88.02,1.24.06.36.04.65.09.88.16v-.34c0-.61-.18-1.1-.55-1.46-.37-.37-1.01-.55-1.92-.55-.61,0-1.21.04-1.8.13s-1.1.21-1.54.37l-.46-2.88c.21-.06.47-.13.78-.2.31-.07.65-.14,1.02-.19s.76-.1,1.16-.14c.41-.04.82-.06,1.24-.06ZM492.7,139.86c.35,0,.69,0,1.01-.02.32-.02.58-.04.77-.07v-2.71c-.14-.03-.36-.06-.65-.1-.29-.03-.55-.05-.79-.05-.34,0-.65.02-.95.06-.3.04-.56.12-.78.23-.22.11-.4.26-.53.46-.13.19-.19.43-.19.72,0,.56.19.95.56,1.16.38.22.89.32,1.55.32Z"/><path class="cls-4" d="M506.62,123.73c.67,0,1.29.07,1.85.2.56.14.99.27,1.29.4l-.7,2.86c-.32-.14-.67-.25-1.04-.32-.38-.07-.72-.11-1.04-.11-.43,0-.8.06-1.09.18-.3.12-.53.28-.7.49s-.29.46-.36.74c-.07.29-.11.6-.11.94v.62h4.42v2.98h-4.42v9.65h-3.58v-13.3c0-1.63.46-2.93,1.38-3.89.92-.96,2.29-1.44,4.09-1.44ZM516.67,123.73c.67,0,1.23.06,1.67.17.44.11.81.23,1.12.36l-.62,2.81c-.26-.11-.54-.19-.85-.24s-.63-.07-.95-.07c-.43,0-.8.06-1.09.18-.29.12-.53.28-.7.49s-.29.46-.36.74c-.07.29-.11.6-.11.94v.62h4.42v2.98h-4.42v9.65h-3.57v-13.3c0-1.63.46-2.93,1.38-3.89s2.28-1.44,4.09-1.44ZM525.17,126.08c0,.66-.21,1.17-.63,1.55-.43.38-.93.56-1.5.56s-1.08-.19-1.5-.56c-.43-.38-.64-.89-.64-1.55s.21-1.17.64-1.55c.42-.38.92-.56,1.5-.56s1.07.19,1.5.56c.42.38.63.89.63,1.55ZM524.83,142.35h-3.58v-12.62h3.58v12.62Z"/><path class="cls-4" d="M527.59,136.04c0-.91.15-1.77.44-2.58.3-.81.72-1.51,1.28-2.11.56-.6,1.24-1.08,2.04-1.43.8-.35,1.71-.53,2.74-.53.67,0,1.29.06,1.85.18.56.12,1.1.29,1.63.52l-.74,2.86c-.34-.13-.7-.24-1.1-.34s-.85-.14-1.34-.14c-1.06,0-1.84.33-2.36.98-.52.66-.78,1.52-.78,2.59,0,1.14.24,2.02.73,2.64s1.34.94,2.56.94c.43,0,.9-.04,1.39-.12.5-.08.95-.21,1.37-.38l.5,2.93c-.42.18-.94.33-1.56.46s-1.31.19-2.06.19c-1.15,0-2.14-.17-2.98-.52s-1.52-.81-2.05-1.4-.93-1.29-1.18-2.1c-.25-.81-.37-1.68-.37-2.63Z"/><rect class="cls-2" x="680.16" y="550.38" width="147.35" height="88.21" rx="12" ry="12"/><path class="cls-4" d="M738.67,584.06c2.48,0,4.38.44,5.71,1.31,1.33.87,1.99,2.3,1.99,4.28s-.67,3.44-2.02,4.33c-1.34.89-3.26,1.33-5.76,1.33h-1.18v5.57h-3.74v-16.39c.82-.16,1.68-.27,2.59-.34.91-.06,1.71-.1,2.4-.1ZM738.91,587.25c-.27,0-.54,0-.8.02-.26.02-.49.03-.68.05v4.8h1.18c1.3,0,2.27-.18,2.93-.53.66-.35.98-1.01.98-1.97,0-.46-.08-.85-.25-1.15-.17-.3-.41-.55-.72-.73-.31-.18-.69-.31-1.14-.38-.45-.07-.94-.11-1.49-.11Z"/><path class="cls-4" d="M760.34,594.54c0,.99-.14,1.9-.43,2.72-.29.82-.7,1.53-1.25,2.11s-1.2,1.04-1.96,1.36c-.76.32-1.61.48-2.56.48s-1.77-.16-2.53-.48c-.76-.32-1.41-.77-1.96-1.36s-.97-1.29-1.27-2.11c-.3-.82-.46-1.73-.46-2.72s.16-1.9.47-2.71c.31-.82.74-1.51,1.3-2.09s1.21-1.02,1.97-1.34c.76-.32,1.59-.48,2.48-.48s1.75.16,2.51.48c.76.32,1.41.77,1.96,1.34s.97,1.27,1.27,2.09c.3.82.46,1.72.46,2.71ZM756.69,594.54c0-1.1-.22-1.97-.66-2.6-.44-.63-1.07-.95-1.88-.95s-1.45.32-1.9.95c-.45.63-.67,1.5-.67,2.6s.22,1.98.67,2.63,1.08.97,1.9.97,1.44-.32,1.88-.97.66-1.52.66-2.63Z"/><path class="cls-4" d="M774.24,600.47c-.32.1-.69.19-1.1.28s-.85.16-1.31.23c-.46.06-.92.12-1.39.16s-.92.06-1.36.06c-1.04,0-1.97-.15-2.78-.46-.82-.3-1.5-.74-2.06-1.31-.56-.57-.99-1.26-1.28-2.06-.3-.81-.44-1.72-.44-2.72s.13-1.95.38-2.77.62-1.52,1.1-2.1c.48-.58,1.07-1.02,1.76-1.32.7-.3,1.49-.46,2.39-.46.5,0,.94.05,1.33.14.39.1.79.23,1.19.41v-5.71l3.58-.58v18.22ZM766.15,594.47c0,1.1.25,1.99.74,2.66s1.23,1.01,2.21,1.01c.32,0,.62-.01.89-.04.27-.02.5-.05.67-.08v-6.5c-.22-.14-.52-.26-.88-.36-.36-.1-.72-.14-1.09-.14-1.7,0-2.54,1.15-2.54,3.46Z"/><rect class="cls-2" x="845.32" y="550.38" width="147.35" height="88.21" rx="12" ry="12"/><rect class="cls-2" x="515.01" y="550.38" width="147.35" height="88.21" rx="12" ry="12"/><path class="cls-4" d="M573.51,584.06c2.48,0,4.38.44,5.71,1.31,1.33.87,1.99,2.3,1.99,4.28s-.67,3.44-2.02,4.33c-1.34.89-3.26,1.33-5.76,1.33h-1.18v5.57h-3.74v-16.39c.82-.16,1.68-.27,2.59-.34.91-.06,1.71-.1,2.4-.1ZM573.75,587.25c-.27,0-.54,0-.8.02-.26.02-.49.03-.68.05v4.8h1.18c1.3,0,2.27-.18,2.93-.53.66-.35.98-1.01.98-1.97,0-.46-.08-.85-.25-1.15-.17-.3-.41-.55-.72-.73-.31-.18-.69-.31-1.14-.38-.45-.07-.94-.11-1.49-.11Z"/><path class="cls-4" d="M595.18,594.54c0,.99-.14,1.9-.43,2.72-.29.82-.7,1.53-1.25,2.11s-1.2,1.04-1.96,1.36c-.76.32-1.61.48-2.56.48s-1.77-.16-2.53-.48c-.76-.32-1.41-.77-1.96-1.36s-.97-1.29-1.27-2.11c-.3-.82-.46-1.73-.46-2.72s.16-1.9.47-2.71c.31-.82.74-1.51,1.3-2.09s1.21-1.02,1.97-1.34c.76-.32,1.59-.48,2.48-.48s1.75.16,2.51.48c.76.32,1.41.77,1.96,1.34s.97,1.27,1.27,2.09c.3.82.46,1.72.46,2.71ZM591.54,594.54c0-1.1-.22-1.97-.66-2.6-.44-.63-1.07-.95-1.88-.95s-1.45.32-1.9.95c-.45.63-.67,1.5-.67,2.6s.22,1.98.67,2.63,1.08.97,1.9.97,1.44-.32,1.88-.97.66-1.52.66-2.63Z"/><path class="cls-4" d="M609.08,600.47c-.32.1-.69.19-1.1.28s-.85.16-1.31.23c-.46.06-.92.12-1.39.16s-.92.06-1.36.06c-1.04,0-1.97-.15-2.78-.46-.82-.3-1.5-.74-2.06-1.31-.56-.57-.99-1.26-1.28-2.06-.3-.81-.44-1.72-.44-2.72s.13-1.95.38-2.77.62-1.52,1.1-2.1c.48-.58,1.07-1.02,1.76-1.32.7-.3,1.49-.46,2.39-.46.5,0,.94.05,1.33.14.39.1.79.23,1.19.41v-5.71l3.58-.58v18.22ZM600.99,594.47c0,1.1.25,1.99.74,2.66s1.23,1.01,2.21,1.01c.32,0,.62-.01.89-.04.27-.02.5-.05.67-.08v-6.5c-.22-.14-.52-.26-.88-.36-.36-.1-.72-.14-1.09-.14-1.7,0-2.54,1.15-2.54,3.46Z"/><path class="cls-5" d="M932.12,537.24h-6.78v-53.52h-165.16v-95.61c0-2.02-1.64-3.66-3.66-3.66h-5.38c-2.02,0-3.67,1.64-3.67,3.67v95.6h-165.1v5.3c-.02.17-.05.33-.05.51v47.71h-6.78c-.78,0-1.26.84-.88,1.52l13.14,22.84c.39.67,1.35.67,1.74,0l13.14-22.84c.39-.67-.1-1.52-.88-1.52h-6.78v-40.82h152.45v40.82h-6.78c-.78,0-1.26.84-.88,1.52l13.14,22.84c.39.67,1.35.67,1.74,0l13.14-22.84c.39-.67-.1-1.52-.88-1.52h-6.78v-40.82h152.46v40.82h-6.78c-.78,0-1.26.84-.88,1.52l13.14,22.84c.39.67,1.35.67,1.74,0l13.14-22.84c.39-.67-.1-1.52-.88-1.52Z"/><rect class="cls-2" x="174.23" y="550.38" width="147.35" height="88.21" rx="12" ry="12"/><path class="cls-4" d="M232.73,584.06c2.48,0,4.38.44,5.71,1.31,1.33.87,1.99,2.3,1.99,4.28s-.67,3.44-2.02,4.33c-1.34.89-3.26,1.33-5.76,1.33h-1.18v5.57h-3.74v-16.39c.82-.16,1.68-.27,2.59-.34.91-.06,1.71-.1,2.4-.1ZM232.97,587.25c-.27,0-.54,0-.8.02-.26.02-.49.03-.68.05v4.8h1.18c1.3,0,2.27-.18,2.93-.53.66-.35.98-1.01.98-1.97,0-.46-.08-.85-.25-1.15-.17-.3-.41-.55-.72-.73-.31-.18-.69-.31-1.14-.38-.45-.07-.94-.11-1.49-.11Z"/><path class="cls-4" d="M254.4,594.54c0,.99-.14,1.9-.43,2.72-.29.82-.7,1.53-1.25,2.11-.54.58-1.2,1.04-1.96,1.36-.76.32-1.61.48-2.56.48s-1.77-.16-2.53-.48c-.76-.32-1.41-.77-1.96-1.36-.54-.58-.97-1.29-1.27-2.11-.3-.82-.46-1.73-.46-2.72s.16-1.9.47-2.71c.31-.82.74-1.51,1.3-2.09.55-.58,1.21-1.02,1.97-1.34.76-.32,1.59-.48,2.48-.48s1.75.16,2.51.48c.76.32,1.41.77,1.96,1.34s.97,1.27,1.27,2.09c.3.82.46,1.72.46,2.71ZM250.76,594.54c0-1.1-.22-1.97-.66-2.6-.44-.63-1.07-.95-1.88-.95s-1.45.32-1.9.95c-.45.63-.67,1.5-.67,2.6s.22,1.98.67,2.63c.45.65,1.08.97,1.9.97s1.44-.32,1.88-.97c.44-.65.66-1.52.66-2.63Z"/><path class="cls-4" d="M268.3,600.47c-.32.1-.69.19-1.1.28s-.85.16-1.31.23c-.46.06-.92.12-1.39.16-.47.04-.92.06-1.36.06-1.04,0-1.97-.15-2.78-.46s-1.5-.74-2.06-1.31c-.56-.57-.99-1.26-1.28-2.06-.3-.81-.44-1.72-.44-2.72s.13-1.95.38-2.77.62-1.52,1.1-2.1,1.07-1.02,1.76-1.32,1.49-.46,2.39-.46c.5,0,.94.05,1.33.14s.79.23,1.19.41v-5.71l3.58-.58v18.22ZM260.21,594.47c0,1.1.25,1.99.74,2.66.5.67,1.23,1.01,2.21,1.01.32,0,.62-.01.89-.04.27-.02.5-.05.67-.08v-6.5c-.22-.14-.52-.26-.88-.36-.36-.1-.72-.14-1.09-.14-1.7,0-2.54,1.15-2.54,3.46Z"/><rect class="cls-2" x="339.38" y="550.38" width="147.35" height="88.21" rx="12" ry="12"/><path class="cls-4" d="M397.89,584.06c2.48,0,4.38.44,5.71,1.31,1.33.87,1.99,2.3,1.99,4.28s-.67,3.44-2.02,4.33c-1.34.89-3.26,1.33-5.76,1.33h-1.18v5.57h-3.74v-16.39c.82-.16,1.68-.27,2.59-.34.91-.06,1.71-.1,2.4-.1ZM398.13,587.25c-.27,0-.54,0-.8.02-.26.02-.49.03-.68.05v4.8h1.18c1.3,0,2.27-.18,2.93-.53.66-.35.98-1.01.98-1.97,0-.46-.08-.85-.25-1.15-.17-.3-.41-.55-.72-.73-.31-.18-.69-.31-1.14-.38-.45-.07-.94-.11-1.49-.11Z"/><path class="cls-4" d="M419.56,594.54c0,.99-.14,1.9-.43,2.72-.29.82-.7,1.53-1.25,2.11-.54.58-1.2,1.04-1.96,1.36-.76.32-1.61.48-2.56.48s-1.77-.16-2.53-.48c-.76-.32-1.41-.77-1.96-1.36-.54-.58-.97-1.29-1.27-2.11-.3-.82-.46-1.73-.46-2.72s.16-1.9.47-2.71c.31-.82.74-1.51,1.3-2.09.55-.58,1.21-1.02,1.97-1.34.76-.32,1.59-.48,2.48-.48s1.75.16,2.51.48c.76.32,1.41.77,1.96,1.34s.97,1.27,1.27,2.09c.3.82.46,1.72.46,2.71ZM415.91,594.54c0-1.1-.22-1.97-.66-2.6-.44-.63-1.07-.95-1.88-.95s-1.45.32-1.9.95c-.45.63-.67,1.5-.67,2.6s.22,1.98.67,2.63c.45.65,1.08.97,1.9.97s1.44-.32,1.88-.97c.44-.65.66-1.52.66-2.63Z"/><path class="cls-4" d="M433.46,600.47c-.32.1-.69.19-1.1.28s-.85.16-1.31.23c-.46.06-.92.12-1.39.16-.47.04-.92.06-1.36.06-1.04,0-1.97-.15-2.78-.46s-1.5-.74-2.06-1.31c-.56-.57-.99-1.26-1.28-2.06-.3-.81-.44-1.72-.44-2.72s.13-1.95.38-2.77.62-1.52,1.1-2.1,1.07-1.02,1.76-1.32,1.49-.46,2.39-.46c.5,0,.94.05,1.33.14s.79.23,1.19.41v-5.71l3.58-.58v18.22ZM425.37,594.47c0,1.1.25,1.99.74,2.66.5.67,1.23,1.01,2.21,1.01.32,0,.62-.01.89-.04.27-.02.5-.05.67-.08v-6.5c-.22-.14-.52-.26-.88-.36-.36-.1-.72-.14-1.09-.14-1.7,0-2.54,1.15-2.54,3.46Z"/><rect class="cls-2" x="9.07" y="550.38" width="147.35" height="88.21" rx="12" ry="12"/><path class="cls-4" d="M67.58,584.06c2.48,0,4.38.44,5.71,1.31,1.33.87,1.99,2.3,1.99,4.28s-.67,3.44-2.02,4.33c-1.34.89-3.26,1.33-5.76,1.33h-1.18v5.57h-3.74v-16.39c.82-.16,1.68-.27,2.59-.34.91-.06,1.71-.1,2.4-.1ZM67.82,587.25c-.27,0-.54,0-.8.02-.26.02-.49.03-.68.05v4.8h1.18c1.3,0,2.27-.18,2.93-.53.66-.35.98-1.01.98-1.97,0-.46-.08-.85-.25-1.15-.17-.3-.41-.55-.72-.73-.31-.18-.69-.31-1.14-.38-.45-.07-.94-.11-1.49-.11Z"/><path class="cls-4" d="M89.25,594.54c0,.99-.14,1.9-.43,2.72-.29.82-.7,1.53-1.25,2.11-.54.58-1.2,1.04-1.96,1.36-.76.32-1.61.48-2.56.48s-1.77-.16-2.53-.48c-.76-.32-1.41-.77-1.96-1.36-.54-.58-.97-1.29-1.27-2.11-.3-.82-.46-1.73-.46-2.72s.16-1.9.47-2.71c.31-.82.74-1.51,1.3-2.09.55-.58,1.21-1.02,1.97-1.34.76-.32,1.59-.48,2.48-.48s1.75.16,2.51.48c.76.32,1.41.77,1.96,1.34s.97,1.27,1.27,2.09c.3.82.46,1.72.46,2.71ZM85.6,594.54c0-1.1-.22-1.97-.66-2.6-.44-.63-1.07-.95-1.88-.95s-1.45.32-1.9.95c-.45.63-.67,1.5-.67,2.6s.22,1.98.67,2.63c.45.65,1.08.97,1.9.97s1.44-.32,1.88-.97c.44-.65.66-1.52.66-2.63Z"/><path class="cls-4" d="M103.15,600.47c-.32.1-.69.19-1.1.28s-.85.16-1.31.23c-.46.06-.92.12-1.39.16-.47.04-.92.06-1.36.06-1.04,0-1.97-.15-2.78-.46s-1.5-.74-2.06-1.31c-.56-.57-.99-1.26-1.28-2.06-.3-.81-.44-1.72-.44-2.72s.13-1.95.38-2.77.62-1.52,1.1-2.1,1.07-1.02,1.76-1.32,1.49-.46,2.39-.46c.5,0,.94.05,1.33.14s.79.23,1.19.41v-5.71l3.58-.58v18.22ZM95.06,594.47c0,1.1.25,1.99.74,2.66.5.67,1.23,1.01,2.21,1.01.32,0,.62-.01.89-.04.27-.02.5-.05.67-.08v-6.5c-.22-.14-.52-.26-.88-.36-.36-.1-.72-.14-1.09-.14-1.7,0-2.54,1.15-2.54,3.46Z"/><path class="cls-6" d="M426.18,537.24h-6.78v-53.52h-165.16v-95.61c0-2.02-1.64-3.66-3.66-3.66h-5.38c-2.02,0-3.67,1.64-3.67,3.67v95.6H76.45v5.3c-.02.17-.05.33-.05.51v47.71h-6.78c-.78,0-1.26.84-.88,1.52l13.14,22.84c.39.67,1.35.67,1.74,0l13.14-22.84c.39-.67-.1-1.52-.88-1.52h-6.78v-40.82h152.45v40.82h-6.78c-.78,0-1.26.84-.88,1.52l13.14,22.84c.39.67,1.35.67,1.74,0l13.14-22.84c.39-.67-.1-1.52-.88-1.52h-6.78v-40.82h152.46v40.82h-6.78c-.78,0-1.26.84-.88,1.52l13.14,22.84c.39.67,1.35.67,1.74,0l13.14-22.84c.39-.67-.1-1.52-.88-1.52Z"/><path class="cls-7" d="M377.82,320.95v-12.7h-136.27v54.01h-6.78c-.78,0-1.26.84-.88,1.52l13.14,22.84c.39.67,1.35.67,1.74,0l13.14-22.84c.39-.67-.1-1.52-.88-1.52h-6.78v-41.31h123.57Z"/><path class="cls-3" d="M624.16,320.95v-12.7h136.27v9.26s0,3.44,0,3.44v41.31s6.78,0,6.78,0c.78,0,1.26.84.88,1.52l-13.14,22.84c-.39.67-1.35.67-1.74,0l-13.14-22.84c-.39-.67.1-1.52.88-1.52h6.78s0-41.31,0-41.31h-123.57Z"/><path class="cls-4" d="M903.82,584.06c2.48,0,4.38.44,5.71,1.31,1.33.87,1.99,2.3,1.99,4.28s-.67,3.44-2.02,4.33c-1.34.89-3.26,1.33-5.76,1.33h-1.18v5.57h-3.74v-16.39c.82-.16,1.68-.27,2.59-.34.91-.06,1.71-.1,2.4-.1ZM904.06,587.25c-.27,0-.54,0-.8.02-.26.02-.49.03-.68.05v4.8h1.18c1.3,0,2.27-.18,2.93-.53.66-.35.98-1.01.98-1.97,0-.46-.08-.85-.25-1.15-.17-.3-.41-.55-.72-.73-.31-.18-.69-.31-1.14-.38-.45-.07-.94-.11-1.49-.11Z"/><path class="cls-4" d="M925.49,594.54c0,.99-.14,1.9-.43,2.72-.29.82-.7,1.53-1.25,2.11s-1.2,1.04-1.96,1.36c-.76.32-1.61.48-2.56.48s-1.77-.16-2.53-.48c-.76-.32-1.41-.77-1.96-1.36s-.97-1.29-1.27-2.11c-.3-.82-.46-1.73-.46-2.72s.16-1.9.47-2.71c.31-.82.74-1.51,1.3-2.09s1.21-1.02,1.97-1.34c.76-.32,1.59-.48,2.48-.48s1.75.16,2.51.48c.76.32,1.41.77,1.96,1.34s.97,1.27,1.27,2.09c.3.82.46,1.72.46,2.71ZM921.85,594.54c0-1.1-.22-1.97-.66-2.6-.44-.63-1.07-.95-1.88-.95s-1.45.32-1.9.95c-.45.63-.67,1.5-.67,2.6s.22,1.98.67,2.63,1.08.97,1.9.97,1.44-.32,1.88-.97.66-1.52.66-2.63Z"/><path class="cls-4" d="M939.39,600.47c-.32.1-.69.19-1.1.28s-.85.16-1.31.23c-.46.06-.92.12-1.39.16s-.92.06-1.36.06c-1.04,0-1.97-.15-2.78-.46-.82-.3-1.5-.74-2.06-1.31-.56-.57-.99-1.26-1.28-2.06-.3-.81-.44-1.72-.44-2.72s.13-1.95.38-2.77.62-1.52,1.1-2.1c.48-.58,1.07-1.02,1.76-1.32.7-.3,1.49-.46,2.39-.46.5,0,.94.05,1.33.14.39.1.79.23,1.19.41v-5.71l3.58-.58v18.22ZM931.3,594.47c0,1.1.25,1.99.74,2.66s1.23,1.01,2.21,1.01c.32,0,.62-.01.89-.04.27-.02.5-.05.67-.08v-6.5c-.22-.14-.52-.26-.88-.36-.36-.1-.72-.14-1.09-.14-1.7,0-2.54,1.15-2.54,3.46Z"/><path class="cls-4" d="M707.14,413.46c.53,0,.96-.04,1.31-.13.34-.09.62-.21.83-.36s.35-.33.43-.54.12-.44.12-.7c0-.54-.26-1-.77-1.36-.51-.36-1.39-.75-2.64-1.16-.54-.19-1.09-.41-1.63-.66s-1.03-.56-1.46-.94c-.43-.38-.78-.83-1.06-1.37-.27-.54-.41-1.19-.41-1.96s.14-1.46.43-2.08.7-1.14,1.22-1.57c.53-.43,1.17-.76,1.92-1,.75-.23,1.6-.35,2.54-.35,1.12,0,2.09.12,2.9.36s1.49.5,2.02.79l-1.08,2.95c-.46-.24-.98-.45-1.55-.64-.57-.18-1.25-.28-2.05-.28-.9,0-1.54.12-1.93.37-.39.25-.59.63-.59,1.14,0,.3.07.56.22.77.14.21.35.4.61.56.26.17.57.32.91.46.34.14.72.28,1.14.42.86.32,1.62.64,2.26.95.64.31,1.17.68,1.6,1.09.42.42.74.9.95,1.46.21.56.31,1.24.31,2.04,0,1.55-.54,2.76-1.63,3.61-1.09.86-2.73,1.28-4.92,1.28-.74,0-1.4-.04-1.99-.13s-1.12-.2-1.57-.32-.85-.26-1.18-.41c-.33-.14-.6-.28-.83-.41l1.06-2.98c.5.27,1.11.52,1.84.73.73.22,1.62.32,2.68.32Z"/><path class="cls-4" d="M715.74,410.1c0-1.12.17-2.1.52-2.94.34-.84.79-1.54,1.36-2.1s1.2-.98,1.93-1.27c.73-.29,1.48-.43,2.24-.43,1.79,0,3.21.55,4.25,1.64,1.04,1.1,1.56,2.71,1.56,4.84,0,.21,0,.44-.02.68s-.03.47-.05.66h-8.11c.08.74.42,1.32,1.03,1.75.61.43,1.42.65,2.45.65.66,0,1.3-.06,1.93-.18s1.15-.27,1.55-.44l.48,2.9c-.19.1-.45.19-.77.29s-.68.18-1.07.25c-.39.07-.81.13-1.26.18-.45.05-.9.07-1.34.07-1.14,0-2.12-.17-2.96-.5s-1.54-.8-2.09-1.38-.96-1.28-1.22-2.08c-.26-.8-.4-1.66-.4-2.59ZM724.14,408.74c-.02-.3-.07-.6-.16-.89s-.22-.54-.41-.77c-.18-.22-.42-.41-.7-.55-.28-.14-.63-.22-1.04-.22s-.74.07-1.03.2-.53.32-.72.54c-.19.22-.34.48-.44.78-.1.3-.18.6-.23.9h4.73Z"/><path class="cls-4" d="M737.96,406.86c-.32-.08-.7-.16-1.13-.25-.43-.09-.9-.13-1.39-.13-.22,0-.49.02-.8.06-.31.04-.55.08-.71.13v9.65h-3.58v-11.95c.64-.22,1.4-.44,2.27-.64.87-.2,1.84-.3,2.92-.3.19,0,.42.01.7.04.27.02.54.06.82.1.27.04.54.09.82.14.27.06.5.12.7.2l-.6,2.95Z"/><path class="cls-4" d="M744.67,416.32c-.82-1.6-1.65-3.47-2.49-5.62-.84-2.14-1.64-4.48-2.4-7.01h3.79c.16.62.35,1.3.57,2.03.22.73.44,1.46.67,2.21.23.74.47,1.47.7,2.17s.46,1.34.69,1.92c.21-.58.43-1.22.67-1.92.24-.7.48-1.43.71-2.17.23-.74.46-1.48.67-2.21.22-.73.41-1.4.57-2.03h3.7c-.75,2.53-1.55,4.86-2.4,7.01-.84,2.14-1.67,4.02-2.49,5.62h-2.97Z"/><path class="cls-4" d="M758.34,400.05c0,.66-.21,1.17-.64,1.55-.42.38-.92.56-1.5.56s-1.08-.19-1.5-.56c-.42-.38-.64-.89-.64-1.55s.21-1.17.64-1.55c.42-.38.92-.56,1.5-.56s1.08.19,1.5.56c.42.38.64.89.64,1.55ZM758,416.32h-3.58v-12.62h3.58v12.62Z"/><path class="cls-4" d="M760.76,410.01c0-.91.15-1.77.44-2.58.3-.81.72-1.51,1.28-2.11.56-.6,1.24-1.08,2.04-1.43.8-.35,1.71-.53,2.74-.53.67,0,1.29.06,1.85.18.56.12,1.1.29,1.63.52l-.74,2.86c-.34-.13-.7-.24-1.1-.34-.4-.1-.85-.14-1.34-.14-1.06,0-1.84.33-2.36.98-.52.66-.78,1.52-.78,2.59,0,1.14.24,2.02.73,2.64.49.62,1.34.94,2.56.94.43,0,.9-.04,1.39-.12.5-.08.95-.21,1.37-.38l.5,2.93c-.42.18-.94.33-1.56.46s-1.31.19-2.06.19c-1.15,0-2.14-.17-2.98-.52s-1.52-.81-2.05-1.4-.93-1.29-1.18-2.1c-.25-.81-.37-1.68-.37-2.63Z"/><path class="cls-4" d="M772.16,410.1c0-1.12.17-2.1.52-2.94s.8-1.54,1.36-2.1,1.2-.98,1.93-1.27c.73-.29,1.48-.43,2.24-.43,1.79,0,3.21.55,4.25,1.64,1.04,1.1,1.56,2.71,1.56,4.84,0,.21,0,.44-.02.68-.02.25-.03.47-.05.66h-8.11c.08.74.42,1.32,1.03,1.75.61.43,1.42.65,2.45.65.66,0,1.3-.06,1.93-.18.63-.12,1.15-.27,1.55-.44l.48,2.9c-.19.1-.45.19-.77.29-.32.1-.68.18-1.07.25-.39.07-.81.13-1.26.18s-.9.07-1.34.07c-1.14,0-2.12-.17-2.96-.5s-1.54-.8-2.09-1.38c-.55-.58-.96-1.28-1.22-2.08-.26-.8-.4-1.66-.4-2.59ZM780.56,408.74c-.02-.3-.07-.6-.16-.89-.09-.29-.22-.54-.41-.77-.18-.22-.42-.41-.7-.55-.28-.14-.63-.22-1.04-.22s-.74.07-1.03.2-.53.32-.72.54c-.19.22-.34.48-.44.78-.1.3-.18.6-.23.9h4.73Z"/><path class="cls-4" d="M798.32,416.54c-.91,0-1.82-.03-2.72-.08-.9-.06-1.84-.19-2.82-.4v-16.13c.77-.14,1.61-.25,2.52-.32s1.76-.11,2.54-.11c1.06,0,2.03.08,2.92.23.89.15,1.65.41,2.29.78.64.37,1.14.85,1.5,1.45.36.6.54,1.34.54,2.22,0,1.33-.64,2.38-1.92,3.14,1.06.4,1.78.94,2.16,1.63.38.69.58,1.46.58,2.33,0,1.74-.64,3.06-1.91,3.94-1.27.88-3.16,1.32-5.68,1.32ZM796.42,406.22h1.82c1.15,0,1.98-.15,2.47-.44s.74-.77.74-1.43-.26-1.14-.77-1.42c-.51-.27-1.26-.41-2.26-.41-.32,0-.66,0-1.03.01-.37,0-.7.03-.98.06v3.62ZM796.42,409.07v4.3c.27.03.57.06.89.07.32.02.67.02,1.06.02,1.12,0,2.02-.16,2.71-.48.69-.32,1.03-.91,1.03-1.78,0-.77-.29-1.32-.86-1.64s-1.4-.49-2.47-.49h-2.35Z"/><path class="cls-4" d="M200.62,413.46c.53,0,.96-.04,1.31-.13.34-.09.62-.21.83-.36s.35-.33.43-.54.12-.44.12-.7c0-.54-.26-1-.77-1.36-.51-.36-1.39-.75-2.64-1.16-.54-.19-1.09-.41-1.63-.66s-1.03-.56-1.46-.94c-.43-.38-.78-.83-1.06-1.37-.27-.54-.41-1.19-.41-1.96s.14-1.46.43-2.08.7-1.14,1.22-1.57,1.17-.76,1.92-1c.75-.23,1.6-.35,2.54-.35,1.12,0,2.09.12,2.9.36.82.24,1.49.5,2.02.79l-1.08,2.95c-.46-.24-.98-.45-1.55-.64s-1.25-.28-2.05-.28c-.9,0-1.54.12-1.93.37s-.59.63-.59,1.14c0,.3.07.56.22.77s.35.4.61.56c.26.17.57.32.91.46.34.14.72.28,1.14.42.86.32,1.62.64,2.26.95.64.31,1.17.68,1.6,1.09.42.42.74.9.95,1.46.21.56.31,1.24.31,2.04,0,1.55-.54,2.76-1.63,3.61-1.09.86-2.73,1.28-4.92,1.28-.74,0-1.4-.04-1.99-.13s-1.12-.2-1.57-.32-.85-.26-1.18-.41c-.33-.14-.6-.28-.83-.41l1.06-2.98c.5.27,1.11.52,1.84.73.73.22,1.62.32,2.68.32Z"/><path class="cls-4" d="M209.21,410.1c0-1.12.17-2.1.52-2.94.34-.84.8-1.54,1.36-2.1s1.2-.98,1.93-1.27,1.48-.43,2.24-.43c1.79,0,3.21.55,4.25,1.64,1.04,1.1,1.56,2.71,1.56,4.84,0,.21,0,.44-.02.68-.02.25-.03.47-.05.66h-8.11c.08.74.42,1.32,1.03,1.75.61.43,1.42.65,2.45.65.66,0,1.3-.06,1.93-.18.63-.12,1.15-.27,1.55-.44l.48,2.9c-.19.1-.45.19-.77.29-.32.1-.68.18-1.07.25s-.81.13-1.26.18c-.45.05-.9.07-1.34.07-1.14,0-2.12-.17-2.96-.5s-1.54-.8-2.09-1.38c-.55-.58-.96-1.28-1.22-2.08s-.4-1.66-.4-2.59ZM217.61,408.74c-.02-.3-.07-.6-.16-.89-.09-.29-.22-.54-.41-.77-.18-.22-.42-.41-.7-.55-.28-.14-.63-.22-1.04-.22s-.74.07-1.03.2-.53.32-.72.54c-.19.22-.34.48-.44.78-.1.3-.18.6-.23.9h4.73Z"/><path class="cls-4" d="M231.44,406.86c-.32-.08-.7-.16-1.13-.25-.43-.09-.9-.13-1.39-.13-.22,0-.49.02-.8.06-.31.04-.55.08-.71.13v9.65h-3.58v-11.95c.64-.22,1.4-.44,2.27-.64.87-.2,1.84-.3,2.92-.3.19,0,.42.01.7.04.27.02.54.06.82.1.27.04.54.09.82.14.27.06.5.12.7.2l-.6,2.95Z"/><path class="cls-4" d="M238.15,416.32c-.82-1.6-1.65-3.47-2.49-5.62-.84-2.14-1.64-4.48-2.4-7.01h3.79c.16.62.35,1.3.57,2.03.22.73.44,1.46.67,2.21s.47,1.47.7,2.17.46,1.34.69,1.92c.21-.58.43-1.22.67-1.92.24-.7.48-1.43.71-2.17s.46-1.48.67-2.21c.22-.73.41-1.4.57-2.03h3.7c-.75,2.53-1.55,4.86-2.4,7.01-.84,2.14-1.67,4.02-2.49,5.62h-2.97Z"/><path class="cls-4" d="M251.81,400.05c0,.66-.21,1.17-.64,1.55-.42.38-.92.56-1.5.56s-1.08-.19-1.5-.56c-.42-.38-.64-.89-.64-1.55s.21-1.17.64-1.55c.42-.38.92-.56,1.5-.56s1.08.19,1.5.56c.42.38.64.89.64,1.55ZM251.47,416.32h-3.58v-12.62h3.58v12.62Z"/><path class="cls-4" d="M254.23,410.01c0-.91.15-1.77.44-2.58.3-.81.72-1.51,1.28-2.11.56-.6,1.24-1.08,2.04-1.43.8-.35,1.71-.53,2.74-.53.67,0,1.29.06,1.85.18.56.12,1.1.29,1.63.52l-.74,2.86c-.34-.13-.7-.24-1.1-.34s-.85-.14-1.34-.14c-1.06,0-1.84.33-2.36.98-.52.66-.78,1.52-.78,2.59,0,1.14.24,2.02.73,2.64.49.62,1.34.94,2.56.94.43,0,.9-.04,1.39-.12.5-.08.95-.21,1.37-.38l.5,2.93c-.42.18-.94.33-1.56.46s-1.31.19-2.06.19c-1.15,0-2.14-.17-2.98-.52-.83-.34-1.52-.81-2.05-1.4s-.93-1.29-1.18-2.1c-.25-.81-.37-1.68-.37-2.63Z"/><path class="cls-4" d="M265.63,410.1c0-1.12.17-2.1.52-2.94.34-.84.8-1.54,1.36-2.1s1.2-.98,1.93-1.27,1.48-.43,2.24-.43c1.79,0,3.21.55,4.25,1.64,1.04,1.1,1.56,2.71,1.56,4.84,0,.21,0,.44-.02.68-.02.25-.03.47-.05.66h-8.11c.08.74.42,1.32,1.03,1.75.61.43,1.42.65,2.45.65.66,0,1.3-.06,1.93-.18.63-.12,1.15-.27,1.55-.44l.48,2.9c-.19.1-.45.19-.77.29-.32.1-.68.18-1.07.25s-.81.13-1.26.18c-.45.05-.9.07-1.34.07-1.14,0-2.12-.17-2.96-.5s-1.54-.8-2.09-1.38c-.55-.58-.96-1.28-1.22-2.08s-.4-1.66-.4-2.59ZM274.03,408.74c-.02-.3-.07-.6-.16-.89-.09-.29-.22-.54-.41-.77-.18-.22-.42-.41-.7-.55-.28-.14-.63-.22-1.04-.22s-.74.07-1.03.2-.53.32-.72.54c-.19.22-.34.48-.44.78-.1.3-.18.6-.23.9h4.73Z"/><path class="cls-4" d="M297.41,416.32c-.19-.58-.38-1.17-.6-1.78-.21-.61-.43-1.22-.64-1.82h-6.5c-.21.61-.42,1.21-.63,1.82-.21.61-.41,1.2-.59,1.78h-3.89c.63-1.79,1.22-3.45,1.78-4.97.56-1.52,1.11-2.95,1.65-4.3.54-1.34,1.07-2.62,1.59-3.83.52-1.21,1.06-2.39,1.63-3.54h3.55c.55,1.15,1.08,2.33,1.62,3.54.53,1.21,1.06,2.48,1.6,3.83.54,1.34,1.09,2.78,1.65,4.3s1.16,3.18,1.78,4.97h-4.01ZM292.91,403.46c-.08.24-.21.57-.37.99-.16.42-.34.9-.55,1.44-.21.54-.44,1.14-.69,1.8s-.51,1.34-.77,2.06h4.76c-.25-.72-.5-1.41-.74-2.07-.24-.66-.47-1.26-.68-1.8-.22-.54-.4-1.03-.57-1.44-.16-.42-.29-.74-.39-.98Z"/></g><g id="Layer_6"><path id="path32" class="cls-4" d="M973.58,618.56v-2.5l-.63.49-.42-.57,1.12-.82h.74v3.41h-.8"/><path id="path34" class="cls-4" d="M976.88,616.85c0-.11,0-.22-.02-.35-.01-.13-.04-.25-.07-.36-.04-.11-.09-.2-.15-.28-.07-.08-.15-.11-.26-.11s-.19.04-.26.11c-.07.08-.12.17-.16.28-.04.11-.06.23-.07.36-.01.13-.02.25-.02.35s0,.23.02.36c.01.13.04.25.07.36.04.11.09.2.16.28.07.08.15.11.26.11s.19-.04.26-.11c.07-.08.12-.17.15-.28.04-.11.06-.23.07-.36.01-.13.02-.25.02-.36ZM977.71,616.85c0,.24-.02.47-.07.69-.05.22-.12.41-.23.57-.11.17-.24.3-.41.39-.17.1-.37.15-.61.15s-.45-.05-.62-.15c-.17-.1-.31-.23-.42-.39-.11-.16-.19-.36-.23-.57-.05-.22-.07-.45-.07-.69s.02-.47.07-.69c.05-.22.13-.41.23-.57.11-.16.25-.29.42-.39.17-.1.38-.14.62-.14s.45.05.61.14c.17.1.3.23.41.39.11.16.18.35.23.57.05.22.07.44.07.69"/><path id="path36" class="cls-4" d="M982.22,618.56v-2.5l-.63.49-.42-.57,1.12-.82h.74v3.41h-.8"/><path id="path38" class="cls-4" d="M985.52,616.85c0-.11,0-.22-.02-.35-.01-.13-.04-.25-.07-.36-.04-.11-.09-.2-.15-.28-.07-.08-.15-.11-.26-.11s-.19.04-.26.11c-.07.08-.12.17-.16.28-.04.11-.06.23-.07.36-.01.13-.02.25-.02.35s0,.23.02.36c.01.13.04.25.07.36.04.11.09.2.16.28.07.08.15.11.26.11s.19-.04.26-.11c.07-.08.12-.17.15-.28.04-.11.06-.23.07-.36.01-.13.02-.25.02-.36ZM986.35,616.85c0,.24-.02.47-.07.69-.05.22-.12.41-.23.57-.11.17-.24.3-.41.39-.17.1-.37.15-.61.15s-.45-.05-.62-.15c-.17-.1-.31-.23-.42-.39-.11-.16-.19-.36-.23-.57-.05-.22-.07-.45-.07-.69s.02-.47.07-.69c.05-.22.13-.41.23-.57s.25-.29.42-.39c.17-.1.38-.14.62-.14s.45.05.61.14c.17.1.3.23.41.39.11.16.18.35.23.57.05.22.07.44.07.69"/><path id="path40" class="cls-4" d="M973.5,623.92v-2.5l-.64.49-.42-.57,1.12-.82h.74v3.41h-.8"/><path id="path42" class="cls-4" d="M976.34,623.92v-2.5l-.64.49-.42-.57,1.12-.82h.74v3.41h-.8"/><path id="path44" class="cls-4" d="M979.16,623.92v-2.5l-.64.49-.42-.57,1.12-.82h.74v3.41h-.8"/><path id="path46" class="cls-4" d="M982.6,622.21c0-.11,0-.22-.02-.35-.01-.13-.04-.25-.07-.36-.04-.11-.09-.2-.15-.28-.07-.08-.15-.11-.26-.11s-.19.04-.26.11c-.07.08-.12.17-.16.28-.04.11-.06.23-.07.36-.01.13-.02.25-.02.35s0,.23.02.36c.01.13.04.25.07.36.04.11.09.2.16.28.07.08.15.11.26.11s.19-.04.26-.11c.07-.08.12-.17.15-.28.03-.11.06-.23.07-.36.01-.13.02-.25.02-.36ZM983.43,622.21c0,.24-.02.47-.07.69-.05.22-.13.41-.23.58-.11.16-.24.3-.41.39-.17.1-.37.15-.61.15s-.45-.05-.62-.15c-.17-.1-.31-.23-.42-.39-.11-.17-.19-.36-.23-.58-.05-.22-.07-.45-.07-.69s.02-.47.07-.69c.05-.22.13-.41.23-.57.11-.16.25-.29.42-.39.17-.1.38-.14.62-.14s.44.05.61.14c.17.1.31.23.41.39.11.16.18.35.23.57.05.22.07.45.07.69"/><path id="path48" class="cls-4" d="M975.13,627.74v-1.82l-.46.36-.3-.41.81-.6h.53v2.47h-.58"/><path id="path50" class="cls-4" d="M979.22,627.74v-1.82l-.46.36-.3-.41.81-.6h.54v2.47h-.58"/><path id="path52" class="cls-4" d="M973.5,626.5c0-.08,0-.16-.01-.26,0-.09-.03-.18-.05-.26-.03-.08-.06-.15-.11-.2-.05-.05-.11-.08-.19-.08s-.14.03-.19.08c-.05.05-.09.12-.11.2-.03.08-.04.17-.05.26,0,.09-.01.18-.01.26s0,.17.01.26c0,.09.03.18.05.26.03.08.06.15.11.2.05.05.11.08.19.08s.14-.03.19-.08c.05-.05.08-.12.11-.2.03-.08.04-.17.05-.26,0-.09.01-.18.01-.26ZM974.1,626.5c0,.17-.02.34-.05.5-.03.16-.09.3-.17.42-.08.12-.18.22-.3.29-.12.07-.27.11-.45.11s-.32-.04-.45-.11c-.12-.07-.22-.17-.3-.29-.08-.12-.13-.26-.17-.42-.04-.16-.05-.32-.05-.5s.02-.34.05-.5c.03-.16.09-.29.17-.41.08-.12.18-.21.3-.28.12-.07.27-.1.45-.1s.32.04.45.1c.12.07.22.16.3.28.08.12.13.26.17.41.03.16.05.32.05.5"/><path id="path54" class="cls-4" d="M977.61,626.5c0-.08,0-.16-.01-.26,0-.09-.03-.18-.05-.26-.03-.08-.06-.15-.11-.2-.05-.05-.11-.08-.19-.08s-.14.03-.19.08c-.05.05-.09.12-.11.2-.03.08-.05.17-.05.26,0,.09-.01.18-.01.26s0,.17.01.26c0,.09.03.18.05.26.03.08.06.15.11.2.05.05.11.08.19.08s.14-.03.19-.08c.05-.05.08-.12.11-.2.03-.08.04-.17.05-.26,0-.09.01-.18.01-.26ZM978.21,626.5c0,.17-.02.34-.05.5-.04.16-.09.3-.17.42-.08.12-.18.22-.3.29-.12.07-.27.11-.45.11s-.32-.04-.45-.11c-.12-.07-.22-.17-.3-.29-.08-.12-.13-.26-.17-.42-.04-.16-.05-.32-.05-.5s.02-.34.05-.5c.03-.16.09-.29.17-.41.08-.12.18-.21.3-.28.12-.07.27-.1.45-.1s.32.04.45.1c.12.07.22.16.3.28.08.12.13.26.17.41.03.16.05.32.05.5"/><path id="path56" class="cls-4" d="M986.03,627.74v-1.82l-.46.36-.3-.41.81-.6h.53v2.47h-.58"/><path id="path58" class="cls-4" d="M984.42,626.5c0-.08,0-.16-.01-.26,0-.09-.03-.18-.05-.26-.03-.08-.06-.15-.11-.2-.05-.05-.11-.08-.19-.08s-.14.03-.19.08c-.05.05-.09.12-.11.2-.03.08-.04.17-.05.26,0,.09-.01.18-.01.26s0,.17.01.26c0,.09.03.18.05.26.03.08.07.15.11.2.05.05.11.08.19.08s.14-.03.19-.08c.05-.05.08-.12.11-.2.03-.08.04-.17.05-.26,0-.09.01-.18.01-.26ZM985.02,626.5c0,.17-.02.34-.05.5-.04.16-.09.3-.17.42-.08.12-.18.22-.3.29-.12.07-.27.11-.45.11s-.32-.04-.45-.11c-.12-.07-.22-.17-.3-.29-.08-.12-.13-.26-.17-.42-.04-.16-.05-.32-.05-.5s.02-.34.05-.5c.03-.16.09-.29.17-.41.08-.12.18-.21.3-.28.12-.07.27-.1.45-.1s.32.04.45.1c.12.07.22.16.3.28.08.12.13.26.17.41.03.16.05.32.05.5"/><path id="path60" class="cls-4" d="M983.79,630.65v-1.82l-.46.36-.3-.42.81-.6h.53v2.47h-.58"/><path id="path62" class="cls-4" d="M982.17,629.41c0-.08,0-.16-.01-.26,0-.09-.03-.18-.05-.26-.03-.08-.06-.15-.11-.2-.05-.05-.11-.08-.19-.08s-.14.03-.19.08c-.05.05-.09.12-.11.2-.03.08-.04.17-.05.26,0,.09-.01.18-.01.26s0,.17.01.26c0,.09.03.18.05.26.03.08.06.15.11.2.05.05.11.08.19.08s.14-.03.19-.08c.05-.05.08-.12.11-.2.03-.08.04-.17.05-.26,0-.09.01-.18.01-.26ZM982.77,629.41c0,.17-.02.34-.05.5-.03.16-.09.3-.17.42-.08.12-.18.22-.3.29-.12.07-.27.11-.45.11s-.32-.04-.45-.11c-.12-.07-.22-.17-.3-.29-.08-.12-.13-.26-.17-.42-.03-.16-.05-.32-.05-.5s.02-.34.05-.5c.03-.16.09-.3.17-.41.08-.12.18-.21.3-.28.12-.07.27-.1.45-.1s.32.04.45.1c.12.07.22.16.3.28.08.12.13.26.17.41.03.16.05.32.05.5"/><path id="path64" class="cls-4" d="M974.32,630.62v-1.26l-.32.25-.21-.29.56-.41h.37v1.71h-.4"/><path id="path66" class="cls-4" d="M973.2,629.76c0-.05,0-.11,0-.18,0-.06-.02-.12-.04-.18-.02-.06-.04-.1-.08-.14-.03-.04-.08-.06-.13-.06s-.1.02-.13.06c-.03.04-.06.08-.08.14-.02.06-.03.12-.04.18,0,.07,0,.12,0,.18s0,.11,0,.18c0,.07.02.13.04.18.02.06.04.1.08.14.03.04.08.06.13.06s.1-.02.13-.06c.03-.04.06-.08.08-.14.02-.06.03-.12.04-.18,0-.07,0-.13,0-.18ZM973.62,629.76c0,.12-.01.24-.04.35-.02.11-.06.21-.12.29-.05.08-.12.15-.21.2-.08.05-.19.07-.31.07s-.22-.03-.31-.07c-.09-.05-.16-.11-.21-.2-.05-.08-.09-.18-.12-.29-.02-.11-.04-.23-.04-.35s.01-.24.04-.34c.02-.11.06-.2.12-.29.05-.08.12-.15.21-.19.09-.05.19-.07.31-.07s.22.02.31.07c.09.05.15.11.21.19.05.08.09.18.12.29.02.11.04.22.04.34"/><path id="path68" class="cls-4" d="M979.35,632.82v-1.26l-.32.25-.21-.29.56-.41h.37v1.71h-.4"/><path id="path70" class="cls-4" d="M978.23,631.96c0-.05,0-.11-.01-.18,0-.06-.02-.12-.04-.18s-.04-.1-.08-.14c-.03-.04-.08-.06-.13-.06s-.1.02-.13.06c-.03.04-.06.08-.08.14-.02.06-.03.12-.04.18,0,.06-.01.12-.01.18s0,.11.01.18c0,.07.02.13.04.18.02.06.04.1.08.14.03.04.08.06.13.06s.1-.02.13-.06c.03-.04.06-.08.08-.14.02-.06.03-.12.04-.18,0-.06.01-.12.01-.18ZM978.65,631.96c0,.12-.01.24-.04.35-.02.11-.06.21-.12.29-.05.08-.12.15-.21.2-.08.05-.19.07-.31.07s-.22-.02-.31-.07c-.09-.05-.16-.12-.21-.2-.05-.08-.09-.18-.12-.29-.02-.11-.04-.23-.04-.35s.01-.24.04-.34c.02-.11.06-.2.12-.29.05-.08.12-.15.21-.2.09-.05.19-.07.31-.07s.22.02.31.07c.09.05.15.11.21.2.05.08.09.18.12.29.02.11.04.22.04.34"/><path id="path72" class="cls-4" d="M986.26,629.41c0-.08,0-.16-.01-.26,0-.09-.03-.18-.05-.26-.03-.08-.06-.15-.11-.2-.05-.05-.11-.08-.19-.08s-.14.03-.19.08c-.05.05-.09.12-.11.2-.03.08-.04.17-.05.26,0,.09-.01.18-.01.26s0,.17.01.26c0,.09.03.18.05.26.03.08.06.15.11.2.05.05.11.08.19.08s.14-.03.19-.08c.05-.05.08-.12.11-.2.03-.08.04-.17.05-.26,0-.09.01-.18.01-.26ZM986.86,629.41c0,.17-.02.34-.05.5-.03.16-.09.3-.17.42-.08.12-.18.22-.3.29-.12.07-.27.11-.45.11s-.32-.04-.45-.11c-.12-.07-.22-.17-.3-.29-.08-.12-.13-.26-.17-.42-.03-.16-.05-.32-.05-.5s.02-.34.05-.5c.03-.16.09-.3.17-.41.08-.12.18-.21.3-.28.12-.07.27-.1.45-.1s.32.04.45.1c.12.07.22.16.3.28.08.12.13.26.17.41.03.16.05.32.05.5"/><path id="path74" class="cls-4" d="M985.13,612.71c-.57-2.79-3.05-4.81-5.9-4.81-.43,0-.86.05-1.28.14-.69-4.06-4.24-7.16-8.49-7.16s-7.73,3.05-8.47,7.05c-3.06.28-5.47,2.86-5.47,6,0,3.32,2.7,6.02,6.02,6.02h9.01c.46,0,.83-.37.83-.83s-.37-.83-.83-.83h-9.01c-2.4,0-4.36-1.95-4.36-4.36s1.95-4.36,4.36-4.36c.87,0,1.72.26,2.44.74.38.26.9.16,1.16-.22.26-.38.16-.9-.22-1.16-.68-.46-1.44-.77-2.24-.92.68-3.12,3.47-5.47,6.79-5.47,3.54,0,6.47,2.66,6.9,6.09-.22.12-.44.25-.65.41-.37.27-.46.79-.19,1.16.27.37.79.46,1.16.19.74-.54,1.63-.82,2.55-.82,2.06,0,3.86,1.46,4.27,3.48.08.39.43.67.82.67.05,0,.11,0,.17-.02.45-.09.74-.53.65-.98"/></g></svg>