<?xml version="1.0" encoding="UTF-8"?><svg xmlns="http://www.w3.org/2000/svg" xmlns:xlink="http://www.w3.org/1999/xlink" viewBox="0 0 901.47 645.96"><defs><style>.cls-1{fill:url(#linear-gradient-12);}.cls-1,.cls-2,.cls-3,.cls-4,.cls-5,.cls-6,.cls-7,.cls-8,.cls-9,.cls-10,.cls-11,.cls-12,.cls-13,.cls-14,.cls-15,.cls-16,.cls-17,.cls-18,.cls-19,.cls-20,.cls-21,.cls-22,.cls-23,.cls-24,.cls-25,.cls-26,.cls-27,.cls-28,.cls-29,.cls-30,.cls-31,.cls-32,.cls-33,.cls-34{stroke-width:0px;}.cls-2{fill:url(#linear-gradient-17);}.cls-3{fill:url(#linear-gradient-19);}.cls-4{fill:url(#linear-gradient);}.cls-5{fill:url(#linear-gradient-21);}.cls-6{fill:#223654;}.cls-7{fill:url(#linear-gradient-6);}.cls-9{fill:url(#linear-gradient-15);}.cls-10{fill:url(#linear-gradient-11);}.cls-11{fill:url(#linear-gradient-5);}.cls-12{fill:none;}.cls-13{fill:url(#linear-gradient-13);}.cls-14{fill:url(#linear-gradient-23);}.cls-15{fill:url(#linear-gradient-25);}.cls-16{fill:url(#linear-gradient-16);}.cls-17{fill:url(#linear-gradient-22);}.cls-18{fill:#fff;}.cls-19{fill:url(#linear-gradient-20);}.cls-20{fill:url(#linear-gradient-14);}.cls-21{fill:url(#linear-gradient-2);}.cls-22{fill:url(#linear-gradient-7);}.cls-23{fill:url(#radial-gradient-2);}.cls-24{fill:url(#linear-gradient-3);}.cls-25{fill:url(#linear-gradient-9);}.cls-26{fill:url(#radial-gradient);}.cls-27{fill:#eb0037;}.cls-28{fill:url(#linear-gradient-8);}.cls-29{fill:url(#linear-gradient-24);}.cls-30{fill:url(#linear-gradient-26);}.cls-31{fill:url(#linear-gradient-18);}.cls-32{fill:url(#linear-gradient-10);}.cls-33{fill:url(#linear-gradient-4);}.cls-34{fill:#ecbb0a;}</style><linearGradient id="linear-gradient" x1="-300.73" y1="83.85" x2="104.84" y2="83.85" gradientTransform="translate(333.23 179.16) rotate(90)" gradientUnits="userSpaceOnUse"><stop offset=".48" stop-color="#223654"/><stop offset=".52" stop-color="#38554c"/><stop offset=".59" stop-color="#5e8940"/><stop offset=".66" stop-color="#7bb336"/><stop offset=".72" stop-color="#91d12f"/><stop offset=".77" stop-color="#9ee32b"/><stop offset=".81" stop-color="#a3ea2a"/></linearGradient><linearGradient id="linear-gradient-2" x1="249.39" y1="356.87" x2="249.39" y2="550.92" gradientUnits="userSpaceOnUse"><stop offset=".48" stop-color="#223654"/><stop offset=".53" stop-color="#38554c"/><stop offset=".63" stop-color="#5e8940"/><stop offset=".71" stop-color="#7bb336"/><stop offset=".79" stop-color="#91d12f"/><stop offset=".86" stop-color="#9ee32b"/><stop offset=".91" stop-color="#a3ea2a"/></linearGradient><linearGradient id="linear-gradient-3" x1="848.71" y1="434.84" x2="865.16" y2="458.26" gradientUnits="userSpaceOnUse"><stop offset=".28" stop-color="#a3ea2a"/><stop offset=".38" stop-color="#9ce729"/><stop offset=".54" stop-color="#88e126"/><stop offset=".72" stop-color="#69d723"/><stop offset=".93" stop-color="#3ec91e"/><stop offset=".94" stop-color="#3bc81e"/></linearGradient><linearGradient id="linear-gradient-4" x1="689.09" y1="507.45" x2="696.62" y2="538.68" xlink:href="#linear-gradient-3"/><linearGradient id="linear-gradient-5" x1="721.83" y1="583.78" x2="756.06" y2="599.85" gradientUnits="userSpaceOnUse"><stop offset=".2" stop-color="#eb0037"/><stop offset=".27" stop-color="#e40137"/><stop offset=".38" stop-color="#d0073a"/><stop offset=".52" stop-color="#b10f3f"/><stop offset=".67" stop-color="#851b45"/><stop offset=".83" stop-color="#4e2a4d"/><stop offset=".94" stop-color="#223654"/></linearGradient><linearGradient id="linear-gradient-6" x1="703.77" y1="483.12" x2="728.45" y2="446.56" gradientUnits="userSpaceOnUse"><stop offset=".28" stop-color="#eb0037"/><stop offset=".35" stop-color="#e40137"/><stop offset=".45" stop-color="#d0073a"/><stop offset=".56" stop-color="#b10f3f"/><stop offset=".7" stop-color="#851b45"/><stop offset=".84" stop-color="#4e2a4d"/><stop offset=".94" stop-color="#223654"/></linearGradient><linearGradient id="linear-gradient-7" x1="768.61" y1="417.65" x2="796.05" y2="417.65" xlink:href="#linear-gradient-5"/><linearGradient id="linear-gradient-8" x1="849.46" y1="576.05" x2="821.58" y2="590" xlink:href="#linear-gradient-3"/><linearGradient id="linear-gradient-9" x1="866.35" y1="552.29" x2="877.06" y2="521.79" xlink:href="#linear-gradient-5"/><linearGradient id="linear-gradient-10" x1="815.21" y1="534.33" x2="825.92" y2="503.83" xlink:href="#linear-gradient-5"/><linearGradient id="linear-gradient-11" x1="744.99" y1="493.98" x2="752.52" y2="525.21" xlink:href="#linear-gradient-3"/><linearGradient id="linear-gradient-12" x1="742.69" y1="509.4" x2="767.37" y2="472.84" xlink:href="#linear-gradient-6"/><linearGradient id="linear-gradient-13" x1="826.63" y1="530.39" x2="798.74" y2="544.33" xlink:href="#linear-gradient-3"/><linearGradient id="linear-gradient-14" x1="768.61" y1="473.23" x2="796.05" y2="473.23" xlink:href="#linear-gradient-6"/><linearGradient id="linear-gradient-15" x1="801.33" y1="468.12" x2="817.78" y2="491.54" gradientUnits="userSpaceOnUse"><stop offset=".29" stop-color="#a3ea2a"/><stop offset=".39" stop-color="#9ce729"/><stop offset=".55" stop-color="#88e126"/><stop offset=".73" stop-color="#69d723"/><stop offset=".93" stop-color="#3ec91e"/><stop offset=".94" stop-color="#3bc81e"/></linearGradient><linearGradient id="linear-gradient-16" x1="746.5" y1="531.21" x2="780.73" y2="547.28" xlink:href="#linear-gradient-5"/><radialGradient id="radial-gradient" cx="905.97" cy="466.53" fx="905.97" fy="466.53" r="41.18" gradientTransform="translate(-94.37 -116.61) rotate(9.51)" gradientUnits="userSpaceOnUse"><stop offset=".59" stop-color="#fff"/><stop offset=".63" stop-color="#f5f5f6"/><stop offset=".69" stop-color="#dbdde0"/><stop offset=".77" stop-color="#b2b5bc"/><stop offset=".86" stop-color="#797f8b"/><stop offset=".92" stop-color="#525a6a"/></radialGradient><radialGradient id="radial-gradient-2" cx="933.6" cy="459.28" fx="933.6" fy="459.28" r="47.31" gradientTransform="translate(-94.88 -119.32) rotate(9.51)" gradientUnits="userSpaceOnUse"><stop offset=".67" stop-color="#fff"/><stop offset=".7" stop-color="#f8f8f9"/><stop offset=".75" stop-color="#e4e6e8"/><stop offset=".8" stop-color="#c5c8cd"/><stop offset=".86" stop-color="#999ea7"/><stop offset=".92" stop-color="#626978"/><stop offset=".94" stop-color="#525a6a"/></radialGradient><linearGradient id="linear-gradient-17" x1="713.24" y1="580.36" x2="691.69" y2="556.07" gradientUnits="userSpaceOnUse"><stop offset=".17" stop-color="#9b7e23"/><stop offset=".2" stop-color="#a38420"/><stop offset=".3" stop-color="#c39c16"/><stop offset=".4" stop-color="#d9ad0f"/><stop offset=".49" stop-color="#e7b70b"/><stop offset=".57" stop-color="#ecbb0a"/></linearGradient><linearGradient id="linear-gradient-18" x1="666.09" y1="555.84" x2="673.98" y2="542.47" gradientUnits="userSpaceOnUse"><stop offset=".17" stop-color="#9b7e23"/><stop offset=".52" stop-color="#d4a911"/><stop offset=".69" stop-color="#ecbb0a"/></linearGradient><linearGradient id="linear-gradient-19" x1="675.22" y1="579.67" x2="667.23" y2="573.3" gradientUnits="userSpaceOnUse"><stop offset="0" stop-color="#9b7e23"/><stop offset=".46" stop-color="#d4a911"/><stop offset=".69" stop-color="#ecbb0a"/></linearGradient><linearGradient id="linear-gradient-20" x1="686.67" y1="588.61" x2="674.12" y2="581.79" xlink:href="#linear-gradient-19"/><linearGradient id="linear-gradient-21" x1="695.35" y1="588.95" x2="685.03" y2="581.77" xlink:href="#linear-gradient-19"/><linearGradient id="linear-gradient-22" x1="856.25" y1="578.87" x2="830.8" y2="566.76" xlink:href="#linear-gradient-17"/><linearGradient id="linear-gradient-23" x1="836.65" y1="554.67" x2="829.55" y2="546.84" xlink:href="#linear-gradient-17"/><linearGradient id="linear-gradient-24" x1="844.19" y1="573.29" x2="825.72" y2="569.13" xlink:href="#linear-gradient-17"/><linearGradient id="linear-gradient-25" x1="836.41" y1="568.48" x2="827.73" y2="559.06" xlink:href="#linear-gradient-17"/><linearGradient id="linear-gradient-26" x1="867.3" y1="576.71" x2="845.75" y2="552.42" xlink:href="#linear-gradient-17"/></defs><g id="Layer_1"><path class="cls-6" d="M739.01,333.95h-317.19c-6.6,0-12,5.4-12,12v65.15c0,6.6,5.4,12,12,12h177.6c4.6,11.81,26.24,58.53,80.77,58.53,0,0-50.48-24.22-20.17-58.53h78.99c6.6,0,12-5.4,12-12v-65.15c0-6.6-5.4-12-12-12Z"/><path class="cls-18" d="M439.56,357.33v2.93h-4.6v12.32h-3.43v-12.32h-4.6v-2.93h12.63Z"/><path class="cls-18" d="M441.54,372.58v-16.54l3.28-.53v5.54c.22-.07.5-.14.85-.21.34-.07.68-.1,1-.1.94,0,1.72.13,2.34.38.62.26,1.12.62,1.5,1.09.37.47.64,1.03.79,1.67s.23,1.36.23,2.16v6.53h-3.28v-6.14c0-1.06-.14-1.8-.41-2.24-.27-.44-.77-.66-1.51-.66-.29,0-.57.03-.83.08-.26.05-.49.11-.69.17v8.8h-3.28Z"/><path class="cls-18" d="M453.95,366.88c0-1.03.16-1.92.47-2.69.32-.77.73-1.41,1.24-1.92.51-.51,1.1-.9,1.77-1.17.67-.26,1.35-.4,2.06-.4,1.64,0,2.94.5,3.89,1.51.95,1,1.43,2.48,1.43,4.43,0,.19,0,.4-.02.63s-.03.43-.04.6h-7.44c.07.67.39,1.21.95,1.61.56.4,1.31.59,2.24.59.6,0,1.19-.05,1.77-.17.58-.11,1.05-.25,1.42-.41l.44,2.66c-.18.09-.41.18-.7.26-.29.09-.62.17-.98.23-.36.07-.75.12-1.16.17-.41.04-.82.07-1.23.07-1.04,0-1.95-.15-2.72-.46-.77-.31-1.41-.73-1.91-1.27-.51-.54-.88-1.17-1.12-1.9-.24-.73-.36-1.53-.36-2.38ZM461.65,365.63c-.02-.28-.06-.55-.14-.81-.08-.26-.21-.5-.37-.7s-.38-.37-.64-.51c-.26-.13-.58-.2-.96-.2s-.68.06-.95.19c-.26.12-.48.29-.66.49-.18.21-.31.44-.41.72-.1.27-.17.55-.21.82h4.33Z"/><path class="cls-18" d="M475.95,370.22c.6,0,1.03-.06,1.28-.18.25-.12.37-.34.37-.68,0-.26-.16-.5-.48-.69-.32-.2-.81-.42-1.47-.67-.51-.19-.98-.39-1.4-.59-.42-.21-.77-.45-1.07-.74-.29-.29-.52-.63-.68-1.02-.16-.4-.24-.87-.24-1.43,0-1.09.4-1.94,1.21-2.57s1.91-.95,3.32-.95c.7,0,1.38.06,2.02.19.65.12,1.16.26,1.54.41l-.57,2.55c-.38-.13-.8-.25-1.24-.35-.45-.1-.95-.15-1.51-.15-1.03,0-1.54.29-1.54.86,0,.13.02.25.07.35s.13.2.26.3c.13.1.31.2.54.31.23.11.52.23.87.37.72.27,1.31.53,1.78.79.47.26.84.54,1.11.84.27.3.46.63.57,1,.11.37.17.79.17,1.27,0,1.14-.43,2-1.29,2.59-.86.58-2.07.88-3.64.88-1.03,0-1.88-.09-2.56-.26-.68-.18-1.16-.32-1.42-.44l.55-2.66c.56.22,1.13.39,1.72.52.59.12,1.17.19,1.74.19Z"/><path class="cls-18" d="M494.12,366.77c0,.91-.13,1.74-.4,2.5-.26.75-.65,1.4-1.14,1.94-.5.54-1.1.95-1.79,1.24-.7.29-1.48.44-2.34.44s-1.62-.15-2.32-.44c-.7-.29-1.29-.71-1.79-1.24-.5-.54-.89-1.18-1.17-1.94-.28-.76-.42-1.59-.42-2.5s.14-1.74.43-2.49.68-1.39,1.19-1.91c.51-.53,1.11-.94,1.8-1.23.7-.29,1.46-.44,2.28-.44s1.6.15,2.3.44c.7.29,1.29.7,1.79,1.23.5.53.89,1.17,1.17,1.91.28.75.42,1.58.42,2.49ZM490.78,366.77c0-1.01-.2-1.81-.6-2.39-.4-.58-.98-.87-1.73-.87s-1.33.29-1.74.87c-.41.58-.62,1.38-.62,2.39s.21,1.81.62,2.41c.41.59.99.89,1.74.89s1.32-.3,1.73-.89c.4-.59.6-1.4.6-2.41Z"/><path class="cls-18" d="M506.53,372.18c-.56.16-1.28.31-2.16.45-.88.14-1.8.21-2.77.21s-1.8-.13-2.45-.4c-.65-.26-1.17-.63-1.55-1.11-.38-.48-.65-1.04-.81-1.71-.16-.66-.24-1.39-.24-2.18v-6.45h3.28v6.05c0,1.06.14,1.82.42,2.29.28.47.8.7,1.56.7.23,0,.48-.01.75-.03.26-.02.5-.05.7-.08v-8.93h3.28v11.18Z"/><path class="cls-18" d="M516.58,363.91c-.29-.07-.64-.15-1.03-.23-.4-.08-.82-.12-1.28-.12-.21,0-.45.02-.74.05-.29.04-.5.08-.65.12v8.84h-3.28v-10.96c.59-.21,1.28-.4,2.08-.58.8-.18,1.69-.27,2.67-.27.18,0,.39.01.64.03.25.02.5.05.75.09.25.04.5.08.75.13s.46.11.64.19l-.55,2.71Z"/><path class="cls-18" d="M518.12,366.79c0-.84.13-1.62.41-2.36.27-.74.66-1.39,1.18-1.94.51-.55,1.14-.99,1.87-1.31.73-.32,1.57-.48,2.51-.48.62,0,1.18.05,1.69.17.51.11,1.01.27,1.5.47l-.68,2.62c-.31-.12-.65-.22-1.01-.31-.37-.09-.78-.13-1.23-.13-.97,0-1.69.3-2.17.9-.48.6-.71,1.39-.71,2.38,0,1.04.22,1.85.67,2.42.45.57,1.23.86,2.34.86.4,0,.82-.04,1.28-.11.45-.07.87-.19,1.25-.35l.46,2.68c-.38.16-.86.3-1.43.42s-1.2.18-1.89.18c-1.06,0-1.96-.16-2.73-.47-.76-.31-1.39-.74-1.88-1.29-.49-.54-.85-1.18-1.08-1.92-.23-.74-.34-1.54-.34-2.41Z"/><path class="cls-18" d="M528.57,366.88c0-1.03.16-1.92.47-2.69.32-.77.73-1.41,1.24-1.92.51-.51,1.1-.9,1.77-1.17.67-.26,1.35-.4,2.06-.4,1.64,0,2.94.5,3.89,1.51.95,1,1.43,2.48,1.43,4.43,0,.19,0,.4-.02.63s-.03.43-.04.6h-7.44c.07.67.39,1.21.95,1.61.56.4,1.31.59,2.24.59.6,0,1.19-.05,1.77-.17.58-.11,1.05-.25,1.42-.41l.44,2.66c-.18.09-.41.18-.7.26-.29.09-.62.17-.98.23-.36.07-.75.12-1.16.17-.41.04-.82.07-1.23.07-1.04,0-1.95-.15-2.72-.46-.77-.31-1.41-.73-1.91-1.27-.51-.54-.88-1.17-1.12-1.9-.24-.73-.36-1.53-.36-2.38ZM536.27,365.63c-.02-.28-.06-.55-.14-.81-.08-.26-.21-.5-.37-.7s-.38-.37-.64-.51c-.26-.13-.58-.2-.96-.2s-.68.06-.95.19c-.26.12-.48.29-.66.49-.18.21-.31.44-.41.72-.1.27-.17.55-.21.82h4.33Z"/><path class="cls-18" d="M558.07,366.77c0,.91-.13,1.74-.4,2.5-.26.75-.65,1.4-1.14,1.94-.5.54-1.1.95-1.79,1.24-.7.29-1.48.44-2.34.44s-1.62-.15-2.32-.44c-.7-.29-1.29-.71-1.79-1.24-.5-.54-.89-1.18-1.17-1.94-.28-.76-.42-1.59-.42-2.5s.14-1.74.43-2.49.68-1.39,1.19-1.91c.51-.53,1.11-.94,1.8-1.23.7-.29,1.46-.44,2.28-.44s1.6.15,2.3.44c.7.29,1.29.7,1.79,1.23.5.53.89,1.17,1.17,1.91.28.75.42,1.58.42,2.49ZM554.73,366.77c0-1.01-.2-1.81-.6-2.39-.4-.58-.98-.87-1.73-.87s-1.33.29-1.74.87c-.41.58-.62,1.38-.62,2.39s.21,1.81.62,2.41c.41.59.99.89,1.74.89s1.32-.3,1.73-.89c.4-.59.6-1.4.6-2.41Z"/><path class="cls-18" d="M565.62,355.51c.62,0,1.18.06,1.69.19.51.12.91.25,1.19.36l-.64,2.62c-.29-.13-.61-.23-.96-.3-.34-.07-.66-.1-.96-.1-.4,0-.73.05-1,.17s-.48.26-.64.45-.26.42-.33.68c-.07.26-.1.55-.1.86v.57h4.05v2.73h-4.05v8.84h-3.28v-12.19c0-1.5.42-2.68,1.26-3.56.84-.88,2.09-1.32,3.75-1.32Z"/><path class="cls-18" d="M575.06,358.12l3.28-.53v3.41h3.94v2.73h-3.94v4.07c0,.69.12,1.24.36,1.65.24.41.73.62,1.46.62.35,0,.71-.03,1.09-.1.37-.07.71-.16,1.02-.28l.46,2.55c-.4.16-.84.3-1.32.42s-1.08.18-1.78.18c-.89,0-1.64-.12-2.22-.36-.59-.24-1.06-.58-1.41-1.01s-.6-.96-.74-1.57-.21-1.3-.21-2.05v-9.72Z"/><path class="cls-18" d="M584.93,372.58v-16.54l3.28-.53v5.54c.22-.07.5-.14.85-.21.34-.07.68-.1,1-.1.94,0,1.72.13,2.34.38.62.26,1.12.62,1.5,1.09.37.47.64,1.03.79,1.67s.23,1.36.23,2.16v6.53h-3.28v-6.14c0-1.06-.14-1.8-.41-2.24-.27-.44-.77-.66-1.51-.66-.29,0-.57.03-.83.08-.26.05-.49.11-.69.17v8.8h-3.28Z"/><path class="cls-18" d="M597.34,366.88c0-1.03.16-1.92.47-2.69.32-.77.73-1.41,1.24-1.92.51-.51,1.1-.9,1.77-1.17.67-.26,1.35-.4,2.06-.4,1.64,0,2.94.5,3.89,1.51.95,1,1.43,2.48,1.43,4.43,0,.19,0,.4-.02.63s-.03.43-.04.6h-7.44c.07.67.39,1.21.95,1.61.56.4,1.31.59,2.24.59.6,0,1.19-.05,1.77-.17.58-.11,1.05-.25,1.42-.41l.44,2.66c-.18.09-.41.18-.7.26-.29.09-.62.17-.98.23-.36.07-.75.12-1.16.17-.41.04-.82.07-1.23.07-1.04,0-1.95-.15-2.72-.46-.77-.31-1.41-.73-1.91-1.27-.51-.54-.88-1.17-1.12-1.9-.24-.73-.36-1.53-.36-2.38ZM605.04,365.63c-.02-.28-.06-.55-.14-.81-.08-.26-.21-.5-.37-.7s-.38-.37-.64-.51c-.26-.13-.58-.2-.96-.2s-.68.06-.95.19c-.26.12-.48.29-.66.49-.18.21-.31.44-.41.72-.1.27-.17.55-.21.82h4.33Z"/><path class="cls-18" d="M615.91,358.12l3.28-.53v3.41h3.94v2.73h-3.94v4.07c0,.69.12,1.24.36,1.65.24.41.73.62,1.46.62.35,0,.71-.03,1.09-.1.37-.07.71-.16,1.02-.28l.46,2.55c-.4.16-.84.3-1.32.42s-1.08.18-1.78.18c-.89,0-1.64-.12-2.22-.36-.59-.24-1.06-.58-1.41-1.01s-.6-.96-.74-1.57-.21-1.3-.21-2.05v-9.72Z"/><path class="cls-18" d="M632.76,363.91c-.29-.07-.64-.15-1.03-.23-.4-.08-.82-.12-1.28-.12-.21,0-.45.02-.74.05-.29.04-.5.08-.65.12v8.84h-3.28v-10.96c.59-.21,1.28-.4,2.08-.58.8-.18,1.69-.27,2.67-.27.18,0,.39.01.64.03.25.02.5.05.75.09.25.04.5.08.75.13s.46.11.64.19l-.55,2.71Z"/><path class="cls-18" d="M639.01,360.7c.97,0,1.77.11,2.42.33s1.16.54,1.55.95c.39.41.66.91.83,1.5.16.59.24,1.24.24,1.96v6.82c-.47.1-1.12.22-1.96.36s-1.85.21-3.04.21c-.75,0-1.43-.07-2.04-.2s-1.13-.35-1.57-.65c-.44-.3-.78-.69-1.01-1.18-.23-.48-.35-1.08-.35-1.78s.14-1.25.41-1.72c.27-.47.63-.84,1.09-1.12.46-.28.98-.48,1.56-.61.59-.12,1.2-.19,1.83-.19.42,0,.8.02,1.13.05.33.04.6.08.8.14v-.31c0-.56-.17-1-.51-1.34s-.92-.51-1.76-.51c-.56,0-1.11.04-1.65.12-.54.08-1.01.19-1.41.34l-.42-2.64c.19-.06.43-.12.72-.19.29-.07.6-.12.93-.18.34-.05.69-.1,1.07-.13.37-.04.75-.05,1.13-.05ZM639.27,370.29c.32,0,.63,0,.92-.02.29-.01.53-.04.7-.07v-2.49c-.13-.03-.33-.06-.59-.09-.26-.03-.51-.04-.73-.04-.31,0-.6.02-.87.06-.27.04-.51.11-.72.21-.21.1-.37.24-.48.42-.12.18-.18.4-.18.66,0,.51.17.87.52,1.07s.82.3,1.42.3Z"/><path class="cls-18" d="M652.03,355.51c.62,0,1.18.06,1.69.19.51.12.91.25,1.19.36l-.64,2.62c-.29-.13-.61-.23-.96-.3-.34-.07-.66-.1-.96-.1-.4,0-.73.05-1,.17s-.48.26-.64.45-.26.42-.33.68c-.07.26-.1.55-.1.86v.57h4.05v2.73h-4.05v8.84h-3.28v-12.19c0-1.5.42-2.68,1.26-3.56.84-.88,2.09-1.32,3.75-1.32ZM661.25,355.51c.62,0,1.12.05,1.53.15s.74.21,1.02.33l-.57,2.57c-.23-.1-.5-.18-.78-.22s-.58-.07-.87-.07c-.4,0-.73.05-1,.17s-.48.26-.64.45-.26.42-.33.68c-.07.26-.1.55-.1.86v.57h4.05v2.73h-4.05v8.84h-3.28v-12.19c0-1.5.42-2.68,1.27-3.56.84-.88,2.09-1.32,3.75-1.32ZM669.04,357.66c0,.6-.19,1.08-.58,1.42-.39.34-.85.52-1.38.52s-.99-.17-1.38-.52c-.39-.34-.58-.82-.58-1.42s.19-1.07.58-1.42c.39-.34.85-.52,1.38-.52s.99.17,1.38.52c.39.34.58.82.58,1.42ZM668.73,372.58h-3.28v-11.57h3.28v11.57Z"/><path class="cls-18" d="M671.26,366.79c0-.84.13-1.62.41-2.36.27-.74.66-1.39,1.18-1.94.51-.55,1.14-.99,1.87-1.31.73-.32,1.57-.48,2.51-.48.62,0,1.18.05,1.69.17.51.11,1.01.27,1.5.47l-.68,2.62c-.31-.12-.65-.22-1.01-.31-.37-.09-.78-.13-1.23-.13-.97,0-1.69.3-2.17.9-.48.6-.71,1.39-.71,2.38,0,1.04.22,1.85.67,2.42.45.57,1.23.86,2.34.86.4,0,.82-.04,1.28-.11.45-.07.87-.19,1.25-.35l.46,2.68c-.38.16-.86.3-1.43.42s-1.2.18-1.89.18c-1.06,0-1.96-.16-2.73-.47-.76-.31-1.39-.74-1.88-1.29-.49-.54-.85-1.18-1.08-1.92-.23-.74-.34-1.54-.34-2.41Z"/><path class="cls-18" d="M695.14,365.93c-.29,1.11-.6,2.22-.93,3.32-.33,1.1-.68,2.21-1.04,3.32h-2.55c-.26-.62-.55-1.35-.86-2.2-.31-.85-.63-1.78-.96-2.78-.33-1-.67-2.07-1.02-3.19s-.68-2.25-1-3.4h3.45c.12.53.25,1.1.39,1.73.14.62.29,1.26.44,1.92s.32,1.32.49,1.99c.17.67.34,1.31.52,1.92.19-.65.38-1.3.56-1.98.18-.67.36-1.34.53-1.99.17-.65.33-1.28.48-1.89.15-.61.29-1.18.41-1.7h2.38c.12.53.25,1.1.4,1.7.15.61.3,1.24.46,1.89s.33,1.32.51,1.99c.18.67.36,1.33.55,1.98.18-.62.35-1.26.53-1.92.18-.67.34-1.33.5-1.99.15-.66.3-1.3.44-1.92.14-.62.27-1.2.39-1.73h3.41c-.32,1.14-.66,2.28-1,3.4s-.68,2.19-1.01,3.19-.65,1.93-.97,2.78c-.32.85-.61,1.58-.87,2.2h-2.55c-.37-1.11-.73-2.22-1.08-3.32-.35-1.1-.67-2.21-.97-3.32Z"/><path class="cls-18" d="M708.93,357.66c0,.6-.19,1.08-.58,1.42-.39.34-.85.52-1.38.52s-.99-.17-1.38-.52c-.39-.34-.58-.82-.58-1.42s.19-1.07.58-1.42c.39-.34.85-.52,1.38-.52s.99.17,1.38.52c.39.34.58.82.58,1.42ZM708.62,372.58h-3.28v-11.57h3.28v11.57Z"/><path class="cls-18" d="M716.32,372.8c-.95-.02-1.73-.12-2.32-.31s-1.06-.46-1.41-.8-.58-.76-.7-1.25c-.12-.49-.19-1.04-.19-1.66v-12.74l3.28-.53v12.61c0,.29.02.56.07.79s.13.43.25.59c.12.16.3.29.54.4s.55.17.95.2l-.46,2.71Z"/><path class="cls-18" d="M723.27,372.8c-.95-.02-1.73-.12-2.32-.31s-1.06-.46-1.41-.8-.58-.76-.7-1.25c-.12-.49-.19-1.04-.19-1.66v-12.74l3.28-.53v12.61c0,.29.02.56.07.79s.13.43.25.59c.12.16.3.29.54.4s.55.17.95.2l-.46,2.71Z"/><path class="cls-18" d="M438.24,398.6c-.29.09-.63.17-1.01.25-.38.08-.78.15-1.2.21s-.84.11-1.28.14c-.43.04-.85.06-1.24.06-.95,0-1.8-.14-2.55-.42-.75-.28-1.38-.68-1.89-1.2-.51-.52-.91-1.15-1.18-1.89-.27-.74-.41-1.57-.41-2.5s.12-1.79.35-2.54c.23-.75.57-1.4,1.01-1.92.44-.53.98-.93,1.62-1.21.64-.28,1.37-.42,2.19-.42.45,0,.86.04,1.22.13s.72.21,1.09.37v-5.24l3.28-.53v16.7ZM430.83,393.1c0,1.01.23,1.83.68,2.44.46.62,1.13.92,2.02.92.29,0,.56-.01.81-.03.25-.02.46-.05.62-.08v-5.96c-.21-.13-.47-.24-.8-.33s-.66-.13-1-.13c-1.55,0-2.33,1.06-2.33,3.17Z"/><path class="cls-18" d="M440.77,393.28c0-1.03.16-1.92.47-2.7.32-.77.73-1.41,1.24-1.92s1.1-.9,1.77-1.17c.67-.26,1.35-.4,2.06-.4,1.64,0,2.94.5,3.89,1.51s1.43,2.48,1.43,4.43c0,.19,0,.4-.02.63-.01.23-.03.43-.04.61h-7.44c.07.67.39,1.21.95,1.61.56.4,1.31.59,2.24.59.6,0,1.19-.06,1.77-.17.58-.11,1.05-.25,1.42-.41l.44,2.66c-.18.09-.41.18-.7.26-.29.09-.62.17-.98.23-.36.07-.75.12-1.16.17-.41.04-.82.07-1.23.07-1.04,0-1.95-.15-2.72-.46-.77-.31-1.41-.73-1.91-1.26-.51-.54-.88-1.17-1.12-1.9-.24-.73-.36-1.53-.36-2.38ZM448.47,392.03c-.02-.28-.06-.55-.14-.81-.08-.26-.21-.5-.37-.7-.17-.21-.38-.37-.64-.51-.26-.13-.58-.2-.96-.2s-.68.06-.95.19c-.26.12-.48.29-.66.5-.18.21-.31.44-.41.71-.1.27-.17.55-.21.83h4.33Z"/><path class="cls-18" d="M464.93,393.19c0,.89-.11,1.71-.33,2.44-.22.73-.54,1.36-.97,1.89-.43.53-.95.94-1.58,1.23-.63.29-1.36.44-2.18.44-.46,0-.88-.04-1.28-.13-.4-.09-.78-.21-1.14-.37v4.36h-3.28v-15.25c.29-.09.63-.17,1.01-.25.38-.08.78-.15,1.2-.21.42-.06.84-.11,1.28-.14.43-.04.85-.05,1.24-.05.95,0,1.8.14,2.55.43s1.38.69,1.89,1.21.91,1.16,1.18,1.9.41,1.58.41,2.51ZM461.58,393.28c0-1.01-.23-1.82-.68-2.43-.46-.61-1.13-.91-2.02-.91-.29,0-.56.01-.81.03-.25.02-.45.05-.62.08v5.92c.21.13.47.24.8.33s.66.13,1,.13c1.55,0,2.33-1.05,2.33-3.15Z"/><path class="cls-18" d="M466.91,393.28c0-1.03.16-1.92.47-2.7.32-.77.73-1.41,1.24-1.92s1.1-.9,1.77-1.17c.67-.26,1.35-.4,2.06-.4,1.64,0,2.94.5,3.89,1.51s1.43,2.48,1.43,4.43c0,.19,0,.4-.02.63-.01.23-.03.43-.04.61h-7.44c.07.67.39,1.21.95,1.61.56.4,1.31.59,2.24.59.6,0,1.19-.06,1.77-.17.58-.11,1.05-.25,1.42-.41l.44,2.66c-.18.09-.41.18-.7.26-.29.09-.62.17-.98.23-.36.07-.75.12-1.16.17-.41.04-.82.07-1.23.07-1.04,0-1.95-.15-2.72-.46-.77-.31-1.41-.73-1.91-1.26-.51-.54-.88-1.17-1.12-1.9-.24-.73-.36-1.53-.36-2.38ZM474.61,392.03c-.02-.28-.06-.55-.14-.81-.08-.26-.21-.5-.37-.7-.17-.21-.38-.37-.64-.51-.26-.13-.58-.2-.96-.2s-.68.06-.95.19c-.26.12-.48.29-.66.5-.18.21-.31.44-.41.71-.1.27-.17.55-.21.83h4.33Z"/><path class="cls-18" d="M480.3,387.8c.56-.16,1.28-.31,2.16-.45s1.8-.21,2.77-.21,1.8.13,2.45.38,1.17.62,1.55,1.09c.38.47.65,1.03.81,1.67.16.65.24,1.36.24,2.16v6.53h-3.28v-6.14c0-1.06-.14-1.8-.42-2.24-.28-.44-.8-.66-1.56-.66-.23,0-.48.01-.75.03-.26.02-.5.05-.7.08v8.93h-3.28v-11.18Z"/><path class="cls-18" d="M503.47,398.6c-.29.09-.63.17-1.01.25-.38.08-.78.15-1.2.21s-.84.11-1.28.14c-.43.04-.85.06-1.24.06-.95,0-1.8-.14-2.55-.42-.75-.28-1.38-.68-1.89-1.2-.51-.52-.91-1.15-1.18-1.89-.27-.74-.41-1.57-.41-2.5s.12-1.79.35-2.54c.23-.75.57-1.4,1.01-1.92.44-.53.98-.93,1.62-1.21.64-.28,1.37-.42,2.19-.42.45,0,.86.04,1.22.13s.72.21,1.09.37v-5.24l3.28-.53v16.7ZM496.06,393.1c0,1.01.23,1.83.68,2.44.46.62,1.13.92,2.02.92.29,0,.56-.01.81-.03.25-.02.46-.05.62-.08v-5.96c-.21-.13-.47-.24-.8-.33s-.66-.13-1-.13c-1.55,0-2.33,1.06-2.33,3.17Z"/><path class="cls-18" d="M522.66,393.17c0,.91-.13,1.74-.4,2.5-.26.76-.65,1.4-1.14,1.94-.5.54-1.1.95-1.79,1.24-.7.29-1.48.44-2.34.44s-1.62-.15-2.32-.44c-.7-.29-1.29-.71-1.79-1.24-.5-.54-.89-1.18-1.17-1.94-.28-.75-.42-1.59-.42-2.5s.14-1.74.43-2.49.68-1.39,1.19-1.91c.51-.53,1.11-.94,1.8-1.23.7-.29,1.46-.44,2.28-.44s1.6.15,2.3.44c.7.29,1.29.7,1.79,1.23.5.53.89,1.17,1.17,1.91.28.75.42,1.58.42,2.49ZM519.31,393.17c0-1.01-.2-1.81-.6-2.39-.4-.58-.98-.87-1.73-.87s-1.33.29-1.74.87c-.41.58-.62,1.38-.62,2.39s.21,1.82.62,2.41c.41.59.99.89,1.74.89s1.32-.3,1.73-.89.6-1.4.6-2.41Z"/><path class="cls-18" d="M525.18,387.8c.56-.16,1.28-.31,2.16-.45s1.8-.21,2.77-.21,1.8.13,2.45.38,1.17.62,1.55,1.09c.38.47.65,1.03.81,1.67.16.65.24,1.36.24,2.16v6.53h-3.28v-6.14c0-1.06-.14-1.8-.42-2.24-.28-.44-.8-.66-1.56-.66-.23,0-.48.01-.75.03-.26.02-.5.05-.7.08v8.93h-3.28v-11.18Z"/><path class="cls-18" d="M543.31,384.52l3.28-.53v3.41h3.94v2.73h-3.94v4.07c0,.69.12,1.24.36,1.65.24.41.73.62,1.46.62.35,0,.71-.03,1.09-.1.37-.07.71-.16,1.02-.27l.46,2.55c-.4.16-.84.3-1.32.42s-1.08.18-1.78.18c-.89,0-1.64-.12-2.22-.36-.59-.24-1.06-.58-1.41-1.01s-.6-.96-.74-1.57c-.14-.62-.21-1.3-.21-2.05v-9.72Z"/><path class="cls-18" d="M553.19,398.98v-16.54l3.28-.53v5.54c.22-.07.5-.14.85-.21s.68-.1,1-.1c.94,0,1.72.13,2.34.38s1.12.62,1.5,1.09c.37.47.64,1.03.79,1.67s.23,1.36.23,2.16v6.53h-3.28v-6.14c0-1.06-.14-1.8-.41-2.24-.27-.44-.77-.66-1.51-.66-.29,0-.57.03-.83.08-.26.05-.49.11-.69.17v8.8h-3.28Z"/><path class="cls-18" d="M565.6,393.28c0-1.03.16-1.92.47-2.7.32-.77.73-1.41,1.24-1.92s1.1-.9,1.77-1.17c.67-.26,1.35-.4,2.06-.4,1.64,0,2.94.5,3.89,1.51s1.43,2.48,1.43,4.43c0,.19,0,.4-.02.63-.01.23-.03.43-.04.61h-7.44c.07.67.39,1.21.95,1.61.56.4,1.31.59,2.24.59.6,0,1.19-.06,1.77-.17.58-.11,1.05-.25,1.42-.41l.44,2.66c-.18.09-.41.18-.7.26-.29.09-.62.17-.98.23-.36.07-.75.12-1.16.17-.41.04-.82.07-1.23.07-1.04,0-1.95-.15-2.72-.46-.77-.31-1.41-.73-1.91-1.26-.51-.54-.88-1.17-1.12-1.9-.24-.73-.36-1.53-.36-2.38ZM573.3,392.03c-.02-.28-.06-.55-.14-.81-.08-.26-.21-.5-.37-.7-.17-.21-.38-.37-.64-.51-.26-.13-.58-.2-.96-.2s-.68.06-.95.19c-.26.12-.48.29-.66.5-.18.21-.31.44-.41.71-.1.27-.17.55-.21.83h4.33Z"/><path class="cls-18" d="M584.17,384.52l3.28-.53v3.41h3.94v2.73h-3.94v4.07c0,.69.12,1.24.36,1.65.24.41.73.62,1.46.62.35,0,.71-.03,1.09-.1.37-.07.71-.16,1.02-.27l.46,2.55c-.4.16-.84.3-1.32.42s-1.08.18-1.78.18c-.89,0-1.64-.12-2.22-.36-.59-.24-1.06-.58-1.41-1.01s-.6-.96-.74-1.57c-.14-.62-.21-1.3-.21-2.05v-9.72Z"/><path class="cls-18" d="M604.56,387.41c-.66,2.23-1.35,4.32-2.07,6.27-.72,1.95-1.51,3.84-2.36,5.68-.31.66-.62,1.22-.92,1.68-.31.46-.65.84-1.01,1.14-.37.3-.78.52-1.25.66-.46.14-1,.21-1.62.21-.51,0-.99-.05-1.42-.14-.43-.1-.79-.2-1.07-.32l.57-2.62c.34.12.64.2.9.24.26.04.54.07.84.07.59,0,1.04-.16,1.35-.47.32-.32.58-.75.8-1.31-.75-1.47-1.5-3.11-2.25-4.94-.75-1.83-1.45-3.88-2.11-6.15h3.48c.15.57.32,1.19.52,1.86.2.67.41,1.34.63,2.02.22.68.45,1.35.67,1.99.23.65.45,1.23.65,1.76.19-.53.39-1.11.6-1.76s.41-1.31.61-1.99c.2-.68.39-1.36.57-2.02.18-.67.35-1.29.5-1.86h3.39Z"/><path class="cls-18" d="M617.06,393.19c0,.89-.11,1.71-.33,2.44-.22.73-.54,1.36-.97,1.89-.43.53-.95.94-1.58,1.23-.63.29-1.36.44-2.18.44-.46,0-.88-.04-1.28-.13-.4-.09-.78-.21-1.14-.37v4.36h-3.28v-15.25c.29-.09.63-.17,1.01-.25.38-.08.78-.15,1.2-.21.42-.06.84-.11,1.28-.14.43-.04.85-.05,1.24-.05.95,0,1.8.14,2.55.43s1.38.69,1.89,1.21.91,1.16,1.18,1.9.41,1.58.41,2.51ZM613.71,393.28c0-1.01-.23-1.82-.68-2.43-.46-.61-1.13-.91-2.02-.91-.29,0-.56.01-.81.03-.25.02-.45.05-.62.08v5.92c.21.13.47.24.8.33s.66.13,1,.13c1.55,0,2.33-1.05,2.33-3.15Z"/><path class="cls-18" d="M619.04,393.28c0-1.03.16-1.92.47-2.7.32-.77.73-1.41,1.24-1.92s1.1-.9,1.77-1.17c.67-.26,1.35-.4,2.06-.4,1.64,0,2.94.5,3.89,1.51s1.43,2.48,1.43,4.43c0,.19,0,.4-.02.63-.01.23-.03.43-.04.61h-7.44c.07.67.39,1.21.95,1.61.56.4,1.31.59,2.24.59.6,0,1.19-.06,1.77-.17.58-.11,1.05-.25,1.42-.41l.44,2.66c-.18.09-.41.18-.7.26-.29.09-.62.17-.98.23-.36.07-.75.12-1.16.17-.41.04-.82.07-1.23.07-1.04,0-1.95-.15-2.72-.46-.77-.31-1.41-.73-1.91-1.26-.51-.54-.88-1.17-1.12-1.9-.24-.73-.36-1.53-.36-2.38ZM626.74,392.03c-.02-.28-.06-.55-.14-.81-.08-.26-.21-.5-.37-.7-.17-.21-.38-.37-.64-.51-.26-.13-.58-.2-.96-.2s-.68.06-.95.19c-.26.12-.48.29-.66.5-.18.21-.31.44-.41.71-.1.27-.17.55-.21.83h4.33Z"/><path class="cls-18" d="M648.54,393.17c0,.91-.13,1.74-.4,2.5-.26.76-.65,1.4-1.14,1.94-.5.54-1.1.95-1.79,1.24-.7.29-1.48.44-2.34.44s-1.62-.15-2.32-.44c-.7-.29-1.29-.71-1.79-1.24-.5-.54-.89-1.18-1.17-1.94-.28-.75-.42-1.59-.42-2.5s.14-1.74.43-2.49.68-1.39,1.19-1.91c.51-.53,1.11-.94,1.8-1.23.7-.29,1.46-.44,2.28-.44s1.6.15,2.3.44c.7.29,1.29.7,1.79,1.23.5.53.89,1.17,1.17,1.91.28.75.42,1.58.42,2.49ZM645.19,393.17c0-1.01-.2-1.81-.6-2.39-.4-.58-.98-.87-1.73-.87s-1.33.29-1.74.87c-.41.58-.62,1.38-.62,2.39s.21,1.82.62,2.41c.41.59.99.89,1.74.89s1.32-.3,1.73-.89.6-1.4.6-2.41Z"/><path class="cls-18" d="M656.08,381.91c.62,0,1.18.06,1.69.19.51.12.91.25,1.19.36l-.64,2.62c-.29-.13-.61-.23-.96-.3s-.66-.1-.96-.1c-.4,0-.73.05-1,.17-.27.11-.48.26-.64.45-.15.19-.26.42-.33.68-.07.26-.1.55-.1.86v.57h4.05v2.73h-4.05v8.84h-3.28v-12.19c0-1.5.42-2.68,1.26-3.56.84-.88,2.09-1.32,3.75-1.32Z"/><path class="cls-18" d="M668.95,396.62c.6,0,1.03-.06,1.28-.18.25-.12.37-.34.37-.68,0-.26-.16-.5-.48-.69-.32-.2-.81-.42-1.47-.67-.51-.19-.98-.39-1.4-.59s-.77-.45-1.07-.74-.52-.63-.68-1.02c-.16-.4-.24-.87-.24-1.43,0-1.08.4-1.94,1.21-2.57.81-.63,1.91-.95,3.32-.95.7,0,1.38.06,2.02.19.65.12,1.16.26,1.54.41l-.57,2.55c-.38-.13-.8-.25-1.24-.35-.45-.1-.95-.15-1.51-.15-1.03,0-1.54.29-1.54.86,0,.13.02.25.07.35s.13.2.26.3c.13.1.31.2.54.31.23.11.52.23.87.37.72.27,1.31.53,1.78.79s.84.54,1.11.84c.27.3.46.63.57,1,.11.37.17.79.17,1.27,0,1.14-.43,2.01-1.29,2.59-.86.58-2.07.88-3.64.88-1.03,0-1.88-.09-2.56-.26-.68-.18-1.16-.32-1.42-.44l.55-2.66c.56.22,1.13.39,1.72.52.59.12,1.17.19,1.74.19Z"/><path class="cls-18" d="M675.75,393.28c0-1.03.16-1.92.47-2.7.32-.77.73-1.41,1.24-1.92s1.1-.9,1.77-1.17c.67-.26,1.35-.4,2.06-.4,1.64,0,2.94.5,3.89,1.51s1.43,2.48,1.43,4.43c0,.19,0,.4-.02.63-.01.23-.03.43-.04.61h-7.44c.07.67.39,1.21.95,1.61.56.4,1.31.59,2.24.59.6,0,1.19-.06,1.77-.17.58-.11,1.05-.25,1.42-.41l.44,2.66c-.18.09-.41.18-.7.26-.29.09-.62.17-.98.23-.36.07-.75.12-1.16.17-.41.04-.82.07-1.23.07-1.04,0-1.95-.15-2.72-.46-.77-.31-1.41-.73-1.91-1.26-.51-.54-.88-1.17-1.12-1.9-.24-.73-.36-1.53-.36-2.38ZM683.45,392.03c-.02-.28-.06-.55-.14-.81-.08-.26-.21-.5-.37-.7-.17-.21-.38-.37-.64-.51-.26-.13-.58-.2-.96-.2s-.68.06-.95.19c-.26.12-.48.29-.66.5-.18.21-.31.44-.41.71-.1.27-.17.55-.21.83h4.33Z"/><path class="cls-18" d="M696.12,390.31c-.29-.07-.64-.15-1.03-.23-.4-.08-.82-.12-1.28-.12-.21,0-.45.02-.74.06-.29.04-.5.08-.65.12v8.84h-3.28v-10.96c.59-.21,1.28-.4,2.08-.58.8-.18,1.69-.28,2.67-.28.18,0,.39.01.64.03.25.02.5.05.75.09.25.04.5.08.75.13.25.05.46.11.64.19l-.55,2.71Z"/><path class="cls-18" d="M702.28,398.98c-.75-1.47-1.51-3.18-2.29-5.15-.77-1.96-1.5-4.11-2.2-6.42h3.48c.15.57.32,1.19.52,1.86.2.67.4,1.34.62,2.02.21.68.43,1.35.64,1.99s.42,1.23.63,1.76c.19-.53.4-1.11.62-1.76s.44-1.31.65-1.99c.21-.68.42-1.36.62-2.02.2-.67.37-1.29.52-1.86h3.39c-.69,2.32-1.42,4.46-2.2,6.42-.77,1.97-1.53,3.68-2.28,5.15h-2.72Z"/><path class="cls-18" d="M714.8,384.06c0,.6-.19,1.07-.58,1.42s-.85.52-1.38.52-.99-.17-1.38-.52-.58-.82-.58-1.42.19-1.07.58-1.42.85-.52,1.38-.52.99.17,1.38.52.58.82.58,1.42ZM714.49,398.98h-3.28v-11.57h3.28v11.57Z"/><path class="cls-18" d="M717.02,393.19c0-.84.13-1.62.41-2.37.27-.74.66-1.39,1.18-1.94.51-.55,1.14-.99,1.87-1.31.73-.32,1.57-.48,2.51-.48.62,0,1.18.05,1.69.17.51.11,1.01.27,1.5.47l-.68,2.62c-.31-.12-.65-.22-1.01-.31-.37-.09-.78-.13-1.23-.13-.97,0-1.69.3-2.17.9s-.71,1.39-.71,2.38c0,1.04.22,1.85.67,2.42s1.23.86,2.34.86c.4,0,.82-.04,1.28-.11.45-.07.87-.19,1.25-.35l.46,2.68c-.38.16-.86.3-1.43.42s-1.2.18-1.89.18c-1.06,0-1.96-.16-2.73-.47s-1.39-.74-1.88-1.29c-.49-.54-.85-1.18-1.08-1.92-.23-.74-.34-1.54-.34-2.41Z"/><path class="cls-18" d="M727.47,393.28c0-1.03.16-1.92.47-2.7.32-.77.73-1.41,1.24-1.92s1.1-.9,1.77-1.17c.67-.26,1.35-.4,2.06-.4,1.64,0,2.94.5,3.89,1.51s1.43,2.48,1.43,4.43c0,.19,0,.4-.02.63-.01.23-.03.43-.04.61h-7.44c.07.67.39,1.21.95,1.61.56.4,1.31.59,2.24.59.6,0,1.19-.06,1.77-.17.58-.11,1.05-.25,1.42-.41l.44,2.66c-.18.09-.41.18-.7.26-.29.09-.62.17-.98.23-.36.07-.75.12-1.16.17-.41.04-.82.07-1.23.07-1.04,0-1.95-.15-2.72-.46-.77-.31-1.41-.73-1.91-1.26-.51-.54-.88-1.17-1.12-1.9-.24-.73-.36-1.53-.36-2.38ZM735.17,392.03c-.02-.28-.06-.55-.14-.81-.08-.26-.21-.5-.37-.7-.17-.21-.38-.37-.64-.51-.26-.13-.58-.2-.96-.2s-.68.06-.95.19c-.26.12-.48.29-.66.5-.18.21-.31.44-.41.71-.1.27-.17.55-.21.83h4.33Z"/><rect class="cls-6" x="123.28" y="259.05" width="252.21" height="110.08" rx="12" ry="12"/><path class="cls-18" d="M213.64,320.07c.53,0,.96-.04,1.31-.13.34-.09.62-.21.83-.36s.35-.33.43-.54.12-.44.12-.7c0-.54-.26-1-.77-1.36-.51-.36-1.39-.75-2.64-1.16-.54-.19-1.09-.41-1.63-.66s-1.03-.56-1.46-.94c-.43-.38-.78-.83-1.06-1.37-.27-.54-.41-1.19-.41-1.96s.14-1.46.43-2.08.7-1.14,1.22-1.57c.53-.43,1.17-.76,1.92-1,.75-.23,1.6-.35,2.54-.35,1.12,0,2.09.12,2.9.36s1.49.5,2.02.79l-1.08,2.95c-.46-.24-.98-.45-1.55-.64-.57-.18-1.25-.28-2.05-.28-.9,0-1.54.12-1.93.37-.39.25-.59.63-.59,1.14,0,.3.07.56.22.77.14.21.35.4.61.56.26.17.57.32.91.46.34.14.72.28,1.14.42.86.32,1.62.64,2.26.95.64.31,1.17.68,1.6,1.09.42.42.74.9.95,1.46.21.56.31,1.24.31,2.04,0,1.55-.54,2.76-1.63,3.61-1.09.86-2.73,1.28-4.92,1.28-.74,0-1.4-.04-1.99-.13s-1.12-.2-1.57-.32-.85-.26-1.18-.41c-.33-.14-.6-.28-.83-.41l1.06-2.98c.5.27,1.11.52,1.84.73.73.22,1.62.32,2.68.32Z"/><path class="cls-18" d="M222.23,316.71c0-1.12.17-2.1.52-2.94.34-.84.79-1.54,1.36-2.1s1.2-.98,1.93-1.27c.73-.29,1.48-.43,2.24-.43,1.79,0,3.21.55,4.25,1.64,1.04,1.1,1.56,2.71,1.56,4.84,0,.21,0,.44-.02.68s-.03.47-.05.66h-8.11c.08.74.42,1.32,1.03,1.75.61.43,1.42.65,2.45.65.66,0,1.3-.06,1.93-.18s1.15-.27,1.55-.44l.48,2.9c-.19.1-.45.19-.77.29s-.68.18-1.07.25c-.39.07-.81.13-1.26.18-.45.05-.9.07-1.34.07-1.14,0-2.12-.17-2.96-.5s-1.54-.8-2.09-1.38-.96-1.28-1.22-2.08c-.26-.8-.4-1.66-.4-2.59ZM230.63,315.34c-.02-.3-.07-.6-.16-.89s-.22-.54-.41-.77c-.18-.22-.42-.41-.7-.55-.28-.14-.63-.22-1.04-.22s-.74.07-1.03.2-.53.32-.72.54c-.19.22-.34.48-.44.78-.1.3-.18.6-.23.9h4.73Z"/><path class="cls-18" d="M244.45,313.47c-.32-.08-.7-.16-1.13-.25s-.9-.13-1.39-.13c-.22,0-.49.02-.8.06-.31.04-.55.08-.71.13v9.65h-3.58v-11.95c.64-.22,1.4-.44,2.27-.64s1.84-.3,2.92-.3c.19,0,.42.01.7.04.27.02.54.06.82.1s.54.09.82.14c.27.06.5.12.7.2l-.6,2.95Z"/><path class="cls-18" d="M251.17,322.92c-.82-1.6-1.65-3.47-2.49-5.62-.84-2.14-1.64-4.48-2.4-7.01h3.79c.16.62.35,1.3.57,2.03.22.73.44,1.46.67,2.21.23.74.47,1.47.7,2.17s.46,1.34.69,1.92c.21-.58.43-1.22.67-1.92.24-.7.48-1.43.71-2.17.23-.74.46-1.48.67-2.21.22-.73.41-1.4.57-2.03h3.7c-.75,2.53-1.55,4.86-2.4,7.01-.84,2.14-1.67,4.02-2.49,5.62h-2.97Z"/><path class="cls-18" d="M264.83,306.65c0,.66-.21,1.17-.64,1.55-.42.38-.92.56-1.5.56s-1.08-.19-1.5-.56c-.42-.38-.64-.89-.64-1.55s.21-1.17.64-1.55c.42-.38.92-.56,1.5-.56s1.08.19,1.5.56c.42.38.64.89.64,1.55ZM264.49,322.92h-3.58v-12.62h3.58v12.62Z"/><path class="cls-18" d="M267.25,316.61c0-.91.15-1.77.44-2.58.3-.81.72-1.51,1.28-2.11.56-.6,1.24-1.08,2.04-1.43.8-.35,1.71-.53,2.74-.53.67,0,1.29.06,1.85.18.56.12,1.1.29,1.63.52l-.74,2.86c-.34-.13-.7-.24-1.1-.34-.4-.1-.85-.14-1.34-.14-1.06,0-1.84.33-2.36.98-.52.66-.78,1.52-.78,2.59,0,1.14.24,2.02.73,2.64.49.62,1.34.94,2.56.94.43,0,.9-.04,1.39-.12.5-.08.95-.21,1.37-.38l.5,2.93c-.42.18-.94.33-1.56.46s-1.31.19-2.06.19c-1.15,0-2.14-.17-2.98-.52s-1.52-.81-2.05-1.4-.93-1.29-1.18-2.1c-.25-.81-.37-1.68-.37-2.63Z"/><path class="cls-18" d="M278.65,316.71c0-1.12.17-2.1.52-2.94.34-.84.79-1.54,1.36-2.1s1.2-.98,1.93-1.27c.73-.29,1.48-.43,2.24-.43,1.79,0,3.21.55,4.25,1.64,1.04,1.1,1.56,2.71,1.56,4.84,0,.21,0,.44-.02.68s-.03.47-.05.66h-8.11c.08.74.42,1.32,1.03,1.75.61.43,1.42.65,2.45.65.66,0,1.3-.06,1.93-.18s1.15-.27,1.55-.44l.48,2.9c-.19.1-.45.19-.77.29s-.68.18-1.07.25c-.39.07-.81.13-1.26.18-.45.05-.9.07-1.34.07-1.14,0-2.12-.17-2.96-.5s-1.54-.8-2.09-1.38-.96-1.28-1.22-2.08c-.26-.8-.4-1.66-.4-2.59ZM287.05,315.34c-.02-.3-.07-.6-.16-.89s-.22-.54-.41-.77c-.18-.22-.42-.41-.7-.55-.28-.14-.63-.22-1.04-.22s-.74.07-1.03.2-.53.32-.72.54c-.19.22-.34.48-.44.78-.1.3-.18.6-.23.9h4.73Z"/><rect class="cls-6" x="175.71" y="549.87" width="147.35" height="88.21" rx="12" ry="12"/><path class="cls-18" d="M234.22,583.55c2.48,0,4.38.44,5.71,1.31s1.99,2.3,1.99,4.28-.67,3.44-2.02,4.33c-1.34.89-3.26,1.33-5.76,1.33h-1.18v5.57h-3.74v-16.39c.82-.16,1.68-.27,2.59-.34.91-.06,1.71-.1,2.4-.1ZM234.46,586.74c-.27,0-.54,0-.8.02-.26.02-.49.03-.68.05v4.8h1.18c1.3,0,2.27-.18,2.93-.53.66-.35.98-1.01.98-1.97,0-.46-.08-.85-.25-1.15-.17-.3-.41-.55-.72-.73-.31-.18-.69-.31-1.14-.38-.45-.07-.94-.11-1.49-.11Z"/><path class="cls-18" d="M255.89,594.04c0,.99-.14,1.9-.43,2.72-.29.82-.71,1.53-1.25,2.11-.54.58-1.2,1.04-1.96,1.36-.76.32-1.61.48-2.56.48s-1.77-.16-2.53-.48c-.76-.32-1.41-.77-1.96-1.36-.54-.58-.97-1.29-1.27-2.11-.3-.82-.46-1.73-.46-2.72s.16-1.9.47-2.71c.31-.82.74-1.51,1.3-2.09.55-.58,1.21-1.02,1.97-1.34.76-.32,1.59-.48,2.48-.48s1.75.16,2.51.48c.76.32,1.41.77,1.96,1.34s.97,1.27,1.27,2.09c.3.82.46,1.72.46,2.71ZM252.24,594.04c0-1.1-.22-1.97-.66-2.6-.44-.63-1.07-.95-1.88-.95s-1.45.32-1.9.95c-.45.63-.67,1.5-.67,2.6s.22,1.98.67,2.63c.45.65,1.08.97,1.9.97s1.44-.32,1.88-.97c.44-.65.66-1.52.66-2.63Z"/><path class="cls-18" d="M269.79,599.97c-.32.1-.69.19-1.1.28s-.85.16-1.31.23c-.46.06-.92.12-1.39.16-.47.04-.92.06-1.36.06-1.04,0-1.97-.15-2.78-.46-.82-.3-1.5-.74-2.06-1.31-.56-.57-.99-1.26-1.28-2.06-.3-.81-.44-1.72-.44-2.72s.13-1.95.38-2.77.62-1.52,1.1-2.1c.48-.58,1.07-1.02,1.76-1.32.7-.3,1.49-.46,2.39-.46.5,0,.94.05,1.33.14.39.1.79.23,1.19.41v-5.71l3.58-.58v18.22ZM261.7,593.97c0,1.1.25,1.99.74,2.66.5.67,1.23,1.01,2.21,1.01.32,0,.62-.01.89-.04.27-.02.5-.05.67-.08v-6.5c-.22-.14-.52-.26-.88-.36-.36-.1-.72-.14-1.09-.14-1.7,0-2.54,1.15-2.54,3.46Z"/><g id="arrow_styles_for_diagrams_etc"><g id="arrow_styles_for_diagrams_etc-2"><path class="cls-4" d="M248.52,270.98l-13.14-22.84c-.39-.67.1-1.52.88-1.52h6.78V11.55c0-2.02,1.64-3.67,3.67-3.67h5.38c2.02,0,3.66,1.64,3.66,3.66v235.08h6.78c.78,0,1.26.84.88,1.52l-13.14,22.84c-.39.67-1.35.67-1.74,0Z"/></g></g><rect class="cls-6" x="183.71" y="106.63" width="131.35" height="57.33" rx="12" ry="12"/><path class="cls-18" d="M226,129.58v3.19h-5.02v13.44h-3.74v-13.44h-5.02v-3.19h13.78Z"/><path class="cls-18" d="M234.11,136.75c-.32-.08-.7-.16-1.13-.25s-.9-.13-1.39-.13c-.22,0-.49.02-.8.06-.31.04-.55.08-.71.13v9.65h-3.58v-11.95c.64-.22,1.4-.44,2.27-.64s1.84-.3,2.92-.3c.19,0,.42.01.7.04.27.02.54.06.82.1s.54.09.82.14c.27.06.5.12.7.2l-.6,2.95Z"/><path class="cls-18" d="M240.93,133.25c1.06,0,1.94.12,2.64.36.7.24,1.27.58,1.69,1.03.42.45.72.99.9,1.63.18.64.26,1.35.26,2.14v7.44c-.51.11-1.22.24-2.14.4-.91.15-2.02.23-3.31.23-.82,0-1.56-.07-2.22-.22-.66-.14-1.24-.38-1.72-.71-.48-.33-.85-.76-1.1-1.28-.26-.53-.38-1.18-.38-1.94s.15-1.36.44-1.87c.3-.51.69-.92,1.19-1.22.5-.3,1.06-.52,1.7-.66.64-.14,1.3-.2,1.99-.2.46,0,.88.02,1.24.06.36.04.65.09.88.16v-.34c0-.61-.18-1.1-.55-1.46s-1.01-.55-1.92-.55c-.61,0-1.21.04-1.8.13s-1.1.21-1.54.37l-.46-2.88c.21-.06.47-.13.78-.2.31-.07.65-.14,1.02-.19s.76-.1,1.16-.14c.41-.04.82-.06,1.24-.06ZM241.21,143.71c.35,0,.69,0,1.01-.02.32-.02.58-.04.77-.07v-2.71c-.14-.03-.36-.06-.65-.1-.29-.03-.55-.05-.79-.05-.34,0-.65.02-.95.06s-.56.12-.78.23c-.22.11-.4.26-.53.46-.13.19-.19.43-.19.72,0,.56.19.95.56,1.16.38.22.89.32,1.55.32Z"/><path class="cls-18" d="M255.13,127.59c.67,0,1.29.07,1.85.2.56.14.99.27,1.3.4l-.7,2.86c-.32-.14-.67-.25-1.04-.32-.38-.07-.72-.11-1.04-.11-.43,0-.8.06-1.09.18s-.53.28-.7.49-.29.46-.36.74c-.07.29-.11.6-.11.94v.62h4.42v2.98h-4.42v9.65h-3.58v-13.3c0-1.63.46-2.93,1.38-3.89.92-.96,2.28-1.44,4.09-1.44ZM265.19,127.59c.67,0,1.23.06,1.67.17.44.11.81.23,1.12.36l-.62,2.81c-.26-.11-.54-.19-.85-.24-.31-.05-.63-.07-.95-.07-.43,0-.8.06-1.09.18-.3.12-.53.28-.7.49s-.29.46-.36.74c-.07.29-.11.6-.11.94v.62h4.42v2.98h-4.42v9.65h-3.58v-13.3c0-1.63.46-2.93,1.38-3.89s2.28-1.44,4.09-1.44ZM273.69,129.94c0,.66-.21,1.17-.64,1.55s-.92.56-1.5.56-1.08-.19-1.5-.56-.64-.89-.64-1.55.21-1.17.64-1.55c.42-.38.92-.56,1.5-.56s1.08.19,1.5.56c.42.38.64.89.64,1.55ZM273.35,146.21h-3.58v-12.62h3.58v12.62Z"/><path class="cls-18" d="M276.11,139.9c0-.91.15-1.77.44-2.58.3-.81.72-1.51,1.28-2.11.56-.6,1.24-1.08,2.04-1.43.8-.35,1.71-.53,2.74-.53.67,0,1.29.06,1.85.18.56.12,1.1.29,1.63.52l-.74,2.86c-.34-.13-.7-.24-1.1-.34-.4-.1-.85-.14-1.34-.14-1.06,0-1.84.33-2.36.98-.52.66-.78,1.52-.78,2.59,0,1.14.24,2.02.73,2.64s1.34.94,2.56.94c.43,0,.9-.04,1.39-.12.5-.08.95-.21,1.37-.38l.5,2.93c-.42.18-.94.33-1.56.46s-1.31.19-2.06.19c-1.15,0-2.14-.17-2.98-.52-.83-.34-1.52-.81-2.05-1.4s-.93-1.29-1.18-2.1c-.25-.81-.37-1.68-.37-2.63Z"/><rect class="cls-6" x="340.87" y="549.87" width="147.35" height="88.21" rx="12" ry="12"/><path class="cls-18" d="M399.37,583.55c2.48,0,4.38.44,5.71,1.31s1.99,2.3,1.99,4.28-.67,3.44-2.02,4.33c-1.34.89-3.26,1.33-5.76,1.33h-1.18v5.57h-3.74v-16.39c.82-.16,1.68-.27,2.59-.34.91-.06,1.71-.1,2.4-.1ZM399.61,586.74c-.27,0-.54,0-.8.02-.26.02-.49.03-.68.05v4.8h1.18c1.3,0,2.27-.18,2.93-.53.66-.35.98-1.01.98-1.97,0-.46-.08-.85-.25-1.15-.17-.3-.41-.55-.72-.73-.31-.18-.69-.31-1.14-.38-.45-.07-.94-.11-1.49-.11Z"/><path class="cls-18" d="M421.05,594.04c0,.99-.14,1.9-.43,2.72-.29.82-.71,1.53-1.25,2.11-.54.58-1.2,1.04-1.96,1.36-.76.32-1.61.48-2.56.48s-1.77-.16-2.53-.48c-.76-.32-1.41-.77-1.96-1.36-.54-.58-.97-1.29-1.27-2.11-.3-.82-.46-1.73-.46-2.72s.16-1.9.47-2.71c.31-.82.74-1.51,1.3-2.09.55-.58,1.21-1.02,1.97-1.34.76-.32,1.59-.48,2.48-.48s1.75.16,2.51.48c.76.32,1.41.77,1.96,1.34s.97,1.27,1.27,2.09c.3.82.46,1.72.46,2.71ZM417.4,594.04c0-1.1-.22-1.97-.66-2.6-.44-.63-1.07-.95-1.88-.95s-1.45.32-1.9.95c-.45.63-.67,1.5-.67,2.6s.22,1.98.67,2.63c.45.65,1.08.97,1.9.97s1.44-.32,1.88-.97c.44-.65.66-1.52.66-2.63Z"/><path class="cls-18" d="M434.94,599.97c-.32.1-.69.19-1.1.28s-.85.16-1.31.23c-.46.06-.92.12-1.39.16-.47.04-.92.06-1.36.06-1.04,0-1.97-.15-2.78-.46-.82-.3-1.5-.74-2.06-1.31-.56-.57-.99-1.26-1.28-2.06-.3-.81-.44-1.72-.44-2.72s.13-1.95.38-2.77.62-1.52,1.1-2.1c.48-.58,1.07-1.02,1.76-1.32.7-.3,1.49-.46,2.39-.46.5,0,.94.05,1.33.14.39.1.79.23,1.19.41v-5.71l3.58-.58v18.22ZM426.85,593.97c0,1.1.25,1.99.74,2.66.5.67,1.23,1.01,2.21,1.01.32,0,.62-.01.89-.04.27-.02.5-.05.67-.08v-6.5c-.22-.14-.52-.26-.88-.36-.36-.1-.72-.14-1.09-.14-1.7,0-2.54,1.15-2.54,3.46Z"/><rect class="cls-6" x="10.56" y="549.87" width="147.35" height="88.21" rx="12" ry="12"/><path class="cls-18" d="M69.06,583.55c2.48,0,4.38.44,5.71,1.31s1.99,2.3,1.99,4.28-.67,3.44-2.02,4.33c-1.34.89-3.26,1.33-5.76,1.33h-1.18v5.57h-3.74v-16.39c.82-.16,1.68-.27,2.59-.34.91-.06,1.71-.1,2.4-.1ZM69.3,586.74c-.27,0-.54,0-.8.02-.26.02-.49.03-.68.05v4.8h1.18c1.3,0,2.27-.18,2.93-.53.66-.35.98-1.01.98-1.97,0-.46-.08-.85-.25-1.15-.17-.3-.41-.55-.72-.73-.31-.18-.69-.31-1.14-.38-.45-.07-.94-.11-1.49-.11Z"/><path class="cls-18" d="M90.73,594.04c0,.99-.14,1.9-.43,2.72-.29.82-.71,1.53-1.25,2.11-.54.58-1.2,1.04-1.96,1.36-.76.32-1.61.48-2.56.48s-1.77-.16-2.53-.48c-.76-.32-1.41-.77-1.96-1.36-.54-.58-.97-1.29-1.27-2.11-.3-.82-.46-1.73-.46-2.72s.16-1.9.47-2.71c.31-.82.74-1.51,1.3-2.09.55-.58,1.21-1.02,1.97-1.34.76-.32,1.59-.48,2.48-.48s1.75.16,2.51.48c.76.32,1.41.77,1.96,1.34s.97,1.27,1.27,2.09c.3.82.46,1.72.46,2.71ZM87.09,594.04c0-1.1-.22-1.97-.66-2.6-.44-.63-1.07-.95-1.88-.95s-1.45.32-1.9.95c-.45.63-.67,1.5-.67,2.6s.22,1.98.67,2.63c.45.65,1.08.97,1.9.97s1.44-.32,1.88-.97c.44-.65.66-1.52.66-2.63Z"/><path class="cls-18" d="M104.63,599.97c-.32.1-.69.19-1.1.28s-.85.16-1.31.23c-.46.06-.92.12-1.39.16-.47.04-.92.06-1.36.06-1.04,0-1.97-.15-2.78-.46-.82-.3-1.5-.74-2.06-1.31-.56-.57-.99-1.26-1.28-2.06-.3-.81-.44-1.72-.44-2.72s.13-1.95.38-2.77.62-1.52,1.1-2.1c.48-.58,1.07-1.02,1.76-1.32.7-.3,1.49-.46,2.39-.46.5,0,.94.05,1.33.14.39.1.79.23,1.19.41v-5.71l3.58-.58v18.22ZM96.54,593.97c0,1.1.25,1.99.74,2.66.5.67,1.23,1.01,2.21,1.01.32,0,.62-.01.89-.04.27-.02.5-.05.67-.08v-6.5c-.22-.14-.52-.26-.88-.36-.36-.1-.72-.14-1.09-.14-1.7,0-2.54,1.15-2.54,3.46Z"/><path class="cls-21" d="M427.67,536.73h-6.78v-78.68h-165.16v-95.61c0-2.02-1.64-3.66-3.66-3.66h-5.38c-2.02,0-3.67,1.64-3.67,3.67v95.6H77.93v5.3c-.02.17-.05.33-.05.51v72.88h-6.78c-.78,0-1.26.84-.88,1.52l13.14,22.84c.39.67,1.35.67,1.74,0l13.14-22.84c.39-.67-.1-1.52-.88-1.52h-6.78v-65.98h152.45v65.98h-6.78c-.78,0-1.26.84-.88,1.52l13.14,22.84c.39.67,1.35.67,1.74,0l13.14-22.84c.39-.67-.1-1.52-.88-1.52h-6.78v-65.98h152.46v65.98h-6.78c-.78,0-1.26.84-.88,1.52l13.14,22.84c.39.67,1.35.67,1.74,0l13.14-22.84c.39-.67-.1-1.52-.88-1.52Z"/></g><g id="Layer_2"><path class="cls-24" d="M854.29,463.94c.1-1.09.01-2.24,1.15-3.45,2.4-2.25,5.42-4.12,9.06-6.37,1.73-1.02,3.33-1.67,5.06-2.96.39-.29.93-.75,1.34-1.08,2.92-2.33,3.6-6.35,1.5-8.98s-6.16-2.88-9.09-.55c-.42.33-.98.76-1.35,1.08-1.64,1.41-2.65,2.8-4.02,4.26-3,3.05-5.49,5.6-8.22,7.43-1.18.69-2.91.45-3.7.4l-2.22,1.59c3.09,3.25,5.9,6.76,8.4,10.5.65-.58,1.77-1.58,2.09-1.88Z"/><path class="cls-8" d="M852.16,466.12l-.13-.19c-2.49-3.71-5.3-7.24-8.38-10.47l-.16-.17,2.47-1.76h.07c.09,0,.2.02.32.03.85.07,2.28.18,3.26-.4,2.63-1.77,5.1-4.28,7.95-7.18l.22-.22c.45-.48.88-.96,1.28-1.43.85-.97,1.65-1.89,2.75-2.84.27-.23.63-.52.98-.79.13-.1.26-.2.38-.3,1.45-1.16,3.22-1.74,4.99-1.63,1.77.11,3.33.89,4.38,2.21,2.16,2.71,1.48,6.87-1.53,9.27-.14.11-.29.23-.44.36-.31.26-.64.53-.91.72-1.15.85-2.26,1.44-3.33,2.01-.57.3-1.16.61-1.75.96-3.57,2.2-6.65,4.1-9.03,6.34-.92.99-.99,1.95-1.05,2.87-.01.15-.02.3-.03.45v.08s-.06.05-.06.05c-.16.15-.53.47-.93.83-.4.36-.84.75-1.17,1.05l-.17.16ZM844.1,455.35c2.97,3.15,5.71,6.57,8.13,10.16.3-.27.66-.59.99-.89.36-.32.68-.61.86-.78,0-.12.02-.24.03-.36.06-.95.14-2.03,1.17-3.13,2.42-2.27,5.51-4.18,9.1-6.4.61-.36,1.2-.67,1.78-.98,1.11-.59,2.16-1.14,3.28-1.97.26-.19.58-.46.89-.71.16-.13.31-.25.44-.36,2.83-2.26,3.49-6.16,1.47-8.7-.98-1.23-2.43-1.96-4.09-2.06-1.67-.1-3.34.45-4.71,1.54-.12.09-.25.19-.38.3-.35.27-.7.55-.97.78-1.08.93-1.87,1.84-2.71,2.8-.41.47-.83.96-1.3,1.45l-.22.22c-2.87,2.92-5.35,5.44-8.03,7.24-1.11.64-2.61.53-3.51.46-.09,0-.17-.01-.24-.02l-1.98,1.41Z"/><path class="cls-33" d="M705.53,521.58c-.67.87-1.62,2.24-2.62,2.64-3.14.99-6.66,1.35-10.92,1.8-2,.17-3.73.07-5.85.47-.47.09-1.12.26-1.63.38-.02,0-.03,0-.05.01-.03,0-.06.02-.09.03-3.59.87-5.9,4.17-5.16,7.42.74,3.25,4.25,5.23,7.86,4.45.03,0,.06,0,.09-.01.04,0,.08-.03.12-.04.5-.11,1.13-.23,1.58-.35,2.08-.56,3.59-1.38,5.47-2.1,4.03-1.45,7.37-2.65,10.62-3.12,1.36-.11,2.79.84,3.5,1.24l2.59-.44c-.19-4.55-.86-8.21-2.99-13.1l-2.53.73Z"/><path class="cls-8" d="M685.52,539.14c-3.1,0-5.85-1.92-6.5-4.78-.76-3.33,1.62-6.77,5.31-7.66.01,0,.02,0,.03,0,.02,0,.04-.01.06-.02.03,0,.04-.01.06-.01.15-.04.32-.08.49-.12.4-.1.81-.2,1.14-.26,1.41-.27,2.66-.32,3.88-.36.64-.03,1.3-.05,1.99-.11h.13c4.11-.45,7.66-.82,10.75-1.79.81-.33,1.66-1.44,2.27-2.25.09-.11.17-.22.24-.32l.04-.05,2.76-.8.07.16c2.27,5.2,2.83,8.9,3.01,13.17v.18s-2.82.49-2.82.49l-.06-.03c-.08-.05-.17-.1-.27-.16-.74-.43-1.98-1.15-3.12-1.06-3.17.46-6.52,1.66-10.4,3.05l-.17.06c-.62.24-1.22.49-1.79.74-1.18.51-2.29.99-3.69,1.36-.32.08-.73.17-1.12.25-.16.03-.32.07-.46.1,0,0-.02,0-.03.01-.03.01-.06.02-.09.03-.02,0-.05,0-.07.01h-.02c-.54.12-1.08.17-1.6.17ZM705.65,521.75c-.07.08-.13.17-.2.27-.68.89-1.53,2.01-2.46,2.39-3.14.99-6.71,1.36-10.84,1.8h-.14c-.7.07-1.36.1-2.01.12-1.26.05-2.45.1-3.82.36-.32.06-.73.16-1.12.26-.17.04-.34.08-.5.12h-.05s-.02.02-.03.02c-.02,0-.04.01-.06.02-3.47.84-5.72,4.06-5,7.18.71,3.12,4.13,5.05,7.62,4.3.02,0,.04,0,.07,0,0,0,.02,0,.02,0,0,0,.02,0,.03-.01.03-.01.05-.02.08-.03.15-.03.31-.07.47-.1.39-.08.79-.17,1.1-.25,1.37-.37,2.47-.84,3.63-1.34.58-.25,1.18-.51,1.81-.75l.18-.06c3.9-1.4,7.26-2.61,10.49-3.07,1.28-.1,2.59.66,3.36,1.11.07.04.14.08.2.12l2.34-.4c-.18-4.11-.74-7.7-2.89-12.69l-2.29.67Z"/><path class="cls-11" d="M745.15,580.46c.4,1.03.84,2.43.54,3.45-1.18,3.07-3.21,6.3-5.52,9.91-1.12,1.67-2.26,2.96-3.27,4.87-.24.46-.55,1.16-.78,1.64-1.57,3.35-.42,7.21,2.59,8.66,3.03,1.46,6.78-.08,8.41-3.44,0,0,.01,0,.01-.01,0,0,0,0,0-.01.23-.48.56-1.1.76-1.55.86-1.98,1.15-3.67,1.76-5.59,1.61-4.05,2.5-8.3,4.72-10.95.61-.72,1.6-1,2.63-1.28l1.32-2.39c-4.22-1.6-8.28-3.56-12.12-5.83l-1.05,2.52Z"/><path class="cls-8" d="M741.13,609.74c-.85,0-1.7-.18-2.5-.57-3.09-1.49-4.29-5.49-2.69-8.93.08-.18.18-.38.28-.59.17-.38.35-.77.51-1.06.67-1.27,1.42-2.3,2.15-3.29.37-.51.76-1.04,1.13-1.6,2.41-3.77,4.34-6.89,5.49-9.87.32-1.08-.33-2.75-.54-3.3l-.03-.08,1.17-2.81.2.12c3.85,2.28,7.91,4.23,12.09,5.82l.22.08-1.48,2.67-.08.02c-.95.26-1.94.52-2.52,1.21-1.54,1.83-2.43,4.47-3.38,7.26-.4,1.19-.82,2.42-1.3,3.63-.2.64-.37,1.27-.54,1.89-.32,1.17-.65,2.39-1.22,3.7-.13.3-.32.68-.51,1.05-.08.16-.16.31-.23.45h0s-.03.06-.03.06c0,.02-.02.04-.03.05-1.24,2.54-3.71,4.07-6.17,4.07ZM745.36,580.46c.38,1,.83,2.42.52,3.5-1.17,3.03-3.12,6.17-5.54,9.97-.38.57-.77,1.1-1.14,1.61-.75,1.02-1.46,1.99-2.11,3.24-.15.29-.33.67-.5,1.04-.1.21-.19.42-.28.59-1.51,3.23-.39,7,2.5,8.39,2.92,1.4,6.57-.1,8.14-3.34l.02-.04c.08-.16.16-.32.25-.5.18-.36.37-.73.5-1.03.56-1.29.87-2.43,1.2-3.65.17-.62.34-1.26.55-1.92.48-1.21.9-2.44,1.3-3.62.96-2.83,1.87-5.5,3.45-7.39.64-.77,1.7-1.07,2.65-1.32l1.17-2.12c-4.04-1.55-7.99-3.45-11.73-5.65l-.93,2.24Z"/><path class="cls-7" d="M726.67,453.79c-1.09.15-2.19.48-3.62-.35-2.73-1.84-5.21-4.37-8.22-7.42-1.38-1.46-2.37-2.85-4.01-4.26-.37-.32-.94-.75-1.35-1.08-1.28-1.02-2.79-1.55-4.24-1.6-1.87-.06-3.68.67-4.86,2.15-2.1,2.63-1.43,6.65,1.5,8.98.03.02.06.04.09.07.4.33.89.74,1.26,1.02,1.74,1.28,3.32,1.94,5.05,2.96,3.64,2.25,6.67,4.12,9.06,6.37.94,1,1.1,2.76,1.22,3.52l1.95,1.74c-9.17,13.81-9.21,30.46-8.32,47.72-.06-1.26,4.11-.98,4.11-2.25,0-28.09,11.04-50.69,30.45-64.58l-17.88,8.6c-.67-.46-1.85-1.3-2.2-1.56Z"/><path class="cls-8" d="M711.99,513.6h0c-.88-17.19-.91-33.78,8.26-47.69l-1.88-1.68v-.07c-.03-.08-.04-.18-.06-.29-.13-.85-.34-2.28-1.13-3.12-2.37-2.23-5.45-4.13-9.02-6.33-.59-.34-1.17-.65-1.73-.95-1.07-.57-2.18-1.16-3.34-2.01-.27-.2-.59-.47-.91-.73-.12-.1-.25-.2-.36-.3,0,0-.02-.01-.03-.02-.02-.01-.04-.03-.06-.04-1.45-1.16-2.41-2.76-2.7-4.5-.29-1.75.13-3.45,1.18-4.76,1.18-1.48,3.01-2.29,5.02-2.22,1.55.05,3.1.64,4.36,1.65.11.09.24.19.36.29.34.26.72.56,1,.8,1.09.94,1.89,1.85,2.72,2.82.41.47.84.96,1.3,1.46l.1.11c2.9,2.94,5.4,5.48,8.08,7.29,1.17.68,2.12.53,3.04.38.15-.02.29-.05.44-.07h.08s.07.04.07.04c.35.26,1.44,1.04,2.1,1.49l17.77-8.55.21.35c-19.58,14.02-30.37,36.89-30.37,64.42,0,.8-1.14,1.07-2.23,1.33-.89.21-1.9.45-1.88.91,0,0,0,0,0,0,0,0,0,0,0,0l-.4.02ZM718.75,464.02l2.03,1.81-.1.15c-9.08,13.66-9.17,29.98-8.32,46.93.42-.3,1.12-.47,1.82-.64.9-.21,1.92-.46,1.92-.94,0-13.91,2.68-26.6,7.97-37.7,4.9-10.3,11.91-18.96,20.84-25.77l-16.05,7.72-.1-.07c-.66-.45-1.74-1.22-2.14-1.52-.12.02-.23.03-.35.05-.94.15-2.01.32-3.32-.44-2.72-1.83-5.24-4.39-8.15-7.35l-.11-.11c-.47-.5-.9-.99-1.32-1.47-.83-.95-1.61-1.85-2.68-2.77-.27-.23-.65-.53-.98-.79-.13-.1-.25-.2-.37-.29-1.2-.95-2.66-1.51-4.13-1.56-1.88-.06-3.59.69-4.69,2.07-.98,1.23-1.37,2.81-1.09,4.44.27,1.65,1.18,3.16,2.56,4.25.01,0,.02.02.04.03.02.01.04.02.05.04.12.1.24.2.37.3.31.26.63.52.89.71,1.13.83,2.18,1.39,3.29,1.98.57.3,1.15.61,1.75.96,3.59,2.22,6.69,4.13,9.1,6.39.89.94,1.11,2.45,1.24,3.35.01.08.02.15.03.21Z"/><path class="cls-22" d="M792.98,428.23c-.79-.76-1.75-1.41-1.99-3.05-.27-3.28.18-6.8.69-11.05.28-1.99.75-3.64.83-5.79.02-.49-.01-1.2-.01-1.73,0-3.74-2.73-6.77-6.09-6.77h0c-3.36,0-6.09,3.03-6.09,6.77,0,.06.01.11.01.17,0,.51-.03,1.12-.01,1.56.08,2.16.55,3.81.83,5.79.51,4.25.94,7.78.68,11.05-.26,1.24-1.17,2.37-1.98,3.15l-.14,2.58-9.46,4.55c5.08-1.5,10.47-2.6,16.15-3.26,2.25-.26,4.52-1.44,6.73-1.25-.05-.81-.13-2.28-.14-2.72Z"/><path class="cls-8" d="M770.29,435.65l-.14-.38,9.35-4.5.14-2.54.06-.06c.73-.71,1.66-1.81,1.92-3.03.26-3.23-.17-6.79-.67-10.91v-.09c-.11-.67-.22-1.31-.34-1.93-.23-1.26-.45-2.44-.51-3.88-.01-.31,0-.69,0-1.07,0-.17,0-.34,0-.5,0-.01,0-.04,0-.06,0-.04,0-.07,0-.11,0-1.86.65-3.61,1.84-4.92,1.19-1.32,2.77-2.05,4.46-2.05h0c1.69,0,3.27.73,4.46,2.05,1.18,1.32,1.84,3.06,1.84,4.92,0,.19,0,.4,0,.61,0,.4.02.81,0,1.13-.05,1.44-.27,2.62-.51,3.88-.11.62-.23,1.26-.33,1.94l-.04.32c-.49,4.03-.91,7.52-.65,10.69.2,1.33.91,1.98,1.59,2.6.11.1.23.21.34.31l.06.06v.08c.02.44.09,1.89.15,2.71l.02.23-.23-.02c-1.28-.11-2.63.27-3.93.63-.9.25-1.83.51-2.76.62-5.58.65-11.01,1.74-16.12,3.25ZM780.04,428.42l-.15,2.62-7.48,3.6c4.47-1.19,9.15-2.08,13.95-2.64.89-.1,1.81-.36,2.69-.61,1.26-.35,2.56-.72,3.84-.66-.05-.79-.1-1.94-.13-2.41-.09-.08-.18-.17-.27-.25-.71-.64-1.5-1.37-1.72-2.86-.26-3.23.16-6.73.65-10.78l.04-.33c.1-.68.22-1.33.33-1.96.23-1.24.45-2.41.5-3.82.01-.31,0-.72,0-1.11,0-.22,0-.43,0-.62,0-1.76-.62-3.41-1.73-4.65-1.11-1.24-2.59-1.92-4.16-1.92h0c-1.57,0-3.05.68-4.16,1.92-1.12,1.24-1.73,2.89-1.73,4.65,0,.02,0,.05,0,.07,0,.03,0,.06,0,.1,0,.17,0,.34,0,.51,0,.37-.02.75,0,1.05.05,1.41.27,2.58.5,3.82.12.63.24,1.27.33,1.95v.09c.51,4.15.94,7.73.68,11v.02c-.27,1.3-1.22,2.45-1.98,3.2Z"/><path class="cls-28" d="M807.47,583.54c2.44.25,4.68,1.2,7.14.27.39.69,1.11,2.01,1.3,2.34,1.04.34,2.18.51,3.11,1.89,1.66,2.84,2.8,6.19,4.18,10.25.61,1.91.91,3.61,1.77,5.59.2.45.52,1.09.76,1.56,1.62,3.37,5.39,4.91,8.42,3.45,3.01-1.45,4.16-5.31,2.59-8.66-.23-.48-.55-1.18-.79-1.64-1.01-1.91-2.15-3.19-3.27-4.86-2.31-3.61-4.22-6.61-5.4-9.67-.49-1.58.08-2.57.47-3.59-.23-.26-.72-1.76-1.02-2.46,9-5.31,10.98-16.15,17.12-24.31l3.69,2.15c-9.43,13.47-23.28,23.26-40.07,27.7Z"/><path class="cls-8" d="M831.72,609.64c-.8,0-1.6-.16-2.39-.48-1.64-.67-2.98-1.96-3.79-3.64-.07-.14-.15-.3-.23-.46-.19-.39-.39-.79-.53-1.11-.58-1.32-.9-2.49-1.24-3.73-.17-.61-.34-1.23-.54-1.87l-.05-.16c-1.33-3.9-2.48-7.26-4.11-10.04-.76-1.12-1.68-1.4-2.58-1.67-.14-.04-.28-.09-.42-.13l-.07-.02-.04-.07c-.1-.17-.35-.62-.61-1.1-.21-.38-.43-.78-.61-1.1-1.78.62-3.47.3-5.11,0-.64-.12-1.3-.24-1.96-.31l-1.1-.11,1.07-.28c10.23-2.71,19.41-7.38,27.19-13.79,1.27-2.05,2.39-4.24,3.53-6.49,1.64-3.22,3.33-6.55,5.56-9.5l.11-.14,4.03,2.35-.13.18c-3.67,5.25-7.96,9.89-12.79,13.87-2.03,3.27-4.44,6.16-7.94,8.26.08.2.17.45.26.7.22.59.52,1.39.65,1.54l.08.09-.04.11c-.05.14-.11.29-.17.43-.36.89-.7,1.74-.3,3.03,1.18,3.05,3.12,6.1,5.38,9.62.38.56.77,1.09,1.14,1.61.72.98,1.46,2,2.13,3.27.17.32.38.77.57,1.16.08.17.16.34.23.49,1.61,3.44.4,7.44-2.69,8.93-.79.38-1.65.57-2.51.57ZM816.04,585.98c.11.04.23.07.34.1.92.28,1.96.59,2.8,1.84,1.66,2.83,2.81,6.21,4.15,10.13l.06.16c.21.65.38,1.28.55,1.89.34,1.22.65,2.38,1.22,3.68.14.31.33.71.52,1.09.08.16.16.32.23.46.76,1.58,2.03,2.8,3.58,3.44,1.54.63,3.16.6,4.58-.08,2.89-1.39,4.01-5.16,2.5-8.39-.07-.14-.15-.31-.23-.49-.18-.39-.39-.83-.56-1.14-.66-1.24-1.36-2.2-2.1-3.22-.38-.52-.77-1.05-1.15-1.62-2.27-3.55-4.23-6.62-5.42-9.71-.45-1.44-.05-2.44.3-3.32.04-.11.09-.21.13-.32-.16-.26-.37-.81-.65-1.56-.12-.32-.23-.63-.32-.85l-.07-.16.15-.09c3.13-1.85,5.39-4.35,7.29-7.19-7.37,5.85-15.95,10.2-25.43,12.84.34.06.67.12,1,.18,1.71.32,3.32.62,5.06-.03l.16-.06.09.15c.19.33.45.81.7,1.25.23.42.45.82.57,1.02ZM843.9,553.95c-2.15,2.89-3.81,6.15-5.41,9.3-.96,1.89-1.91,3.74-2.94,5.5,4.38-3.74,8.3-8.04,11.69-12.85l-3.34-1.95Z"/><path class="cls-25" d="M888.45,526.76c-.52-.12-1.26-.32-1.77-.42-2.12-.4-3.85-.3-5.85-.47-4.26-.45-7.79-.81-10.92-1.8-1.28-.5-2.19-2.02-2.63-2.64l-2.46-.72-3.62-10.36c0,17.44-4.95,33.03-13.67,45.49l-2.75-1.75c5.37-7.13,14.34-11.72,17.06-20.27.79.12,2.16.37,2.6.46.92-.6,1.76-1.39,3.41-1.26,3.25.47,6.59,1.68,10.62,3.12,1.87.72,3.38,1.55,5.47,2.11.44.12,1.07.23,1.58.34.04,0,.08.03.12.04.03,0,.07,0,.09.01,3.61.78,7.12-1.2,7.86-4.45.74-3.25-1.56-6.55-5.16-7.42Z"/><path class="cls-8" d="M847.59,556.11l-3.1-1.97.13-.17c2.03-2.7,4.6-5.06,7.09-7.34.65-.6,1.3-1.19,1.93-1.78,4.84-10.38,7.36-22.1,7.36-34.49v-1.19l3.97,11.39,2.43.71.04.06c.05.07.11.16.18.26.48.71,1.29,1.9,2.36,2.31,3.07.97,6.63,1.34,10.74,1.77h.13c.68.07,1.34.1,1.98.12,1.22.05,2.48.1,3.88.36.32.06.73.16,1.13.26.23.06.46.11.65.16h0c3.69.89,6.07,4.33,5.31,7.66-.76,3.34-4.4,5.4-8.1,4.61h-.02s-.05,0-.07-.01c-.03,0-.06-.02-.09-.03-.01,0-.02,0-.03-.01-.18-.04-.37-.08-.57-.12-.35-.07-.72-.14-1.01-.22-1.38-.37-2.54-.87-3.66-1.36-.58-.25-1.19-.52-1.83-.76l-.18-.07c-3.87-1.39-7.21-2.59-10.4-3.05-1.34-.1-2.13.44-2.89.97-.13.09-.25.18-.38.26l-.07.05-.08-.02c-.42-.09-1.64-.3-2.43-.43-1.46,4.43-4.64,7.85-8.01,11.04-1.78,3.82-3.88,7.45-6.28,10.88l-.11.16ZM845.08,554.04l2.4,1.53c2.14-3.08,4.04-6.33,5.69-9.73-.39.37-.79.73-1.18,1.09-2.42,2.22-4.92,4.52-6.91,7.12ZM861.4,511.53c-.15,11.65-2.53,22.69-6.97,32.57,3.17-3.05,5.91-6.2,7.23-10.34l.05-.17.17.03c.73.12,2,.34,2.53.44.1-.07.2-.14.3-.21.78-.54,1.67-1.16,3.17-1.04,3.24.47,6.6,1.67,10.49,3.07l.19.07c.65.25,1.26.51,1.85.77,1.16.5,2.25.97,3.6,1.34.27.07.63.15.98.22.2.04.4.08.59.12.03,0,.06.02.09.03.01,0,.02,0,.03.01h.02s.05,0,.07.01c3.49.75,6.91-1.18,7.62-4.3.71-3.12-1.53-6.34-5-7.18-.2-.04-.42-.1-.66-.16-.39-.1-.79-.2-1.1-.26-1.38-.26-2.56-.31-3.82-.36-.64-.03-1.31-.05-2-.11h-.13c-4.14-.45-7.71-.82-10.84-1.81-1.2-.46-2.05-1.72-2.56-2.47-.05-.07-.09-.14-.13-.19l-2.49-.73-3.26-9.36Z"/><path class="cls-34" d="M865.03,500.88c.02.21.05.41.07.62-.02-.21-.05-.41-.07-.62Z"/><path class="cls-18" d="M865.07,501.5h0c-.01-.11-.02-.22-.04-.32,0-.02,0-.04,0-.06,0-.08-.02-.16-.03-.24h.05s.01.09.01.09c0,.07.02.13.02.2.01.11.03.22.04.32h-.05Z"/><path class="cls-34" d="M782.3,588.8c-.31-.02-.62-.04-.93-.06.31.02.62.04.93.06Z"/><path class="cls-18" d="M782.3,588.83c-.16,0-.31-.02-.47-.03-.15,0-.3-.02-.46-.03v-.05c.11,0,.22.01.32.02.05,0,.09,0,.14,0,.16.01.31.02.47.03v.05Z"/><path class="cls-34" d="M707.37,513.59c.12,2.45.35,4.87.68,7.26h.03c-.35-2.43-.58-4.85-.71-7.26Z"/><path class="cls-34" d="M782.37,588.81s-.04,0-.06,0c.02,0,.04,0,.06,0Z"/><path class="cls-34" d="M843.7,455.39l.09-.07c-12.97-13.67-30.78-22.7-50.67-24.37,0,0,0,0,0,0,19.37,1.72,37.36,10.58,50.58,24.44Z"/><path class="cls-34" d="M863.54,492.27c.66,2.87,1.15,5.75,1.48,8.61-1.44-12.87-5.97-24.82-12.83-35.06-.02.02-.05.04-.07.06,5.25,7.82,9.19,16.69,11.42,26.39Z"/><path class="cls-34" d="M865.1,501.5c.02.15.03.29.04.44-.01-.15-.03-.29-.04-.44Z"/><path class="cls-34" d="M711.11,533.93h-.07c5.96,18.62,18.63,34.23,35.15,44.01l.05-.13c-16.22-9.61-29.03-24.93-35.14-43.87Z"/><path class="cls-34" d="M758.32,583.77c7.24,2.75,14.98,4.47,23.06,4.97-7.96-.54-15.71-2.28-23-5.08l-.06.1Z"/><polygon class="cls-34" points="840.1 476.63 840.09 476.63 840.09 476.63 840.1 476.63"/><path class="cls-34" d="M746.75,446.75l8.51-4.09-.39-.94c-2.85,1.52-5.56,3.2-8.12,5.04Z"/><path class="cls-34" d="M755.27,442.66l14.97-7.2c-5.49,1.62-10.62,3.72-15.37,6.25l.39.94Z"/><path class="cls-34" d="M804.68,583.66c-7.31,1.66-15.16,2.05-22.31,1.66,1.34.07,2.74.88,4.09.88,7.39,0,14.42-.92,21-2.66-.89-.09-1.82-.09-2.79.13Z"/><path class="cls-12" d="M764.79,530.05c-.56-2.46-2.73-4.15-5.16-4.18h0c-.35,0-.7.03-1.05.09l-.05-.07-31.45,5.34c4.85,13.43,13.93,24.38,25.32,31.69l12.19-29.45-.09-.12c.43-1.01.56-2.15.3-3.31Z"/><path class="cls-12" d="M795.86,479h.03c.05,1.11.43,2.2,1.17,3.12,1.8,2.26,5.06,2.68,7.37.99l.09.04,26.04-18.46c-9.82-9.62-22.64-15.9-36.51-17.6l1.81,31.91Z"/><path class="cls-12" d="M791.13,541.6c-.52-.97-1.34-1.78-2.41-2.29-.81-.39-1.67-.56-2.51-.53-1.86.07-3.62,1.1-4.54,2.84h-.03l-15.47,27.97c10.7,3.65,22.52,4.46,34.38,1.77,2.12-.48,4.18-1.06,6.2-1.73l-15.51-28.02h-.12Z"/><path class="cls-12" d="M742.05,464.68l26.21,18.58.05-.03c.89.65,1.98,1.03,3.16,1.03,2.89,0,5.24-2.28,5.36-5.14l.13-.07,1.81-31.96c-2.16.26-4.33.63-6.5,1.12-11.87,2.7-22.18,8.55-30.23,16.47Z"/><polygon class="cls-12" points="795.2 516.8 797.39 507.29 791.3 499.68 781.5 499.68 775.39 507.28 777.58 516.79 786.4 521.03 795.2 516.8"/><path class="cls-12" d="M754.34,507.39c1.06-.29,2.05-.91,2.79-1.84,1.8-2.26,1.48-5.52-.68-7.39l.03-.13-23.93-21.4c-7.1,11.57-10.47,25.45-8.91,39.72l30.67-8.85.03-.1Z"/><path class="cls-12" d="M814.16,525.83c-.41-.07-.82-.11-1.24-.09h0c-.69.04-1.39.21-2.06.53-2.6,1.25-3.74,4.34-2.6,6.97l-.04.05,12.32,29.75c11.87-7.56,20.76-18.86,25.4-31.91l-31.73-5.36-.05.07Z"/><path class="cls-12" d="M840.09,476.63l-23.8,21.3v.07c-.82.72-1.43,1.7-1.69,2.85-.64,2.82,1.05,5.62,3.81,6.38l.03.13,30.83,8.88c.65-6.65.26-13.53-1.33-20.43-1.6-6.98-4.3-13.41-7.85-19.18Z"/><polygon class="cls-12" points="840.09 476.63 840.09 476.63 840.1 476.63 840.09 476.63"/><path class="cls-12" d="M814.16,525.83c-.41-.07-.82-.11-1.24-.09h0c-.69.04-1.39.21-2.06.53-2.6,1.25-3.74,4.34-2.6,6.97l-.04.05,12.32,29.75c11.87-7.56,20.76-18.86,25.4-31.91l-31.73-5.36-.05.07Z"/><path class="cls-12" d="M795.86,479h.03c.05,1.11.43,2.2,1.17,3.12,1.8,2.26,5.06,2.68,7.37.99l.09.04,26.04-18.46c-9.82-9.62-22.64-15.9-36.51-17.6l1.81,31.91Z"/><path class="cls-12" d="M754.34,507.39c1.06-.29,2.05-.91,2.79-1.84,1.8-2.26,1.48-5.52-.68-7.39l.03-.13-23.93-21.4c-7.1,11.57-10.47,25.45-8.91,39.72l30.67-8.85.03-.1Z"/><path class="cls-12" d="M791.13,541.6c-.52-.97-1.34-1.78-2.41-2.29-.81-.39-1.67-.56-2.51-.53-1.86.07-3.62,1.1-4.54,2.84h-.03l-15.47,27.97c10.7,3.65,22.52,4.46,34.38,1.77,2.12-.48,4.18-1.06,6.2-1.73l-15.51-28.02h-.12Z"/><path class="cls-12" d="M764.49,533.36c.43-1.01.56-2.15.3-3.31-.56-2.46-2.73-4.15-5.16-4.18h0c-.35,0-.7.03-1.05.09l-.05-.07-31.45,5.34c4.85,13.43,13.93,24.38,25.32,31.69l12.19-29.45-.09-.12Z"/><path class="cls-12" d="M742.05,464.68l26.21,18.58.05-.03c.89.65,1.98,1.03,3.16,1.03,2.89,0,5.24-2.28,5.36-5.14l.13-.07,1.81-31.96c-2.16.26-4.33.63-6.5,1.12-11.87,2.7-22.18,8.55-30.23,16.47Z"/><polygon class="cls-12" points="795.2 516.8 797.39 507.29 791.3 499.68 781.5 499.68 775.39 507.28 777.58 516.79 786.4 521.03 795.2 516.8"/><polygon class="cls-12" points="840.09 476.63 840.09 476.63 840.1 476.63 840.09 476.63"/><path class="cls-12" d="M840.09,476.63l-23.8,21.3v.07c-.82.72-1.43,1.7-1.69,2.85-.64,2.82,1.05,5.62,3.81,6.38l.03.13,30.83,8.88c.65-6.65.26-13.53-1.33-20.43-1.6-6.98-4.3-13.41-7.85-19.18Z"/><path class="cls-12" d="M814.16,525.83c-.41-.07-.82-.11-1.24-.09h0c-.69.04-1.39.21-2.06.53-2.6,1.25-3.74,4.34-2.6,6.97l-.04.05,12.32,29.75c11.87-7.56,20.76-18.86,25.4-31.91l-31.73-5.36-.05.07Z"/><path class="cls-12" d="M791.13,541.6c-.52-.97-1.34-1.78-2.41-2.29-.81-.39-1.67-.56-2.51-.53-1.86.07-3.62,1.1-4.54,2.84h-.03l-15.47,27.97c10.7,3.65,22.52,4.46,34.38,1.77,2.12-.48,4.18-1.06,6.2-1.73l-15.51-28.02h-.12Z"/><path class="cls-12" d="M764.49,533.36c.43-1.01.56-2.15.3-3.31-.56-2.46-2.73-4.15-5.16-4.18h0c-.35,0-.7.03-1.05.09l-.05-.07-31.45,5.34c4.85,13.43,13.93,24.38,25.32,31.69l12.19-29.45-.09-.12Z"/><path class="cls-12" d="M795.88,479.02c.05,1.1.43,2.19,1.17,3.11,1.8,2.26,5.06,2.68,7.37.99l.09.04,26.04-18.46c-9.82-9.62-22.64-15.9-36.51-17.6l1.81,31.91h.03Z"/><path class="cls-12" d="M754.34,507.39c1.06-.29,2.05-.91,2.79-1.84,1.8-2.26,1.48-5.52-.68-7.39l.03-.13-23.93-21.4c-7.1,11.57-10.47,25.45-8.91,39.72l30.67-8.85.03-.1Z"/><path class="cls-12" d="M840.09,476.63l-23.8,21.3v.07c-.82.72-1.43,1.7-1.69,2.85-.64,2.82,1.05,5.62,3.81,6.38l.03.13,30.83,8.88c.65-6.65.26-13.53-1.33-20.43-1.6-6.98-4.3-13.41-7.85-19.18Z"/><path class="cls-12" d="M768.31,483.23c.89.65,1.98,1.03,3.16,1.03,2.89,0,5.24-2.28,5.36-5.14l.13-.07,1.81-31.96c-2.16.26-4.33.63-6.5,1.12-11.87,2.7-22.18,8.55-30.23,16.47l26.21,18.58.05-.03Z"/><polygon class="cls-12" points="781.5 499.68 775.39 507.28 777.58 516.79 786.4 521.03 795.2 516.8 797.39 507.29 791.3 499.68 781.5 499.68"/><polygon class="cls-12" points="840.09 476.63 840.09 476.63 840.1 476.63 840.09 476.63"/><path class="cls-34" d="M865.14,501.94c-.02-.15-.03-.29-.04-.44-.02-.21-.05-.41-.07-.62-.33-2.86-.82-5.74-1.48-8.61-2.23-9.7-6.17-18.57-11.42-26.39.02-.02.05-.04.07-.06-2.5-3.74-5.31-7.25-8.4-10.5h0c-13.21-13.86-31.3-22.65-50.67-24.37,0,0,0,0,0,0-2.21-.19-4.45-.29-6.72-.29-43.7,0-79.12,35.42-79.12,79.12,0,1.27.03,2.54.09,3.8.12,2.41.36,4.82.71,7.25h-.03c.63,4.51,1.64,8.89,2.99,13.11h.07c6.11,18.94,18.92,34.25,35.14,43.86l-.05.13c3.84,2.27,7.89,4.23,12.12,5.83l.06-.1c7.3,2.8,15.04,4.54,23,5.08.31.02.62.04.93.06.02,0,.04,0,.06,0,1.34.07,2.68.1,4.04.1,43.7,0,79.12-35.42,79.12-79.12,0-2.65-.13-5.26-.39-7.84ZM849.27,516.24s-1.15,9.31-3.33,14.89c-4.64,13.05-13.53,24.35-25.4,31.91-6.5,3.92-13.79,6.57-13.79,6.57-2.01.67-4.08,1.25-6.2,1.73-11.86,2.69-23.68,1.88-34.38-1.77-8.12-2.37-13.77-6.65-13.77-6.65-11.39-7.31-20.47-18.26-25.32-31.69-2-5.35-3.44-14.89-3.44-14.89-1.56-14.28,1.8-28.15,8.91-39.72,1.61-3.69,9.5-11.94,9.5-11.94,8.05-7.92,18.36-13.77,30.23-16.47,2.17-.49,4.34-.86,6.5-1.12,0,0,7.93-1.04,15.27,0,13.86,1.7,26.68,7.98,36.51,17.6,0,0,4.5,3.62,9.54,11.94h0s0,0,0,0h0c3.56,5.76,6.25,12.2,7.85,19.18,1.58,6.89,1.98,13.78,1.33,20.43Z"/><path class="cls-8" d="M786.4,589.11c-1.34,0-2.7-.03-4.05-.1h-.07c-.2-.01-.41-.03-.61-.04l-.32-.02c-7.83-.53-15.53-2.22-22.9-5.03l-.06.1-.16-.06c-4.19-1.59-8.28-3.56-12.15-5.85l-.15-.09.06-.13c-16.65-9.91-29.08-25.43-35.02-43.73h-.07s-.05-.16-.05-.16c-1.37-4.26-2.37-8.68-3-13.14l-.02-.17h.03c-.33-2.34-.56-4.73-.68-7.1-.06-1.3-.09-2.59-.09-3.81,0-10.71,2.1-21.1,6.23-30.88,4-9.45,9.71-17.93,17-25.21,7.28-7.29,15.77-13,25.21-17,9.78-4.14,20.17-6.23,30.88-6.23,2.2,0,4.47.1,6.73.29l.19.02c19.31,1.76,37.28,10.43,50.62,24.41,3.09,3.25,5.92,6.79,8.42,10.53l.1.15-.07.06c5.36,8.02,9.18,16.87,11.35,26.31.65,2.82,1.15,5.73,1.49,8.63l.03.24c.02.13.03.26.04.39,0,.08.02.17.03.26l.02.19c.26,2.61.39,5.26.39,7.86,0,10.71-2.1,21.1-6.23,30.88-4,9.45-9.71,17.93-17,25.21-7.28,7.29-15.77,13-25.21,17-9.78,4.14-20.17,6.23-30.88,6.23ZM758.28,583.41l.16.06c7.37,2.83,15.09,4.53,22.94,5.07l.32.02c.2.01.4.03.61.04h.07c1.34.07,2.69.1,4.02.1,43.52,0,78.92-35.4,78.92-78.92,0-2.59-.13-5.22-.39-7.82l-.02-.19c0-.08-.02-.17-.03-.25-.01-.13-.03-.26-.04-.38l-.03-.24c-.34-2.89-.83-5.78-1.48-8.59-2.17-9.45-6-18.3-11.39-26.32l-.1-.15.07-.06c-2.46-3.66-5.25-7.13-8.28-10.33-13.31-13.96-31.27-22.59-50.55-24.31l-.18-.02c-2.19-.18-4.38-.27-6.52-.27-43.52,0-78.92,35.4-78.92,78.92,0,1.22.03,2.49.09,3.79.12,2.42.36,4.85.7,7.23l.03.17h-.03c.61,4.32,1.59,8.6,2.9,12.73h.07s.05.16.05.16c5.91,18.33,18.36,33.87,35.05,43.76l.15.09-.05.13c3.75,2.21,7.71,4.11,11.77,5.67l.06-.11ZM786.46,573.13c-6.91,0-13.78-1.13-20.35-3.37-8.05-2.35-13.77-6.64-13.83-6.68-5.76-3.69-10.86-8.27-15.15-13.58-4.41-5.46-7.85-11.58-10.24-18.2-1.99-5.31-3.43-14.84-3.45-14.93-.77-7.04-.36-14.09,1.21-20.95,1.53-6.68,4.13-13.04,7.72-18.89,1.61-3.69,9.21-11.65,9.54-11.98,8.34-8.2,18.83-13.91,30.33-16.53,2.09-.47,4.28-.85,6.52-1.12.08-.01,8.04-1.03,15.32,0,13.71,1.69,26.71,7.96,36.62,17.66.03.02,4.58,3.72,9.57,11.98,3.65,5.92,6.3,12.39,7.87,19.24,1.55,6.77,2,13.66,1.33,20.49h0c-.01.1-1.18,9.4-3.35,14.95-4.68,13.15-13.73,24.52-25.48,32.01-6.44,3.89-13.75,6.57-13.83,6.59-2,.67-4.09,1.26-6.22,1.74-4.67,1.06-9.42,1.59-14.14,1.59ZM786.84,446.84c-4.48,0-7.99.45-8.04.46-2.22.27-4.4.65-6.48,1.12-11.43,2.6-21.85,8.27-30.13,16.42-.07.08-7.89,8.26-9.46,11.88v.03c-7.24,11.78-10.39,25.84-8.89,39.59.01.09,1.45,9.57,3.43,14.85,4.74,13.11,13.47,24.03,25.24,31.59.07.05,5.73,4.3,13.72,6.63,11.01,3.75,22.86,4.36,34.28,1.77,2.12-.48,4.19-1.06,6.18-1.73.07-.02,7.34-2.69,13.75-6.56,11.67-7.43,20.66-18.73,25.31-31.8,2.14-5.48,3.3-14.66,3.32-14.85.67-6.79.22-13.64-1.32-20.36-1.56-6.8-4.19-13.23-7.83-19.12-4.96-8.19-9.45-11.85-9.5-11.89-9.86-9.65-22.78-15.88-36.4-17.56-2.42-.34-4.92-.46-7.18-.46Z"/><polygon class="cls-12" points="790.52 499.68 781.5 499.68 781.38 499.82 784.15 505.44 781.38 499.82 775.39 507.28 775.69 508.61 784.15 510.81 777.39 515.99 777.58 516.79 786.32 520.99 788.71 510.35 795.35 516.18 797.39 507.29 795.78 505.28 787.28 505.44 790.52 499.68"/><polygon class="cls-12" points="790.52 499.68 787.28 505.44 795.78 505.28 791.3 499.68 790.52 499.68"/><polygon class="cls-12" points="786.32 520.99 786.4 521.03 795.2 516.8 795.35 516.18 788.71 510.35 786.32 520.99"/><polygon class="cls-12" points="775.69 508.61 777.39 515.99 784.15 510.81 775.69 508.61"/><path class="cls-32" d="M810.87,526.28c.67-.32,1.36-.5,2.06-.53h0c.42-.02.83.02,1.24.09l.05-.07,31.73,5.36c2.18-5.59,3.33-14.89,3.33-14.89l-30.83-8.88-.03-.13c-1.34-.37-2.43-1.22-3.12-2.31l-19.52.37,1.61,2.01-2.05,8.89,13.47,11.83c.51-.72,1.2-1.33,2.05-1.74Z"/><path class="cls-8" d="M846.07,531.36l-31.77-5.37-.05.07-.12-.02c-.42-.08-.81-.11-1.19-.09-.68.03-1.34.21-1.98.51-.79.38-1.47.96-1.98,1.67l-.13.18-13.73-12.06,2.05-8.91-1.8-2.25,20.04-.38.06.1c.69,1.1,1.76,1.89,3,2.23l.12.03.03.13,30.88,8.89-.02.17c-.01.09-1.18,9.4-3.35,14.94l-.06.15ZM814.13,525.55l.12.02,31.56,5.34c1.95-5.1,3.07-13.24,3.24-14.52l-30.78-8.87-.03-.13c-1.25-.37-2.33-1.17-3.05-2.27l-18.99.36,1.41,1.77-2.04,8.87,13.21,11.61c.53-.69,1.22-1.25,2-1.63h0c.69-.33,1.4-.52,2.13-.55.37-.02.75,0,1.16.07l.05-.06Z"/><path class="cls-10" d="M775.69,508.61l-17.71-4.61c-.19.55-.48,1.07-.86,1.55-.74.93-1.73,1.55-2.79,1.84l-.03.1-30.67,8.85s1.43,9.54,3.44,14.89l31.45-5.34.05.07c.35-.06.71-.1,1.05-.09h0c1.22.02,2.38.46,3.3,1.2l14.45-11.09-1.7-7.38Z"/><path class="cls-8" d="M726.94,531.46l-.06-.16c-1.99-5.31-3.43-14.84-3.45-14.93l-.03-.18,30.73-8.87.03-.11.11-.03c1.06-.29,1.99-.9,2.68-1.77.35-.44.63-.94.82-1.49l.06-.17,18.01,4.69,1.75,7.63-.1.08-14.58,11.19-.12-.1c-.9-.73-2.03-1.14-3.18-1.16-.33,0-.67.02-1.02.09l-.12.02-.05-.07-31.5,5.35ZM723.87,516.49c.2,1.31,1.54,9.62,3.34,14.52l31.41-5.33.05.06c.33-.05.66-.08.97-.07,1.19.02,2.35.42,3.3,1.15l14.23-10.91-1.64-7.13-17.42-4.53c-.2.52-.48,1.01-.82,1.44-.72.9-1.68,1.55-2.78,1.87l-.03.1-.11.03-30.5,8.8Z"/><path class="cls-1" d="M775.39,507.28l5.99-7.46-7.86-15.97c-.63.26-1.33.41-2.05.41-1.18,0-2.28-.38-3.16-1.03l-.05.03-26.21-18.58s-7.9,8.25-9.5,11.94l23.93,21.4-.03.13c1.7,1.48,2.25,3.81,1.53,5.84l17.71,4.61-.31-1.33Z"/><path class="cls-8" d="M775.97,508.89l-18.25-4.75.07-.21c.72-2.01.14-4.22-1.48-5.62l-.09-.08.03-.13-23.95-21.42.06-.13c1.6-3.68,9.22-11.66,9.54-12l.12-.13,26.25,18.61.05-.03.1.07c.89.65,1.94.99,3.04.99.68,0,1.35-.13,1.98-.39l.18-.07,8,16.25-.08.1-5.93,7.38.36,1.55ZM758.24,503.86l17.18,4.47-.25-1.1,5.97-7.43-7.72-15.68c-.62.23-1.28.35-1.95.35-1.15,0-2.25-.34-3.18-1l-.05.03-.1-.07-26.06-18.48c-.98,1.04-7.7,8.19-9.28,11.62l23.91,21.38-.03.13c1.62,1.46,2.22,3.7,1.57,5.78Z"/><path class="cls-13" d="M795.2,516.8l-8.8,4.23-.09-.04-4.65,20.63c.93-1.73,2.69-2.77,4.54-2.84.84-.03,1.7.14,2.51.53,1.07.51,1.89,1.32,2.41,2.29h.12l15.51,28.02s7.29-2.66,13.79-6.57l-12.32-29.75.04-.05c-.76-1.77-.5-3.74.55-5.22l-13.47-11.83-.14.61Z"/><path class="cls-8" d="M806.66,569.87l-15.53-28.06h-.12l-.06-.11c-.51-.96-1.31-1.72-2.32-2.2-.77-.37-1.59-.54-2.42-.51-1.83.07-3.51,1.11-4.37,2.73l-.7,1.32,5.03-22.33.23.11,8.63-4.15.2-.85,13.86,12.18-.1.15c-1.05,1.49-1.24,3.37-.53,5.03l.05.11-.04.05,12.34,29.8-.15.09c-6.44,3.88-13.75,6.56-13.82,6.59l-.16.06ZM791.25,541.4h.12l15.48,27.97c1.1-.41,7.61-2.91,13.44-6.41l-12.29-29.69.04-.05c-.69-1.71-.5-3.62.51-5.16l-13.08-11.49-.09.38-8.91,4.28-4.37,19.38c1-1.22,2.5-1.97,4.1-2.03.9-.03,1.78.15,2.61.55,1.04.5,1.89,1.29,2.44,2.27Z"/><path class="cls-20" d="M781.5,499.68h9.03l8.92-15.85c-.91-.32-1.74-.89-2.39-1.7-.74-.93-1.13-2.01-1.17-3.11h-.03s-1.81-31.92-1.81-31.92c-7.34-1.04-15.27,0-15.27,0l-1.81,31.96-.13.07c-.09,2.14-1.43,3.96-3.31,4.74l7.86,15.97.12-.14Z"/><path class="cls-8" d="M781.34,500.2l-8.09-16.44.2-.08c1.85-.77,3.1-2.56,3.19-4.56v-.12s.14-.07.14-.07l1.81-32.01.17-.02c.08-.01,8.04-1.03,15.33,0l.16.02v.17s1.81,31.79,1.81,31.79h.03s0,.13,0,.13c.05,1.09.44,2.13,1.13,2.99.6.75,1.39,1.31,2.3,1.64l.23.08-9.09,16.16h-9.05l-.25.32ZM781.43,499.48h8.97l8.74-15.54c-.88-.36-1.66-.94-2.25-1.68-.72-.9-1.14-1.98-1.21-3.11h-.03s0-.13,0-.13l-1.8-31.74c-6.6-.9-13.72-.14-14.89,0l-1.81,31.91-.13.06c-.13,2.04-1.38,3.85-3.23,4.71l7.64,15.52Z"/><path class="cls-9" d="M791.3,499.68l4.49,5.61,19.52-.37c-.74-1.17-1.03-2.62-.7-4.07.26-1.15.88-2.13,1.71-2.85v-.07s23.79-21.3,23.79-21.3c-5.04-8.32-9.54-11.94-9.54-11.94l-26.04,18.46-.09-.04c-1.48,1.08-3.35,1.29-4.98.71l-8.92,15.85h.78Z"/><path class="cls-8" d="M795.69,505.49l-4.49-5.61h-1.02l9.17-16.3.16.06c1.62.58,3.41.32,4.79-.69l.09-.07.09.04,26.07-18.48.12.1s4.59,3.74,9.59,11.99l.09.14-23.84,21.33v.07s-.08.08-.08.08c-.83.72-1.4,1.67-1.64,2.74-.31,1.35-.07,2.74.67,3.91l.19.3-19.97.38ZM790.87,499.48h.53l4.48,5.6,19.07-.36c-.66-1.2-.85-2.57-.54-3.92.26-1.12.84-2.11,1.68-2.88v-.06s23.75-21.26,23.75-21.26c-4.48-7.36-8.56-11.02-9.29-11.64l-26,18.44-.09-.04c-1.43,1-3.24,1.27-4.91.73l-8.67,15.4Z"/><path class="cls-16" d="M777.58,516.79l-.18-.8-14.45,11.09c.9.73,1.58,1.76,1.85,2.98.26,1.15.14,2.3-.3,3.31l.09.12-12.19,29.45s5.65,4.29,13.77,6.65l15.47-27.97h.03l4.65-20.63-8.74-4.2Z"/><path class="cls-8" d="M766.27,569.82l-.16-.05c-8.06-2.35-13.78-6.64-13.84-6.69l-.12-.09.06-.14,12.14-29.34-.09-.12.05-.11c.43-1.01.53-2.11.29-3.18-.26-1.14-.88-2.13-1.78-2.87l-.2-.16,14.91-11.44.23,1.01,8.8,4.23-4.72,20.94h-.07l-15.49,28ZM752.65,562.86c.87.63,6.17,4.34,13.43,6.48l15.42-27.88,4.59-20.36-8.68-4.17-.14-.59-14.01,10.74c.87.77,1.47,1.78,1.73,2.92.26,1.12.16,2.26-.26,3.32l.09.12-12.17,29.41Z"/><circle class="cls-34" cx="786.39" cy="509.47" r="41.11"/><path class="cls-8" d="M786.39,550.78c-22.78,0-41.31-18.53-41.31-41.31s18.53-41.31,41.31-41.31,41.31,18.53,41.31,41.31-18.53,41.31-41.31,41.31ZM786.39,468.56c-22.56,0-40.91,18.35-40.91,40.91s18.35,40.91,40.91,40.91,40.91-18.35,40.91-40.91-18.35-40.91-40.91-40.91Z"/><path class="cls-8" d="M741.79,545.96s3.9,9.78,4.72,11.2,3.05,5.02,4.01,5.89,3.44,3.02,4.41,3.35,7.8,2.25,9.53,2.25h1.72s1.85-11.71,2.27-12.8,5.13-10.44,5.13-10.44l8.48-4.68,12.75-1.21,11.04-8.38,2.12-7.77,3.47-15.34,2.45-13.3-2.77,4.02-7.46,11.61s-6.89,8.83-11.5,12.25c-4.61,3.42-10.48,6.1-10.48,6.1,0,0-7.32,2.81-12.31,3.38-4.99.57-7.56.64-7.56.64l-11.63,10.18-8.37,3.06Z"/><polygon class="cls-27" points="806.13 530.17 799.44 532.58 794.92 535.74 792.14 538.85 788.24 538.25 783.55 538.94 778.67 541.07 774.4 544.54 770.76 549.72 768.44 555.84 766.75 564.22 766.17 568.64 778.04 567.62 787.28 564.22 792.15 559.96 796.65 553.69 800.64 545.86 804.88 534.53 806.13 530.17"/><path class="cls-18" d="M732.4,531.29l4.57,14.18,26.59.97-1.76-13.72s-25.15-.26-29.39-1.43Z"/><path class="cls-8" d="M818.1,492.52c-1.64,0-3.34-.26-4.98-.97-6.39-2.76-7.17-9.24-7.2-9.52l1.01-.11c0,.06.76,6.18,6.59,8.7,5.89,2.54,13.12-1.27,13.19-1.31l.48.89c-.23.12-4.38,2.31-9.09,2.31Z"/><ellipse class="cls-26" cx="740.43" cy="492.5" rx="18.43" ry="25.35" transform="translate(-41.69 69.31) rotate(-5.21)"/><path class="cls-8" d="M741.48,518.31c-4.62,0-9.11-2.25-12.78-6.44-3.97-4.53-6.5-10.8-7.13-17.65-.62-6.85.73-13.47,3.82-18.65,3.12-5.23,7.62-8.36,12.69-8.82,5.07-.46,10.07,1.8,14.08,6.38,3.97,4.53,6.5,10.8,7.13,17.65.62,6.85-.73,13.47-3.82,18.65-3.12,5.23-7.62,8.36-12.69,8.82-.43.04-.86.06-1.29.06ZM739.37,467.7c-.4,0-.8.02-1.2.05-4.74.43-8.97,3.39-11.91,8.33-2.98,4.99-4.28,11.4-3.68,18.04.61,6.64,3.05,12.7,6.88,17.07,3.79,4.33,8.49,6.47,13.23,6.04,4.74-.43,8.97-3.39,11.91-8.33,2.98-4.99,4.28-11.4,3.68-18.04-.61-6.64-3.05-12.7-6.88-17.07-3.47-3.96-7.7-6.09-12.03-6.09Z"/><ellipse class="cls-23" cx="769.96" cy="485.56" rx="22.64" ry="28.29" transform="translate(-40.93 71.97) rotate(-5.21)"/><path class="cls-8" d="M770.87,514.32c-12.02,0-22.58-11.55-23.96-26.66-1.44-15.81,7.72-29.62,20.44-30.78,12.71-1.16,24.23,10.76,25.67,26.58h0c1.44,15.81-7.72,29.62-20.44,30.78-.57.05-1.14.08-1.71.08ZM769.05,457.81c-.54,0-1.08.02-1.62.07-12.16,1.11-20.91,14.43-19.52,29.68,1.39,15.26,12.41,26.77,24.57,25.66,12.16-1.11,20.91-14.43,19.52-29.68h0c-1.33-14.58-11.45-25.74-22.95-25.74Z"/><ellipse class="cls-8" cx="769.96" cy="485.56" rx="3.43" ry="5.01" transform="translate(-13.97 22.89) rotate(-1.69)"/><ellipse class="cls-8" cx="736.45" cy="492.86" rx="3.43" ry="5.01" transform="translate(-14.2 21.9) rotate(-1.69)"/><path class="cls-8" d="M766.43,433.92s-2.42-19.56,5.35-21c0,0,32.19,17.76,34.81,34.07l-2.21,8.39s-22.84-21.32-37.95-21.46Z"/><path class="cls-8" d="M715.77,470.81l-3.98-8.24s1.02-19.14,7.95-25.1c0,0,5.57-1.88,8.32,6.06,0,0-11.45,18.98-12.29,27.28Z"/><circle class="cls-2" cx="697.32" cy="562.42" r="17.88"/><path class="cls-8" d="M697.32,580.61c-10.03,0-18.18-8.16-18.18-18.19s8.16-18.19,18.18-18.19,18.18,8.16,18.18,18.19-8.16,18.19-18.18,18.19ZM697.32,544.84c-9.69,0-17.58,7.89-17.58,17.58s7.89,17.58,17.58,17.58,17.58-7.89,17.58-17.58-7.89-17.58-17.58-17.58Z"/><path class="cls-31" d="M684.02,550.47s-6.96.02-11.51-7.63c-4.55-7.66-4.42-10.28-8.97-8.25s-3.51,8.92-1.69,11.78c1.82,2.86,6.62,9.94,19.3,8.42,0,0,4.37-1.12,2.87-4.31Z"/><path class="cls-8" d="M677.75,555.3c-10.57,0-14.71-6.49-16.15-8.77-1.26-1.98-2.12-5.67-1.24-8.61.52-1.72,1.55-2.93,3.06-3.61,3.83-1.71,4.62-.23,6.98,4.14.62,1.15,1.4,2.59,2.37,4.23,4.4,7.4,11.17,7.48,11.25,7.48h.19s.08.17.08.17c.42.9.45,1.73.1,2.48-.77,1.62-3.07,2.23-3.17,2.25h-.04c-1.22.15-2.36.22-3.44.22ZM665.91,534.23c-.6,0-1.31.22-2.25.63-1.35.6-2.26,1.69-2.73,3.23-.8,2.67-.03,6.22,1.17,8.11,1.54,2.43,6.24,9.81,18.99,8.28.21-.06,2.14-.62,2.75-1.92.25-.53.24-1.14-.03-1.8-1.2-.07-7.42-.79-11.57-7.77-.98-1.65-1.76-3.09-2.38-4.25-1.67-3.1-2.43-4.51-3.95-4.51Z"/><path class="cls-3" d="M681.84,571.37s-6.94,2.2-8.96,5.74c-2.02,3.53-2.62,11.11-6.06,11.71-3.43.61-7.13-3.03-6.86-6.46.27-3.43,1.95-7.73,5.05-10.4,6.56-5.65,14.65-6.76,14.65-6.76,0,0,2.66,2.66,2.18,6.17Z"/><path class="cls-8" d="M666.05,589.19c-1.41,0-2.87-.61-4.11-1.73-1.57-1.42-2.42-3.34-2.28-5.12.24-3.05,1.73-7.66,5.15-10.6,6.55-5.65,14.72-6.82,14.81-6.83l.15-.02.11.11c.11.11,2.76,2.81,2.27,6.43l-.03.19-.18.06c-.07.02-6.85,2.21-8.79,5.6-.69,1.2-1.2,2.87-1.75,4.64-1.03,3.34-2.1,6.8-4.52,7.22-.27.05-.55.07-.83.07ZM679.55,565.52c-1.14.19-8.42,1.57-14.34,6.67-3.28,2.83-4.72,7.26-4.94,10.19-.12,1.58.68,3.35,2.08,4.63,1.35,1.22,2.96,1.77,4.43,1.51,2.05-.36,3.07-3.64,4.05-6.8.56-1.8,1.08-3.5,1.8-4.76,1.89-3.31,7.79-5.43,8.94-5.82.29-2.85-1.56-5.11-2.02-5.62Z"/><path class="cls-19" d="M683.72,574.02s-6.09,3.59-8.41,7.53c-2.2,3.74-4.95,9.79-1.41,13.53,3.53,3.74,7.02,1.92,8,0,.98-1.92.88-5.62.98-6.19s2.13-8.98,5.41-11.03c0,0,0-3.99-4.57-3.83Z"/><path class="cls-8" d="M678.18,597.55c-1.2,0-2.8-.46-4.51-2.27-2.79-2.95-2.33-7.62,1.37-13.89,2.33-3.96,8.26-7.49,8.52-7.64l.07-.04h.08c1.54-.06,2.76.34,3.62,1.17,1.25,1.21,1.27,2.9,1.27,2.97v.17s-.14.09-.14.09c-3.03,1.9-5.08,9.78-5.27,10.83-.02.11-.03.41-.05.77-.06,1.39-.17,3.97-.96,5.51-.61,1.19-1.92,2.09-3.33,2.29-.2.03-.42.05-.65.05ZM683.8,574.32c-.66.4-6.11,3.78-8.24,7.38-3.54,6.01-4.03,10.44-1.45,13.17,1.86,1.97,3.54,2.19,4.63,2.04,1.49-.21,2.48-1.19,2.88-1.97.73-1.43.84-3.92.9-5.26.02-.42.03-.7.06-.85.02-.09,1.97-8.78,5.39-11.14-.04-.41-.21-1.55-1.08-2.38-.72-.69-1.76-1.03-3.09-1Z"/><path class="cls-5" d="M700.35,580.05s-3.3-4.77-8.23-3.01c-4.93,1.77-9.37,4.2-10.22,8.59s.54,9.55,4.12,8.45c3.58-1.1,3.25-4.17,3.8-7.13.55-2.96,3.24-4.84,5.03-5.45,1.84-.63,5.5-1.45,5.5-1.45Z"/><path class="cls-8" d="M685.08,594.53c-.71,0-1.36-.25-1.91-.75-1.77-1.6-2.13-5.34-1.57-8.21.95-4.85,6.07-7.26,10.42-8.82,5.09-1.82,8.55,3.07,8.58,3.12l.26.37-.44.1s-3.67.82-5.47,1.44c-1.43.49-4.27,2.21-4.83,5.22-.1.51-.16,1.04-.23,1.55-.32,2.39-.64,4.86-3.78,5.82-.35.11-.69.16-1.02.16ZM694.32,576.95c-.66,0-1.36.11-2.1.38-4.2,1.51-9.14,3.82-10.03,8.36-.62,3.15-.03,6.37,1.38,7.65.65.58,1.44.73,2.35.45,2.76-.85,3.04-2.92,3.36-5.32.07-.52.14-1.05.24-1.58.53-2.86,3.08-4.95,5.23-5.69,1.47-.5,4.02-1.11,5.07-1.35-.71-.86-2.69-2.91-5.5-2.91Z"/><path id="path32" class="cls-18" d="M826.71,479.2l.78-.62-.31-.08.08-.27.53.15.18.23-1.06.84-.2-.25"/><path id="path34" class="cls-18" d="M828.06,479.81s.07-.06.11-.09c.04-.04.07-.07.09-.11.03-.04.04-.08.05-.12,0-.04,0-.08-.03-.11s-.06-.05-.1-.05c-.04,0-.08,0-.13.02-.04.02-.09.04-.13.07-.04.03-.08.05-.11.08s-.07.06-.11.09c-.04.04-.07.07-.09.11-.03.04-.04.08-.05.12,0,.04,0,.08.03.11s.06.05.1.05c.04,0,.08,0,.12-.02.04-.02.09-.04.13-.07.04-.03.08-.06.12-.08ZM828.27,480.07c-.08.06-.15.11-.23.15-.08.04-.16.06-.24.07-.08,0-.15,0-.22-.03-.07-.03-.14-.08-.2-.16s-.09-.15-.11-.23c-.01-.08,0-.15.02-.23.03-.07.07-.15.12-.21.06-.07.12-.13.2-.19s.15-.11.23-.15c.08-.04.16-.06.24-.07.08,0,.15,0,.22.03.07.03.14.08.2.16s.09.15.11.23c.01.08,0,.15-.02.22-.02.07-.06.14-.12.21-.06.07-.12.13-.2.19"/><path id="path36" class="cls-18" d="M828.84,481.9l.78-.62-.31-.08.08-.27.53.15.18.23-1.06.84-.2-.25"/><path id="path38" class="cls-18" d="M830.19,482.51s.07-.06.11-.09c.04-.04.07-.07.09-.11.03-.04.04-.08.05-.12,0-.04,0-.08-.03-.11s-.06-.05-.1-.05c-.04,0-.08,0-.13.02-.04.02-.09.04-.13.07-.04.03-.08.05-.11.08s-.07.06-.11.09c-.04.04-.07.07-.09.11-.03.04-.04.08-.05.12,0,.04,0,.08.03.11s.06.05.1.05c.04,0,.08,0,.12-.02.04-.02.09-.04.13-.07.04-.03.08-.06.12-.08ZM830.39,482.77c-.08.06-.15.11-.23.15-.08.04-.16.06-.24.07-.08,0-.15,0-.22-.03-.07-.03-.14-.08-.2-.16s-.09-.15-.11-.23c-.01-.08,0-.15.02-.23.03-.07.07-.15.12-.21.06-.07.12-.13.2-.19s.15-.11.23-.15c.08-.04.16-.06.24-.07s.15,0,.22.03c.07.03.14.08.2.16s.09.15.11.23c.01.08,0,.15-.02.22-.02.07-.06.14-.12.21-.06.07-.12.13-.2.19"/><path id="path40" class="cls-18" d="M825.02,480.5l.78-.62-.31-.08.08-.27.53.15.18.23-1.06.84-.2-.25"/><path id="path42" class="cls-18" d="M825.72,481.38l.78-.62-.31-.08.08-.27.53.15.18.23-1.06.84-.2-.25"/><path id="path44" class="cls-18" d="M826.41,482.27l.78-.62-.31-.08.08-.27.53.15.18.23-1.06.84-.2-.25"/><path id="path46" class="cls-18" d="M827.8,482.92s.07-.06.1-.09c.04-.04.07-.07.09-.11.03-.04.04-.08.05-.12,0-.04,0-.08-.03-.11s-.06-.05-.1-.05c-.04,0-.08,0-.13.02-.04.02-.09.04-.13.07-.04.03-.08.05-.11.08s-.07.06-.11.09c-.04.04-.07.07-.09.11-.03.04-.04.08-.05.12,0,.04,0,.08.03.11s.06.05.1.05c.04,0,.08,0,.12-.02.04-.02.09-.04.13-.07.04-.03.08-.06.12-.08ZM828,483.18c-.08.06-.15.11-.23.15-.08.04-.16.06-.24.07-.08,0-.15,0-.22-.03-.07-.03-.14-.08-.2-.16s-.09-.15-.11-.23c-.01-.08,0-.15.02-.23.03-.07.07-.15.12-.21.06-.07.12-.13.2-.19s.15-.11.23-.15c.08-.04.16-.06.23-.07.08,0,.15,0,.22.03.07.03.14.08.2.16s.09.15.11.23c.01.08,0,.15-.02.22-.02.07-.06.14-.12.21-.06.07-.12.13-.2.19"/><path id="path48" class="cls-18" d="M824.23,481.95l.57-.45-.22-.06.05-.2.39.11.13.17-.77.61-.14-.18"/><path id="path50" class="cls-18" d="M825.23,483.23l.57-.45-.22-.06.05-.2.39.11.13.17-.77.61-.14-.18"/><path id="path52" class="cls-18" d="M824.21,481.13s.05-.04.08-.07c.03-.03.05-.05.07-.08.02-.03.03-.06.04-.08,0-.03,0-.05-.02-.08s-.04-.04-.07-.04c-.03,0-.06,0-.09.01-.03.01-.06.03-.09.05-.03.02-.06.04-.08.06s-.05.04-.08.07c-.03.03-.05.05-.07.08-.02.03-.03.06-.04.09,0,.03,0,.05.02.08s.04.04.07.04c.03,0,.06,0,.09-.02.03-.01.06-.03.1-.05.03-.02.06-.04.08-.06ZM824.36,481.32c-.05.04-.11.08-.17.11-.06.03-.12.04-.17.05-.06,0-.11,0-.16-.02-.05-.02-.1-.06-.14-.11s-.07-.11-.08-.17c0-.06,0-.11.02-.17.02-.05.05-.11.09-.16.04-.05.09-.1.14-.14s.11-.08.17-.11c.06-.03.11-.04.17-.05.06,0,.11,0,.16.03.05.02.1.06.14.11s.07.11.08.16c0,.06,0,.11-.01.16-.02.05-.05.1-.09.15-.04.05-.09.1-.14.14"/><path id="path54" class="cls-18" d="M825.23,482.42s.05-.04.08-.07c.03-.03.05-.05.07-.08.02-.03.03-.06.04-.08,0-.03,0-.05-.02-.08s-.04-.04-.07-.04c-.03,0-.06,0-.09.01-.03.01-.06.03-.09.05-.03.02-.06.04-.08.06s-.05.04-.08.07c-.03.03-.05.05-.07.08-.02.03-.03.06-.04.09,0,.03,0,.05.02.08s.04.04.07.04c.03,0,.06,0,.09-.02.03-.01.06-.03.1-.05.03-.02.06-.04.08-.06ZM825.37,482.6c-.05.04-.11.08-.17.11-.06.03-.12.04-.17.05-.06,0-.11,0-.16-.02-.05-.02-.1-.06-.14-.11s-.07-.11-.08-.17c0-.06,0-.11.02-.17.02-.05.05-.11.09-.16.04-.05.09-.1.14-.14s.11-.08.17-.11c.06-.03.11-.04.17-.05.06,0,.11,0,.16.03.05.02.1.06.14.11s.07.11.08.16c0,.06,0,.11-.01.16-.02.05-.05.1-.09.15-.04.05-.09.1-.14.14"/><path id="path56" class="cls-18" d="M826.91,485.35l.57-.45-.22-.06.05-.2.39.11.13.17-.77.61-.14-.18"/><path id="path58" class="cls-18" d="M826.9,484.54s.05-.04.08-.07c.03-.03.05-.05.07-.08.02-.03.03-.06.04-.08,0-.03,0-.05-.02-.08s-.04-.04-.07-.04c-.03,0-.06,0-.09.01-.03.01-.06.03-.09.05-.03.02-.06.04-.08.06s-.05.04-.08.07c-.03.03-.05.05-.07.08-.02.03-.03.06-.04.09,0,.03,0,.05.02.08s.04.04.07.04c.03,0,.06,0,.09-.02.03-.01.06-.03.1-.05.03-.02.06-.04.08-.06ZM827.05,484.73c-.05.04-.11.08-.17.11-.06.03-.12.04-.17.05-.06,0-.11,0-.16-.02-.05-.02-.1-.06-.14-.11s-.07-.11-.08-.17c0-.06,0-.11.02-.17.02-.05.05-.11.09-.16.04-.05.09-.1.14-.14s.11-.08.17-.11c.06-.03.11-.04.17-.05.06,0,.11,0,.16.03.05.02.1.06.14.11s.07.11.08.16c0,.06,0,.11-.01.16-.02.05-.05.1-.09.15-.04.05-.09.1-.14.14"/><path id="path60" class="cls-18" d="M825.45,485.37l.57-.45-.22-.06.06-.2.39.11.13.17-.77.61-.14-.18"/><path id="path62" class="cls-18" d="M825.44,484.56s.05-.04.08-.07c.03-.03.05-.05.07-.08.02-.03.03-.06.04-.08,0-.03,0-.05-.02-.08s-.04-.04-.07-.04c-.03,0-.06,0-.09.01-.03.01-.06.03-.09.05-.03.02-.06.04-.08.06s-.05.04-.08.07c-.03.03-.05.05-.07.08-.02.03-.03.06-.04.09,0,.03,0,.05.02.08s.04.04.07.04c.03,0,.06,0,.09-.02.03-.01.06-.03.1-.05.03-.02.06-.04.08-.06ZM825.59,484.75c-.05.04-.11.08-.17.11-.06.03-.12.04-.17.05-.06,0-.11,0-.16-.02-.05-.02-.1-.06-.14-.11s-.07-.11-.08-.17c0-.06,0-.11.02-.16.02-.05.05-.11.09-.16.04-.05.09-.1.14-.14s.11-.08.17-.11c.06-.03.11-.04.17-.05.06,0,.11,0,.16.03.05.02.1.06.14.11s.07.11.08.17c0,.06,0,.11-.01.16-.02.05-.05.1-.09.15-.04.05-.09.1-.14.14"/><path id="path64" class="cls-18" d="M823.13,482.4l.39-.31-.16-.04.04-.14.27.07.09.12-.54.42-.1-.13"/><path id="path66" class="cls-18" d="M823.12,481.84s.03-.03.05-.05c.02-.02.03-.04.05-.06.01-.02.02-.04.03-.06,0-.02,0-.04-.01-.05s-.03-.03-.05-.03c-.02,0-.04,0-.06,0-.02,0-.04.02-.07.03-.02.01-.04.03-.06.04s-.04.03-.05.05c-.02.02-.03.04-.05.06-.01.02-.02.04-.02.06,0,.02,0,.04.01.05s.03.03.05.03c.02,0,.04,0,.06-.01.02,0,.04-.02.07-.03.02-.01.04-.03.06-.04ZM823.22,481.97s-.08.05-.12.07c-.04.02-.08.03-.12.03-.04,0-.08,0-.11-.02-.04-.01-.07-.04-.1-.08s-.05-.08-.05-.12c0-.04,0-.08.01-.11.01-.04.03-.07.06-.11.03-.03.06-.07.1-.1s.08-.05.12-.07c.04-.02.08-.03.12-.03.04,0,.08,0,.11.02.04.01.07.04.1.08s.05.08.05.11c0,.04,0,.08,0,.11-.01.04-.03.07-.06.11-.03.03-.06.07-.1.1"/><path id="path68" class="cls-18" d="M823.68,484.52l.39-.31-.16-.04.04-.14.27.07.09.12-.54.42-.1-.13"/><path id="path70" class="cls-18" d="M823.67,483.96s.03-.03.05-.05c.02-.02.03-.04.05-.06s.02-.04.03-.06c0-.02,0-.04-.01-.05s-.03-.03-.05-.03c-.02,0-.04,0-.06,0-.02,0-.04.02-.07.03-.02.01-.04.03-.06.04s-.04.03-.05.05c-.02.02-.03.04-.05.06-.01.02-.02.04-.02.06,0,.02,0,.04.01.05s.03.03.05.03c.02,0,.04,0,.06-.01.02,0,.04-.02.07-.03.02-.01.04-.03.06-.04ZM823.77,484.09s-.08.05-.12.07c-.04.02-.08.03-.12.04-.04,0-.08,0-.11-.02-.04-.01-.07-.04-.1-.08s-.05-.08-.05-.11c0-.04,0-.08.01-.11.01-.04.03-.07.06-.11.03-.03.06-.07.1-.1s.08-.05.12-.07c.04-.02.08-.03.12-.03.04,0,.08,0,.11.02.04.01.07.04.1.08s.05.08.05.11c0,.04,0,.08,0,.11-.01.04-.03.07-.06.11-.03.03-.06.07-.1.1"/><path id="path72" class="cls-18" d="M826.44,485.84s.05-.04.08-.07c.03-.03.05-.05.07-.08.02-.03.03-.06.04-.08,0-.03,0-.05-.02-.08s-.04-.04-.07-.04c-.03,0-.06,0-.09.01-.03.01-.06.03-.09.05-.03.02-.06.04-.08.06s-.05.04-.08.07c-.03.03-.05.05-.07.08-.02.03-.03.06-.04.09,0,.03,0,.06.02.08s.04.04.07.04c.03,0,.06,0,.09-.02.03-.01.06-.03.1-.05.03-.02.06-.04.08-.06ZM826.59,486.02c-.05.04-.11.08-.17.11-.06.03-.12.04-.17.05-.06,0-.11,0-.16-.02-.05-.02-.1-.06-.14-.11s-.07-.11-.08-.17c0-.06,0-.11.02-.16.02-.05.05-.11.09-.16.04-.05.09-.1.14-.14s.11-.08.17-.11c.06-.03.11-.04.17-.05.06,0,.11,0,.16.03.05.02.1.06.14.11s.07.11.08.17c0,.06,0,.11-.01.16-.02.05-.05.1-.09.15-.04.05-.09.1-.14.14"/><path id="path74" class="cls-18" d="M831.38,481.37c.73-.86.75-2.14.05-3.03-.11-.14-.23-.26-.36-.36,1.1-1.22,1.2-3.09.15-4.42s-2.86-1.67-4.29-.91c-.84-.89-2.24-1.01-3.22-.23-1.04.82-1.22,2.33-.4,3.37l2.22,2.82c.11.14.32.17.47.06s.17-.32.06-.47l-2.22-2.82c-.59-.75-.46-1.84.29-2.43s1.84-.46,2.44.29c.22.27.34.6.37.94.01.18.17.32.35.31.18-.01.32-.17.31-.35-.02-.33-.11-.64-.26-.93,1.14-.56,2.56-.26,3.38.78.87,1.11.76,2.68-.21,3.66-.09-.04-.19-.08-.29-.1-.18-.05-.36.05-.41.23-.05.18.05.36.23.41.35.1.66.31.88.59.51.64.49,1.57-.04,2.19-.1.12-.1.3,0,.42.01.02.03.03.05.05.14.12.35.1.47-.04"/><path class="cls-12" d="M803.03,531.34c8.58-14.74,13.5-30.34,15.28-36.62-11.45,16.34-25.67,29.12-42.3,38.03-16.22,8.69-29.54,10.75-33.23,11.18-.43.05-.85.09-1.26.12l8.74,19.45c25.37,4.76,42.7-14.84,52.77-32.16Z"/><path class="cls-8" d="M768.6,569.19c-7.49,0-14.28-1.93-17.47-4.9-5.45-5.08-8.97-15.47-9.82-18.18l-4.71-.15-4.92-15.26.78.09c.3.03,29.68,3.31,41.47-.14.39-.11.79-.23,1.19-.34,9.24-2.66,21.89-6.29,38.43-36.59l1.33-2.43-.38,2.75c-.02.14-2.01,14.26-6.06,29.73-5.45,20.84-11.82,34.07-18.94,39.32-5.88,4.33-13.71,6.11-20.89,6.11ZM742.38,546.14c1,3.07,4.43,12.75,9.43,17.4,2.96,2.76,9.4,4.58,16.4,4.64,7.94.06,15.48-2.09,20.68-5.92,6.83-5.04,13.25-18.43,18.56-38.75,2.97-11.35,4.83-21.98,5.61-26.84-16.07,28.4-28.51,31.98-37.66,34.61-.4.12-.8.23-1.19.34-3.09.91-7.3,1.36-11.85,1.54l1.91,13.66-21.89-.68ZM737.34,544.97l25.77.8-1.76-12.57c-11.49.35-24.83-.96-28.23-1.32l4.22,13.09Z"/><path class="cls-8" d="M766.94,568.64h-1.01c0-.05.03-5.19,1.53-11.13,2-7.92,5.68-13.69,10.66-16.69,8.08-4.87,13.97-2.53,14.21-2.43l-.39.93c-.05-.02-5.69-2.23-13.3,2.36-11.51,6.94-11.7,26.76-11.7,26.96Z"/><path class="cls-8" d="M784.89,552.19l-.92-.43c.28-.6,6.93-14.64,13.07-18.39,5.99-3.66,9.22-3.7,9.35-3.7v1.01s-3.12.07-8.82,3.55c-5.88,3.6-12.61,17.82-12.68,17.96Z"/><rect class="cls-8" x="747.7" y="532.33" width="1.01" height="8.82" transform="translate(-87.74 150.62) rotate(-10.86)"/><path class="cls-17" d="M856.95,567.98s-8.07,5.4-11.23,4.77c-3.17-.63-11.67,1.67-10.48,5.65,1.28,4.28,5.86,3.39,8.71,2.27s10.92-4.87,10.92-4.87l2.08-7.82Z"/><path class="cls-8" d="M839.67,581.89c-.84,0-1.68-.14-2.42-.5-1.12-.54-1.9-1.52-2.31-2.9-.31-1.04-.04-2.07.79-2.98,2.14-2.36,7.61-3.53,10.04-3.05,3,.6,10.92-4.67,11-4.73l.67-.45-2.32,8.74-.13.06c-.08.04-8.11,3.76-10.94,4.87-1.06.41-2.73.94-4.38.94ZM844.51,572.95c-2.55,0-6.63,1.1-8.33,2.96-.69.76-.91,1.56-.66,2.4.36,1.21,1.03,2.07,1.99,2.53,1.99.97,4.81.13,6.32-.46,2.62-1.03,9.73-4.31,10.78-4.8l1.84-6.92c-2.02,1.29-8.05,4.93-10.8,4.39-.32-.06-.71-.1-1.14-.1Z"/><path class="cls-14" d="M845.23,549.75s-8.43,1.37-10.09,3.68c-1.66,2.3-8.5,5.94-10.13,2.66-1.75-3.52,1.73-5.69,4.24-6.69,2.51-1,10.23-3.76,10.23-3.76l5.75,4.11Z"/><path class="cls-8" d="M827.43,557.7c-.12,0-.25,0-.37-.01-1.09-.09-1.9-.59-2.33-1.46-.57-1.15-.66-2.25-.26-3.28.78-2.02,3.25-3.26,4.66-3.82,2.48-.99,10.16-3.73,10.24-3.76l.15-.05,6.47,4.63-.73.12c-.08.01-8.32,1.38-9.89,3.55-1.22,1.7-5.16,4.1-7.95,4.1ZM839.43,545.98c-1.09.39-7.79,2.8-10.07,3.7-1.32.52-3.62,1.67-4.32,3.48-.33.87-.25,1.81.24,2.8.33.67.95,1.05,1.83,1.13,2.57.21,6.61-2.2,7.78-3.83,1.44-2,7.47-3.28,9.57-3.67l-5.03-3.59Z"/><path class="cls-29" d="M846.37,564.95s-8.07,5.4-11.23,4.77-11.67,1.67-10.48,5.65c1.28,4.28,5.86,3.39,8.71,2.27,2.86-1.12,9.27-4.06,9.27-4.06l3.74-8.62Z"/><path class="cls-8" d="M829.1,578.86c-.84,0-1.68-.14-2.42-.5-1.12-.54-1.9-1.52-2.31-2.9-.31-1.04-.04-2.07.79-2.98,2.14-2.36,7.61-3.53,10.04-3.05,3,.6,10.92-4.67,11-4.73l.86-.57-4.19,9.68-.11.05c-.06.03-6.45,2.96-9.28,4.07-1.06.41-2.73.94-4.38.94ZM833.93,569.92c-2.55,0-6.63,1.1-8.33,2.96-.69.76-.91,1.56-.66,2.4.36,1.21,1.03,2.07,1.99,2.53,1.99.97,4.81.13,6.32-.46,2.62-1.03,8.3-3.62,9.14-4.01l3.29-7.6c-2.18,1.38-7.95,4.8-10.61,4.27-.32-.06-.71-.1-1.14-.1Z"/><path class="cls-15" d="M843.61,560.01s-9.02,3.58-11.99,2.3-11.76-.83-11.44,3.31c.35,4.45,5.01,4.54,8.04,4.05s9.06-1.66,9.06-1.66l6.32-8Z"/><path class="cls-8" d="M825.87,570.18c-1.49,0-3.15-.27-4.35-1.2-.98-.77-1.53-1.89-1.65-3.33-.08-1.08.4-2.03,1.4-2.75,2.59-1.85,8.18-1.85,10.46-.87,2.81,1.22,11.66-2.27,11.75-2.3l1.05-.42-7.1,8.98-.11.02c-.06.01-6.07,1.17-9.07,1.66-.64.1-1.49.2-2.4.2ZM827.57,561.99c-2.17,0-4.55.42-5.94,1.41-.83.59-1.22,1.34-1.15,2.21.1,1.26.58,2.24,1.41,2.9,1.74,1.37,4.68,1.14,6.27.88,2.76-.45,8.1-1.48,8.94-1.64l5.58-7.06c-2.48.9-8.72,2.97-11.19,1.91-.88-.38-2.35-.6-3.93-.6Z"/><circle class="cls-30" cx="851.38" cy="558.77" r="17.88"/><path class="cls-8" d="M851.38,576.95c-10.03,0-18.18-8.16-18.18-18.19s8.16-18.18,18.18-18.18,18.19,8.16,18.19,18.18-8.16,18.19-18.19,18.19ZM851.38,541.19c-9.69,0-17.58,7.89-17.58,17.58s7.89,17.58,17.58,17.58,17.58-7.89,17.58-17.58-7.89-17.58-17.58-17.58Z"/></g><g id="Layer_6"><path id="path32-2" class="cls-18" d="M468.8,618.05v-2.5l-.63.49-.42-.57,1.12-.82h.74v3.41h-.8"/><path id="path34-2" class="cls-18" d="M472.1,616.34c0-.11,0-.22-.02-.35-.01-.13-.04-.25-.07-.36-.04-.11-.09-.2-.15-.28-.07-.08-.15-.11-.26-.11s-.19.04-.26.11c-.07.08-.12.17-.16.28-.04.11-.06.23-.07.36-.01.13-.02.25-.02.35s0,.23.02.36c.01.13.04.25.07.36.04.11.09.2.16.28.07.08.15.11.26.11s.19-.04.26-.11c.07-.08.12-.17.15-.28.04-.11.06-.23.07-.36.01-.13.02-.25.02-.36ZM472.93,616.34c0,.24-.02.47-.07.69-.05.22-.12.41-.23.57-.11.17-.24.3-.41.39-.17.1-.37.15-.61.15s-.45-.05-.62-.15c-.17-.1-.31-.23-.42-.39-.11-.16-.19-.36-.23-.57-.05-.22-.07-.45-.07-.69s.02-.47.07-.69c.05-.22.13-.41.23-.57.11-.16.25-.29.42-.39.17-.1.38-.14.62-.14s.45.05.61.14c.17.1.3.23.41.39.11.16.18.35.23.57.05.22.07.44.07.69"/><path id="path36-2" class="cls-18" d="M477.44,618.05v-2.5l-.63.49-.42-.57,1.12-.82h.74v3.41h-.8"/><path id="path38-2" class="cls-18" d="M480.74,616.34c0-.11,0-.22-.02-.35-.01-.13-.04-.25-.07-.36-.04-.11-.09-.2-.15-.28-.07-.08-.15-.11-.26-.11s-.19.04-.26.11c-.07.08-.12.17-.16.28-.04.11-.06.23-.07.36-.01.13-.02.25-.02.35s0,.23.02.36c.01.13.04.25.07.36.04.11.09.2.16.28.07.08.15.11.26.11s.19-.04.26-.11c.07-.08.12-.17.15-.28.04-.11.06-.23.07-.36.01-.13.02-.25.02-.36ZM481.57,616.34c0,.24-.02.47-.07.69-.05.22-.12.41-.23.57-.11.17-.24.3-.41.39-.17.1-.37.15-.61.15s-.45-.05-.62-.15c-.17-.1-.31-.23-.42-.39-.11-.16-.19-.36-.23-.57-.05-.22-.07-.45-.07-.69s.02-.47.07-.69c.05-.22.13-.41.23-.57s.25-.29.42-.39c.17-.1.38-.14.62-.14s.45.05.61.14c.17.1.3.23.41.39.11.16.18.35.23.57.05.22.07.44.07.69"/><path id="path40-2" class="cls-18" d="M468.72,623.41v-2.5l-.64.49-.42-.57,1.12-.82h.74v3.41h-.8"/><path id="path42-2" class="cls-18" d="M471.56,623.41v-2.5l-.64.49-.42-.57,1.12-.82h.74v3.41h-.8"/><path id="path44-2" class="cls-18" d="M474.38,623.41v-2.5l-.64.49-.42-.57,1.12-.82h.74v3.41h-.8"/><path id="path46-2" class="cls-18" d="M477.82,621.7c0-.11,0-.22-.02-.35-.01-.13-.04-.25-.07-.36-.04-.11-.09-.2-.15-.28-.07-.08-.15-.11-.26-.11s-.19.04-.26.11c-.07.08-.12.17-.16.28-.04.11-.06.23-.07.36-.01.13-.02.25-.02.35s0,.23.02.36c.01.13.04.25.07.36.04.11.09.2.16.28.07.08.15.11.26.11s.19-.04.26-.11c.07-.08.12-.17.15-.28.03-.11.06-.23.07-.36.01-.13.02-.25.02-.36ZM478.65,621.7c0,.24-.02.47-.07.69-.05.22-.13.41-.23.58-.11.16-.24.3-.41.39-.17.1-.37.15-.61.15s-.45-.05-.62-.15c-.17-.1-.31-.23-.42-.39-.11-.17-.19-.36-.23-.58-.05-.22-.07-.45-.07-.69s.02-.47.07-.69c.05-.22.13-.41.23-.57.11-.16.25-.29.42-.39.17-.1.38-.14.62-.14s.44.05.61.14c.17.1.31.23.41.39.11.16.18.35.23.57.05.22.07.45.07.69"/><path id="path48-2" class="cls-18" d="M470.35,627.23v-1.82l-.46.36-.3-.41.81-.6h.53v2.47h-.58"/><path id="path50-2" class="cls-18" d="M474.44,627.23v-1.82l-.46.36-.3-.41.81-.6h.54v2.47h-.58"/><path id="path52-2" class="cls-18" d="M468.72,625.99c0-.08,0-.16-.01-.26,0-.09-.03-.18-.05-.26-.03-.08-.06-.15-.11-.2-.05-.05-.11-.08-.19-.08s-.14.03-.19.08c-.05.05-.09.12-.11.2-.03.08-.04.17-.05.26,0,.09-.01.18-.01.26s0,.17.01.26c0,.09.03.18.05.26.03.08.06.15.11.2.05.05.11.08.19.08s.14-.03.19-.08c.05-.05.08-.12.11-.2.03-.08.04-.17.05-.26,0-.09.01-.18.01-.26ZM469.32,625.99c0,.17-.02.34-.05.5-.03.16-.09.3-.17.42-.08.12-.18.22-.3.29-.12.07-.27.11-.45.11s-.32-.04-.45-.11c-.12-.07-.22-.17-.3-.29-.08-.12-.13-.26-.17-.42-.04-.16-.05-.32-.05-.5s.02-.34.05-.5c.03-.16.09-.29.17-.41.08-.12.18-.21.3-.28.12-.07.27-.1.45-.1s.32.04.45.1c.12.07.22.16.3.28.08.12.13.26.17.41.03.16.05.32.05.5"/><path id="path54-2" class="cls-18" d="M472.83,625.99c0-.08,0-.16-.01-.26,0-.09-.03-.18-.05-.26-.03-.08-.06-.15-.11-.2-.05-.05-.11-.08-.19-.08s-.14.03-.19.08c-.05.05-.09.12-.11.2-.03.08-.05.17-.05.26,0,.09-.01.18-.01.26s0,.17.01.26c0,.09.03.18.05.26.03.08.06.15.11.2.05.05.11.08.19.08s.14-.03.19-.08c.05-.05.08-.12.11-.2.03-.08.04-.17.05-.26,0-.09.01-.18.01-.26ZM473.43,625.99c0,.17-.02.34-.05.5-.04.16-.09.3-.17.42-.08.12-.18.22-.3.29-.12.07-.27.11-.45.11s-.32-.04-.45-.11c-.12-.07-.22-.17-.3-.29-.08-.12-.13-.26-.17-.42-.04-.16-.05-.32-.05-.5s.02-.34.05-.5c.03-.16.09-.29.17-.41.08-.12.18-.21.3-.28.12-.07.27-.1.45-.1s.32.04.45.1c.12.07.22.16.3.28.08.12.13.26.17.41.03.16.05.32.05.5"/><path id="path56-2" class="cls-18" d="M481.25,627.23v-1.82l-.46.36-.3-.41.81-.6h.53v2.47h-.58"/><path id="path58-2" class="cls-18" d="M479.64,625.99c0-.08,0-.16-.01-.26,0-.09-.03-.18-.05-.26-.03-.08-.06-.15-.11-.2-.05-.05-.11-.08-.19-.08s-.14.03-.19.08c-.05.05-.09.12-.11.2-.03.08-.04.17-.05.26,0,.09-.01.18-.01.26s0,.17.01.26c0,.09.03.18.05.26.03.08.07.15.11.2.05.05.11.08.19.08s.14-.03.19-.08c.05-.05.08-.12.11-.2.03-.08.04-.17.05-.26,0-.09.01-.18.01-.26ZM480.24,625.99c0,.17-.02.34-.05.5-.04.16-.09.3-.17.42-.08.12-.18.22-.3.29-.12.07-.27.11-.45.11s-.32-.04-.45-.11c-.12-.07-.22-.17-.3-.29-.08-.12-.13-.26-.17-.42-.04-.16-.05-.32-.05-.5s.02-.34.05-.5c.03-.16.09-.29.17-.41.08-.12.18-.21.3-.28.12-.07.27-.1.45-.1s.32.04.45.1c.12.07.22.16.3.28.08.12.13.26.17.41.03.16.05.32.05.5"/><path id="path60-2" class="cls-18" d="M479.01,630.15v-1.82l-.46.36-.3-.42.81-.6h.53v2.47h-.58"/><path id="path62-2" class="cls-18" d="M477.39,628.9c0-.08,0-.16-.01-.26,0-.09-.03-.18-.05-.26-.03-.08-.06-.15-.11-.2-.05-.05-.11-.08-.19-.08s-.14.03-.19.08c-.05.05-.09.12-.11.2-.03.08-.04.17-.05.26,0,.09-.01.18-.01.26s0,.17.01.26c0,.09.03.18.05.26.03.08.06.15.11.2.05.05.11.08.19.08s.14-.03.19-.08c.05-.05.08-.12.11-.2.03-.08.04-.17.05-.26,0-.09.01-.18.01-.26ZM477.99,628.9c0,.17-.02.34-.05.5-.03.16-.09.3-.17.42-.08.12-.18.22-.3.29-.12.07-.27.11-.45.11s-.32-.04-.45-.11c-.12-.07-.22-.17-.3-.29-.08-.12-.13-.26-.17-.42-.03-.16-.05-.32-.05-.5s.02-.34.05-.5c.03-.16.09-.3.17-.41.08-.12.18-.21.3-.28.12-.07.27-.1.45-.1s.32.04.45.1c.12.07.22.16.3.28.08.12.13.26.17.41.03.16.05.32.05.5"/><path id="path64-2" class="cls-18" d="M469.54,630.11v-1.26l-.32.25-.21-.29.56-.41h.37v1.71h-.4"/><path id="path66-2" class="cls-18" d="M468.42,629.25c0-.05,0-.11,0-.18,0-.06-.02-.12-.04-.18-.02-.06-.04-.1-.08-.14-.03-.04-.08-.06-.13-.06s-.1.02-.13.06c-.03.04-.06.08-.08.14-.02.06-.03.12-.04.18,0,.07,0,.12,0,.18s0,.11,0,.18c0,.07.02.13.04.18.02.06.04.1.08.14.03.04.08.06.13.06s.1-.02.13-.06c.03-.04.06-.08.08-.14.02-.06.03-.12.04-.18,0-.07,0-.13,0-.18ZM468.84,629.25c0,.12-.01.24-.04.35-.02.11-.06.21-.12.29-.05.08-.12.15-.21.2-.08.05-.19.07-.31.07s-.22-.03-.31-.07c-.09-.05-.16-.11-.21-.2-.05-.08-.09-.18-.12-.29-.02-.11-.04-.23-.04-.35s.01-.24.04-.34c.02-.11.06-.2.12-.29.05-.08.12-.15.21-.19.09-.05.19-.07.31-.07s.22.02.31.07c.09.05.15.11.21.19.05.08.09.18.12.29.02.11.04.22.04.34"/><path id="path68-2" class="cls-18" d="M474.57,632.31v-1.26l-.32.25-.21-.29.56-.41h.37v1.71h-.4"/><path id="path70-2" class="cls-18" d="M473.45,631.45c0-.05,0-.11-.01-.18,0-.06-.02-.12-.04-.18s-.04-.1-.08-.14c-.03-.04-.08-.06-.13-.06s-.1.02-.13.06c-.03.04-.06.08-.08.14-.02.06-.03.12-.04.18,0,.06-.01.12-.01.18s0,.11.01.18c0,.07.02.13.04.18.02.06.04.1.08.14.03.04.08.06.13.06s.1-.02.13-.06c.03-.04.06-.08.08-.14.02-.06.03-.12.04-.18,0-.06.01-.12.01-.18ZM473.87,631.45c0,.12-.01.24-.04.35-.02.11-.06.21-.12.29-.05.08-.12.15-.21.2-.08.05-.19.07-.31.07s-.22-.02-.31-.07c-.09-.05-.16-.12-.21-.2-.05-.08-.09-.18-.12-.29-.02-.11-.04-.23-.04-.35s.01-.24.04-.34c.02-.11.06-.2.12-.29.05-.08.12-.15.21-.2.09-.05.19-.07.31-.07s.22.02.31.07c.09.05.15.11.21.2.05.08.09.18.12.29.02.11.04.22.04.34"/><path id="path72-2" class="cls-18" d="M481.48,628.9c0-.08,0-.16-.01-.26,0-.09-.03-.18-.05-.26-.03-.08-.06-.15-.11-.2-.05-.05-.11-.08-.19-.08s-.14.03-.19.08c-.05.05-.09.12-.11.2-.03.08-.04.17-.05.26,0,.09-.01.18-.01.26s0,.17.01.26c0,.09.03.18.05.26.03.08.06.15.11.2.05.05.11.08.19.08s.14-.03.19-.08c.05-.05.08-.12.11-.2.03-.08.04-.17.05-.26,0-.09.01-.18.01-.26ZM482.08,628.9c0,.17-.02.34-.05.5-.03.16-.09.3-.17.42-.08.12-.18.22-.3.29-.12.07-.27.11-.45.11s-.32-.04-.45-.11c-.12-.07-.22-.17-.3-.29-.08-.12-.13-.26-.17-.42-.03-.16-.05-.32-.05-.5s.02-.34.05-.5c.03-.16.09-.3.17-.41.08-.12.18-.21.3-.28.12-.07.27-.1.45-.1s.32.04.45.1c.12.07.22.16.3.28.08.12.13.26.17.41.03.16.05.32.05.5"/><path id="path74-2" class="cls-18" d="M480.35,612.21c-.57-2.79-3.05-4.81-5.9-4.81-.43,0-.86.05-1.28.14-.69-4.06-4.24-7.16-8.49-7.16s-7.73,3.05-8.47,7.05c-3.06.28-5.47,2.86-5.47,6,0,3.32,2.7,6.02,6.02,6.02h9.01c.46,0,.83-.37.83-.83s-.37-.83-.83-.83h-9.01c-2.4,0-4.36-1.95-4.36-4.36s1.95-4.36,4.36-4.36c.87,0,1.72.26,2.44.74.38.26.9.16,1.16-.22.26-.38.16-.9-.22-1.16-.68-.46-1.44-.77-2.24-.92.68-3.12,3.47-5.47,6.79-5.47,3.54,0,6.47,2.66,6.9,6.09-.22.12-.44.25-.65.41-.37.27-.46.79-.19,1.16.27.37.79.46,1.16.19.74-.54,1.63-.82,2.55-.82,2.06,0,3.86,1.46,4.27,3.48.08.39.43.67.82.67.05,0,.11,0,.17-.02.45-.09.74-.53.65-.98"/></g></svg>