<?xml version="1.0" encoding="UTF-8"?><svg xmlns="http://www.w3.org/2000/svg" xmlns:xlink="http://www.w3.org/1999/xlink" viewBox="0 0 971.98 623.84"><defs><style>.cls-1{fill:url(#linear-gradient-12);}.cls-1,.cls-2,.cls-3,.cls-4,.cls-5,.cls-6,.cls-7,.cls-8,.cls-9,.cls-10,.cls-11,.cls-12,.cls-13,.cls-14,.cls-15,.cls-16,.cls-17,.cls-18,.cls-19,.cls-20,.cls-21,.cls-22,.cls-23,.cls-24,.cls-25,.cls-26{stroke-width:0px;}.cls-27{clip-path:url(#clippath-20);}.cls-28{clip-path:url(#clippath-11);}.cls-2{fill:url(#linear-gradient-17);}.cls-29{clip-path:url(#clippath-16);}.cls-3{fill:url(#linear-gradient-19);}.cls-4{fill:url(#linear-gradient);}.cls-30{clip-path:url(#clippath-33);}.cls-5{fill:url(#linear-gradient-21);}.cls-31{clip-path:url(#clippath-32);}.cls-6{fill:#223654;}.cls-7{fill:url(#linear-gradient-6);}.cls-8{fill:#2e3d5b;}.cls-32{clip-path:url(#clippath-2);}.cls-33{clip-path:url(#clippath-13);}.cls-34{clip-path:url(#clippath-37);}.cls-35{clip-path:url(#clippath-25);}.cls-36{stroke:#223654;stroke-miterlimit:10;}.cls-36,.cls-13{fill:none;}.cls-37{clip-path:url(#clippath-15);}.cls-9{fill:url(#linear-gradient-15);}.cls-38{clip-path:url(#clippath-6);}.cls-10{fill:url(#linear-gradient-11);}.cls-39{clip-path:url(#clippath-26);}.cls-11{fill:url(#linear-gradient-5);}.cls-12{fill:#dbdcdd;}.cls-40{clip-path:url(#clippath-7);}.cls-41{clip-path:url(#clippath-21);}.cls-42{clip-path:url(#clippath-34);}.cls-43{clip-path:url(#clippath-1);}.cls-44{clip-path:url(#clippath-4);}.cls-45{clip-path:url(#clippath-38);}.cls-46{clip-path:url(#clippath-36);}.cls-47{clip-path:url(#clippath-27);}.cls-14{fill:url(#linear-gradient-13);}.cls-15{fill:url(#linear-gradient-16);}.cls-48{clip-path:url(#clippath-12);}.cls-16{fill:#fff;}.cls-17{fill:url(#linear-gradient-20);}.cls-18{fill:url(#linear-gradient-14);}.cls-19{fill:url(#linear-gradient-2);}.cls-49{clip-path:url(#clippath-24);}.cls-50{clip-path:url(#clippath-30);}.cls-51{clip-path:url(#clippath-22);}.cls-20{fill:url(#linear-gradient-7);}.cls-21{fill:url(#linear-gradient-3);}.cls-52{clip-path:url(#clippath-9);}.cls-53{clip-path:url(#clippath);}.cls-22{fill:url(#linear-gradient-9);}.cls-54{opacity:.11;}.cls-55{clip-path:url(#clippath-19);}.cls-56{clip-path:url(#clippath-31);}.cls-57{clip-path:url(#clippath-3);}.cls-23{fill:url(#linear-gradient-8);}.cls-58{clip-path:url(#clippath-8);}.cls-24{fill:url(#linear-gradient-18);}.cls-59{clip-path:url(#clippath-29);}.cls-60{clip-path:url(#clippath-18);}.cls-61{clip-path:url(#clippath-14);}.cls-62{clip-path:url(#clippath-17);}.cls-63{clip-path:url(#clippath-5);}.cls-25{fill:url(#linear-gradient-10);}.cls-64{clip-path:url(#clippath-10);}.cls-65{clip-path:url(#clippath-23);}.cls-66{opacity:.29;}.cls-26{fill:url(#linear-gradient-4);}.cls-67{clip-path:url(#clippath-28);}.cls-68{clip-path:url(#clippath-35);}</style><linearGradient id="linear-gradient" x1="1485.15" y1="-1175.08" x2="1726.19" y2="-1175.08" gradientTransform="translate(-1064.73 -1289.31) rotate(90)" gradientUnits="userSpaceOnUse"><stop offset=".48" stop-color="#223654"/><stop offset=".52" stop-color="#38554c"/><stop offset=".59" stop-color="#5e8940"/><stop offset=".66" stop-color="#7bb336"/><stop offset=".72" stop-color="#91d12f"/><stop offset=".77" stop-color="#9ee32b"/><stop offset=".81" stop-color="#a3ea2a"/></linearGradient><linearGradient id="linear-gradient-2" x1="1346.59" y1="-1300.66" x2="1587.64" y2="-1300.66" gradientTransform="translate(1502.49 1852.98) rotate(-90)" xlink:href="#linear-gradient"/><clipPath id="clippath"><rect class="cls-13" x="115.37" y="449.08" width="83.24" height="87.59"/></clipPath><clipPath id="clippath-1"><rect class="cls-13" x="115.37" y="449.08" width="83.24" height="87.59"/></clipPath><clipPath id="clippath-2"><rect class="cls-13" x="115.37" y="449.08" width="83.24" height="87.59"/></clipPath><clipPath id="clippath-3"><polygon class="cls-13" points="117.92 478.08 117.92 511.13 160.8 521.88 197.1 509.78 196.42 476.18 117.92 478.08"/></clipPath><linearGradient id="linear-gradient-3" x1="-83.86" y1="-3634.71" x2="-83.78" y2="-3634.71" gradientTransform="translate(91081 -3942263.34) scale(1084.75 -1084.75)" gradientUnits="userSpaceOnUse"><stop offset="0" stop-color="#a3ea2a"/><stop offset=".51" stop-color="#74a517"/><stop offset=".99" stop-color="#a3ea2a"/><stop offset="1" stop-color="#a3ea2a"/></linearGradient><clipPath id="clippath-4"><path class="cls-13" d="M115.74,476.96c.02.83.51,1.58,1.26,1.92,4.69,2.14,22.27,9.36,44.78,9.02,20.01-.3,32.35-7.13,35.81-9.33.63-.4,1-1.09.99-1.84l-.21-18.88-83.01-.16.37,19.28Z"/></clipPath><linearGradient id="linear-gradient-4" x1="-84.01" y1="-3632.33" x2="-83.94" y2="-3632.33" gradientTransform="translate(220141.4 -9512367.07) scale(2618.94 -2618.94)" gradientUnits="userSpaceOnUse"><stop offset="0" stop-color="#9da8c4"/><stop offset=".17" stop-color="#51586b"/><stop offset=".36" stop-color="#828ca5"/><stop offset="1" stop-color="#828ca5"/></linearGradient><clipPath id="clippath-5"><path class="cls-13" d="M156.9,449.08c-22.9,0-41.53,3.85-41.53,8.6s18.63,8.6,41.53,8.6,41.47-3.85,41.47-8.6-18.57-8.6-41.47-8.6Z"/></clipPath><linearGradient id="linear-gradient-5" x1="-85.34" y1="-3630.28" x2="-85.26" y2="-3630.28" gradientTransform="translate(-10744085.59 -252007.23) rotate(-90) scale(2959.62 -2959.62)" gradientUnits="userSpaceOnUse"><stop offset="0" stop-color="#7c89a5"/><stop offset=".57" stop-color="#4f5669"/><stop offset="1" stop-color="#444b5c"/></linearGradient><clipPath id="clippath-6"><rect class="cls-13" x="115.37" y="449.08" width="83.24" height="87.59"/></clipPath><clipPath id="clippath-7"><path class="cls-13" d="M158.19,515.81c-9.6-.8-24.01-.8-42.42-9.2v16.03c0,2.77,1.68,5.26,4.25,6.29,6.95,2.8,21.85,7.74,40.22,7.74h0c.51,0,1.03,0,1.54-.01,16.54-.25,27.84-4.96,33.21-7.83,2.22-1.18,3.6-3.48,3.6-5.99v-17.44c-7.2,6.8-29.21,11.2-40.42,10.4"/></clipPath><linearGradient id="linear-gradient-6" x1="-83.93" y1="-3632.3" x2="-83.85" y2="-3632.3" gradientTransform="translate(195628.64 -8461180.73) scale(2329.57 -2329.57)" gradientUnits="userSpaceOnUse"><stop offset="0" stop-color="#9da8c4"/><stop offset=".28" stop-color="#51586b"/><stop offset=".53" stop-color="#828ca5"/><stop offset="1" stop-color="#828ca5"/></linearGradient><clipPath id="clippath-8"><rect class="cls-13" x="115.37" y="449.08" width="83.24" height="87.59"/></clipPath><clipPath id="clippath-9"><path class="cls-13" d="M198.55,481.43c-7.26,6.77-29.19,11.15-40.36,10.35-9.6-.8-24.01-.8-42.42-9.2v20.45s19.61,10,46.02,9.6c23.41-.35,36.32-9.64,36.8-9.99,0,0,.01-.02.01-.03v-21.16s-.02-.03-.03-.03c0,0-.02,0-.02,0"/></clipPath><linearGradient id="linear-gradient-7" x1="-83.92" y1="-3632.57" x2="-83.85" y2="-3632.57" gradientTransform="translate(183369.21 -7931727.72) scale(2183.64 -2183.64)" xlink:href="#linear-gradient-6"/><clipPath id="clippath-10"><rect class="cls-13" x="115.37" y="449.08" width="83.24" height="87.59"/></clipPath><clipPath id="clippath-11"><rect class="cls-13" x="116.64" y="461.72" width="29.83" height="10.2"/></clipPath><clipPath id="clippath-12"><rect class="cls-13" x="153.85" y="451.01" width="40.62" height="13.28"/></clipPath><linearGradient id="linear-gradient-8" y1="-1550.72" y2="-1550.72" xlink:href="#linear-gradient"/><clipPath id="clippath-13"><rect class="cls-13" x="444.37" y="449.08" width="83.24" height="87.59"/></clipPath><clipPath id="clippath-14"><rect class="cls-13" x="444.37" y="449.08" width="83.24" height="87.59"/></clipPath><clipPath id="clippath-15"><rect class="cls-13" x="444.37" y="449.08" width="83.24" height="87.59"/></clipPath><clipPath id="clippath-16"><polygon class="cls-13" points="446.92 478.08 446.92 511.13 489.8 521.88 526.1 509.78 525.42 476.18 446.92 478.08"/></clipPath><linearGradient id="linear-gradient-9" x1="-83.55" x2="-83.48" xlink:href="#linear-gradient-3"/><clipPath id="clippath-17"><path class="cls-13" d="M444.74,476.96c.02.83.51,1.58,1.26,1.92,4.69,2.14,22.27,9.36,44.78,9.02,20.01-.3,32.35-7.13,35.81-9.33.63-.4,1-1.09.99-1.84l-.21-18.88-83.01-.16.37,19.28Z"/></clipPath><linearGradient id="linear-gradient-10" x1="-83.88" y1="-3632.33" x2="-83.81" y2="-3632.33" gradientTransform="translate(220141.41 -9512368.44) scale(2618.94 -2618.94)" xlink:href="#linear-gradient-4"/><clipPath id="clippath-18"><path class="cls-13" d="M485.9,449.08c-22.9,0-41.53,3.85-41.53,8.6s18.63,8.6,41.53,8.6,41.47-3.85,41.47-8.6-18.57-8.6-41.47-8.6Z"/></clipPath><linearGradient id="linear-gradient-11" x1="-85.34" y1="-3630.39" x2="-85.27" y2="-3630.39" gradientTransform="translate(-10744085.51 -252014.54) rotate(-90) scale(2959.62 -2959.62)" xlink:href="#linear-gradient-5"/><clipPath id="clippath-19"><rect class="cls-13" x="444.37" y="449.08" width="83.24" height="87.59"/></clipPath><clipPath id="clippath-20"><path class="cls-13" d="M487.19,515.81c-9.6-.8-24.01-.8-42.42-9.2v16.03c0,2.77,1.68,5.26,4.25,6.29,6.95,2.8,21.85,7.74,40.22,7.74h0c.51,0,1.03,0,1.54-.01,16.54-.25,27.84-4.96,33.21-7.83,2.22-1.18,3.6-3.48,3.6-5.99v-17.44c-7.2,6.8-29.21,11.2-40.42,10.4"/></clipPath><linearGradient id="linear-gradient-12" x1="-83.79" x2="-83.71" xlink:href="#linear-gradient-6"/><clipPath id="clippath-21"><rect class="cls-13" x="444.37" y="449.08" width="83.24" height="87.59"/></clipPath><clipPath id="clippath-22"><path class="cls-13" d="M527.55,481.43c-7.26,6.77-29.19,11.15-40.36,10.35-9.6-.8-24.01-.8-42.42-9.2v20.45s19.61,10,46.02,9.6c23.41-.35,36.32-9.64,36.8-9.99,0,0,.01-.02.01-.03v-21.16s-.02-.03-.03-.03c0,0-.02,0-.02,0"/></clipPath><linearGradient id="linear-gradient-13" x1="-83.77" y1="-3632.57" x2="-83.7" y2="-3632.57" gradientTransform="translate(183369.21 -7931727.72) scale(2183.64 -2183.64)" xlink:href="#linear-gradient-6"/><clipPath id="clippath-23"><rect class="cls-13" x="444.37" y="449.08" width="83.24" height="87.59"/></clipPath><clipPath id="clippath-24"><rect class="cls-13" x="445.64" y="461.72" width="29.83" height="10.2"/></clipPath><clipPath id="clippath-25"><rect class="cls-13" x="482.85" y="451.01" width="40.62" height="13.28"/></clipPath><linearGradient id="linear-gradient-14" y1="-1879.72" y2="-1879.72" xlink:href="#linear-gradient"/><clipPath id="clippath-26"><rect class="cls-13" x="773.37" y="449.08" width="83.24" height="87.59"/></clipPath><clipPath id="clippath-27"><rect class="cls-13" x="773.37" y="449.08" width="83.24" height="87.59"/></clipPath><clipPath id="clippath-28"><rect class="cls-13" x="773.37" y="449.08" width="83.24" height="87.59"/></clipPath><clipPath id="clippath-29"><polygon class="cls-13" points="775.92 478.08 775.92 511.13 818.8 521.88 855.1 509.78 854.42 476.18 775.92 478.08"/></clipPath><linearGradient id="linear-gradient-15" x1="-83.25" x2="-83.18" xlink:href="#linear-gradient-3"/><clipPath id="clippath-30"><path class="cls-13" d="M773.74,476.96c.02.83.51,1.58,1.26,1.92,4.69,2.14,22.27,9.36,44.78,9.02,20.01-.3,32.35-7.13,35.81-9.33.63-.4,1-1.09.99-1.84l-.21-18.88-83.01-.16.37,19.28Z"/></clipPath><linearGradient id="linear-gradient-16" x1="-83.76" y1="-3632.33" x2="-83.68" y2="-3632.33" gradientTransform="translate(220141.41 -9512369.82) scale(2618.94 -2618.94)" xlink:href="#linear-gradient-4"/><clipPath id="clippath-31"><path class="cls-13" d="M814.9,449.08c-22.9,0-41.53,3.85-41.53,8.6s18.63,8.6,41.53,8.6,41.47-3.85,41.47-8.6-18.57-8.6-41.47-8.6Z"/></clipPath><linearGradient id="linear-gradient-17" x1="-85.34" y1="-3630.5" x2="-85.27" y2="-3630.5" gradientTransform="translate(-10744085.43 -252021.85) rotate(-90) scale(2959.62 -2959.62)" xlink:href="#linear-gradient-5"/><clipPath id="clippath-32"><rect class="cls-13" x="773.37" y="449.08" width="83.24" height="87.59"/></clipPath><clipPath id="clippath-33"><path class="cls-13" d="M816.19,515.81c-9.6-.8-24.01-.8-42.42-9.2v16.03c0,2.77,1.68,5.26,4.25,6.29,6.95,2.8,21.85,7.74,40.22,7.74h0c.51,0,1.03,0,1.54-.01,16.54-.25,27.84-4.96,33.21-7.83,2.22-1.18,3.6-3.48,3.6-5.99v-17.44c-7.2,6.8-29.21,11.2-40.42,10.4"/></clipPath><linearGradient id="linear-gradient-18" x1="-83.64" x2="-83.57" xlink:href="#linear-gradient-6"/><clipPath id="clippath-34"><rect class="cls-13" x="773.37" y="449.08" width="83.24" height="87.59"/></clipPath><clipPath id="clippath-35"><path class="cls-13" d="M856.55,481.43c-7.26,6.77-29.19,11.15-40.36,10.35-9.6-.8-24.01-.8-42.42-9.2v20.45s19.61,10,46.02,9.6c23.41-.35,36.32-9.64,36.8-9.99,0,0,.01-.02.01-.03v-21.16s-.02-.03-.03-.03c0,0-.02,0-.02,0"/></clipPath><linearGradient id="linear-gradient-19" x1="-83.62" y1="-3632.57" x2="-83.55" y2="-3632.57" gradientTransform="translate(183369.21 -7931727.72) scale(2183.64 -2183.64)" xlink:href="#linear-gradient-6"/><clipPath id="clippath-36"><rect class="cls-13" x="773.37" y="449.08" width="83.24" height="87.59"/></clipPath><clipPath id="clippath-37"><rect class="cls-13" x="774.64" y="461.72" width="29.83" height="10.2"/></clipPath><clipPath id="clippath-38"><rect class="cls-13" x="811.85" y="451.01" width="40.62" height="13.28"/></clipPath><linearGradient id="linear-gradient-20" x1="144.48" y1="492.87" x2="421.03" y2="492.87" gradientUnits="userSpaceOnUse"><stop offset=".33" stop-color="#a3ea2a"/><stop offset=".64" stop-color="#223654"/><stop offset=".68" stop-color="#38554c"/><stop offset=".75" stop-color="#5e8940"/><stop offset=".82" stop-color="#7bb336"/><stop offset=".88" stop-color="#91d12f"/><stop offset=".93" stop-color="#9ee32b"/><stop offset=".96" stop-color="#a3ea2a"/></linearGradient><linearGradient id="linear-gradient-21" x1="472.35" x2="748.9" xlink:href="#linear-gradient-20"/></defs><g id="Layer_1"><path class="cls-6" d="M19.71,7.33h126.69v22.01c0,6.62-5.38,12-12,12H7.71v-22.01c0-6.62,5.38-12,12-12Z"/><path class="cls-16" d="M24.96,28.91c.42,0,.77-.04,1.04-.11.27-.07.49-.17.66-.29.17-.12.28-.26.34-.43s.1-.35.1-.55c0-.43-.2-.79-.61-1.08-.41-.29-1.11-.6-2.1-.93-.43-.15-.87-.33-1.3-.53-.43-.2-.82-.45-1.17-.75-.34-.3-.62-.66-.84-1.09-.22-.43-.33-.95-.33-1.56s.11-1.16.34-1.65c.23-.49.55-.91.98-1.25.42-.34.93-.61,1.53-.79.6-.18,1.27-.28,2.03-.28.89,0,1.66.1,2.31.29s1.19.4,1.61.63l-.86,2.35c-.37-.19-.78-.36-1.23-.51-.45-.15-1-.22-1.63-.22-.71,0-1.23.1-1.54.3-.31.2-.47.5-.47.91,0,.24.06.45.17.61.11.17.28.32.49.45s.45.26.73.36c.27.11.58.22.91.33.69.25,1.29.51,1.8.75.51.25.93.54,1.27.87.34.33.59.72.75,1.17s.25.99.25,1.62c0,1.24-.43,2.2-1.3,2.88s-2.17,1.02-3.92,1.02c-.59,0-1.12-.04-1.59-.11-.47-.07-.89-.16-1.25-.26-.36-.1-.68-.21-.94-.33-.26-.11-.48-.22-.66-.32l.84-2.37c.4.22.88.41,1.46.58.58.17,1.29.26,2.13.26Z"/><path class="cls-16" d="M32.19,18.62l2.85-.46v2.96h3.42v2.37h-3.42v3.54c0,.6.1,1.08.32,1.43.21.36.63.54,1.27.54.31,0,.62-.03.95-.09.33-.06.62-.14.89-.24l.4,2.22c-.34.14-.73.26-1.15.36-.42.1-.94.15-1.55.15-.78,0-1.42-.11-1.93-.32-.51-.21-.92-.5-1.22-.88-.31-.38-.52-.83-.64-1.37-.12-.54-.18-1.13-.18-1.78v-8.45Z"/><path class="cls-16" d="M44,20.86c.84,0,1.54.09,2.1.29.56.19,1.01.47,1.35.82.34.36.58.79.72,1.3.14.51.21,1.08.21,1.7v5.93c-.41.09-.97.19-1.7.32s-1.61.18-2.64.18c-.65,0-1.24-.06-1.77-.17-.53-.11-.98-.3-1.37-.56-.38-.26-.68-.6-.88-1.02-.2-.42-.31-.94-.31-1.55s.12-1.08.35-1.49c.24-.41.55-.73.95-.97s.85-.42,1.36-.53c.51-.11,1.04-.16,1.59-.16.37,0,.7.02.98.05.29.03.52.07.7.12v-.27c0-.48-.15-.87-.44-1.17s-.8-.44-1.53-.44c-.48,0-.96.04-1.43.1-.47.07-.88.17-1.22.3l-.36-2.29c.17-.05.37-.11.62-.16.25-.06.52-.11.81-.15.29-.04.6-.08.93-.12.32-.03.65-.05.98-.05ZM44.23,29.19c.28,0,.55,0,.8-.02s.46-.03.61-.06v-2.16c-.11-.03-.29-.05-.52-.08-.23-.03-.44-.04-.63-.04-.27,0-.52.02-.76.05-.24.03-.44.09-.62.18-.18.09-.32.21-.42.36-.1.15-.15.34-.15.57,0,.45.15.75.45.93s.71.26,1.23.26Z"/><path class="cls-16" d="M50.86,18.62l2.85-.46v2.96h3.42v2.37h-3.42v3.54c0,.6.1,1.08.32,1.43.21.36.63.54,1.27.54.31,0,.62-.03.95-.09.33-.06.62-.14.89-.24l.4,2.22c-.34.14-.73.26-1.15.36-.42.1-.94.15-1.55.15-.78,0-1.42-.11-1.93-.32-.51-.21-.92-.5-1.22-.88-.31-.38-.52-.83-.64-1.37-.12-.54-.18-1.13-.18-1.78v-8.45Z"/><path class="cls-16" d="M58.59,26.23c0-.89.14-1.67.41-2.34s.63-1.23,1.08-1.67c.45-.45.96-.78,1.54-1.01.58-.23,1.18-.34,1.79-.34,1.43,0,2.55.44,3.38,1.31.83.87,1.24,2.16,1.24,3.85,0,.17,0,.35-.02.54-.01.2-.03.37-.04.53h-6.46c.06.59.34,1.05.82,1.4s1.13.52,1.95.52c.52,0,1.04-.05,1.54-.14s.91-.21,1.23-.35l.38,2.31c-.15.08-.36.15-.61.23s-.54.14-.85.2c-.31.06-.65.1-1,.14-.36.04-.71.06-1.07.06-.9,0-1.69-.13-2.36-.4-.67-.27-1.22-.63-1.66-1.1-.44-.46-.76-1.02-.97-1.65-.21-.64-.32-1.33-.32-2.06ZM65.28,25.14c-.01-.24-.05-.48-.12-.71-.07-.23-.18-.43-.33-.61s-.33-.33-.55-.44c-.22-.11-.5-.17-.83-.17s-.59.05-.82.16c-.23.11-.42.25-.57.43s-.27.39-.35.62c-.08.24-.14.48-.18.72h3.77Z"/><path class="cls-16" d="M74.59,16.35c.54,0,1.03.05,1.47.16s.79.21,1.03.32l-.55,2.28c-.25-.12-.53-.2-.83-.26-.3-.06-.58-.09-.83-.09-.34,0-.63.05-.87.14-.24.1-.42.23-.55.39-.13.17-.23.36-.29.59s-.09.48-.09.75v.5h3.52v2.37h-3.52v7.68h-2.85v-10.59c0-1.3.37-2.33,1.1-3.1.73-.76,1.82-1.15,3.26-1.15Z"/><path class="cls-16" d="M86.88,30.84c-.48.14-1.11.27-1.87.39s-1.57.18-2.41.18-1.56-.12-2.13-.34c-.57-.23-1.02-.55-1.35-.97-.33-.41-.57-.91-.71-1.48s-.21-1.2-.21-1.89v-5.6h2.85v5.26c0,.92.12,1.58.36,1.99.24.41.69.61,1.36.61.2,0,.42,0,.65-.03.23-.02.43-.04.61-.07v-7.76h2.85v9.71Z"/><path class="cls-16" d="M93.57,31.37c-.83-.01-1.5-.1-2.02-.27-.52-.17-.92-.4-1.22-.7-.3-.3-.5-.66-.61-1.09-.11-.43-.16-.91-.16-1.44v-11.07l2.85-.46v10.95c0,.25.02.48.06.69.04.2.11.38.22.52.11.14.26.25.47.34.2.09.48.15.82.17l-.4,2.35Z"/><path class="cls-16" d="M99.4,28.91c.42,0,.77-.04,1.04-.11.27-.07.49-.17.66-.29.17-.12.28-.26.34-.43s.1-.35.1-.55c0-.43-.2-.79-.61-1.08-.41-.29-1.11-.6-2.1-.93-.43-.15-.87-.33-1.3-.53-.43-.2-.82-.45-1.17-.75-.34-.3-.62-.66-.84-1.09-.22-.43-.33-.95-.33-1.56s.11-1.16.34-1.65c.23-.49.55-.91.98-1.25.42-.34.93-.61,1.53-.79.6-.18,1.27-.28,2.03-.28.89,0,1.66.1,2.31.29s1.19.4,1.61.63l-.86,2.35c-.37-.19-.78-.36-1.23-.51-.45-.15-1-.22-1.63-.22-.71,0-1.23.1-1.54.3-.31.2-.47.5-.47.91,0,.24.06.45.17.61.11.17.28.32.49.45s.45.26.73.36c.27.11.58.22.91.33.69.25,1.29.51,1.8.75.51.25.93.54,1.27.87.34.33.59.72.75,1.17s.25.99.25,1.62c0,1.24-.43,2.2-1.3,2.88s-2.17,1.02-3.92,1.02c-.59,0-1.12-.04-1.59-.11-.47-.07-.89-.16-1.25-.26-.36-.1-.68-.21-.94-.33-.26-.11-.48-.22-.66-.32l.84-2.37c.4.22.88.41,1.46.58.58.17,1.29.26,2.13.26Z"/><path class="cls-16" d="M106.24,26.23c0-.89.14-1.67.41-2.34s.63-1.23,1.08-1.67c.45-.45.96-.78,1.54-1.01.58-.23,1.18-.34,1.79-.34,1.43,0,2.55.44,3.38,1.31.83.87,1.24,2.16,1.24,3.85,0,.17,0,.35-.02.54-.01.2-.03.37-.04.53h-6.46c.06.59.34,1.05.82,1.4s1.13.52,1.95.52c.52,0,1.04-.05,1.54-.14s.91-.21,1.23-.35l.38,2.31c-.15.08-.36.15-.61.23s-.54.14-.85.2c-.31.06-.65.1-1,.14-.36.04-.71.06-1.07.06-.9,0-1.69-.13-2.36-.4-.67-.27-1.22-.63-1.66-1.1-.44-.46-.76-1.02-.97-1.65-.21-.64-.32-1.33-.32-2.06ZM112.93,25.14c-.01-.24-.05-.48-.12-.71-.07-.23-.18-.43-.33-.61s-.33-.33-.55-.44c-.22-.11-.5-.17-.83-.17s-.59.05-.82.16c-.23.11-.42.25-.57.43s-.27.39-.35.62c-.08.24-.14.48-.18.72h3.77Z"/><path class="cls-16" d="M117.79,18.62l2.85-.46v2.96h3.42v2.37h-3.42v3.54c0,.6.1,1.08.32,1.43.21.36.63.54,1.27.54.31,0,.62-.03.95-.09.33-.06.62-.14.89-.24l.4,2.22c-.34.14-.73.26-1.15.36-.42.1-.94.15-1.55.15-.78,0-1.42-.11-1.93-.32-.51-.21-.92-.5-1.22-.88-.31-.38-.52-.83-.64-1.37-.12-.54-.18-1.13-.18-1.78v-8.45Z"/><path class="cls-16" d="M129.26,29.13c.52,0,.89-.05,1.11-.15.22-.1.32-.3.32-.59,0-.23-.14-.43-.42-.6-.28-.17-.71-.37-1.28-.58-.45-.17-.85-.34-1.21-.52s-.67-.39-.93-.64c-.25-.25-.45-.54-.59-.89-.14-.34-.21-.76-.21-1.24,0-.94.35-1.69,1.05-2.24.7-.55,1.66-.82,2.89-.82.61,0,1.2.05,1.76.16.56.11,1.01.23,1.34.35l-.5,2.22c-.33-.12-.69-.22-1.08-.31-.39-.09-.83-.13-1.31-.13-.89,0-1.34.25-1.34.75,0,.11.02.22.06.31.04.09.11.18.23.26.11.08.27.17.47.27.2.1.45.2.76.32.62.23,1.14.46,1.55.68.41.22.73.47.97.73s.4.55.5.87c.1.32.14.69.14,1.11,0,.99-.37,1.74-1.12,2.25-.75.51-1.8.76-3.16.76-.89,0-1.63-.08-2.23-.23-.59-.15-1-.28-1.23-.38l.48-2.31c.48.19.98.34,1.49.45s1.01.16,1.51.16Z"/><rect class="cls-6" x="70.4" y="413.66" width="173.19" height="158.42" rx="12" ry="12"/><g id="arrow_styles_for_diagrams_etc"><g id="arrow_styles_for_diagrams_etc-2"><path class="cls-4" d="M109.48,428.94l-13.14-22.84c-.39-.67.1-1.52.88-1.52h6.78v-128.14c0-2.02,1.64-3.67,3.67-3.67h5.38c2.02,0,3.66,1.64,3.66,3.66v128.15h6.78c.78,0,1.26.84.88,1.52l-13.14,22.84c-.39.67-1.35.67-1.74,0Z"/></g></g><rect class="cls-6" x="70.4" y="206.16" width="173.19" height="75.59" rx="12" ry="12"/><rect class="cls-6" x="70.4" y="61.99" width="173.19" height="42.47" rx="12" ry="12"/><rect class="cls-6" x="70.4" y="156.88" width="173.19" height="42.47" rx="12" ry="12"/><path class="cls-16" d="M141.91,236.06c2.47,0,4.36.43,5.68,1.3,1.32.87,1.98,2.29,1.98,4.26s-.67,3.43-2,4.31c-1.34.88-3.25,1.33-5.73,1.33h-1.17v5.54h-3.72v-16.3c.81-.16,1.67-.27,2.58-.33s1.7-.1,2.39-.1ZM142.14,239.23c-.27,0-.54,0-.8.02-.26.02-.49.03-.68.05v4.77h1.17c1.29,0,2.26-.17,2.91-.53.65-.35.98-1,.98-1.96,0-.46-.08-.84-.25-1.15-.17-.3-.41-.54-.72-.73-.31-.18-.69-.31-1.13-.38s-.94-.11-1.48-.11Z"/><path class="cls-16" d="M163.46,246.49c0,.99-.14,1.89-.43,2.71-.29.82-.7,1.52-1.24,2.1-.54.58-1.19,1.03-1.95,1.35-.76.32-1.6.48-2.54.48s-1.76-.16-2.52-.48c-.76-.32-1.4-.77-1.95-1.35-.54-.58-.96-1.28-1.27-2.1-.3-.82-.45-1.72-.45-2.71s.16-1.89.47-2.7c.31-.81.74-1.5,1.29-2.08.55-.57,1.2-1.02,1.96-1.34.76-.32,1.58-.48,2.47-.48s1.74.16,2.49.48c.76.32,1.4.76,1.95,1.34.54.57.96,1.27,1.27,2.08.3.81.45,1.71.45,2.7ZM159.83,246.49c0-1.1-.22-1.96-.66-2.59s-1.06-.94-1.87-.94-1.44.31-1.89.94c-.45.63-.67,1.49-.67,2.59s.22,1.97.67,2.61c.45.64,1.07.97,1.89.97s1.44-.32,1.87-.97.66-1.52.66-2.61Z"/><path class="cls-16" d="M177.28,252.38c-.32.1-.68.19-1.1.28-.41.09-.85.16-1.3.23-.45.06-.92.12-1.38.16-.47.04-.92.06-1.35.06-1.03,0-1.96-.15-2.77-.45-.81-.3-1.5-.74-2.05-1.3-.56-.56-.98-1.25-1.28-2.05s-.44-1.71-.44-2.71.13-1.94.38-2.76c.25-.82.62-1.52,1.1-2.09.48-.57,1.06-1.01,1.75-1.31.69-.3,1.48-.45,2.38-.45.49,0,.94.05,1.33.14.39.1.78.23,1.18.41v-5.68l3.56-.57v18.12ZM169.24,246.42c0,1.1.25,1.98.74,2.65.49.67,1.23,1,2.2,1,.32,0,.61-.01.88-.04.27-.02.49-.05.67-.08v-6.47c-.22-.14-.51-.26-.87-.36-.36-.09-.72-.14-1.09-.14-1.69,0-2.53,1.15-2.53,3.44Z"/><path class="cls-16" d="M104.85,186.25c-.6.18-1.38.34-2.34.49-.96.15-1.96.23-3.01.23s-1.95-.14-2.66-.43c-.71-.29-1.27-.69-1.68-1.21-.41-.52-.71-1.13-.88-1.85-.18-.72-.26-1.5-.26-2.36v-6.99h3.56v6.56c0,1.15.15,1.97.45,2.48.3.51.87.76,1.69.76.25,0,.52-.01.81-.04.29-.02.54-.05.76-.08v-9.69h3.56v12.13Z"/><path class="cls-16" d="M108.19,174.55c.6-.17,1.38-.34,2.34-.49.96-.15,1.96-.23,3.01-.23s1.95.14,2.66.42c.71.28,1.27.67,1.68,1.18.41.51.71,1.11.88,1.81.17.7.26,1.48.26,2.34v7.09h-3.56v-6.66c0-1.15-.15-1.96-.45-2.43-.3-.48-.87-.72-1.69-.72-.25,0-.53.01-.81.04-.29.02-.54.05-.76.08v9.69h-3.56v-12.13Z"/><path class="cls-16" d="M126.14,170.5c0,.65-.21,1.17-.63,1.54-.42.37-.92.56-1.49.56s-1.07-.19-1.49-.56c-.42-.37-.63-.89-.63-1.54s.21-1.17.63-1.54c.42-.37.92-.56,1.49-.56s1.07.19,1.49.56c.42.37.63.89.63,1.54ZM125.8,186.68h-3.56v-12.56h3.56v12.56Z"/><path class="cls-16" d="M128.55,180.4c0-.97.15-1.86.44-2.66s.72-1.5,1.28-2.08c.56-.58,1.24-1.03,2.05-1.35s1.73-.48,2.77-.48c.43,0,.88.02,1.35.06.47.04.93.09,1.38.16.45.06.89.14,1.3.23.41.09.78.18,1.1.27v16.54h-3.56v-4.73c-.4.18-.81.31-1.24.41s-.89.14-1.38.14c-1.78,0-3.14-.58-4.08-1.75s-1.41-2.76-1.41-4.76ZM132.18,180.5c0,2.28.84,3.41,2.53,3.41.37,0,.73-.05,1.09-.14s.65-.21.87-.36v-6.42c-.18-.03-.4-.06-.67-.08-.27-.02-.57-.04-.88-.04-.97,0-1.7.33-2.2.99s-.74,1.54-.74,2.64Z"/><path class="cls-16" d="M154.28,186.25c-.6.18-1.38.34-2.34.49-.96.15-1.96.23-3.01.23s-1.95-.14-2.66-.43c-.71-.29-1.27-.69-1.68-1.21-.41-.52-.71-1.13-.88-1.85-.18-.72-.26-1.5-.26-2.36v-6.99h3.56v6.56c0,1.15.15,1.97.45,2.48.3.51.87.76,1.69.76.25,0,.52-.01.81-.04.29-.02.54-.05.76-.08v-9.69h3.56v12.13Z"/><path class="cls-16" d="M157.03,180.5c0-1.11.17-2.09.51-2.92.34-.84.79-1.53,1.35-2.09.56-.56,1.2-.98,1.92-1.27.72-.29,1.47-.43,2.23-.43,1.78,0,3.19.55,4.23,1.64,1.03,1.09,1.55,2.69,1.55,4.81,0,.21,0,.43-.02.68-.02.25-.03.47-.05.66h-8.07c.08.73.42,1.31,1.03,1.74.6.43,1.42.64,2.43.64.65,0,1.29-.06,1.92-.18.63-.12,1.14-.27,1.54-.44l.48,2.89c-.19.09-.45.19-.76.29s-.67.18-1.06.25c-.39.07-.81.13-1.25.18-.45.05-.89.07-1.34.07-1.13,0-2.11-.17-2.95-.5s-1.53-.79-2.08-1.37c-.55-.58-.96-1.27-1.22-2.06-.26-.8-.39-1.66-.39-2.58ZM165.38,179.14c-.02-.3-.07-.6-.15-.88-.09-.29-.22-.54-.41-.76-.18-.22-.41-.41-.69-.55-.28-.14-.62-.21-1.04-.21s-.74.07-1.03.2-.52.31-.72.54c-.19.22-.34.48-.44.78-.1.29-.18.59-.23.9h4.7Z"/><path class="cls-16" d="M170.49,177.94h6.92v3.22h-6.92v-3.22Z"/><path class="cls-16" d="M183.57,170.5c0,.65-.21,1.17-.63,1.54-.42.37-.92.56-1.49.56s-1.07-.19-1.49-.56c-.42-.37-.63-.89-.63-1.54s.21-1.17.63-1.54c.42-.37.92-.56,1.49-.56s1.07.19,1.49.56c.42.37.63.89.63,1.54ZM183.24,186.68h-3.56v-12.56h3.56v12.56Z"/><path class="cls-16" d="M197.65,186.27c-.32.1-.68.19-1.1.28-.41.09-.85.16-1.3.23-.45.06-.92.12-1.38.16-.47.04-.92.06-1.35.06-1.03,0-1.96-.15-2.77-.45-.81-.3-1.5-.74-2.05-1.3-.56-.56-.98-1.25-1.28-2.05s-.44-1.71-.44-2.71.13-1.94.38-2.76c.25-.82.62-1.52,1.1-2.09.48-.57,1.06-1.01,1.75-1.31.69-.3,1.48-.45,2.38-.45.49,0,.94.05,1.33.14.39.1.78.23,1.18.41v-5.68l3.56-.57v18.12ZM189.61,180.31c0,1.1.25,1.98.74,2.65.49.67,1.23,1,2.2,1,.32,0,.61-.01.88-.04.27-.02.49-.05.67-.08v-6.47c-.22-.14-.51-.26-.87-.36-.36-.09-.72-.14-1.09-.14-1.69,0-2.53,1.15-2.53,3.44Z"/><path class="cls-16" d="M200.45,177.94h6.92v3.22h-6.92v-3.22Z"/><path class="cls-16" d="M220.71,178.37c0,2.79-.53,4.92-1.59,6.41-1.06,1.49-2.52,2.23-4.38,2.23s-3.32-.74-4.38-2.23c-1.06-1.49-1.59-3.62-1.59-6.41,0-1.38.14-2.61.42-3.68.28-1.07.68-1.96,1.21-2.7.53-.73,1.15-1.29,1.89-1.67.73-.38,1.55-.57,2.46-.57,1.86,0,3.32.74,4.38,2.23,1.06,1.49,1.59,3.62,1.59,6.39ZM217.08,178.37c0-.83-.04-1.58-.12-2.26s-.21-1.26-.38-1.75-.41-.88-.72-1.15c-.3-.27-.68-.41-1.12-.41s-.82.14-1.11.41c-.29.27-.53.65-.72,1.15-.18.49-.31,1.08-.39,1.75s-.12,1.43-.12,2.26.04,1.58.12,2.27.21,1.27.39,1.77c.18.49.42.88.72,1.15.29.27.66.41,1.11.41s.82-.13,1.12-.41c.3-.27.54-.65.72-1.15s.3-1.08.38-1.77.12-1.44.12-2.27Z"/><path class="cls-16" d="M109.68,75.03c2.47,0,4.36.43,5.68,1.3,1.32.87,1.98,2.29,1.98,4.26s-.67,3.43-2,4.31c-1.34.88-3.25,1.33-5.73,1.33h-1.17v5.54h-3.72v-16.3c.81-.16,1.67-.27,2.58-.33s1.7-.1,2.39-.1ZM109.92,78.2c-.27,0-.54,0-.8.02-.26.02-.49.03-.68.05v4.77h1.17c1.29,0,2.26-.17,2.91-.53.65-.35.98-1,.98-1.96,0-.46-.08-.84-.25-1.15-.17-.3-.41-.54-.72-.73-.31-.18-.69-.31-1.13-.38s-.94-.11-1.48-.11Z"/><path class="cls-16" d="M124.93,75.03c2.48,0,4.38.44,5.71,1.33,1.32.88,1.98,2.26,1.98,4.12,0,1.16-.27,2.1-.8,2.83-.53.72-1.3,1.29-2.3,1.71.33.41.68.89,1.05,1.42s.73,1.09,1.09,1.67.7,1.19,1.04,1.81c.33.63.64,1.25.93,1.85h-4.16c-.3-.54-.61-1.09-.92-1.65-.31-.56-.63-1.1-.96-1.62-.33-.53-.65-1.02-.97-1.49-.32-.47-.64-.9-.96-1.28h-1.84v6.04h-3.72v-16.3c.81-.16,1.65-.27,2.52-.33.87-.06,1.64-.1,2.33-.1ZM125.15,78.2c-.27,0-.51,0-.73.02-.21.02-.42.03-.61.05v4.49h1.05c1.4,0,2.4-.17,3.01-.53.6-.35.91-.95.91-1.79s-.31-1.39-.92-1.73c-.61-.34-1.52-.51-2.71-.51Z"/><path class="cls-16" d="M136.01,75.22h3.72v16.54h-3.72v-16.54Z"/><path class="cls-16" d="M147.94,75.22c.29.52.62,1.17.99,1.95s.77,1.61,1.17,2.51c.41.9.81,1.82,1.21,2.76.4.94.77,1.82,1.12,2.65.35-.83.73-1.71,1.12-2.65.4-.94.8-1.86,1.21-2.76.41-.9.8-1.73,1.17-2.51.37-.77.71-1.42.99-1.95h3.39c.16,1.1.31,2.33.44,3.69s.25,2.78.36,4.25c.1,1.47.2,2.95.29,4.43.09,1.48.16,2.87.23,4.18h-3.63c-.05-1.61-.11-3.36-.19-5.25-.08-1.89-.2-3.8-.36-5.73-.29.67-.61,1.41-.96,2.22-.35.81-.7,1.62-1.04,2.43-.34.81-.67,1.59-.99,2.33-.32.74-.59,1.37-.81,1.9h-2.6c-.22-.53-.5-1.16-.81-1.9-.32-.74-.65-1.52-.99-2.33-.34-.81-.69-1.62-1.04-2.43s-.67-1.55-.96-2.22c-.16,1.93-.28,3.83-.36,5.73-.08,1.89-.14,3.64-.19,5.25h-3.63c.06-1.3.14-2.7.23-4.18.09-1.48.18-2.96.29-4.43.1-1.47.22-2.89.36-4.25.13-1.36.28-2.59.44-3.69h3.56Z"/><path class="cls-16" d="M176.06,91.76c-.18-.58-.38-1.17-.59-1.77-.21-.61-.42-1.21-.63-1.81h-6.46c-.21.6-.42,1.21-.63,1.82s-.41,1.2-.59,1.77h-3.87c.62-1.78,1.21-3.43,1.77-4.94.56-1.51,1.11-2.94,1.64-4.27s1.06-2.61,1.58-3.81c.52-1.2,1.06-2.38,1.62-3.52h3.53c.54,1.15,1.08,2.32,1.61,3.52.53,1.2,1.06,2.47,1.59,3.81s1.08,2.76,1.64,4.27c.56,1.51,1.15,3.16,1.77,4.94h-3.99ZM171.59,78.97c-.08.24-.2.57-.36.98-.16.41-.34.89-.55,1.43s-.43,1.14-.69,1.79c-.25.65-.51,1.33-.77,2.05h4.73c-.25-.72-.5-1.4-.74-2.06s-.46-1.25-.68-1.79-.4-1.02-.56-1.43-.29-.74-.39-.97Z"/><path class="cls-16" d="M187.02,75.03c2.48,0,4.38.44,5.71,1.33,1.32.88,1.98,2.26,1.98,4.12,0,1.16-.27,2.1-.8,2.83-.53.72-1.3,1.29-2.3,1.71.33.41.68.89,1.05,1.42s.73,1.09,1.09,1.67.7,1.19,1.04,1.81c.33.63.64,1.25.93,1.85h-4.16c-.3-.54-.61-1.09-.92-1.65-.31-.56-.63-1.1-.96-1.62-.33-.53-.65-1.02-.97-1.49-.32-.47-.64-.9-.96-1.28h-1.84v6.04h-3.72v-16.3c.81-.16,1.65-.27,2.52-.33.87-.06,1.64-.1,2.33-.1ZM187.23,78.2c-.27,0-.51,0-.73.02-.21.02-.42.03-.61.05v4.49h1.05c1.4,0,2.4-.17,3.01-.53.6-.35.91-.95.91-1.79s-.31-1.39-.92-1.73c-.61-.34-1.52-.51-2.71-.51Z"/><path class="cls-16" d="M203.37,82c.67-1.13,1.31-2.25,1.91-3.38.6-1.13,1.16-2.26,1.67-3.4h4.11c-.91,1.78-1.85,3.51-2.82,5.18s-2,3.35-3.08,5.04v6.33h-3.72v-6.28c-1.08-1.69-2.11-3.37-3.09-5.06-.98-1.69-1.92-3.42-2.83-5.2h4.32c.51,1.14,1.06,2.28,1.65,3.4.59,1.13,1.22,2.25,1.88,3.38Z"/><g id="arrow_styles_for_diagrams_etc-3"><g id="arrow_styles_for_diagrams_etc-4"><path class="cls-19" d="M202.7,273.29l13.14,22.84c.39.67-.1,1.52-.88,1.52h-6.78s0,128.14,0,128.14c0,2.02-1.64,3.67-3.67,3.67h-5.38c-2.02,0-3.66-1.64-3.66-3.66v-128.15s-6.78,0-6.78,0c-.78,0-1.26-.84-.88-1.52l13.14-22.84c.39-.67,1.35-.67,1.74,0Z"/></g></g><g class="cls-53"><g class="cls-43"><g class="cls-32"><path class="cls-8" d="M115.94,505.5s.98-.73,2.44-.73l-.24,2.2-2.2-1.47Z"/><path class="cls-8" d="M115.82,481s1.08-.66,2.54-.66l-.24,2.2-2.3-1.54Z"/></g><g class="cls-57"><rect class="cls-21" x="117.92" y="476.18" width="79.18" height="45.7"/></g><g class="cls-44"><rect class="cls-26" x="115.31" y="457.51" width="83.36" height="30.9" transform="translate(-1.98 .66) rotate(-.24)"/></g><g class="cls-63"><rect class="cls-11" x="115.19" y="448.16" width="83.36" height="19.05" transform="translate(-10.13 3.6) rotate(-1.27)"/></g><g class="cls-38"><path class="cls-12" d="M175.79,475.35c0,1.49-1.21,2.7-2.7,2.7-.75,0-1.43-.3-1.91-.8.4.23.86.36,1.35.36,1.49,0,2.7-1.21,2.7-2.7,0-.74-.3-1.41-.78-1.9.8.47,1.34,1.34,1.34,2.33"/><path class="cls-16" d="M175.23,474.92c0,1.49-1.21,2.7-2.7,2.7-.49,0-.96-.13-1.35-.36-.48-.49-.78-1.16-.78-1.9,0-1.49,1.21-2.7,2.7-2.7.49,0,.96.13,1.35.36.48.49.78,1.16.78,1.9"/><path class="cls-16" d="M175.79,524.2c0,1.49-1.21,2.7-2.7,2.7s-2.7-1.21-2.7-2.7,1.21-2.7,2.7-2.7,2.7,1.21,2.7,2.7"/><path class="cls-8" d="M116.07,505.5s1.98,1.46,4.4,2.27c4.03,1.34,17.47,6.17,38.31,6.72,25.54.67,38.48-8.88,38.48-8.88l1.34-.21-16.97,15.81-56.45-5.38-8.74-7.39-.67-1.34s-.07-1.85.3-1.6"/></g><g class="cls-40"><rect class="cls-7" x="115.77" y="505.4" width="82.84" height="31.26"/></g><g class="cls-58"><path class="cls-16" d="M175.79,524.31c0,1.49-1.21,2.7-2.7,2.7s-2.7-1.21-2.7-2.7,1.21-2.7,2.7-2.7,2.7,1.21,2.7,2.7"/><path class="cls-8" d="M115.83,480.99s2.22,1.46,4.65,2.27c4.03,1.34,17.47,6.17,38.31,6.72,25.54.67,37.83-8.48,37.83-8.48l1.34,1.26-16.32,13.94-56.45-5.38-8.74-7.39-.67-1.34s-.08-1.5.06-1.6"/><path class="cls-8" d="M198.61,505.4s.2-.9-1.62-1.28v.29l.03,1.44.72-.16.86-.3Z"/><path class="cls-8" d="M198.6,481.45s-.29-1.49-2.11-1.86v.4l.05,3.33.82-.14,1.25-1.73Z"/></g><g class="cls-52"><rect class="cls-20" x="115.77" y="481.42" width="82.84" height="31.61"/></g><g class="cls-64"><path class="cls-16" d="M175.79,500.11c0,1.49-1.21,2.7-2.7,2.7s-2.7-1.21-2.7-2.7,1.21-2.7,2.7-2.7,2.7,1.21,2.7,2.7"/><path class="cls-12" d="M175.79,500.11c0,1.49-1.21,2.7-2.7,2.7-.75,0-1.43-.3-1.91-.8.4.23.86.36,1.35.36,1.49,0,2.7-1.21,2.7-2.7,0-.74-.3-1.41-.78-1.9.8.47,1.34,1.34,1.34,2.33"/><path class="cls-12" d="M175.79,524.28c0,1.49-1.21,2.7-2.7,2.7-.75,0-1.43-.3-1.91-.8.4.23.86.36,1.35.36,1.49,0,2.7-1.21,2.7-2.7,0-.74-.3-1.41-.78-1.9.8.47,1.34,1.34,1.34,2.33"/><g class="cls-66"><g class="cls-28"><path class="cls-16" d="M116.64,461.72v5.94s18.02,5.49,29.83,4.01c0,0-24.24-5.15-29.83-9.95"/></g></g><g class="cls-54"><g class="cls-48"><path class="cls-16" d="M153.85,464.3s39.9-1.4,40.61-6.61c.71-5.2-28.8-6.68-28.8-6.68,0,0,26.49,4.5,22.1,6.68-4.39,2.18-33.91,6.61-33.91,6.61"/></g></g></g></g></g><rect class="cls-6" x="399.4" y="413.66" width="173.19" height="158.42" rx="12" ry="12"/><g id="arrow_styles_for_diagrams_etc-5"><g id="arrow_styles_for_diagrams_etc-6"><path class="cls-23" d="M485.12,428.94l-13.14-22.84c-.39-.67.1-1.52.88-1.52h6.78v-128.14c0-2.02,1.64-3.67,3.67-3.67h5.38c2.02,0,3.66,1.64,3.66,3.66v128.15h6.78c.78,0,1.26.84.88,1.52l-13.14,22.84c-.39.67-1.35.67-1.74,0Z"/></g></g><rect class="cls-6" x="399.4" y="206.16" width="173.19" height="75.59" rx="12" ry="12"/><rect class="cls-6" x="399.4" y="61.99" width="173.19" height="42.47" rx="12" ry="12"/><rect class="cls-6" x="399.4" y="156.88" width="173.19" height="42.47" rx="12" ry="12"/><path class="cls-16" d="M470.91,236.06c2.47,0,4.36.43,5.68,1.3,1.32.87,1.98,2.29,1.98,4.26s-.67,3.43-2,4.31c-1.34.88-3.25,1.33-5.73,1.33h-1.17v5.54h-3.72v-16.3c.81-.16,1.67-.27,2.58-.33s1.7-.1,2.39-.1ZM471.14,239.23c-.27,0-.54,0-.8.02-.26.02-.49.03-.68.05v4.77h1.17c1.29,0,2.26-.17,2.91-.53.65-.35.98-1,.98-1.96,0-.46-.08-.84-.25-1.15-.17-.3-.41-.54-.72-.73-.31-.18-.69-.31-1.13-.38s-.94-.11-1.48-.11Z"/><path class="cls-16" d="M492.46,246.49c0,.99-.14,1.89-.43,2.71-.29.82-.7,1.52-1.24,2.1-.54.58-1.19,1.03-1.95,1.35-.76.32-1.6.48-2.54.48s-1.76-.16-2.52-.48c-.76-.32-1.4-.77-1.95-1.35-.54-.58-.96-1.28-1.27-2.1-.3-.82-.45-1.72-.45-2.71s.16-1.89.47-2.7c.31-.81.74-1.5,1.29-2.08.55-.57,1.2-1.02,1.96-1.34.76-.32,1.58-.48,2.47-.48s1.74.16,2.49.48c.76.32,1.4.76,1.95,1.34.54.57.96,1.27,1.26,2.08.3.81.45,1.71.45,2.7ZM488.83,246.49c0-1.1-.22-1.96-.66-2.59s-1.06-.94-1.87-.94-1.44.31-1.89.94c-.45.63-.67,1.49-.67,2.59s.22,1.97.67,2.61c.45.64,1.07.97,1.89.97s1.44-.32,1.87-.97.66-1.52.66-2.61Z"/><path class="cls-16" d="M506.28,252.38c-.32.1-.68.19-1.1.28-.41.09-.85.16-1.3.23-.45.06-.92.12-1.38.16-.47.04-.92.06-1.35.06-1.04,0-1.96-.15-2.77-.45-.81-.3-1.5-.74-2.05-1.3-.56-.56-.98-1.25-1.28-2.05-.29-.8-.44-1.71-.44-2.71s.13-1.94.38-2.76c.25-.82.62-1.52,1.1-2.09.48-.57,1.06-1.01,1.75-1.31.69-.3,1.48-.45,2.38-.45.49,0,.94.05,1.33.14.39.1.78.23,1.18.41v-5.68l3.56-.57v18.12ZM498.24,246.42c0,1.1.25,1.98.74,2.65.49.67,1.23,1,2.2,1,.32,0,.61-.01.88-.04.27-.02.49-.05.67-.08v-6.47c-.22-.14-.51-.26-.87-.36-.36-.09-.72-.14-1.09-.14-1.69,0-2.53,1.15-2.53,3.44Z"/><path class="cls-16" d="M433.85,186.25c-.6.18-1.38.34-2.34.49-.96.15-1.96.23-3.01.23s-1.95-.14-2.66-.43c-.71-.29-1.27-.69-1.68-1.21-.41-.52-.71-1.13-.88-1.85-.18-.72-.26-1.5-.26-2.36v-6.99h3.56v6.56c0,1.15.15,1.97.45,2.48.3.51.87.76,1.69.76.25,0,.52-.01.81-.04.29-.02.54-.05.76-.08v-9.69h3.56v12.13Z"/><path class="cls-16" d="M437.19,174.55c.6-.17,1.38-.34,2.34-.49.96-.15,1.96-.23,3.01-.23s1.95.14,2.66.42c.71.28,1.27.67,1.68,1.18.41.51.71,1.11.88,1.81.17.7.26,1.48.26,2.34v7.09h-3.56v-6.66c0-1.15-.15-1.96-.45-2.43-.3-.48-.87-.72-1.69-.72-.25,0-.53.01-.81.04-.29.02-.54.05-.76.08v9.69h-3.56v-12.13Z"/><path class="cls-16" d="M455.14,170.5c0,.65-.21,1.17-.63,1.54-.42.37-.92.56-1.49.56s-1.07-.19-1.49-.56c-.42-.37-.63-.89-.63-1.54s.21-1.17.63-1.54c.42-.37.92-.56,1.49-.56s1.07.19,1.49.56c.42.37.63.89.63,1.54ZM454.8,186.68h-3.56v-12.56h3.56v12.56Z"/><path class="cls-16" d="M457.55,180.4c0-.97.15-1.86.44-2.66s.72-1.5,1.28-2.08c.56-.58,1.24-1.03,2.05-1.35s1.73-.48,2.77-.48c.43,0,.88.02,1.35.06.47.04.93.09,1.38.16.45.06.89.14,1.3.23.41.09.78.18,1.1.27v16.54h-3.56v-4.73c-.4.18-.81.31-1.24.41s-.89.14-1.38.14c-1.78,0-3.14-.58-4.08-1.75s-1.41-2.76-1.41-4.76ZM461.18,180.5c0,2.28.84,3.41,2.53,3.41.37,0,.73-.05,1.09-.14s.65-.21.87-.36v-6.42c-.18-.03-.4-.06-.67-.08-.27-.02-.57-.04-.88-.04-.97,0-1.7.33-2.2.99s-.74,1.54-.74,2.64Z"/><path class="cls-16" d="M483.28,186.25c-.6.18-1.38.34-2.34.49-.96.15-1.96.23-3.01.23s-1.95-.14-2.66-.43c-.71-.29-1.27-.69-1.68-1.21-.41-.52-.71-1.13-.88-1.85-.18-.72-.26-1.5-.26-2.36v-6.99h3.56v6.56c0,1.15.15,1.97.45,2.48.3.51.87.76,1.69.76.25,0,.52-.01.81-.04.29-.02.54-.05.76-.08v-9.69h3.56v12.13Z"/><path class="cls-16" d="M486.03,180.5c0-1.11.17-2.09.51-2.92.34-.84.79-1.53,1.35-2.09.56-.56,1.2-.98,1.92-1.27.72-.29,1.47-.43,2.23-.43,1.78,0,3.19.55,4.23,1.64s1.55,2.69,1.55,4.81c0,.21,0,.43-.02.68s-.03.47-.05.66h-8.07c.08.73.42,1.31,1.03,1.74.6.43,1.42.64,2.43.64.65,0,1.29-.06,1.92-.18.63-.12,1.14-.27,1.54-.44l.48,2.89c-.19.09-.45.19-.76.29s-.67.18-1.06.25c-.39.07-.81.13-1.25.18-.45.05-.89.07-1.34.07-1.13,0-2.11-.17-2.95-.5-.83-.33-1.53-.79-2.08-1.37-.55-.58-.96-1.27-1.22-2.06-.26-.8-.39-1.66-.39-2.58ZM494.38,179.14c-.02-.3-.07-.6-.16-.88-.09-.29-.22-.54-.41-.76-.18-.22-.41-.41-.69-.55-.28-.14-.62-.21-1.04-.21s-.74.07-1.03.2c-.29.13-.52.31-.72.54s-.34.48-.44.78c-.1.29-.18.59-.23.9h4.7Z"/><path class="cls-16" d="M499.49,177.94h6.92v3.22h-6.92v-3.22Z"/><path class="cls-16" d="M512.57,170.5c0,.65-.21,1.17-.63,1.54s-.92.56-1.49.56-1.07-.19-1.49-.56c-.42-.37-.63-.89-.63-1.54s.21-1.17.63-1.54c.42-.37.92-.56,1.49-.56s1.07.19,1.49.56.63.89.63,1.54ZM512.24,186.68h-3.56v-12.56h3.56v12.56Z"/><path class="cls-16" d="M526.65,186.27c-.32.1-.68.19-1.1.28-.41.09-.85.16-1.3.23-.45.06-.92.12-1.38.16-.47.04-.92.06-1.35.06-1.04,0-1.96-.15-2.77-.45-.81-.3-1.5-.74-2.05-1.3-.56-.56-.98-1.25-1.28-2.05-.29-.8-.44-1.71-.44-2.71s.13-1.94.38-2.76c.25-.82.62-1.52,1.1-2.09.48-.57,1.06-1.01,1.75-1.31.69-.3,1.48-.45,2.38-.45.49,0,.94.05,1.33.14.39.1.78.23,1.18.41v-5.68l3.56-.57v18.12ZM518.61,180.31c0,1.1.25,1.98.74,2.65.49.67,1.23,1,2.2,1,.32,0,.61-.01.88-.04.27-.02.49-.05.67-.08v-6.47c-.22-.14-.51-.26-.87-.36-.36-.09-.72-.14-1.09-.14-1.69,0-2.53,1.15-2.53,3.44Z"/><path class="cls-16" d="M529.45,177.94h6.92v3.22h-6.92v-3.22Z"/><path class="cls-16" d="M538.64,173.58c.46-.19.94-.41,1.44-.66.5-.25.99-.52,1.47-.81.48-.29.94-.6,1.37-.93s.83-.67,1.18-1.04h2.48v16.54h-3.56v-11.91c-.48.32-1.01.61-1.6.87s-1.16.49-1.72.68l-1.07-2.75Z"/><path class="cls-16" d="M442.7,75.03c2.48,0,4.38.44,5.71,1.33,1.32.88,1.98,2.26,1.98,4.12,0,1.16-.27,2.1-.8,2.83-.53.72-1.3,1.29-2.3,1.71.33.41.68.89,1.05,1.42s.73,1.09,1.09,1.67.7,1.19,1.04,1.81c.33.63.64,1.25.93,1.85h-4.16c-.3-.54-.61-1.09-.92-1.65-.31-.56-.63-1.1-.96-1.62-.33-.53-.65-1.02-.97-1.49-.32-.47-.64-.9-.96-1.28h-1.84v6.04h-3.72v-16.3c.81-.16,1.65-.27,2.52-.33.87-.06,1.64-.1,2.33-.1ZM442.92,78.2c-.27,0-.51,0-.73.02-.21.02-.42.03-.61.05v4.49h1.05c1.4,0,2.4-.17,3.01-.53.6-.35.91-.95.91-1.79s-.31-1.39-.92-1.73c-.61-.34-1.52-.51-2.71-.51Z"/><path class="cls-16" d="M453.78,91.76v-16.54h11.17v3.13h-7.45v3.25h6.61v3.06h-6.61v3.99h8v3.13h-11.72Z"/><path class="cls-16" d="M473.21,75.03c2.47,0,4.36.43,5.68,1.3,1.32.87,1.98,2.29,1.98,4.26s-.67,3.43-2,4.31c-1.34.88-3.25,1.33-5.73,1.33h-1.17v5.54h-3.72v-16.3c.81-.16,1.67-.27,2.58-.33s1.7-.1,2.39-.1ZM473.45,78.2c-.27,0-.54,0-.8.02-.26.02-.49.03-.68.05v4.77h1.17c1.29,0,2.26-.17,2.91-.53.65-.35.98-1,.98-1.96,0-.46-.08-.84-.25-1.15-.17-.3-.41-.54-.72-.73-.31-.18-.69-.31-1.13-.38s-.94-.11-1.48-.11Z"/><path class="cls-16" d="M494.67,88.56v3.2h-11.05v-16.54h3.72v13.34h7.33Z"/><path class="cls-16" d="M497.05,75.22h3.72v16.54h-3.72v-16.54Z"/><path class="cls-16" d="M512.14,92.1c-2.69,0-4.74-.75-6.15-2.24-1.41-1.5-2.11-3.62-2.11-6.37,0-1.37.21-2.59.64-3.66s1.02-1.98,1.77-2.72c.75-.74,1.64-1.3,2.67-1.68,1.04-.38,2.16-.57,3.37-.57.7,0,1.34.05,1.91.16.57.1,1.07.22,1.5.36.43.14.79.27,1.07.42.29.14.49.25.62.33l-1.07,3.01c-.51-.27-1.1-.5-1.78-.69-.68-.19-1.44-.29-2.3-.29-.57,0-1.13.09-1.68.29s-1.04.5-1.46.92-.76.97-1.01,1.63c-.25.67-.38,1.48-.38,2.44,0,.76.08,1.48.25,2.14.17.66.44,1.23.81,1.71.37.48.86.86,1.47,1.13.6.28,1.34.42,2.2.42.54,0,1.03-.03,1.46-.1.43-.06.81-.14,1.15-.23.33-.09.63-.19.88-.3.25-.11.49-.21.69-.31l1.03,2.98c-.52.32-1.26.61-2.22.86-.96.25-2.06.38-3.32.38Z"/><path class="cls-16" d="M531.83,91.76c-.18-.58-.38-1.17-.59-1.77-.21-.61-.42-1.21-.63-1.81h-6.46c-.21.6-.42,1.21-.63,1.82s-.41,1.2-.59,1.77h-3.87c.62-1.78,1.21-3.43,1.77-4.94.56-1.51,1.11-2.94,1.64-4.27.53-1.34,1.06-2.61,1.58-3.81.52-1.2,1.06-2.38,1.62-3.52h3.53c.54,1.15,1.08,2.32,1.61,3.52.53,1.2,1.06,2.47,1.59,3.81.54,1.34,1.08,2.76,1.64,4.27.56,1.51,1.15,3.16,1.78,4.94h-3.99ZM527.36,78.97c-.08.24-.2.57-.36.98-.16.41-.34.89-.55,1.43-.2.54-.43,1.14-.69,1.79-.25.65-.51,1.33-.77,2.05h4.73c-.25-.72-.5-1.4-.74-2.06s-.46-1.25-.68-1.79c-.21-.54-.4-1.02-.56-1.43s-.29-.74-.39-.97Z"/><g class="cls-33"><g class="cls-61"><g class="cls-37"><path class="cls-8" d="M444.94,505.5s.98-.73,2.44-.73l-.24,2.2-2.2-1.47Z"/><path class="cls-8" d="M444.82,481s1.08-.66,2.54-.66l-.24,2.2-2.3-1.54Z"/></g><g class="cls-29"><rect class="cls-22" x="446.92" y="476.18" width="79.18" height="45.7"/></g><g class="cls-62"><rect class="cls-25" x="444.31" y="457.51" width="83.36" height="30.9" transform="translate(-1.97 2.04) rotate(-.24)"/></g><g class="cls-60"><rect class="cls-10" x="444.19" y="448.16" width="83.36" height="19.05" transform="translate(-10.05 10.91) rotate(-1.27)"/></g><g class="cls-55"><path class="cls-12" d="M504.79,475.35c0,1.49-1.21,2.7-2.7,2.7-.75,0-1.43-.3-1.91-.8.4.23.86.36,1.35.36,1.49,0,2.7-1.21,2.7-2.7,0-.74-.3-1.41-.78-1.9.8.47,1.34,1.34,1.34,2.33"/><path class="cls-16" d="M504.23,474.92c0,1.49-1.21,2.7-2.7,2.7-.49,0-.96-.13-1.35-.36-.48-.49-.78-1.16-.78-1.9,0-1.49,1.21-2.7,2.7-2.7.49,0,.96.13,1.35.36.48.49.78,1.16.78,1.9"/><path class="cls-16" d="M504.79,524.2c0,1.49-1.21,2.7-2.7,2.7s-2.7-1.21-2.7-2.7,1.21-2.7,2.7-2.7,2.7,1.21,2.7,2.7"/><path class="cls-8" d="M445.07,505.5s1.98,1.46,4.4,2.27c4.03,1.34,17.47,6.17,38.31,6.72,25.54.67,38.48-8.88,38.48-8.88l1.34-.21-16.97,15.81-56.45-5.38-8.74-7.39-.67-1.34s-.07-1.85.3-1.6"/></g><g class="cls-27"><rect class="cls-1" x="444.77" y="505.4" width="82.84" height="31.26"/></g><g class="cls-41"><path class="cls-16" d="M504.79,524.31c0,1.49-1.21,2.7-2.7,2.7s-2.7-1.21-2.7-2.7,1.21-2.7,2.7-2.7,2.7,1.21,2.7,2.7"/><path class="cls-8" d="M444.83,480.99s2.22,1.46,4.65,2.27c4.03,1.34,17.47,6.17,38.31,6.72,25.54.67,37.83-8.48,37.83-8.48l1.34,1.26-16.32,13.94-56.45-5.38-8.74-7.39-.67-1.34s-.08-1.5.06-1.6"/><path class="cls-8" d="M527.61,505.4s.2-.9-1.62-1.28v.29l.03,1.44.72-.16.86-.3Z"/><path class="cls-8" d="M527.6,481.45s-.29-1.49-2.11-1.86v.4l.05,3.33.82-.14,1.25-1.73Z"/></g><g class="cls-51"><rect class="cls-14" x="444.77" y="481.42" width="82.84" height="31.61"/></g><g class="cls-65"><path class="cls-16" d="M504.79,500.11c0,1.49-1.21,2.7-2.7,2.7s-2.7-1.21-2.7-2.7,1.21-2.7,2.7-2.7,2.7,1.21,2.7,2.7"/><path class="cls-12" d="M504.79,500.11c0,1.49-1.21,2.7-2.7,2.7-.75,0-1.43-.3-1.91-.8.4.23.86.36,1.35.36,1.49,0,2.7-1.21,2.7-2.7,0-.74-.3-1.41-.78-1.9.8.47,1.34,1.34,1.34,2.33"/><path class="cls-12" d="M504.79,524.28c0,1.49-1.21,2.7-2.7,2.7-.75,0-1.43-.3-1.91-.8.4.23.86.36,1.35.36,1.49,0,2.7-1.21,2.7-2.7,0-.74-.3-1.41-.78-1.9.8.47,1.34,1.34,1.34,2.33"/><g class="cls-66"><g class="cls-49"><path class="cls-16" d="M445.64,461.72v5.94s18.02,5.49,29.83,4.01c0,0-24.24-5.15-29.83-9.95"/></g></g><g class="cls-54"><g class="cls-35"><path class="cls-16" d="M482.85,464.3s39.9-1.4,40.61-6.61c.71-5.2-28.8-6.68-28.8-6.68,0,0,26.49,4.5,22.1,6.68-4.39,2.18-33.91,6.61-33.91,6.61"/></g></g></g></g></g><rect class="cls-6" x="728.4" y="413.66" width="173.19" height="158.42" rx="12" ry="12"/><g id="arrow_styles_for_diagrams_etc-7"><g id="arrow_styles_for_diagrams_etc-8"><path class="cls-18" d="M814.12,428.94l-13.14-22.84c-.39-.67.1-1.52.88-1.52h6.78v-128.14c0-2.02,1.64-3.67,3.67-3.67h5.38c2.02,0,3.66,1.64,3.66,3.66v128.15h6.78c.78,0,1.26.84.88,1.52l-13.14,22.84c-.39.67-1.35.67-1.74,0Z"/></g></g><rect class="cls-6" x="728.4" y="206.16" width="173.19" height="75.59" rx="12" ry="12"/><rect class="cls-6" x="728.4" y="61.99" width="173.19" height="42.47" rx="12" ry="12"/><rect class="cls-6" x="728.4" y="156.88" width="173.19" height="42.47" rx="12" ry="12"/><path class="cls-16" d="M799.91,236.06c2.47,0,4.36.43,5.68,1.3,1.32.87,1.98,2.29,1.98,4.26s-.67,3.43-2,4.31c-1.34.88-3.25,1.33-5.73,1.33h-1.17v5.54h-3.72v-16.3c.81-.16,1.67-.27,2.58-.33s1.7-.1,2.39-.1ZM800.14,239.23c-.27,0-.54,0-.8.02-.26.02-.49.03-.68.05v4.77h1.17c1.29,0,2.26-.17,2.91-.53.65-.35.98-1,.98-1.96,0-.46-.08-.84-.25-1.15-.17-.3-.41-.54-.72-.73-.31-.18-.69-.31-1.13-.38s-.94-.11-1.48-.11Z"/><path class="cls-16" d="M821.46,246.49c0,.99-.14,1.89-.43,2.71-.29.82-.7,1.52-1.24,2.1-.54.58-1.19,1.03-1.95,1.35-.76.32-1.6.48-2.54.48s-1.76-.16-2.52-.48c-.76-.32-1.4-.77-1.95-1.35-.54-.58-.96-1.28-1.26-2.1-.3-.82-.45-1.72-.45-2.71s.16-1.89.47-2.7.74-1.5,1.29-2.08c.55-.57,1.2-1.02,1.96-1.34.76-.32,1.58-.48,2.47-.48s1.74.16,2.49.48c.76.32,1.4.76,1.95,1.34.54.57.96,1.27,1.26,2.08.3.81.45,1.71.45,2.7ZM817.83,246.49c0-1.1-.22-1.96-.66-2.59s-1.06-.94-1.87-.94-1.44.31-1.89.94-.67,1.49-.67,2.59.22,1.97.67,2.61,1.07.97,1.89.97,1.44-.32,1.87-.97.66-1.52.66-2.61Z"/><path class="cls-16" d="M835.28,252.38c-.32.1-.68.19-1.1.28-.41.09-.85.16-1.3.23-.45.06-.92.12-1.38.16-.47.04-.92.06-1.35.06-1.04,0-1.96-.15-2.77-.45-.81-.3-1.5-.74-2.05-1.3-.56-.56-.98-1.25-1.28-2.05-.29-.8-.44-1.71-.44-2.71s.13-1.94.38-2.76c.25-.82.62-1.52,1.1-2.09.48-.57,1.06-1.01,1.75-1.31.69-.3,1.48-.45,2.38-.45.49,0,.94.05,1.33.14.39.1.78.23,1.18.41v-5.68l3.56-.57v18.12ZM827.24,246.42c0,1.1.25,1.98.74,2.65.49.67,1.23,1,2.2,1,.32,0,.61-.01.88-.04.27-.02.49-.05.67-.08v-6.47c-.22-.14-.51-.26-.87-.36-.36-.09-.72-.14-1.09-.14-1.69,0-2.53,1.15-2.53,3.44Z"/><path class="cls-16" d="M762.85,186.25c-.6.18-1.38.34-2.34.49s-1.96.23-3.01.23-1.95-.14-2.66-.43c-.71-.29-1.27-.69-1.68-1.21-.41-.52-.71-1.13-.88-1.85-.18-.72-.26-1.5-.26-2.36v-6.99h3.56v6.56c0,1.15.15,1.97.45,2.48.3.51.87.76,1.69.76.25,0,.53-.01.81-.04.29-.02.54-.05.76-.08v-9.69h3.56v12.13Z"/><path class="cls-16" d="M766.19,174.55c.6-.17,1.38-.34,2.34-.49s1.96-.23,3.01-.23,1.95.14,2.66.42,1.27.67,1.68,1.18c.41.51.71,1.11.88,1.81.17.7.26,1.48.26,2.34v7.09h-3.56v-6.66c0-1.15-.15-1.96-.45-2.43s-.87-.72-1.69-.72c-.25,0-.53.01-.81.04-.29.02-.54.05-.76.08v9.69h-3.56v-12.13Z"/><path class="cls-16" d="M784.14,170.5c0,.65-.21,1.17-.63,1.54-.42.37-.92.56-1.49.56s-1.07-.19-1.49-.56-.63-.89-.63-1.54.21-1.17.63-1.54.92-.56,1.49-.56,1.07.19,1.49.56c.42.37.63.89.63,1.54ZM783.8,186.68h-3.56v-12.56h3.56v12.56Z"/><path class="cls-16" d="M786.55,180.4c0-.97.15-1.86.44-2.66.29-.8.72-1.5,1.28-2.08.56-.58,1.24-1.03,2.05-1.35s1.73-.48,2.77-.48c.43,0,.88.02,1.35.06.47.04.93.09,1.38.16.45.06.89.14,1.3.23.41.09.78.18,1.1.27v16.54h-3.56v-4.73c-.4.18-.81.31-1.24.41s-.89.14-1.38.14c-1.78,0-3.14-.58-4.08-1.75-.94-1.17-1.41-2.76-1.41-4.76ZM790.18,180.5c0,2.28.84,3.41,2.53,3.41.37,0,.73-.05,1.09-.14.36-.1.65-.21.87-.36v-6.42c-.17-.03-.4-.06-.67-.08-.27-.02-.57-.04-.88-.04-.97,0-1.7.33-2.2.99s-.74,1.54-.74,2.64Z"/><path class="cls-16" d="M812.28,186.25c-.61.18-1.38.34-2.34.49-.96.15-1.96.23-3.01.23s-1.95-.14-2.66-.43c-.71-.29-1.27-.69-1.68-1.21-.41-.52-.71-1.13-.88-1.85-.17-.72-.26-1.5-.26-2.36v-6.99h3.56v6.56c0,1.15.15,1.97.45,2.48.3.51.87.76,1.7.76.25,0,.52-.01.81-.04.29-.02.54-.05.76-.08v-9.69h3.56v12.13Z"/><path class="cls-16" d="M815.03,180.5c0-1.11.17-2.09.51-2.92.34-.84.79-1.53,1.35-2.09.56-.56,1.2-.98,1.92-1.27.72-.29,1.47-.43,2.23-.43,1.78,0,3.19.55,4.23,1.64s1.55,2.69,1.55,4.81c0,.21,0,.43-.02.68s-.03.47-.05.66h-8.07c.08.73.42,1.31,1.03,1.74.6.43,1.42.64,2.43.64.65,0,1.29-.06,1.92-.18.63-.12,1.14-.27,1.54-.44l.48,2.89c-.19.09-.45.19-.76.29s-.67.18-1.06.25c-.39.07-.81.13-1.25.18-.45.05-.89.07-1.34.07-1.13,0-2.11-.17-2.95-.5-.83-.33-1.53-.79-2.08-1.37-.55-.58-.96-1.27-1.22-2.06s-.39-1.66-.39-2.58ZM823.38,179.14c-.02-.3-.07-.6-.16-.88-.09-.29-.22-.54-.41-.76-.18-.22-.41-.41-.69-.55-.28-.14-.62-.21-1.04-.21s-.74.07-1.03.2c-.29.13-.52.31-.72.54s-.34.48-.44.78c-.1.29-.18.59-.23.9h4.7Z"/><path class="cls-16" d="M828.49,177.94h6.92v3.22h-6.92v-3.22Z"/><path class="cls-16" d="M841.57,170.5c0,.65-.21,1.17-.63,1.54s-.92.56-1.49.56-1.07-.19-1.49-.56c-.42-.37-.63-.89-.63-1.54s.21-1.17.63-1.54c.42-.37.92-.56,1.49-.56s1.07.19,1.49.56.63.89.63,1.54ZM841.24,186.68h-3.56v-12.56h3.56v12.56Z"/><path class="cls-16" d="M855.65,186.27c-.32.1-.68.19-1.1.28-.41.09-.85.16-1.3.23-.45.06-.92.12-1.38.16-.47.04-.92.06-1.35.06-1.04,0-1.96-.15-2.77-.45-.81-.3-1.5-.74-2.05-1.3-.56-.56-.98-1.25-1.28-2.05-.29-.8-.44-1.71-.44-2.71s.13-1.94.38-2.76c.25-.82.62-1.52,1.1-2.09.48-.57,1.06-1.01,1.75-1.31.69-.3,1.48-.45,2.38-.45.49,0,.94.05,1.33.14.39.1.78.23,1.18.41v-5.68l3.56-.57v18.12ZM847.61,180.31c0,1.1.25,1.98.74,2.65.49.67,1.23,1,2.2,1,.32,0,.61-.01.88-.04.27-.02.49-.05.67-.08v-6.47c-.22-.14-.51-.26-.87-.36-.36-.09-.72-.14-1.09-.14-1.69,0-2.53,1.15-2.53,3.44Z"/><path class="cls-16" d="M858.45,177.94h6.92v3.22h-6.92v-3.22Z"/><path class="cls-16" d="M877.81,174.48c0,.61-.12,1.19-.36,1.74-.24.56-.55,1.09-.93,1.61-.38.52-.81,1.01-1.29,1.49s-.95.93-1.41,1.36c-.24.22-.5.47-.78.75-.28.28-.55.56-.8.85-.25.29-.48.55-.68.8-.2.25-.32.45-.37.61h7.11v2.98h-11.03c-.03-.17-.05-.4-.05-.67v-.57c0-.76.12-1.46.37-2.1.25-.64.57-1.23.97-1.78.4-.55.85-1.06,1.35-1.54.5-.48,1-.96,1.49-1.43.38-.37.74-.71,1.07-1.04.33-.33.63-.64.88-.95.25-.31.45-.62.6-.93.14-.31.21-.62.21-.94,0-.7-.2-1.19-.6-1.48-.4-.29-.89-.43-1.48-.43-.43,0-.83.07-1.21.2-.37.14-.72.29-1.03.48s-.58.37-.8.55c-.22.18-.39.33-.5.44l-1.77-2.48c.7-.65,1.52-1.19,2.45-1.61.93-.42,1.93-.63,3-.63.97,0,1.81.11,2.51.33s1.28.54,1.73.94c.45.41.79.9,1,1.48s.32,1.24.32,1.97Z"/><path class="cls-16" d="M771.7,75.03c2.48,0,4.38.44,5.71,1.33,1.32.88,1.98,2.26,1.98,4.12,0,1.16-.27,2.1-.8,2.83-.53.72-1.3,1.29-2.3,1.71.33.41.68.89,1.05,1.42s.73,1.09,1.09,1.67c.36.58.7,1.19,1.04,1.81.33.63.64,1.25.93,1.85h-4.16c-.3-.54-.61-1.09-.92-1.65-.31-.56-.63-1.1-.96-1.62s-.65-1.02-.97-1.49c-.32-.47-.64-.9-.96-1.28h-1.84v6.04h-3.72v-16.3c.81-.16,1.65-.27,2.52-.33s1.64-.1,2.33-.1ZM771.92,78.2c-.27,0-.51,0-.73.02-.21.02-.42.03-.61.05v4.49h1.05c1.4,0,2.4-.17,3.01-.53.6-.35.91-.95.91-1.79s-.31-1.39-.92-1.73c-.61-.34-1.52-.51-2.71-.51Z"/><path class="cls-16" d="M782.78,91.76v-16.54h11.17v3.13h-7.45v3.25h6.61v3.06h-6.61v3.99h8v3.13h-11.72Z"/><path class="cls-16" d="M802.21,75.03c2.47,0,4.36.43,5.68,1.3,1.32.87,1.98,2.29,1.98,4.26s-.67,3.43-2,4.31c-1.34.88-3.25,1.33-5.73,1.33h-1.17v5.54h-3.72v-16.3c.81-.16,1.67-.27,2.58-.33s1.7-.1,2.39-.1ZM802.45,78.2c-.27,0-.54,0-.8.02-.26.02-.49.03-.68.05v4.77h1.17c1.29,0,2.26-.17,2.91-.53.65-.35.98-1,.98-1.96,0-.46-.08-.84-.25-1.15-.17-.3-.41-.54-.72-.73-.31-.18-.69-.31-1.13-.38s-.94-.11-1.48-.11Z"/><path class="cls-16" d="M823.67,88.56v3.2h-11.05v-16.54h3.72v13.34h7.33Z"/><path class="cls-16" d="M826.05,75.22h3.72v16.54h-3.72v-16.54Z"/><path class="cls-16" d="M841.14,92.1c-2.69,0-4.74-.75-6.15-2.24-1.41-1.5-2.11-3.62-2.11-6.37,0-1.37.21-2.59.64-3.66s1.02-1.98,1.77-2.72c.75-.74,1.64-1.3,2.67-1.68,1.04-.38,2.16-.57,3.37-.57.7,0,1.34.05,1.91.16.57.1,1.07.22,1.5.36.43.14.79.27,1.07.42.29.14.49.25.62.33l-1.07,3.01c-.51-.27-1.1-.5-1.78-.69-.68-.19-1.44-.29-2.3-.29-.57,0-1.13.09-1.68.29s-1.04.5-1.46.92-.76.97-1.01,1.63c-.25.67-.38,1.48-.38,2.44,0,.76.08,1.48.25,2.14.17.66.44,1.23.81,1.71.37.48.86.86,1.47,1.13.6.28,1.34.42,2.2.42.54,0,1.03-.03,1.46-.1.43-.06.81-.14,1.15-.23.33-.09.63-.19.88-.3.25-.11.49-.21.69-.31l1.03,2.98c-.52.32-1.26.61-2.22.86-.96.25-2.06.38-3.32.38Z"/><path class="cls-16" d="M860.83,91.76c-.18-.58-.38-1.17-.59-1.77-.21-.61-.42-1.21-.63-1.81h-6.46c-.21.6-.42,1.21-.63,1.82s-.41,1.2-.59,1.77h-3.87c.62-1.78,1.21-3.43,1.77-4.94.56-1.51,1.11-2.94,1.64-4.27.53-1.34,1.06-2.61,1.58-3.81.52-1.2,1.06-2.38,1.62-3.52h3.53c.54,1.15,1.08,2.32,1.61,3.52.53,1.2,1.06,2.47,1.59,3.81.54,1.34,1.08,2.76,1.64,4.27.56,1.51,1.15,3.16,1.78,4.94h-3.99ZM856.36,78.97c-.08.24-.2.57-.36.98-.16.41-.34.89-.55,1.43-.2.54-.43,1.14-.69,1.79-.25.65-.51,1.33-.77,2.05h4.73c-.25-.72-.5-1.4-.74-2.06s-.46-1.25-.68-1.79c-.21-.54-.4-1.02-.56-1.43s-.29-.74-.39-.97Z"/><g class="cls-39"><g class="cls-47"><g class="cls-67"><path class="cls-8" d="M773.94,505.5s.98-.73,2.44-.73l-.24,2.2-2.2-1.47Z"/><path class="cls-8" d="M773.82,481s1.08-.66,2.54-.66l-.24,2.2-2.3-1.54Z"/></g><g class="cls-59"><rect class="cls-9" x="775.92" y="476.18" width="79.18" height="45.7"/></g><g class="cls-50"><rect class="cls-15" x="773.31" y="457.51" width="83.36" height="30.9" transform="translate(-1.97 3.41) rotate(-.24)"/></g><g class="cls-56"><rect class="cls-2" x="773.19" y="448.16" width="83.36" height="19.05" transform="translate(-9.97 18.22) rotate(-1.27)"/></g><g class="cls-31"><path class="cls-12" d="M833.79,475.35c0,1.49-1.21,2.7-2.7,2.7-.75,0-1.43-.3-1.91-.8.4.23.86.36,1.35.36,1.49,0,2.7-1.21,2.7-2.7,0-.74-.3-1.41-.78-1.9.8.47,1.34,1.34,1.34,2.33"/><path class="cls-16" d="M833.23,474.92c0,1.49-1.21,2.7-2.7,2.7-.49,0-.96-.13-1.35-.36-.48-.49-.78-1.16-.78-1.9,0-1.49,1.21-2.7,2.7-2.7.49,0,.96.13,1.35.36.48.49.78,1.16.78,1.9"/><path class="cls-16" d="M833.79,524.2c0,1.49-1.21,2.7-2.7,2.7s-2.7-1.21-2.7-2.7,1.21-2.7,2.7-2.7,2.7,1.21,2.7,2.7"/><path class="cls-8" d="M774.07,505.5s1.98,1.46,4.4,2.27c4.03,1.34,17.47,6.17,38.31,6.72,25.54.67,38.48-8.88,38.48-8.88l1.34-.21-16.97,15.81-56.45-5.38-8.74-7.39-.67-1.34s-.07-1.85.3-1.6"/></g><g class="cls-30"><rect class="cls-24" x="773.77" y="505.4" width="82.84" height="31.26"/></g><g class="cls-42"><path class="cls-16" d="M833.79,524.31c0,1.49-1.21,2.7-2.7,2.7s-2.7-1.21-2.7-2.7,1.21-2.7,2.7-2.7,2.7,1.21,2.7,2.7"/><path class="cls-8" d="M773.83,480.99s2.22,1.46,4.65,2.27c4.03,1.34,17.47,6.17,38.31,6.72,25.54.67,37.83-8.48,37.83-8.48l1.34,1.26-16.32,13.94-56.45-5.38-8.74-7.39-.67-1.34s-.08-1.5.06-1.6"/><path class="cls-8" d="M856.61,505.4s.2-.9-1.62-1.28v.29l.03,1.44.72-.16.86-.3Z"/><path class="cls-8" d="M856.6,481.45s-.29-1.49-2.11-1.86v.4l.05,3.33.82-.14,1.25-1.73Z"/></g><g class="cls-68"><rect class="cls-3" x="773.77" y="481.42" width="82.84" height="31.61"/></g><g class="cls-46"><path class="cls-16" d="M833.79,500.11c0,1.49-1.21,2.7-2.7,2.7s-2.7-1.21-2.7-2.7,1.21-2.7,2.7-2.7,2.7,1.21,2.7,2.7"/><path class="cls-12" d="M833.79,500.11c0,1.49-1.21,2.7-2.7,2.7-.75,0-1.43-.3-1.91-.8.4.23.86.36,1.35.36,1.49,0,2.7-1.21,2.7-2.7,0-.74-.3-1.41-.78-1.9.8.47,1.34,1.34,1.34,2.33"/><path class="cls-12" d="M833.79,524.28c0,1.49-1.21,2.7-2.7,2.7-.75,0-1.43-.3-1.91-.8.4.23.86.36,1.35.36,1.49,0,2.7-1.21,2.7-2.7,0-.74-.3-1.41-.78-1.9.8.47,1.34,1.34,1.34,2.33"/><g class="cls-66"><g class="cls-34"><path class="cls-16" d="M774.64,461.72v5.94s18.02,5.49,29.83,4.01c0,0-24.24-5.15-29.83-9.95"/></g></g><g class="cls-54"><g class="cls-45"><path class="cls-16" d="M811.85,464.3s39.9-1.4,40.61-6.61c.71-5.2-28.8-6.68-28.8-6.68,0,0,26.49,4.5,22.1,6.68-4.39,2.18-33.91,6.61-33.91,6.61"/></g></g></g></g></g><path class="cls-17" d="M411.99,492l-22.84-13.14c-.67-.39-1.52.1-1.52.88v6.77h-130.01v-6.77c0-.78-.84-1.26-1.52-.88l-22.84,13.14c-.67.39-.67,1.35,0,1.74l22.84,13.14c.67.39,1.52-.1,1.52-.88v-6.78h130.01v6.77c0,.78.84,1.26,1.52.88l22.84-13.14c.67-.39.67-1.35,0-1.74Z"/><path class="cls-5" d="M739.86,492l-22.84-13.14c-.67-.39-1.52.1-1.52.88v6.77h-130.01v-6.77c0-.78-.84-1.26-1.52-.88l-22.84,13.14c-.67.39-.67,1.35,0,1.74l22.84,13.14c.67.39,1.52-.1,1.52-.88v-6.78h130.01v6.77c0,.78.84,1.26,1.52.88l22.84-13.14c.67-.39.67-1.35,0-1.74Z"/><rect class="cls-6" x="260.24" y="424.27" width="124.77" height="54.46" rx="12" ry="12"/><path class="cls-16" d="M314.73,440.15c0,1.06-.17,1.99-.5,2.78s-.8,1.44-1.41,1.96-1.35.91-2.22,1.17c-.87.26-1.85.39-2.94.39-.5,0-1.07-.02-1.73-.06-.66-.04-1.31-.13-1.95-.26v-11.93c.64-.12,1.3-.2,1.99-.24.69-.04,1.28-.06,1.78-.06,1.05,0,2,.12,2.86.35.85.24,1.59.61,2.2,1.11.61.51,1.08,1.16,1.41,1.95.33.79.5,1.74.5,2.85ZM306.75,444.04c.13.01.28.02.45.03.17,0,.37,0,.61,0,1.38,0,2.4-.35,3.07-1.04s1-1.66,1-2.88-.32-2.26-.95-2.92c-.64-.66-1.64-.99-3.02-.99-.19,0-.38,0-.58,0-.2,0-.39.02-.57.04v7.74Z"/><path class="cls-16" d="M320.19,436.74c.78,0,1.43.09,1.95.27s.93.43,1.25.76c.31.33.53.73.66,1.2.13.47.19,1,.19,1.57v5.48c-.38.08-.9.18-1.57.29-.67.11-1.49.17-2.44.17-.6,0-1.15-.05-1.63-.16-.49-.11-.91-.28-1.26-.52-.35-.24-.62-.56-.81-.95-.19-.39-.28-.87-.28-1.43s.11-1,.33-1.38c.22-.38.51-.68.88-.9.37-.22.78-.39,1.25-.49.47-.1.96-.15,1.47-.15.34,0,.65.01.91.04.27.03.48.07.65.12v-.25c0-.45-.14-.81-.41-1.08s-.74-.41-1.42-.41c-.45,0-.89.03-1.33.1-.44.06-.81.16-1.13.27l-.34-2.12c.15-.05.34-.1.57-.15.23-.05.48-.1.75-.14.27-.04.56-.08.86-.11.3-.03.6-.04.91-.04ZM320.4,444.45c.26,0,.51,0,.74-.02.24-.01.42-.03.57-.05v-2c-.11-.02-.26-.05-.48-.07-.21-.02-.41-.04-.58-.04-.25,0-.48.01-.7.04-.22.03-.41.09-.58.17-.17.08-.29.2-.39.34-.09.14-.14.32-.14.53,0,.41.14.7.42.86.28.16.66.24,1.14.24Z"/><path class="cls-16" d="M326.54,434.67l2.63-.42v2.74h3.16v2.19h-3.16v3.27c0,.55.1,1,.29,1.33s.59.5,1.18.5c.28,0,.58-.03.88-.08.3-.05.58-.13.82-.22l.37,2.05c-.32.13-.67.24-1.06.34-.39.09-.87.14-1.43.14-.72,0-1.31-.1-1.79-.29-.47-.2-.85-.47-1.13-.81-.28-.35-.48-.77-.59-1.26-.11-.5-.17-1.04-.17-1.64v-7.81Z"/><path class="cls-16" d="M337.46,436.74c.78,0,1.43.09,1.95.27s.93.43,1.25.76c.31.33.53.73.66,1.2.13.47.19,1,.19,1.57v5.48c-.38.08-.9.18-1.57.29-.67.11-1.49.17-2.44.17-.6,0-1.15-.05-1.63-.16-.49-.11-.91-.28-1.26-.52-.35-.24-.62-.56-.81-.95-.19-.39-.28-.87-.28-1.43s.11-1,.33-1.38c.22-.38.51-.68.88-.9.37-.22.78-.39,1.25-.49.47-.1.96-.15,1.47-.15.34,0,.65.01.91.04.27.03.48.07.65.12v-.25c0-.45-.14-.81-.41-1.08s-.74-.41-1.42-.41c-.45,0-.89.03-1.33.1-.44.06-.81.16-1.13.27l-.34-2.12c.15-.05.34-.1.57-.15.23-.05.48-.1.75-.14.27-.04.56-.08.86-.11.3-.03.6-.04.91-.04ZM337.68,444.45c.26,0,.51,0,.74-.02.24-.01.42-.03.57-.05v-2c-.11-.02-.26-.05-.48-.07-.21-.02-.41-.04-.58-.04-.25,0-.48.01-.7.04-.22.03-.41.09-.58.17-.17.08-.29.2-.39.34-.09.14-.14.32-.14.53,0,.41.14.7.42.86.28.16.66.24,1.14.24Z"/><path class="cls-16" d="M283.83,460.54c-.24-.06-.51-.12-.83-.19-.32-.06-.66-.1-1.03-.1-.17,0-.36.01-.59.04-.23.03-.4.06-.52.1v7.11h-2.63v-8.8c.47-.17,1.03-.32,1.67-.47s1.36-.22,2.15-.22c.14,0,.31,0,.51.03s.4.04.6.07c.2.03.4.07.6.11s.37.09.51.15l-.44,2.17Z"/><path class="cls-16" d="M285.07,462.92c0-.83.13-1.55.38-2.17.25-.62.59-1.13,1-1.55.41-.41.89-.73,1.42-.94.54-.21,1.09-.32,1.65-.32,1.32,0,2.36.4,3.13,1.21.77.81,1.15,2,1.15,3.56,0,.15,0,.32-.02.5-.01.18-.02.34-.04.49h-5.98c.06.54.31.97.76,1.29.45.32,1.05.48,1.8.48.48,0,.96-.04,1.42-.13.46-.09.85-.2,1.14-.33l.35,2.14c-.14.07-.33.14-.57.21-.24.07-.5.13-.79.19-.29.05-.6.1-.93.13s-.66.05-.99.05c-.84,0-1.56-.12-2.18-.37-.62-.25-1.13-.59-1.54-1.02-.41-.43-.71-.94-.9-1.53-.19-.59-.29-1.23-.29-1.91ZM291.26,461.92c-.01-.22-.05-.44-.12-.65-.07-.21-.17-.4-.3-.57-.14-.16-.31-.3-.51-.41s-.46-.16-.77-.16-.55.05-.76.15c-.21.1-.39.23-.53.4-.14.17-.25.36-.33.58-.08.22-.13.44-.17.66h3.48Z"/><path class="cls-16" d="M304.48,462.85c0,.72-.09,1.37-.27,1.96-.18.59-.44,1.1-.78,1.52-.34.42-.77.75-1.27.99s-1.09.35-1.75.35c-.37,0-.71-.04-1.03-.11-.32-.07-.62-.17-.92-.3v3.5h-2.63v-12.25c.24-.07.51-.14.81-.2.31-.06.63-.12.96-.17.34-.05.68-.08,1.03-.11s.68-.04,1-.04c.77,0,1.45.12,2.05.34.6.23,1.11.55,1.52.97.41.42.73.93.95,1.53.22.6.33,1.27.33,2.02ZM301.79,462.92c0-.81-.18-1.46-.55-1.95-.37-.49-.91-.73-1.63-.73-.24,0-.45,0-.65.03s-.37.04-.5.06v4.76c.17.11.38.19.65.26.26.07.53.11.8.11,1.25,0,1.87-.84,1.87-2.53Z"/><path class="cls-16" d="M310.23,467.68c-.77-.01-1.39-.09-1.87-.25-.48-.15-.85-.37-1.13-.65s-.47-.61-.57-1.01c-.1-.4-.15-.84-.15-1.33v-10.24l2.63-.42v10.13c0,.24.02.45.05.64.04.19.1.35.2.48.1.13.24.24.43.32.19.08.44.14.76.16l-.37,2.17Z"/><path class="cls-16" d="M314.98,455.52c0,.48-.16.86-.47,1.14-.31.28-.68.42-1.11.42s-.79-.14-1.1-.42c-.31-.28-.47-.66-.47-1.14s.16-.86.47-1.14c.31-.28.68-.42,1.1-.42s.79.14,1.11.42c.31.28.47.66.47,1.14ZM314.74,467.5h-2.63v-9.3h2.63v9.3Z"/><path class="cls-16" d="M316.77,462.85c0-.67.11-1.3.33-1.9.22-.59.53-1.11.95-1.56.41-.44.91-.79,1.5-1.05.59-.26,1.26-.39,2.02-.39.5,0,.95.04,1.36.13.41.09.81.21,1.2.38l-.55,2.1c-.25-.09-.52-.18-.81-.25-.29-.07-.62-.11-.99-.11-.78,0-1.36.24-1.74.72s-.57,1.12-.57,1.91c0,.84.18,1.49.54,1.95s.99.69,1.88.69c.32,0,.66-.03,1.03-.09.37-.06.7-.15,1.01-.28l.37,2.16c-.31.13-.69.24-1.15.34-.46.09-.97.14-1.52.14-.85,0-1.58-.13-2.19-.38-.61-.25-1.12-.6-1.51-1.03-.4-.44-.68-.95-.87-1.55-.18-.6-.27-1.24-.27-1.94Z"/><path class="cls-16" d="M328.95,457.96c.78,0,1.43.09,1.95.27s.93.43,1.25.76c.31.33.53.73.66,1.2.13.47.19,1,.19,1.57v5.48c-.38.08-.9.18-1.57.29-.67.11-1.49.17-2.44.17-.6,0-1.15-.05-1.63-.16-.49-.11-.91-.28-1.26-.52-.35-.24-.62-.56-.81-.95-.19-.39-.28-.87-.28-1.43s.11-1,.33-1.38c.22-.38.51-.68.88-.9.37-.22.78-.39,1.25-.49.47-.1.96-.15,1.47-.15.34,0,.65.01.91.04.27.03.48.07.65.12v-.25c0-.45-.14-.81-.41-1.08s-.74-.41-1.42-.41c-.45,0-.89.03-1.33.1-.44.06-.81.16-1.13.27l-.34-2.12c.15-.05.34-.1.57-.15.23-.05.48-.1.75-.14.27-.04.56-.08.86-.11.3-.03.6-.04.91-.04ZM329.16,465.66c.26,0,.51,0,.74-.02.24-.01.42-.03.57-.05v-2c-.11-.02-.26-.05-.48-.07-.21-.02-.41-.04-.58-.04-.25,0-.48.01-.7.04-.22.03-.41.09-.58.17-.17.08-.29.2-.39.34-.09.14-.14.32-.14.53,0,.41.14.7.42.86.28.16.66.24,1.14.24Z"/><path class="cls-16" d="M335.3,455.89l2.63-.42v2.74h3.16v2.19h-3.16v3.27c0,.55.1,1,.29,1.33s.59.5,1.18.5c.28,0,.58-.03.88-.08.3-.05.58-.13.82-.22l.37,2.05c-.32.13-.67.24-1.06.34-.39.09-.87.14-1.43.14-.72,0-1.31-.1-1.79-.29-.47-.2-.85-.47-1.13-.81-.28-.35-.48-.77-.59-1.26-.11-.5-.17-1.04-.17-1.64v-7.81Z"/><path class="cls-16" d="M346.12,455.52c0,.48-.16.86-.47,1.14-.31.28-.68.42-1.11.42s-.79-.14-1.1-.42c-.31-.28-.47-.66-.47-1.14s.16-.86.47-1.14c.31-.28.68-.42,1.1-.42s.79.14,1.11.42c.31.28.47.66.47,1.14ZM345.87,467.5h-2.63v-9.3h2.63v9.3Z"/><path class="cls-16" d="M357.04,462.84c0,.73-.11,1.4-.32,2.01-.21.61-.52,1.13-.92,1.56-.4.43-.88.76-1.44,1-.56.24-1.19.35-1.88.35s-1.31-.12-1.87-.35c-.56-.24-1.04-.57-1.44-1-.4-.43-.71-.95-.94-1.56-.22-.61-.34-1.28-.34-2.01s.11-1.4.34-2c.23-.6.55-1.11.95-1.54.41-.42.89-.75,1.45-.99.56-.24,1.17-.35,1.83-.35s1.29.12,1.85.35c.56.24,1.04.57,1.44.99.4.42.71.94.94,1.54.22.6.34,1.27.34,2ZM354.36,462.84c0-.81-.16-1.45-.49-1.92s-.79-.7-1.39-.7-1.07.23-1.4.7c-.33.47-.5,1.1-.5,1.92s.17,1.46.5,1.94c.33.48.79.72,1.4.72s1.06-.24,1.39-.72.49-1.12.49-1.94Z"/><path class="cls-16" d="M359.08,458.52c.45-.13,1.03-.25,1.73-.36.71-.11,1.45-.17,2.23-.17s1.45.1,1.97.31c.52.21.94.5,1.25.88.31.38.52.83.65,1.34.13.52.19,1.1.19,1.73v5.25h-2.63v-4.93c0-.85-.11-1.45-.34-1.8-.22-.35-.64-.53-1.25-.53-.19,0-.39,0-.6.03-.21.02-.4.04-.57.06v7.18h-2.63v-8.98Z"/><rect class="cls-6" x="588.11" y="424.27" width="124.77" height="54.46" rx="12" ry="12"/><path class="cls-16" d="M642.59,440.15c0,1.06-.17,1.99-.5,2.78s-.8,1.44-1.41,1.96-1.35.91-2.22,1.17c-.87.26-1.85.39-2.94.39-.5,0-1.07-.02-1.73-.06-.66-.04-1.31-.13-1.95-.26v-11.93c.64-.12,1.3-.2,1.99-.24.69-.04,1.28-.06,1.78-.06,1.05,0,2,.12,2.86.35.85.24,1.59.61,2.2,1.11.61.51,1.08,1.16,1.41,1.95.33.79.5,1.74.5,2.85ZM634.62,444.04c.13.01.28.02.45.03.17,0,.37,0,.61,0,1.38,0,2.4-.35,3.07-1.04s1-1.66,1-2.88-.32-2.26-.95-2.92c-.64-.66-1.64-.99-3.02-.99-.19,0-.38,0-.58,0-.2,0-.39.02-.57.04v7.74Z"/><path class="cls-16" d="M648.06,436.74c.78,0,1.43.09,1.95.27s.93.43,1.25.76c.31.33.53.73.66,1.2.13.47.19,1,.19,1.57v5.48c-.38.08-.9.18-1.57.29-.67.11-1.49.17-2.44.17-.6,0-1.15-.05-1.63-.16-.49-.11-.91-.28-1.26-.52-.35-.24-.62-.56-.81-.95-.19-.39-.28-.87-.28-1.43s.11-1,.33-1.38c.22-.38.51-.68.88-.9.37-.22.78-.39,1.25-.49.47-.1.96-.15,1.47-.15.34,0,.65.01.91.04.27.03.48.07.65.12v-.25c0-.45-.14-.81-.41-1.08s-.74-.41-1.42-.41c-.45,0-.89.03-1.33.1-.44.06-.81.16-1.13.27l-.34-2.12c.15-.05.34-.1.57-.15.23-.05.48-.1.75-.14.27-.04.56-.08.86-.11.3-.03.6-.04.91-.04ZM648.27,444.45c.26,0,.51,0,.74-.02.24-.01.42-.03.57-.05v-2c-.11-.02-.26-.05-.48-.07-.21-.02-.41-.04-.58-.04-.25,0-.48.01-.7.04-.22.03-.41.09-.58.17-.17.08-.29.2-.39.34-.09.14-.14.32-.14.53,0,.41.14.7.42.86.28.16.66.24,1.14.24Z"/><path class="cls-16" d="M654.41,434.67l2.63-.42v2.74h3.16v2.19h-3.16v3.27c0,.55.1,1,.29,1.33s.59.5,1.18.5c.28,0,.58-.03.88-.08.3-.05.58-.13.82-.22l.37,2.05c-.32.13-.67.24-1.06.34-.39.09-.87.14-1.43.14-.72,0-1.31-.1-1.79-.29-.47-.2-.85-.47-1.13-.81-.28-.35-.48-.77-.59-1.26-.11-.5-.17-1.04-.17-1.64v-7.81Z"/><path class="cls-16" d="M665.33,436.74c.78,0,1.43.09,1.95.27s.93.43,1.25.76c.31.33.53.73.66,1.2.13.47.19,1,.19,1.57v5.48c-.38.08-.9.18-1.57.29-.67.11-1.49.17-2.44.17-.6,0-1.15-.05-1.63-.16-.49-.11-.91-.28-1.26-.52-.35-.24-.62-.56-.81-.95-.19-.39-.28-.87-.28-1.43s.11-1,.33-1.38c.22-.38.51-.68.88-.9.37-.22.78-.39,1.25-.49.47-.1.96-.15,1.47-.15.34,0,.65.01.91.04.27.03.48.07.65.12v-.25c0-.45-.14-.81-.41-1.08s-.74-.41-1.42-.41c-.45,0-.89.03-1.33.1-.44.06-.81.16-1.13.27l-.34-2.12c.15-.05.34-.1.57-.15.23-.05.48-.1.75-.14.27-.04.56-.08.86-.11.3-.03.6-.04.91-.04ZM665.54,444.45c.26,0,.51,0,.74-.02.24-.01.42-.03.57-.05v-2c-.11-.02-.26-.05-.48-.07-.21-.02-.41-.04-.58-.04-.25,0-.48.01-.7.04-.22.03-.41.09-.58.17-.17.08-.29.2-.39.34-.09.14-.14.32-.14.53,0,.41.14.7.42.86.28.16.66.24,1.14.24Z"/><path class="cls-16" d="M611.7,460.54c-.24-.06-.51-.12-.83-.19-.32-.06-.66-.1-1.03-.1-.17,0-.36.01-.59.04-.23.03-.4.06-.52.1v7.11h-2.63v-8.8c.47-.17,1.03-.32,1.67-.47s1.36-.22,2.15-.22c.14,0,.31,0,.51.03s.4.04.6.07c.2.03.4.07.6.11s.37.09.51.15l-.44,2.17Z"/><path class="cls-16" d="M612.94,462.92c0-.83.13-1.55.38-2.17.25-.62.59-1.13,1-1.55.41-.41.89-.73,1.42-.94.54-.21,1.09-.32,1.65-.32,1.32,0,2.36.4,3.13,1.21.77.81,1.15,2,1.15,3.56,0,.15,0,.32-.02.5-.01.18-.02.34-.04.49h-5.98c.06.54.31.97.76,1.29.45.32,1.05.48,1.8.48.48,0,.96-.04,1.42-.13.46-.09.85-.2,1.14-.33l.35,2.14c-.14.07-.33.14-.57.21-.24.07-.5.13-.79.19-.29.05-.6.1-.93.13s-.66.05-.99.05c-.84,0-1.56-.12-2.18-.37-.62-.25-1.13-.59-1.54-1.02-.41-.43-.71-.94-.9-1.53-.19-.59-.29-1.23-.29-1.91ZM619.12,461.92c-.01-.22-.05-.44-.12-.65-.07-.21-.17-.4-.3-.57-.14-.16-.31-.3-.51-.41s-.46-.16-.77-.16-.55.05-.76.15c-.21.1-.39.23-.53.4-.14.17-.25.36-.33.58-.08.22-.13.44-.17.66h3.48Z"/><path class="cls-16" d="M632.35,462.85c0,.72-.09,1.37-.27,1.96-.18.59-.44,1.1-.78,1.52-.34.42-.77.75-1.27.99s-1.09.35-1.75.35c-.37,0-.71-.04-1.03-.11-.32-.07-.62-.17-.92-.3v3.5h-2.63v-12.25c.24-.07.51-.14.81-.2.31-.06.63-.12.96-.17.34-.05.68-.08,1.03-.11s.68-.04,1-.04c.77,0,1.45.12,2.05.34.6.23,1.11.55,1.52.97.41.42.73.93.95,1.53.22.6.33,1.27.33,2.02ZM629.66,462.92c0-.81-.18-1.46-.55-1.95-.37-.49-.91-.73-1.63-.73-.24,0-.45,0-.65.03s-.37.04-.5.06v4.76c.17.11.38.19.65.26.26.07.53.11.8.11,1.25,0,1.87-.84,1.87-2.53Z"/><path class="cls-16" d="M638.09,467.68c-.77-.01-1.39-.09-1.87-.25-.48-.15-.85-.37-1.13-.65s-.47-.61-.57-1.01c-.1-.4-.15-.84-.15-1.33v-10.24l2.63-.42v10.13c0,.24.02.45.05.64.04.19.1.35.2.48.1.13.24.24.43.32.19.08.44.14.76.16l-.37,2.17Z"/><path class="cls-16" d="M642.85,455.52c0,.48-.16.86-.47,1.14-.31.28-.68.42-1.11.42s-.79-.14-1.1-.42c-.31-.28-.47-.66-.47-1.14s.16-.86.47-1.14c.31-.28.68-.42,1.1-.42s.79.14,1.11.42c.31.28.47.66.47,1.14ZM642.6,467.5h-2.63v-9.3h2.63v9.3Z"/><path class="cls-16" d="M644.64,462.85c0-.67.11-1.3.33-1.9.22-.59.53-1.11.95-1.56.41-.44.91-.79,1.5-1.05.59-.26,1.26-.39,2.02-.39.5,0,.95.04,1.36.13.41.09.81.21,1.2.38l-.55,2.1c-.25-.09-.52-.18-.81-.25-.29-.07-.62-.11-.99-.11-.78,0-1.36.24-1.74.72s-.57,1.12-.57,1.91c0,.84.18,1.49.54,1.95s.99.69,1.88.69c.32,0,.66-.03,1.03-.09.37-.06.7-.15,1.01-.28l.37,2.16c-.31.13-.69.24-1.15.34-.46.09-.97.14-1.52.14-.85,0-1.58-.13-2.19-.38-.61-.25-1.12-.6-1.51-1.03-.4-.44-.68-.95-.87-1.55-.18-.6-.27-1.24-.27-1.94Z"/><path class="cls-16" d="M656.82,457.96c.78,0,1.43.09,1.95.27s.93.43,1.25.76c.31.33.53.73.66,1.2.13.47.19,1,.19,1.57v5.48c-.38.08-.9.18-1.57.29-.67.11-1.49.17-2.44.17-.6,0-1.15-.05-1.63-.16-.49-.11-.91-.28-1.26-.52-.35-.24-.62-.56-.81-.95-.19-.39-.28-.87-.28-1.43s.11-1,.33-1.38c.22-.38.51-.68.88-.9.37-.22.78-.39,1.25-.49.47-.1.96-.15,1.47-.15.34,0,.65.01.91.04.27.03.48.07.65.12v-.25c0-.45-.14-.81-.41-1.08s-.74-.41-1.42-.41c-.45,0-.89.03-1.33.1-.44.06-.81.16-1.13.27l-.34-2.12c.15-.05.34-.1.57-.15.23-.05.48-.1.75-.14.27-.04.56-.08.86-.11.3-.03.6-.04.91-.04ZM657.03,465.66c.26,0,.51,0,.74-.02.24-.01.42-.03.57-.05v-2c-.11-.02-.26-.05-.48-.07-.21-.02-.41-.04-.58-.04-.25,0-.48.01-.7.04-.22.03-.41.09-.58.17-.17.08-.29.2-.39.34-.09.14-.14.32-.14.53,0,.41.14.7.42.86.28.16.66.24,1.14.24Z"/><path class="cls-16" d="M663.17,455.89l2.63-.42v2.74h3.16v2.19h-3.16v3.27c0,.55.1,1,.29,1.33s.59.5,1.18.5c.28,0,.58-.03.88-.08.3-.05.58-.13.82-.22l.37,2.05c-.32.13-.67.24-1.06.34-.39.09-.87.14-1.43.14-.72,0-1.31-.1-1.79-.29-.47-.2-.85-.47-1.13-.81-.28-.35-.48-.77-.59-1.26-.11-.5-.17-1.04-.17-1.64v-7.81Z"/><path class="cls-16" d="M673.99,455.52c0,.48-.16.86-.47,1.14-.31.28-.68.42-1.11.42s-.79-.14-1.1-.42c-.31-.28-.47-.66-.47-1.14s.16-.86.47-1.14c.31-.28.68-.42,1.1-.42s.79.14,1.11.42c.31.28.47.66.47,1.14ZM673.74,467.5h-2.63v-9.3h2.63v9.3Z"/><path class="cls-16" d="M684.91,462.84c0,.73-.11,1.4-.32,2.01-.21.61-.52,1.13-.92,1.56-.4.43-.88.76-1.44,1-.56.24-1.19.35-1.88.35s-1.31-.12-1.87-.35c-.56-.24-1.04-.57-1.44-1-.4-.43-.71-.95-.94-1.56-.22-.61-.34-1.28-.34-2.01s.11-1.4.34-2c.23-.6.55-1.11.95-1.54.41-.42.89-.75,1.45-.99.56-.24,1.17-.35,1.83-.35s1.29.12,1.85.35c.56.24,1.04.57,1.44.99.4.42.71.94.94,1.54.22.6.34,1.27.34,2ZM682.23,462.84c0-.81-.16-1.45-.49-1.92s-.79-.7-1.39-.7-1.07.23-1.4.7c-.33.47-.5,1.1-.5,1.92s.17,1.46.5,1.94c.33.48.79.72,1.4.72s1.06-.24,1.39-.72.49-1.12.49-1.94Z"/><path class="cls-16" d="M686.95,458.52c.45-.13,1.03-.25,1.73-.36.71-.11,1.45-.17,2.23-.17s1.45.1,1.97.31c.52.21.94.5,1.25.88.31.38.52.83.65,1.34.13.52.19,1.1.19,1.73v5.25h-2.63v-4.93c0-.85-.11-1.45-.34-1.8-.22-.35-.64-.53-1.25-.53-.19,0-.39,0-.6.03-.21.02-.4.04-.57.06v7.18h-2.63v-8.98Z"/><path class="cls-36" d="M18.61,7.71h945.66v608.42H7.71V18.61c0-6.01,4.88-10.9,10.9-10.9Z"/></g><g id="Layer_6"><path id="path32" class="cls-16" d="M880.39,551.29v-2.5l-.63.49-.42-.57,1.12-.82h.74v3.41h-.8"/><path id="path34" class="cls-16" d="M883.69,549.57c0-.11,0-.22-.02-.35-.01-.13-.04-.25-.07-.36-.04-.11-.09-.2-.15-.28-.07-.08-.15-.11-.26-.11s-.19.04-.26.11c-.07.08-.12.17-.16.28-.04.11-.06.23-.07.36-.01.13-.02.25-.02.35s0,.23.02.36c.01.13.04.25.07.36.04.11.09.2.16.28.07.08.15.11.26.11s.19-.04.26-.11c.07-.08.12-.17.15-.28.04-.11.06-.23.07-.36.01-.13.02-.25.02-.36ZM884.52,549.57c0,.24-.02.47-.07.69-.05.22-.12.41-.23.57-.11.17-.24.3-.41.39-.17.1-.37.15-.61.15s-.45-.05-.62-.15c-.17-.1-.31-.23-.42-.39-.11-.16-.19-.36-.23-.57-.05-.22-.07-.45-.07-.69s.02-.47.07-.69c.05-.22.13-.41.23-.57.11-.16.25-.29.42-.39.17-.1.38-.14.62-.14s.45.05.61.14c.17.1.3.23.41.39.11.16.18.35.23.57.05.22.07.44.07.69"/><path id="path36" class="cls-16" d="M889.04,551.29v-2.5l-.63.49-.42-.57,1.12-.82h.74v3.41h-.8"/><path id="path38" class="cls-16" d="M892.34,549.57c0-.11,0-.22-.02-.35-.01-.13-.04-.25-.07-.36-.04-.11-.09-.2-.15-.28-.07-.08-.15-.11-.26-.11s-.19.04-.26.11c-.07.08-.12.17-.16.28-.04.11-.06.23-.07.36-.01.13-.02.25-.02.35s0,.23.02.36c.01.13.04.25.07.36.04.11.09.2.16.28.07.08.15.11.26.11s.19-.04.26-.11c.07-.08.12-.17.15-.28.04-.11.06-.23.07-.36.01-.13.02-.25.02-.36ZM893.17,549.57c0,.24-.02.47-.07.69-.05.22-.12.41-.23.57-.11.17-.24.3-.41.39-.17.1-.37.15-.61.15s-.45-.05-.62-.15c-.17-.1-.31-.23-.42-.39-.11-.16-.19-.36-.23-.57-.05-.22-.07-.45-.07-.69s.02-.47.07-.69c.05-.22.13-.41.23-.57s.25-.29.42-.39c.17-.1.38-.14.62-.14s.45.05.61.14c.17.1.3.23.41.39.11.16.18.35.23.57.05.22.07.44.07.69"/><path id="path40" class="cls-16" d="M880.32,556.65v-2.5l-.64.49-.42-.57,1.12-.82h.74v3.41h-.8"/><path id="path42" class="cls-16" d="M883.15,556.65v-2.5l-.64.49-.42-.57,1.12-.82h.74v3.41h-.8"/><path id="path44" class="cls-16" d="M885.97,556.65v-2.5l-.64.49-.42-.57,1.12-.82h.74v3.41h-.8"/><path id="path46" class="cls-16" d="M889.42,554.94c0-.11,0-.22-.02-.35-.01-.13-.04-.25-.07-.36-.04-.11-.09-.2-.15-.28-.07-.08-.15-.11-.26-.11s-.19.04-.26.11c-.07.08-.12.17-.16.28-.04.11-.06.23-.07.36-.01.13-.02.25-.02.35s0,.23.02.36c.01.13.04.25.07.36.04.11.09.2.16.28.07.08.15.11.26.11s.19-.04.26-.11c.07-.08.12-.17.15-.28.03-.11.06-.23.07-.36.01-.13.02-.25.02-.36ZM890.24,554.94c0,.24-.02.47-.07.69-.05.22-.13.41-.23.58-.11.16-.24.3-.41.39-.17.1-.37.15-.61.15s-.45-.05-.62-.15c-.17-.1-.31-.23-.42-.39-.11-.17-.19-.36-.23-.58-.05-.22-.07-.45-.07-.69s.02-.47.07-.69c.05-.22.13-.41.23-.57.11-.16.25-.29.42-.39.17-.1.38-.14.62-.14s.44.05.61.14c.17.1.31.23.41.39.11.16.18.35.23.57.05.22.07.45.07.69"/><path id="path48" class="cls-16" d="M881.95,560.47v-1.82l-.46.36-.3-.41.81-.6h.53v2.47h-.58"/><path id="path50" class="cls-16" d="M886.04,560.47v-1.82l-.46.36-.3-.41.81-.6h.54v2.47h-.58"/><path id="path52" class="cls-16" d="M880.31,559.22c0-.08,0-.16-.01-.26,0-.09-.03-.18-.05-.26-.03-.08-.06-.15-.11-.2-.05-.05-.11-.08-.19-.08s-.14.03-.19.08c-.05.05-.09.12-.11.2-.03.08-.04.17-.05.26,0,.09-.01.18-.01.26s0,.17.01.26c0,.09.03.18.05.26.03.08.06.15.11.2.05.05.11.08.19.08s.14-.03.19-.08c.05-.05.08-.12.11-.2.03-.08.04-.17.05-.26,0-.09.01-.18.01-.26ZM880.91,559.22c0,.17-.02.34-.05.5-.03.16-.09.3-.17.42-.08.12-.18.22-.3.29-.12.07-.27.11-.45.11s-.32-.04-.45-.11c-.12-.07-.22-.17-.3-.29-.08-.12-.13-.26-.17-.42-.04-.16-.05-.32-.05-.5s.02-.34.05-.5c.03-.16.09-.29.17-.41.08-.12.18-.21.3-.28.12-.07.27-.1.45-.1s.32.04.45.1c.12.07.22.16.3.28.08.12.13.26.17.41.03.16.05.32.05.5"/><path id="path54" class="cls-16" d="M884.42,559.22c0-.08,0-.16-.01-.26,0-.09-.03-.18-.05-.26-.03-.08-.06-.15-.11-.2-.05-.05-.11-.08-.19-.08s-.14.03-.19.08c-.05.05-.09.12-.11.2-.03.08-.05.17-.05.26,0,.09-.01.18-.01.26s0,.17.01.26c0,.09.03.18.05.26.03.08.06.15.11.2.05.05.11.08.19.08s.14-.03.19-.08c.05-.05.08-.12.11-.2.03-.08.04-.17.05-.26,0-.09.01-.18.01-.26ZM885.02,559.22c0,.17-.02.34-.05.5-.04.16-.09.3-.17.42-.08.12-.18.22-.3.29-.12.07-.27.11-.45.11s-.32-.04-.45-.11c-.12-.07-.22-.17-.3-.29-.08-.12-.13-.26-.17-.42-.04-.16-.05-.32-.05-.5s.02-.34.05-.5c.03-.16.09-.29.17-.41.08-.12.18-.21.3-.28.12-.07.27-.1.45-.1s.32.04.45.1c.12.07.22.16.3.28.08.12.13.26.17.41.03.16.05.32.05.5"/><path id="path56" class="cls-16" d="M892.84,560.47v-1.82l-.46.36-.3-.41.81-.6h.53v2.47h-.58"/><path id="path58" class="cls-16" d="M891.23,559.22c0-.08,0-.16-.01-.26,0-.09-.03-.18-.05-.26-.03-.08-.06-.15-.11-.2-.05-.05-.11-.08-.19-.08s-.14.03-.19.08c-.05.05-.09.12-.11.2-.03.08-.04.17-.05.26,0,.09-.01.18-.01.26s0,.17.01.26c0,.09.03.18.05.26.03.08.07.15.11.2.05.05.11.08.19.08s.14-.03.19-.08c.05-.05.08-.12.11-.2.03-.08.04-.17.05-.26,0-.09.01-.18.01-.26ZM891.83,559.22c0,.17-.02.34-.05.5-.04.16-.09.3-.17.42-.08.12-.18.22-.3.29-.12.07-.27.11-.45.11s-.32-.04-.45-.11c-.12-.07-.22-.17-.3-.29-.08-.12-.13-.26-.17-.42-.04-.16-.05-.32-.05-.5s.02-.34.05-.5c.03-.16.09-.29.17-.41.08-.12.18-.21.3-.28.12-.07.27-.1.45-.1s.32.04.45.1c.12.07.22.16.3.28.08.12.13.26.17.41.03.16.05.32.05.5"/><path id="path60" class="cls-16" d="M890.6,563.38v-1.82l-.46.36-.3-.42.81-.6h.53v2.47h-.58"/><path id="path62" class="cls-16" d="M888.99,562.14c0-.08,0-.16-.01-.26,0-.09-.03-.18-.05-.26-.03-.08-.06-.15-.11-.2-.05-.05-.11-.08-.19-.08s-.14.03-.19.08c-.05.05-.09.12-.11.2-.03.08-.04.17-.05.26,0,.09-.01.18-.01.26s0,.17.01.26c0,.09.03.18.05.26.03.08.06.15.11.2.05.05.11.08.19.08s.14-.03.19-.08c.05-.05.08-.12.11-.2.03-.08.04-.17.05-.26,0-.09.01-.18.01-.26ZM889.59,562.14c0,.17-.02.34-.05.5-.03.16-.09.3-.17.42-.08.12-.18.22-.3.29-.12.07-.27.11-.45.11s-.32-.04-.45-.11c-.12-.07-.22-.17-.3-.29-.08-.12-.13-.26-.17-.42-.03-.16-.05-.32-.05-.5s.02-.34.05-.5c.03-.16.09-.3.17-.41.08-.12.18-.21.3-.28.12-.07.27-.1.45-.1s.32.04.45.1c.12.07.22.16.3.28.08.12.13.26.17.41.03.16.05.32.05.5"/><path id="path64" class="cls-16" d="M881.13,563.35v-1.26l-.32.25-.21-.29.56-.41h.37v1.71h-.4"/><path id="path66" class="cls-16" d="M880.01,562.48c0-.05,0-.11,0-.18,0-.06-.02-.12-.04-.18-.02-.06-.04-.1-.08-.14-.03-.04-.08-.06-.13-.06s-.1.02-.13.06c-.03.04-.06.08-.08.14-.02.06-.03.12-.04.18,0,.07,0,.12,0,.18s0,.11,0,.18c0,.07.02.13.04.18.02.06.04.1.08.14.03.04.08.06.13.06s.1-.02.13-.06c.03-.04.06-.08.08-.14.02-.06.03-.12.04-.18,0-.07,0-.13,0-.18ZM880.43,562.48c0,.12-.01.24-.04.35-.02.11-.06.21-.12.29-.05.08-.12.15-.21.2-.08.05-.19.07-.31.07s-.22-.03-.31-.07c-.09-.05-.16-.11-.21-.2-.05-.08-.09-.18-.12-.29-.02-.11-.04-.23-.04-.35s.01-.24.04-.34c.02-.11.06-.2.12-.29.05-.08.12-.15.21-.19.09-.05.19-.07.31-.07s.22.02.31.07c.09.05.15.11.21.19.05.08.09.18.12.29.02.11.04.22.04.34"/><path id="path68" class="cls-16" d="M886.16,565.55v-1.26l-.32.25-.21-.29.56-.41h.37v1.71h-.4"/><path id="path70" class="cls-16" d="M885.04,564.69c0-.05,0-.11-.01-.18,0-.06-.02-.12-.04-.18s-.04-.1-.08-.14c-.03-.04-.08-.06-.13-.06s-.1.02-.13.06c-.03.04-.06.08-.08.14-.02.06-.03.12-.04.18,0,.06-.01.12-.01.18s0,.11.01.18c0,.07.02.13.04.18.02.06.04.1.08.14.03.04.08.06.13.06s.1-.02.13-.06c.03-.04.06-.08.08-.14.02-.06.03-.12.04-.18,0-.06.01-.12.01-.18ZM885.46,564.69c0,.12-.01.24-.04.35-.02.11-.06.21-.12.29-.05.08-.12.15-.21.2-.08.05-.19.07-.31.07s-.22-.02-.31-.07c-.09-.05-.16-.12-.21-.2-.05-.08-.09-.18-.12-.29-.02-.11-.04-.23-.04-.35s.01-.24.04-.34c.02-.11.06-.2.12-.29.05-.08.12-.15.21-.2.09-.05.19-.07.31-.07s.22.02.31.07c.09.05.15.11.21.2.05.08.09.18.12.29.02.11.04.22.04.34"/><path id="path72" class="cls-16" d="M893.07,562.14c0-.08,0-.16-.01-.26,0-.09-.03-.18-.05-.26-.03-.08-.06-.15-.11-.2-.05-.05-.11-.08-.19-.08s-.14.03-.19.08c-.05.05-.09.12-.11.2-.03.08-.04.17-.05.26,0,.09-.01.18-.01.26s0,.17.01.26c0,.09.03.18.05.26.03.08.06.15.11.2.05.05.11.08.19.08s.14-.03.19-.08c.05-.05.08-.12.11-.2.03-.08.04-.17.05-.26,0-.09.01-.18.01-.26ZM893.67,562.14c0,.17-.02.34-.05.5-.03.16-.09.3-.17.42-.08.12-.18.22-.3.29-.12.07-.27.11-.45.11s-.32-.04-.45-.11c-.12-.07-.22-.17-.3-.29-.08-.12-.13-.26-.17-.42-.03-.16-.05-.32-.05-.5s.02-.34.05-.5c.03-.16.09-.3.17-.41.08-.12.18-.21.3-.28.12-.07.27-.1.45-.1s.32.04.45.1c.12.07.22.16.3.28.08.12.13.26.17.41.03.16.05.32.05.5"/><path id="path74" class="cls-16" d="M891.94,545.44c-.57-2.79-3.05-4.81-5.9-4.81-.43,0-.86.05-1.28.14-.69-4.06-4.24-7.16-8.49-7.16s-7.73,3.05-8.47,7.05c-3.06.28-5.47,2.86-5.47,6,0,3.32,2.7,6.02,6.02,6.02h9.01c.46,0,.83-.37.83-.83s-.37-.83-.83-.83h-9.01c-2.4,0-4.36-1.95-4.36-4.36s1.95-4.36,4.36-4.36c.87,0,1.72.26,2.44.74.38.26.9.16,1.16-.22.26-.38.16-.9-.22-1.16-.68-.46-1.44-.77-2.24-.92.68-3.12,3.47-5.47,6.79-5.47,3.54,0,6.47,2.66,6.9,6.09-.22.12-.44.25-.65.41-.37.27-.46.79-.19,1.16.27.37.79.46,1.16.19.74-.54,1.63-.82,2.55-.82,2.06,0,3.86,1.46,4.27,3.48.08.39.43.67.82.67.05,0,.11,0,.17-.02.45-.09.74-.53.65-.98"/></g></svg>