<?xml version="1.0" encoding="UTF-8"?><svg xmlns="http://www.w3.org/2000/svg" xmlns:xlink="http://www.w3.org/1999/xlink" viewBox="0 0 927.47 343.73"><defs><style>.cls-1{fill:url(#linear-gradient);}.cls-1,.cls-2,.cls-3,.cls-4,.cls-5,.cls-6,.cls-7{stroke-width:0px;}.cls-2{fill:#223654;}.cls-3{fill:#fff;}.cls-4{fill:url(#linear-gradient-2);}.cls-5{fill:url(#linear-gradient-3);}.cls-6{fill:#3bc81e;}.cls-7{fill:url(#linear-gradient-4);}</style><linearGradient id="linear-gradient" x1="2778.74" y1="-2925.47" x2="3153.1" y2="-2925.47" gradientTransform="translate(-2719.76 3099.1)" gradientUnits="userSpaceOnUse"><stop offset=".48" stop-color="#223654"/><stop offset=".52" stop-color="#38554c"/><stop offset=".59" stop-color="#5e8940"/><stop offset=".66" stop-color="#7bb336"/><stop offset=".72" stop-color="#91d12f"/><stop offset=".77" stop-color="#9ee32b"/><stop offset=".81" stop-color="#a3ea2a"/></linearGradient><linearGradient id="linear-gradient-2" x1="2837.18" y1="-2823.6" x2="3028.45" y2="-2823.6" xlink:href="#linear-gradient"/><linearGradient id="linear-gradient-3" x1="3129.01" y1="-2823.6" x2="3287.97" y2="-2823.6" gradientTransform="translate(3942.33 3099.1) rotate(-180) scale(1 -1)" xlink:href="#linear-gradient"/><linearGradient id="linear-gradient-4" x1="3087.76" y1="-2927.23" x2="3375.96" y2="-2927.23" gradientTransform="translate(3942.33 3099.1) rotate(-180) scale(1 -1)" xlink:href="#linear-gradient"/></defs><g id="Layer_3"><rect class="cls-2" x="243.53" y="15.79" width="440.41" height="312.15" rx="12" ry="12"/><path class="cls-6" d="M671.94,329.94H255.53c-7.72,0-14-6.28-14-14V27.79c0-7.72,6.28-14,14-14h416.41c7.72,0,14,6.28,14,14v288.15c0,7.72-6.28,14-14,14ZM255.53,17.79c-5.51,0-10,4.49-10,10v288.15c0,5.51,4.49,10,10,10h416.41c5.51,0,10-4.49,10-10V27.79c0-5.51-4.49-10-10-10H255.53Z"/><rect class="cls-2" x="284.03" y="51.06" width="359.41" height="241.61" rx="12" ry="12"/><path class="cls-6" d="M631.44,294.67h-335.41c-7.72,0-14-6.28-14-14V63.06c0-7.72,6.28-14,14-14h335.41c7.72,0,14,6.28,14,14v217.61c0,7.72-6.28,14-14,14ZM296.03,53.06c-5.51,0-10,4.49-10,10v217.61c0,5.51,4.49,10,10,10h335.41c5.51,0,10-4.49,10-10V63.06c0-5.51-4.49-10-10-10h-335.41Z"/><rect class="cls-2" x="326.22" y="89.54" width="275.02" height="164.64" rx="12" ry="12"/><path class="cls-6" d="M589.24,256.19h-251.02c-7.72,0-14-6.28-14-14V101.54c0-7.72,6.28-14,14-14h251.02c7.72,0,14,6.28,14,14v140.64c0,7.72-6.28,14-14,14ZM338.22,91.54c-5.51,0-10,4.49-10,10v140.64c0,5.51,4.49,10,10,10h251.02c5.51,0,10-4.49,10-10V101.54c0-5.51-4.49-10-10-10h-251.02Z"/><rect class="cls-2" x="415.56" y="143.03" width="96.35" height="57.68" rx="28.84" ry="28.84"/><path class="cls-6" d="M483.07,202.7h-38.67c-17,0-30.84-13.83-30.84-30.84s13.83-30.84,30.84-30.84h38.67c17,0,30.84,13.83,30.84,30.84s-13.83,30.84-30.84,30.84ZM444.4,145.03c-14.8,0-26.84,12.04-26.84,26.84s12.04,26.84,26.84,26.84h38.67c14.8,0,26.84-12.04,26.84-26.84s-12.04-26.84-26.84-26.84h-38.67Z"/></g><g id="Layer_1"><rect class="cls-2" x="742.01" y="237.7" width="173.19" height="75.59" rx="12" ry="12"/><path class="cls-3" d="M813.52,267.6c2.47,0,4.36.43,5.68,1.3,1.32.87,1.98,2.29,1.98,4.26s-.67,3.43-2,4.31c-1.34.88-3.25,1.33-5.73,1.33h-1.17v5.54h-3.72v-16.3c.81-.16,1.67-.27,2.58-.33s1.7-.1,2.39-.1ZM813.75,270.77c-.27,0-.54,0-.8.02-.26.02-.49.03-.68.05v4.77h1.17c1.29,0,2.26-.17,2.91-.53.65-.35.98-1,.98-1.96,0-.46-.08-.84-.25-1.15-.17-.3-.41-.54-.72-.73-.31-.18-.69-.31-1.13-.38s-.94-.11-1.48-.11Z"/><path class="cls-3" d="M835.07,278.03c0,.99-.14,1.89-.43,2.71-.29.82-.7,1.52-1.24,2.1-.54.58-1.19,1.03-1.95,1.35-.76.32-1.6.48-2.54.48s-1.76-.16-2.52-.48c-.76-.32-1.4-.77-1.95-1.35-.54-.58-.96-1.28-1.26-2.1-.3-.82-.45-1.72-.45-2.71s.16-1.89.47-2.7.74-1.5,1.29-2.08c.55-.57,1.2-1.02,1.96-1.34.76-.32,1.58-.48,2.47-.48s1.74.16,2.49.48c.76.32,1.4.76,1.95,1.34.54.57.96,1.27,1.26,2.08.3.81.45,1.71.45,2.7ZM831.44,278.03c0-1.1-.22-1.96-.66-2.59s-1.06-.94-1.87-.94-1.44.31-1.89.94-.67,1.49-.67,2.59.22,1.97.67,2.61,1.07.97,1.89.97,1.44-.32,1.87-.97.66-1.52.66-2.61Z"/><path class="cls-3" d="M848.89,283.93c-.32.1-.68.19-1.1.28-.41.09-.85.16-1.3.23-.45.06-.92.12-1.38.16-.47.04-.92.06-1.35.06-1.04,0-1.96-.15-2.77-.45-.81-.3-1.5-.74-2.05-1.3-.56-.56-.98-1.25-1.28-2.05-.29-.8-.44-1.71-.44-2.71s.13-1.94.38-2.76c.25-.82.62-1.52,1.1-2.09.48-.57,1.06-1.01,1.75-1.31.69-.3,1.48-.45,2.38-.45.49,0,.94.05,1.33.14.39.1.78.23,1.18.41v-5.68l3.56-.57v18.12ZM840.85,277.96c0,1.1.25,1.98.74,2.65.49.67,1.23,1,2.2,1,.32,0,.61-.01.88-.04.27-.02.49-.05.67-.08v-6.47c-.22-.14-.51-.26-.87-.36-.36-.09-.72-.14-1.09-.14-1.69,0-2.53,1.15-2.53,3.44Z"/><rect class="cls-2" x="742.01" y="134.07" width="173.19" height="75.59" rx="12" ry="12"/><path class="cls-3" d="M775.94,165.92c.19.65.4,1.39.63,2.21.23.82.48,1.67.74,2.54.26.88.53,1.75.8,2.62.27.88.53,1.69.79,2.44.21-.81.42-1.7.64-2.65.22-.95.42-1.94.61-2.96.19-1.02.38-2.03.56-3.04s.36-1.99.52-2.92h3.87c-.56,2.77-1.2,5.58-1.93,8.43s-1.52,5.55-2.37,8.12h-3.41c-.56-1.53-1.1-3.13-1.62-4.81s-1.04-3.36-1.55-5.05c-.51,1.69-1.02,3.37-1.53,5.05s-1.04,3.28-1.6,4.81h-3.4c-.85-2.56-1.63-5.27-2.36-8.12s-1.37-5.66-1.93-8.43h4.03c.16.94.34,1.91.53,2.92.19,1.01.39,2.03.6,3.04.21,1.02.42,2.01.63,2.96.22.96.44,1.84.66,2.65.29-.78.57-1.61.84-2.48s.53-1.75.79-2.63c.26-.88.49-1.72.71-2.53.21-.81.41-1.54.59-2.17h3.17Z"/><path class="cls-3" d="M785.83,174.51c0-1.11.17-2.09.51-2.92.34-.84.79-1.53,1.35-2.09s1.2-.98,1.92-1.27c.72-.29,1.47-.43,2.23-.43,1.78,0,3.19.55,4.23,1.64,1.03,1.09,1.55,2.69,1.55,4.81,0,.21,0,.43-.02.68-.02.25-.03.47-.05.66h-8.07c.08.73.42,1.31,1.03,1.74s1.42.64,2.43.64c.65,0,1.29-.06,1.92-.18s1.14-.27,1.54-.44l.48,2.89c-.19.09-.45.19-.76.29s-.67.18-1.06.25c-.39.07-.81.13-1.25.18s-.89.07-1.34.07c-1.13,0-2.11-.17-2.95-.5-.84-.33-1.53-.79-2.08-1.37-.55-.58-.96-1.27-1.22-2.06-.26-.8-.39-1.66-.39-2.58ZM794.18,173.15c-.02-.3-.07-.6-.15-.88-.09-.29-.22-.54-.41-.76-.18-.22-.41-.41-.69-.55s-.62-.21-1.04-.21-.74.07-1.03.2c-.29.13-.53.31-.72.54-.19.22-.34.48-.44.78-.1.29-.18.59-.23.9h4.7Z"/><path class="cls-3" d="M812.04,174.42c0,1-.15,1.91-.44,2.72-.29.81-.72,1.5-1.28,2.08-.56.57-1.24,1.01-2.05,1.33s-1.73.47-2.77.47c-.43,0-.88-.02-1.35-.06-.47-.04-.93-.09-1.38-.16-.45-.06-.89-.14-1.3-.23-.41-.09-.78-.18-1.1-.28v-17.54l3.56-.57v6.25c.4-.17.81-.31,1.24-.41.43-.09.89-.14,1.38-.14.89,0,1.68.16,2.36.46.68.31,1.26.75,1.72,1.33.46.57.81,1.26,1.05,2.06.24.8.36,1.7.36,2.69ZM808.41,174.32c0-2.29-.84-3.44-2.53-3.44-.37,0-.73.05-1.09.14-.36.1-.65.21-.87.36v6.47c.18.03.4.06.67.08.27.02.56.04.88.04.97,0,1.7-.33,2.2-1,.49-.67.74-1.55.74-2.65Z"/><path class="cls-3" d="M825.26,177.86c.52,0,.96-.04,1.3-.13.34-.09.62-.21.82-.36s.35-.33.43-.54c.08-.21.12-.44.12-.69,0-.54-.25-.99-.76-1.35-.51-.36-1.38-.74-2.63-1.16-.54-.19-1.08-.41-1.62-.66-.54-.25-1.03-.56-1.46-.93s-.78-.83-1.05-1.36c-.27-.53-.41-1.18-.41-1.95s.14-1.45.43-2.07c.29-.61.69-1.13,1.22-1.56.52-.43,1.16-.76,1.91-.99s1.59-.35,2.53-.35c1.11,0,2.08.12,2.89.36.81.24,1.48.5,2,.79l-1.07,2.94c-.46-.24-.97-.45-1.54-.63-.56-.18-1.25-.28-2.04-.28-.89,0-1.53.12-1.92.37-.39.25-.58.62-.58,1.13,0,.3.07.56.21.76s.35.39.61.56.57.32.91.45c.34.14.72.28,1.13.42.86.32,1.61.63,2.24.94.64.31,1.17.67,1.59,1.09s.74.9.94,1.46c.21.56.31,1.23.31,2.03,0,1.54-.54,2.74-1.62,3.59-1.08.85-2.71,1.28-4.89,1.28-.73,0-1.39-.04-1.98-.13-.59-.09-1.11-.2-1.56-.32-.45-.13-.84-.26-1.17-.41-.33-.14-.6-.28-.82-.41l1.05-2.96c.49.27,1.1.51,1.83.73.72.21,1.61.32,2.66.32Z"/><path class="cls-3" d="M833.81,174.51c0-1.11.17-2.09.51-2.92.34-.84.79-1.53,1.35-2.09s1.2-.98,1.92-1.27c.72-.29,1.47-.43,2.23-.43,1.78,0,3.19.55,4.23,1.64,1.03,1.09,1.55,2.69,1.55,4.81,0,.21,0,.43-.02.68-.02.25-.03.47-.05.66h-8.07c.08.73.42,1.31,1.03,1.74s1.42.64,2.43.64c.65,0,1.29-.06,1.92-.18s1.14-.27,1.54-.44l.48,2.89c-.19.09-.45.19-.76.29s-.67.18-1.06.25c-.39.07-.81.13-1.25.18s-.89.07-1.34.07c-1.13,0-2.11-.17-2.95-.5-.84-.33-1.53-.79-2.08-1.37-.55-.58-.96-1.27-1.22-2.06-.26-.8-.39-1.66-.39-2.58ZM842.16,173.15c-.02-.3-.07-.6-.15-.88-.09-.29-.22-.54-.41-.76-.18-.22-.41-.41-.69-.55s-.62-.21-1.04-.21-.74.07-1.03.2c-.29.13-.53.31-.72.54-.19.22-.34.48-.44.78-.1.29-.18.59-.23.9h4.7Z"/><path class="cls-3" d="M855.91,171.29c-.32-.08-.69-.16-1.12-.25-.43-.09-.89-.13-1.38-.13-.22,0-.49.02-.8.06-.31.04-.54.08-.7.13v9.6h-3.56v-11.89c.64-.22,1.39-.43,2.26-.63.87-.2,1.83-.3,2.9-.3.19,0,.42.01.69.04.27.02.54.06.81.1.27.04.54.09.81.14s.5.12.69.2l-.6,2.94Z"/><path class="cls-3" d="M862.59,180.7c-.82-1.59-1.64-3.45-2.48-5.59-.84-2.13-1.63-4.46-2.38-6.97h3.77c.16.62.35,1.29.56,2.02.22.72.44,1.46.67,2.2.23.74.46,1.46.7,2.16.23.7.46,1.34.68,1.91.21-.57.43-1.21.67-1.91.24-.7.47-1.42.71-2.16.23-.74.46-1.47.67-2.2.22-.72.4-1.4.56-2.02h3.68c-.75,2.51-1.54,4.84-2.38,6.97-.84,2.13-1.66,4-2.48,5.59h-2.95Z"/><path class="cls-3" d="M871.35,174.51c0-1.11.17-2.09.51-2.92.34-.84.79-1.53,1.35-2.09s1.2-.98,1.92-1.27c.72-.29,1.47-.43,2.23-.43,1.78,0,3.19.55,4.23,1.64,1.03,1.09,1.55,2.69,1.55,4.81,0,.21,0,.43-.02.68-.02.25-.03.47-.05.66h-8.07c.08.73.42,1.31,1.03,1.74s1.42.64,2.43.64c.65,0,1.29-.06,1.92-.18s1.14-.27,1.54-.44l.48,2.89c-.19.09-.45.19-.76.29s-.67.18-1.06.25c-.39.07-.81.13-1.25.18s-.89.07-1.34.07c-1.13,0-2.11-.17-2.95-.5-.84-.33-1.53-.79-2.08-1.37-.55-.58-.96-1.27-1.22-2.06-.26-.8-.39-1.66-.39-2.58ZM879.71,173.15c-.02-.3-.07-.6-.15-.88-.09-.29-.22-.54-.41-.76-.18-.22-.41-.41-.69-.55s-.62-.21-1.04-.21-.74.07-1.03.2c-.29.13-.53.31-.72.54-.19.22-.34.48-.44.78-.1.29-.18.59-.23.9h4.7Z"/><path class="cls-3" d="M893.46,171.29c-.32-.08-.69-.16-1.12-.25-.43-.09-.89-.13-1.38-.13-.22,0-.49.02-.8.06-.31.04-.54.08-.7.13v9.6h-3.56v-11.89c.64-.22,1.39-.43,2.26-.63.87-.2,1.83-.3,2.9-.3.19,0,.42.01.69.04.27.02.54.06.81.1.27.04.54.09.81.14s.5.12.69.2l-.6,2.94Z"/><rect class="cls-2" x="12.27" y="237.7" width="173.19" height="75.59" rx="12" ry="12"/><path class="cls-3" d="M46.52,284.67c-2.69,0-4.74-.75-6.15-2.24-1.41-1.5-2.11-3.62-2.11-6.37,0-1.37.21-2.59.64-3.66s1.02-1.98,1.77-2.72c.75-.74,1.64-1.3,2.67-1.68s2.16-.57,3.37-.57c.7,0,1.34.05,1.91.16.57.1,1.07.22,1.5.36.43.14.79.27,1.07.42.29.14.49.25.62.33l-1.07,3.01c-.51-.27-1.1-.5-1.78-.69s-1.44-.29-2.3-.29c-.57,0-1.13.09-1.68.29-.55.19-1.03.5-1.46.92-.42.42-.76.97-1.01,1.63-.25.67-.38,1.48-.38,2.44,0,.76.08,1.48.25,2.14.17.66.44,1.23.81,1.71.37.48.86.86,1.47,1.13.6.28,1.34.42,2.2.42.54,0,1.03-.03,1.46-.1.43-.06.81-.14,1.15-.23.33-.09.63-.19.88-.3.25-.11.49-.21.69-.31l1.03,2.98c-.52.32-1.27.61-2.22.86-.96.25-2.06.38-3.32.38Z"/><path class="cls-3" d="M65.67,278.03c0,.99-.14,1.89-.43,2.71-.29.82-.7,1.52-1.24,2.1-.54.58-1.19,1.03-1.95,1.35-.76.32-1.6.48-2.54.48s-1.76-.16-2.52-.48c-.76-.32-1.4-.77-1.95-1.35-.54-.58-.96-1.28-1.27-2.1-.3-.82-.45-1.72-.45-2.71s.16-1.89.47-2.7c.31-.81.74-1.5,1.29-2.08.55-.57,1.2-1.02,1.96-1.34.76-.32,1.58-.48,2.47-.48s1.74.16,2.49.48c.76.32,1.4.76,1.95,1.34.54.57.96,1.27,1.27,2.08.3.81.45,1.71.45,2.7ZM62.04,278.03c0-1.1-.22-1.96-.66-2.59s-1.06-.94-1.87-.94-1.44.31-1.89.94c-.45.63-.67,1.49-.67,2.59s.22,1.97.67,2.61c.45.64,1.07.97,1.89.97s1.44-.32,1.87-.97.66-1.52.66-2.61Z"/><path class="cls-3" d="M68.41,272.21c.6-.17,1.38-.34,2.34-.49.96-.15,1.96-.23,3.01-.23s1.95.14,2.66.42c.71.28,1.27.67,1.68,1.18.41.51.71,1.11.88,1.81.17.7.26,1.48.26,2.34v7.09h-3.56v-6.66c0-1.15-.15-1.96-.45-2.43-.3-.48-.87-.72-1.69-.72-.25,0-.53.01-.81.04-.29.02-.54.05-.76.08v9.69h-3.56v-12.13Z"/><path class="cls-3" d="M82.35,268.65l3.56-.57v3.7h4.27v2.96h-4.27v4.42c0,.75.13,1.34.39,1.79.26.45.79.67,1.59.67.38,0,.78-.04,1.18-.11.41-.07.78-.17,1.11-.3l.5,2.77c-.43.18-.91.33-1.43.45-.52.13-1.17.19-1.93.19-.97,0-1.77-.13-2.41-.39-.64-.26-1.15-.63-1.53-1.1-.38-.47-.65-1.04-.8-1.71-.15-.67-.23-1.41-.23-2.22v-10.55Z"/><path class="cls-3" d="M97.1,271.44c1.05,0,1.93.12,2.63.36.7.24,1.26.58,1.68,1.03.42.45.72.99.9,1.62.17.64.26,1.35.26,2.12v7.4c-.51.11-1.22.24-2.12.39-.91.15-2.01.23-3.29.23-.81,0-1.55-.07-2.21-.21-.66-.14-1.23-.38-1.71-.7s-.84-.75-1.1-1.28-.38-1.17-.38-1.93.15-1.35.44-1.86c.29-.51.69-.92,1.18-1.22.49-.3,1.06-.52,1.69-.66.64-.14,1.3-.2,1.98-.2.46,0,.87.02,1.23.06.36.04.65.09.87.16v-.33c0-.6-.18-1.09-.55-1.46-.37-.37-1-.55-1.91-.55-.6,0-1.2.04-1.79.13-.59.09-1.1.21-1.53.37l-.45-2.86c.21-.06.47-.13.78-.2.31-.07.65-.13,1.01-.19.37-.06.75-.1,1.16-.14.41-.04.82-.06,1.23-.06ZM97.39,281.85c.35,0,.68,0,1-.02.32-.02.57-.04.76-.07v-2.7c-.14-.03-.36-.06-.64-.1-.29-.03-.55-.05-.79-.05-.33,0-.65.02-.94.06-.29.04-.55.12-.78.23-.22.11-.4.26-.53.45-.13.19-.19.43-.19.72,0,.56.19.94.56,1.16s.89.32,1.54.32Z"/><path class="cls-3" d="M109.68,268.15c0,.65-.21,1.17-.63,1.54-.42.37-.92.56-1.49.56s-1.07-.19-1.49-.56c-.42-.37-.63-.89-.63-1.54s.21-1.17.63-1.54c.42-.37.92-.56,1.49-.56s1.07.19,1.49.56c.42.37.63.89.63,1.54ZM109.35,284.33h-3.56v-12.56h3.56v12.56Z"/><path class="cls-3" d="M112.69,272.21c.6-.17,1.38-.34,2.34-.49.96-.15,1.96-.23,3.01-.23s1.95.14,2.66.42c.71.28,1.27.67,1.68,1.18.41.51.71,1.11.88,1.81.17.7.26,1.48.26,2.34v7.09h-3.56v-6.66c0-1.15-.15-1.96-.45-2.43-.3-.48-.87-.72-1.69-.72-.25,0-.53.01-.81.04-.29.02-.54.05-.76.08v9.69h-3.56v-12.13Z"/><path class="cls-3" d="M126.15,278.15c0-1.11.17-2.09.51-2.92.34-.84.79-1.53,1.35-2.09.56-.56,1.2-.98,1.92-1.27.72-.29,1.47-.43,2.23-.43,1.78,0,3.19.55,4.23,1.64,1.03,1.09,1.55,2.69,1.55,4.81,0,.21,0,.43-.02.68-.02.25-.03.47-.05.66h-8.07c.08.73.42,1.31,1.03,1.74.6.43,1.42.64,2.43.64.65,0,1.29-.06,1.92-.18.63-.12,1.14-.27,1.54-.44l.48,2.89c-.19.09-.45.19-.76.29s-.67.18-1.06.25c-.39.07-.81.13-1.25.18-.45.05-.89.07-1.34.07-1.13,0-2.11-.17-2.95-.5s-1.53-.79-2.08-1.37c-.55-.58-.96-1.27-1.22-2.06-.26-.8-.39-1.66-.39-2.58ZM134.51,276.79c-.02-.3-.07-.6-.15-.88-.09-.29-.22-.54-.41-.76-.18-.22-.41-.41-.69-.55-.28-.14-.62-.21-1.04-.21s-.74.07-1.03.2-.52.31-.72.54c-.19.22-.34.48-.44.78-.1.29-.18.59-.23.9h4.7Z"/><path class="cls-3" d="M148.26,274.93c-.32-.08-.69-.16-1.12-.25-.43-.09-.89-.13-1.38-.13-.22,0-.49.02-.8.06-.31.04-.54.08-.7.13v9.6h-3.56v-11.89c.64-.22,1.39-.43,2.26-.63.87-.2,1.83-.3,2.9-.3.19,0,.42.01.69.04.27.02.54.06.81.1.27.04.54.09.81.14.27.06.5.12.69.2l-.6,2.94Z"/><path class="cls-3" d="M154.37,281.78c.65,0,1.11-.06,1.38-.19.27-.13.41-.37.41-.74,0-.29-.18-.54-.53-.75s-.88-.46-1.6-.73c-.56-.21-1.06-.42-1.52-.64s-.84-.49-1.16-.8-.56-.68-.74-1.11c-.18-.43-.26-.95-.26-1.55,0-1.18.44-2.11,1.31-2.79.88-.68,2.08-1.03,3.6-1.03.76,0,1.5.07,2.2.2.7.14,1.26.28,1.67.44l-.62,2.77c-.41-.14-.86-.27-1.35-.38s-1.03-.17-1.63-.17c-1.11,0-1.67.31-1.67.93,0,.14.02.27.07.38s.14.22.29.32c.14.1.34.22.58.34s.56.25.94.4c.78.29,1.42.57,1.93.85.51.28.91.58,1.21.91.29.33.5.69.62,1.08.12.4.18.86.18,1.38,0,1.24-.47,2.17-1.4,2.81-.93.63-2.25.95-3.95.95-1.11,0-2.04-.1-2.78-.29-.74-.19-1.25-.35-1.54-.48l.6-2.89c.6.24,1.23.43,1.86.56.64.13,1.27.2,1.89.2Z"/><rect class="cls-2" x="12.27" y="134.07" width="173.19" height="75.59" rx="12" ry="12"/><path class="cls-3" d="M44.58,164.15h3.72v16.54h-3.72v-16.54Z"/><path class="cls-3" d="M51.88,168.57c.6-.17,1.38-.34,2.34-.49.96-.15,1.96-.23,3.01-.23s1.95.14,2.66.42c.71.28,1.27.67,1.68,1.18.41.51.71,1.11.88,1.81.17.7.26,1.48.26,2.34v7.09h-3.56v-6.66c0-1.15-.15-1.96-.45-2.43-.3-.48-.87-.72-1.69-.72-.25,0-.53.01-.81.04-.29.02-.54.05-.76.08v9.69h-3.56v-12.13Z"/><path class="cls-3" d="M77.02,180.29c-.32.1-.68.19-1.1.28-.41.09-.85.16-1.3.23-.45.06-.92.12-1.38.16-.47.04-.92.06-1.35.06-1.03,0-1.96-.15-2.77-.45-.81-.3-1.5-.74-2.05-1.3-.56-.56-.98-1.25-1.28-2.05s-.44-1.71-.44-2.71.13-1.94.38-2.76c.25-.82.62-1.52,1.1-2.09.48-.57,1.06-1.01,1.75-1.31.69-.3,1.48-.45,2.38-.45.49,0,.94.05,1.33.14.39.1.78.23,1.18.41v-5.68l3.56-.57v18.12ZM68.97,174.32c0,1.1.25,1.98.74,2.65.49.67,1.23,1,2.2,1,.32,0,.61-.01.88-.04.27-.02.49-.05.67-.08v-6.47c-.22-.14-.51-.26-.87-.36-.36-.09-.72-.14-1.09-.14-1.69,0-2.53,1.15-2.53,3.44Z"/><path class="cls-3" d="M79.76,174.51c0-1.11.17-2.09.51-2.92.34-.84.79-1.53,1.35-2.09.56-.56,1.2-.98,1.92-1.27.72-.29,1.47-.43,2.23-.43,1.78,0,3.19.55,4.23,1.64,1.03,1.09,1.55,2.69,1.55,4.81,0,.21,0,.43-.02.68-.02.25-.03.47-.05.66h-8.07c.08.73.42,1.31,1.03,1.74.6.43,1.42.64,2.43.64.65,0,1.29-.06,1.92-.18.63-.12,1.14-.27,1.54-.44l.48,2.89c-.19.09-.45.19-.76.29s-.67.18-1.06.25c-.39.07-.81.13-1.25.18-.45.05-.89.07-1.34.07-1.13,0-2.11-.17-2.95-.5s-1.53-.79-2.08-1.37c-.55-.58-.96-1.27-1.22-2.06-.26-.8-.39-1.66-.39-2.58ZM88.11,173.15c-.02-.3-.07-.6-.15-.88-.09-.29-.22-.54-.41-.76-.18-.22-.41-.41-.69-.55-.28-.14-.62-.21-1.04-.21s-.74.07-1.03.2-.52.31-.72.54c-.19.22-.34.48-.44.78-.1.29-.18.59-.23.9h4.7Z"/><path class="cls-3" d="M99.27,171.66l2.5-3.52h3.68l-4.36,6.11c1,1.15,1.89,2.29,2.66,3.42.77,1.13,1.4,2.14,1.86,3.03h-3.81c-.13-.24-.29-.54-.48-.9-.19-.36-.41-.73-.64-1.12-.24-.39-.49-.72-.75-.99-.26-.27-.52-.52-.77-.74-.24.21-.49.43-.73.68-.25.25-.48.56-.71.93-.22.37-.44.74-.66,1.11-.22.37-.41.71-.57,1.02h-3.62c.2-.39.46-.86.79-1.41.33-.55.69-1.11,1.08-1.69.39-.58.81-1.14,1.27-1.69.46-.55.9-1.06,1.34-1.54-.78-1.11-1.53-2.17-2.25-3.2-.72-1.02-1.43-2.04-2.14-3.04h3.84l2.47,3.52Z"/><path class="cls-3" d="M111.46,178.81c0,.72-.23,1.26-.68,1.63-.45.37-.97.56-1.54.56s-1.09-.19-1.54-.56c-.45-.37-.68-.92-.68-1.63s.23-1.26.68-1.63.97-.56,1.54-.56,1.09.19,1.54.56.68.92.68,1.63Z"/><path class="cls-3" d="M125.52,174.42c0,.97-.12,1.85-.36,2.65s-.59,1.48-1.05,2.05c-.46.57-1.03,1.02-1.72,1.34-.68.32-1.47.48-2.36.48-.49,0-.96-.05-1.38-.14s-.84-.23-1.24-.41v4.73h-3.56v-16.54c.32-.1.68-.19,1.1-.27.41-.09.85-.16,1.3-.23.45-.06.92-.12,1.38-.16.47-.04.92-.06,1.35-.06,1.03,0,1.96.16,2.77.47s1.5.75,2.05,1.31c.56.57.98,1.25,1.28,2.07.29.81.44,1.72.44,2.72ZM121.89,174.51c0-1.1-.25-1.98-.74-2.64-.49-.66-1.23-.99-2.2-.99-.32,0-.61.01-.88.04-.27.02-.49.05-.67.08v6.42c.22.14.51.26.87.36.36.1.72.14,1.09.14,1.69,0,2.53-1.14,2.53-3.41Z"/><path class="cls-3" d="M128.26,180.7v-17.95l3.56-.57v6.02c.24-.08.54-.16.92-.23.37-.07.74-.11,1.09-.11,1.02,0,1.87.14,2.54.42s1.22.67,1.62,1.18c.41.51.69,1.11.86,1.81.17.7.25,1.48.25,2.34v7.09h-3.56v-6.66c0-1.15-.15-1.96-.44-2.43s-.84-.72-1.63-.72c-.32,0-.62.03-.9.08-.28.06-.53.12-.75.18v9.55h-3.56Z"/><path class="cls-3" d="M154,174.42c0,.97-.12,1.85-.36,2.65s-.59,1.48-1.05,2.05c-.46.57-1.03,1.02-1.72,1.34-.68.32-1.47.48-2.36.48-.49,0-.96-.05-1.38-.14s-.84-.23-1.24-.41v4.73h-3.56v-16.54c.32-.1.68-.19,1.1-.27.41-.09.85-.16,1.3-.23.45-.06.92-.12,1.38-.16.47-.04.92-.06,1.35-.06,1.03,0,1.96.16,2.77.47s1.5.75,2.05,1.31c.56.57.98,1.25,1.28,2.07.29.81.44,1.72.44,2.72ZM150.37,174.51c0-1.1-.25-1.98-.74-2.64-.49-.66-1.23-.99-2.2-.99-.32,0-.61.01-.88.04-.27.02-.49.05-.67.08v6.42c.22.14.51.26.87.36.36.1.72.14,1.09.14,1.69,0,2.53-1.14,2.53-3.41Z"/><g id="arrow_styles_for_diagrams_etc"><g id="arrow_styles_for_diagrams_etc-2"><path class="cls-1" d="M421.52,174.06l-11.42,6.57c-.34.19-.76-.05-.76-.44v-3.39s-229.05,0-229.05,0c-1.01,0-1.83-.82-1.83-1.83v-2.69c0-1.01.82-1.83,1.83-1.83h229.06s0-3.39,0-3.39c0-.39.42-.63.76-.44l11.42,6.57c.34.19.34.68,0,.87Z"/></g></g><g id="arrow_styles_for_diagrams_etc-3"><g id="arrow_styles_for_diagrams_etc-4"><path class="cls-4" d="M302.52,275.94l-11.42,6.57c-.34.19-.76-.05-.76-.44v-3.39s-110.05,0-110.05,0c-1.01,0-1.83-.82-1.83-1.83v-2.69c0-1.01.82-1.83,1.83-1.83h110.06s0-3.39,0-3.39c0-.39.42-.63.76-.44l11.42,6.57c.34.19.34.68,0,.87Z"/></g></g><g id="arrow_styles_for_diagrams_etc-5"><g id="arrow_styles_for_diagrams_etc-6"><path class="cls-5" d="M659.51,275.94l11.42,6.57c.34.19.76-.05.76-.44v-3.39s89.05,0,89.05,0c1.01,0,1.83-.82,1.83-1.83v-2.69c0-1.01-.82-1.83-1.83-1.83h-89.06s0-3.39,0-3.39c0-.39-.42-.63-.76-.44l-11.42,6.57c-.34.19-.34.68,0,.87Z"/></g></g><g id="arrow_styles_for_diagrams_etc-7"><g id="arrow_styles_for_diagrams_etc-8"><path class="cls-7" d="M575.51,172.3l11.42,6.57c.34.19.76-.05.76-.44v-3.39s173.05,0,173.05,0c1.01,0,1.83-.82,1.83-1.83v-2.69c0-1.01-.82-1.83-1.83-1.83h-173.06s0-3.39,0-3.39c0-.39-.42-.63-.76-.44l-11.42,6.57c-.34.19-.34.68,0,.87Z"/></g></g></g><g id="Layer_6"><path id="path32" class="cls-3" d="M896.13,294.33v-2.2l-.56.43-.37-.5.99-.72h.65v3h-.71"/><path id="path34" class="cls-3" d="M899.04,292.82c0-.09,0-.2-.02-.31-.01-.11-.03-.22-.06-.32-.03-.1-.08-.18-.13-.25-.06-.07-.13-.1-.23-.1s-.17.03-.23.1c-.06.07-.11.15-.14.25-.03.1-.05.2-.07.32-.01.11-.02.22-.02.31s0,.2.02.32c.01.11.03.22.07.32.03.1.08.18.14.25.06.07.14.1.23.1s.17-.03.23-.1c.06-.07.1-.15.13-.25.03-.1.05-.2.06-.32.01-.11.02-.22.02-.32ZM899.77,292.82c0,.21-.02.41-.06.61-.04.19-.11.36-.2.51-.09.15-.21.26-.36.35-.15.09-.33.13-.54.13s-.39-.04-.54-.13c-.15-.09-.27-.2-.37-.35-.09-.15-.16-.31-.21-.51-.04-.19-.06-.39-.06-.61s.02-.41.06-.6c.04-.19.11-.36.21-.5.09-.14.22-.26.37-.34.15-.08.33-.13.54-.13s.39.04.54.13c.15.09.27.2.36.34.09.14.16.31.2.5.04.19.06.39.06.6"/><path id="path36" class="cls-3" d="M903.74,294.33v-2.2l-.56.43-.37-.5.99-.72h.65v3h-.71"/><path id="path38" class="cls-3" d="M906.65,292.82c0-.09,0-.2-.02-.31-.01-.11-.03-.22-.06-.32-.03-.1-.08-.18-.13-.25-.06-.07-.13-.1-.23-.1s-.17.03-.23.1c-.06.07-.11.15-.14.25-.03.1-.05.2-.07.32-.01.11-.02.22-.02.31s0,.2.02.32c.01.11.03.22.07.32.03.1.08.18.14.25.06.07.14.1.23.1s.17-.03.23-.1c.06-.07.1-.15.13-.25.03-.1.05-.2.06-.32.01-.11.02-.22.02-.32ZM907.38,292.82c0,.21-.02.41-.06.61-.04.19-.11.36-.2.51-.09.15-.21.26-.36.35-.15.09-.33.13-.54.13s-.39-.04-.54-.13c-.15-.09-.27-.2-.37-.35-.09-.15-.16-.31-.21-.51-.04-.19-.06-.39-.06-.61s.02-.41.06-.6c.04-.19.11-.36.21-.5s.22-.26.37-.34c.15-.08.33-.13.54-.13s.39.04.54.13c.15.09.27.2.36.34.09.14.16.31.2.5.04.19.06.39.06.6"/><path id="path40" class="cls-3" d="M896.07,299.05v-2.2l-.56.43-.37-.5.99-.73h.65v3h-.71"/><path id="path42" class="cls-3" d="M898.56,299.05v-2.2l-.56.43-.37-.5.99-.73h.65v3h-.71"/><path id="path44" class="cls-3" d="M901.04,299.05v-2.2l-.56.43-.37-.5.99-.73h.65v3h-.71"/><path id="path46" class="cls-3" d="M904.08,297.54c0-.09,0-.2-.02-.31-.01-.11-.03-.22-.06-.32-.03-.1-.08-.18-.13-.25-.06-.07-.13-.1-.23-.1s-.17.03-.23.1c-.06.07-.11.15-.14.25-.03.1-.05.2-.07.32-.01.11-.02.22-.02.31s0,.2.02.32c.01.11.03.22.07.32.03.1.08.18.14.25.06.07.14.1.23.1s.17-.03.23-.1c.06-.07.1-.15.13-.25.03-.1.05-.2.06-.32.01-.11.02-.22.02-.32ZM904.81,297.54c0,.21-.02.41-.06.61-.04.19-.11.36-.2.51-.09.15-.21.26-.36.35-.15.09-.33.13-.54.13s-.39-.04-.54-.13c-.15-.09-.27-.2-.37-.35-.09-.15-.16-.31-.21-.51-.04-.19-.06-.39-.06-.61s.02-.41.06-.6c.04-.19.11-.36.21-.5.09-.14.22-.26.37-.34.15-.08.33-.13.54-.13s.39.04.54.13c.15.09.27.2.36.34.09.14.16.31.2.5.04.19.06.39.06.6"/><path id="path48" class="cls-3" d="M897.5,302.41v-1.6l-.41.31-.27-.37.72-.53h.47v2.18h-.51"/><path id="path50" class="cls-3" d="M901.1,302.41v-1.6l-.41.31-.27-.37.72-.53h.47v2.18h-.51"/><path id="path52" class="cls-3" d="M896.06,301.32c0-.07,0-.14-.01-.22,0-.08-.02-.16-.05-.23-.02-.07-.05-.13-.1-.18-.04-.05-.1-.07-.16-.07s-.12.02-.17.07c-.04.05-.08.11-.1.18-.02.07-.04.15-.05.23,0,.08-.01.16-.01.22s0,.15.01.23c0,.08.02.16.05.23.02.07.06.13.1.18.04.05.1.07.17.07s.12-.02.16-.07c.04-.05.07-.11.1-.18.02-.07.04-.15.05-.23,0-.08.01-.16.01-.23ZM896.59,301.32c0,.15-.02.3-.05.44-.03.14-.08.26-.15.37-.07.11-.16.19-.26.25-.11.06-.24.09-.39.09s-.29-.03-.39-.09c-.11-.06-.2-.15-.27-.25-.07-.1-.12-.23-.15-.37-.03-.14-.05-.29-.05-.44s.02-.3.05-.44c.03-.14.08-.26.15-.36.07-.1.16-.19.27-.25.11-.06.24-.09.39-.09s.28.03.39.09c.11.06.19.14.26.25.07.1.12.22.15.36.03.14.05.28.05.44"/><path id="path54" class="cls-3" d="M899.68,301.32c0-.07,0-.14-.01-.22,0-.08-.02-.16-.05-.23-.02-.07-.05-.13-.1-.18-.04-.05-.1-.07-.16-.07s-.12.02-.17.07c-.04.05-.08.11-.1.18-.02.07-.04.15-.05.23,0,.08-.01.16-.01.22s0,.15.01.23c0,.08.02.16.05.23.02.07.06.13.1.18.04.05.1.07.17.07s.12-.02.16-.07c.04-.05.07-.11.1-.18.02-.07.04-.15.05-.23,0-.08.01-.16.01-.23ZM900.21,301.32c0,.15-.02.3-.05.44-.03.14-.08.26-.15.37-.07.11-.16.19-.26.25-.11.06-.24.09-.39.09s-.29-.03-.39-.09c-.11-.06-.2-.15-.27-.25-.07-.1-.12-.23-.15-.37-.03-.14-.05-.29-.05-.44s.02-.3.05-.44c.03-.14.08-.26.15-.36.07-.1.16-.19.27-.25.11-.06.24-.09.39-.09s.28.03.39.09c.11.06.19.14.26.25.07.1.12.22.15.36.03.14.05.28.05.44"/><path id="path56" class="cls-3" d="M907.09,302.41v-1.6l-.41.31-.27-.37.72-.53h.47v2.18h-.51"/><path id="path58" class="cls-3" d="M905.68,301.32c0-.07,0-.14-.01-.22,0-.08-.02-.16-.05-.23-.02-.07-.05-.13-.1-.18-.04-.05-.1-.07-.16-.07s-.12.02-.17.07c-.04.05-.08.11-.1.18-.02.07-.04.15-.05.23,0,.08-.01.16-.01.22s0,.15.01.23c0,.08.02.16.05.23.02.07.06.13.1.18.04.05.1.07.17.07s.12-.02.16-.07c.04-.05.07-.11.1-.18.02-.07.04-.15.05-.23,0-.08.01-.16.01-.23ZM906.2,301.32c0,.15-.02.3-.05.44-.03.14-.08.26-.15.37-.07.11-.16.19-.26.25-.11.06-.24.09-.39.09s-.29-.03-.39-.09c-.11-.06-.2-.15-.27-.25-.07-.1-.12-.23-.15-.37-.03-.14-.05-.29-.05-.44s.02-.3.05-.44c.03-.14.08-.26.15-.36.07-.1.16-.19.27-.25.11-.06.24-.09.39-.09s.28.03.39.09c.11.06.19.14.26.25.07.1.12.22.15.36.03.14.05.28.05.44"/><path id="path60" class="cls-3" d="M905.12,304.98v-1.6l-.41.31-.27-.37.72-.53h.47v2.18h-.51"/><path id="path62" class="cls-3" d="M903.7,303.88c0-.07,0-.14-.01-.22,0-.08-.02-.16-.05-.23-.02-.07-.05-.13-.1-.18-.04-.05-.1-.07-.16-.07s-.12.02-.17.07c-.04.05-.08.11-.1.18-.02.07-.04.15-.05.23,0,.08-.01.16-.01.22s0,.15.01.23c0,.08.02.16.05.23.02.07.06.13.1.18.04.05.1.07.17.07s.12-.02.16-.07c.04-.05.07-.11.1-.18.02-.07.04-.15.05-.23,0-.08.01-.16.01-.23ZM904.23,303.88c0,.15-.02.3-.05.44-.03.14-.08.26-.15.37-.07.11-.16.19-.26.25-.11.06-.24.09-.39.09s-.29-.03-.39-.09c-.11-.06-.2-.15-.27-.25-.07-.11-.12-.23-.15-.37-.03-.14-.05-.29-.05-.44s.02-.3.05-.44c.03-.14.08-.26.15-.36.07-.1.16-.19.27-.25.11-.06.24-.09.39-.09s.28.03.39.09c.11.06.2.14.26.25.07.1.12.22.15.36.03.14.05.28.05.44"/><path id="path64" class="cls-3" d="M896.78,304.95v-1.11l-.28.22-.19-.25.5-.36h.33v1.51h-.36"/><path id="path66" class="cls-3" d="M895.8,304.19s0-.1,0-.16c0-.06-.02-.11-.03-.16-.02-.05-.04-.09-.07-.12-.03-.03-.07-.05-.11-.05s-.09.02-.12.05c-.03.03-.05.07-.07.12-.02.05-.03.1-.03.16,0,.06,0,.11,0,.16s0,.1,0,.16c0,.06.02.11.03.16.02.05.04.09.07.12.03.03.07.05.12.05s.08-.02.11-.05c.03-.03.05-.07.07-.12.02-.05.03-.1.03-.16,0-.06,0-.11,0-.16ZM896.16,304.19c0,.11-.01.21-.03.3-.02.1-.06.18-.1.25-.05.07-.11.13-.18.17-.07.04-.16.07-.27.07s-.2-.02-.27-.07c-.08-.04-.14-.1-.18-.17-.05-.07-.08-.16-.1-.25-.02-.1-.03-.2-.03-.3s.01-.21.03-.3c.02-.1.06-.18.1-.25.05-.07.11-.13.18-.17.08-.04.17-.06.27-.06s.2.02.27.06c.08.04.14.1.18.17.05.07.08.16.1.25.02.1.03.2.03.3"/><path id="path68" class="cls-3" d="M901.21,306.88v-1.11l-.28.22-.19-.25.5-.36h.33v1.51h-.36"/><path id="path70" class="cls-3" d="M900.23,306.13s0-.1,0-.16c0-.06-.02-.11-.03-.16s-.04-.09-.07-.12c-.03-.03-.07-.05-.11-.05s-.09.02-.11.05c-.03.03-.05.07-.07.12-.02.05-.03.1-.03.16,0,.06,0,.11,0,.16s0,.1,0,.16c0,.06.02.11.03.16.02.05.04.09.07.12.03.03.07.05.11.05s.09-.02.11-.05c.03-.03.05-.07.07-.12.02-.05.03-.1.03-.16,0-.06,0-.11,0-.16ZM900.59,306.13c0,.11-.01.21-.03.3-.02.1-.06.18-.1.25-.05.07-.11.13-.18.18-.07.04-.16.06-.27.06s-.2-.02-.27-.06c-.08-.04-.14-.1-.18-.18-.05-.07-.08-.16-.1-.25-.02-.1-.03-.2-.03-.3s.01-.21.03-.3c.02-.1.06-.18.1-.25.05-.07.11-.13.18-.17.08-.04.17-.06.27-.06s.2.02.27.06c.08.04.14.1.18.17.05.07.08.16.1.25.02.1.03.2.03.3"/><path id="path72" class="cls-3" d="M907.29,303.88c0-.07,0-.14-.01-.22,0-.08-.02-.16-.05-.23-.02-.07-.05-.13-.1-.18-.04-.05-.1-.07-.16-.07s-.12.02-.17.07c-.04.05-.08.11-.1.18-.02.07-.04.15-.05.23,0,.08-.01.16-.01.22s0,.15.01.23c0,.08.02.16.05.23.02.07.06.13.1.18.04.05.1.07.17.07s.12-.02.16-.07c.04-.05.07-.11.1-.18.02-.07.04-.15.05-.23,0-.08.01-.16.01-.23ZM907.82,303.88c0,.15-.02.3-.05.44-.03.14-.08.26-.15.37-.07.11-.16.19-.26.25-.11.06-.24.09-.39.09s-.29-.03-.39-.09c-.11-.06-.2-.15-.27-.25-.07-.11-.12-.23-.15-.37-.03-.14-.05-.29-.05-.44s.02-.3.05-.44c.03-.14.08-.26.15-.36.07-.1.16-.19.27-.25.11-.06.24-.09.39-.09s.28.03.39.09c.11.06.2.14.26.25.07.1.12.22.15.36.03.14.05.28.05.44"/><path id="path74" class="cls-3" d="M906.3,289.18c-.5-2.45-2.69-4.23-5.2-4.23-.38,0-.76.04-1.12.12-.61-3.58-3.73-6.31-7.48-6.31s-6.81,2.68-7.46,6.21c-2.7.25-4.82,2.52-4.82,5.28,0,2.92,2.38,5.3,5.3,5.3h7.94c.4,0,.73-.33.73-.73s-.33-.73-.73-.73h-7.94c-2.12,0-3.84-1.72-3.84-3.84s1.72-3.84,3.84-3.84c.77,0,1.51.23,2.14.65.34.23.79.14,1.02-.2.23-.34.14-.79-.2-1.02-.6-.4-1.27-.68-1.97-.81.6-2.75,3.05-4.82,5.98-4.82,3.12,0,5.7,2.35,6.07,5.36-.2.11-.39.22-.57.36-.33.24-.4.7-.17,1.02.24.33.7.4,1.02.17.66-.47,1.43-.72,2.24-.72,1.82,0,3.4,1.29,3.76,3.06.07.35.38.59.72.59.05,0,.1,0,.15-.02.4-.08.65-.47.57-.87"/></g></svg>