<?xml version="1.0" encoding="UTF-8"?><svg xmlns="http://www.w3.org/2000/svg" xmlns:xlink="http://www.w3.org/1999/xlink" viewBox="0 0 1103.51 396.73"><defs><style>.cls-1{fill:url(#linear-gradient-12);}.cls-1,.cls-2,.cls-3,.cls-4,.cls-5,.cls-6,.cls-7,.cls-8,.cls-9,.cls-10,.cls-11,.cls-12,.cls-13,.cls-14,.cls-15,.cls-16,.cls-17,.cls-18,.cls-19,.cls-20,.cls-21,.cls-22,.cls-23,.cls-24,.cls-25,.cls-26,.cls-27,.cls-28,.cls-29,.cls-30,.cls-31,.cls-32,.cls-33,.cls-34,.cls-35,.cls-36,.cls-37{stroke-width:0px;}.cls-2{fill:url(#linear-gradient-17);}.cls-3{fill:url(#linear-gradient-19);}.cls-4{fill:url(#linear-gradient);}.cls-5{fill:url(#linear-gradient-21);}.cls-6{fill:#223654;}.cls-7{fill:url(#linear-gradient-6);}.cls-9{fill:#151c2b;}.cls-10{fill:url(#linear-gradient-15);}.cls-11{fill:url(#linear-gradient-11);}.cls-12{fill:url(#linear-gradient-5);}.cls-13{fill:none;}.cls-14{fill:url(#linear-gradient-13);}.cls-15{fill:url(#linear-gradient-23);}.cls-16{fill:url(#linear-gradient-25);}.cls-17{fill:url(#linear-gradient-16);}.cls-18{fill:url(#linear-gradient-22);}.cls-19{fill:#fff;}.cls-20{fill:url(#linear-gradient-20);}.cls-21{fill:url(#linear-gradient-14);}.cls-22{fill:url(#linear-gradient-2);}.cls-23{fill:#d4d8df;}.cls-24{fill:url(#linear-gradient-7);}.cls-25{fill:url(#radial-gradient-2);}.cls-26{fill:url(#linear-gradient-3);}.cls-27{fill:url(#linear-gradient-9);}.cls-28{fill:url(#linear-gradient-27);}.cls-29{fill:url(#radial-gradient);}.cls-30{fill:#eb0037;}.cls-31{fill:url(#linear-gradient-8);}.cls-32{fill:url(#linear-gradient-24);}.cls-33{fill:url(#linear-gradient-26);}.cls-34{fill:url(#linear-gradient-18);}.cls-35{fill:url(#linear-gradient-10);}.cls-36{fill:url(#linear-gradient-4);}.cls-37{fill:#ecbb0a;}</style><linearGradient id="linear-gradient" x1="2046.48" y1="-2197.48" x2="2522.93" y2="-2197.48" gradientTransform="translate(2930.12 -1951.2) rotate(-180)" gradientUnits="userSpaceOnUse"><stop offset=".48" stop-color="#223654"/><stop offset=".52" stop-color="#38554c"/><stop offset=".59" stop-color="#5e8940"/><stop offset=".66" stop-color="#7bb336"/><stop offset=".72" stop-color="#91d12f"/><stop offset=".77" stop-color="#9ee32b"/><stop offset=".81" stop-color="#a3ea2a"/></linearGradient><linearGradient id="linear-gradient-2" x1="1004.77" y1="106.36" x2="1024.56" y2="134.53" gradientTransform="translate(19.56 -47.65) rotate(3.24)" gradientUnits="userSpaceOnUse"><stop offset=".28" stop-color="#a3ea2a"/><stop offset=".38" stop-color="#9ce729"/><stop offset=".54" stop-color="#88e126"/><stop offset=".72" stop-color="#69d723"/><stop offset=".93" stop-color="#3ec91e"/><stop offset=".94" stop-color="#3bc81e"/></linearGradient><linearGradient id="linear-gradient-3" x1="812.79" y1="193.7" x2="821.84" y2="231.26" xlink:href="#linear-gradient-2"/><linearGradient id="linear-gradient-4" x1="852.16" y1="285.5" x2="893.33" y2="304.83" gradientTransform="translate(19.56 -47.65) rotate(3.24)" gradientUnits="userSpaceOnUse"><stop offset=".2" stop-color="#eb0037"/><stop offset=".27" stop-color="#e40137"/><stop offset=".38" stop-color="#d0073a"/><stop offset=".52" stop-color="#b10f3f"/><stop offset=".67" stop-color="#851b45"/><stop offset=".83" stop-color="#4e2a4d"/><stop offset=".94" stop-color="#223654"/></linearGradient><linearGradient id="linear-gradient-5" x1="830.44" y1="164.42" x2="860.12" y2="120.45" gradientTransform="translate(19.56 -47.65) rotate(3.24)" gradientUnits="userSpaceOnUse"><stop offset=".28" stop-color="#eb0037"/><stop offset=".35" stop-color="#e40137"/><stop offset=".45" stop-color="#d0073a"/><stop offset=".56" stop-color="#b10f3f"/><stop offset=".7" stop-color="#851b45"/><stop offset=".84" stop-color="#4e2a4d"/><stop offset=".94" stop-color="#223654"/></linearGradient><linearGradient id="linear-gradient-6" x1="908.43" y1="85.68" x2="941.43" y2="85.68" xlink:href="#linear-gradient-4"/><linearGradient id="linear-gradient-7" x1="1005.68" y1="276.21" x2="972.14" y2="292.98" xlink:href="#linear-gradient-2"/><linearGradient id="linear-gradient-8" x1="1025.99" y1="247.63" x2="1038.88" y2="210.94" xlink:href="#linear-gradient-4"/><linearGradient id="linear-gradient-9" x1="964.48" y1="226.03" x2="977.36" y2="189.34" xlink:href="#linear-gradient-4"/><linearGradient id="linear-gradient-10" x1="880.02" y1="177.49" x2="889.07" y2="215.05" xlink:href="#linear-gradient-2"/><linearGradient id="linear-gradient-11" x1="877.25" y1="196.03" x2="906.94" y2="152.06" xlink:href="#linear-gradient-5"/><linearGradient id="linear-gradient-12" x1="978.21" y1="221.28" x2="944.67" y2="238.05" xlink:href="#linear-gradient-2"/><linearGradient id="linear-gradient-13" x1="908.43" y1="152.53" x2="941.43" y2="152.53" xlink:href="#linear-gradient-5"/><linearGradient id="linear-gradient-14" x1="947.79" y1="146.38" x2="967.57" y2="174.55" gradientTransform="translate(19.56 -47.65) rotate(3.24)" gradientUnits="userSpaceOnUse"><stop offset=".29" stop-color="#a3ea2a"/><stop offset=".39" stop-color="#9ce729"/><stop offset=".55" stop-color="#88e126"/><stop offset=".73" stop-color="#69d723"/><stop offset=".93" stop-color="#3ec91e"/><stop offset=".94" stop-color="#3bc81e"/></linearGradient><linearGradient id="linear-gradient-15" x1="881.84" y1="222.28" x2="923.01" y2="241.6" xlink:href="#linear-gradient-4"/><radialGradient id="radial-gradient" cx="1174.35" cy="142.85" fx="1174.35" fy="142.85" r="49.53" gradientTransform="translate(-273.96 -156.85) rotate(9.51)" gradientUnits="userSpaceOnUse"><stop offset=".59" stop-color="#fff"/><stop offset=".63" stop-color="#f5f5f6"/><stop offset=".69" stop-color="#dbdde0"/><stop offset=".77" stop-color="#b2b5bc"/><stop offset=".86" stop-color="#797f8b"/><stop offset=".92" stop-color="#525a6a"/></radialGradient><radialGradient id="radial-gradient-2" cx="1207.58" cy="134.13" fx="1207.58" fy="134.13" r="56.9" gradientTransform="translate(-274.16 -158.09) rotate(9.51)" gradientUnits="userSpaceOnUse"><stop offset=".67" stop-color="#fff"/><stop offset=".7" stop-color="#f8f8f9"/><stop offset=".75" stop-color="#e4e6e8"/><stop offset=".8" stop-color="#c5c8cd"/><stop offset=".86" stop-color="#999ea7"/><stop offset=".92" stop-color="#626978"/><stop offset=".94" stop-color="#525a6a"/></radialGradient><linearGradient id="linear-gradient-16" x1="841.84" y1="281.39" x2="815.91" y2="252.18" gradientTransform="translate(19.56 -47.65) rotate(3.24)" gradientUnits="userSpaceOnUse"><stop offset=".17" stop-color="#9b7e23"/><stop offset=".2" stop-color="#a38420"/><stop offset=".3" stop-color="#c39c16"/><stop offset=".4" stop-color="#d9ad0f"/><stop offset=".49" stop-color="#e7b70b"/><stop offset=".57" stop-color="#ecbb0a"/></linearGradient><linearGradient id="linear-gradient-17" x1="785.11" y1="251.9" x2="794.61" y2="235.82" gradientTransform="translate(19.56 -47.65) rotate(3.24)" gradientUnits="userSpaceOnUse"><stop offset=".17" stop-color="#9b7e23"/><stop offset=".52" stop-color="#d4a911"/><stop offset=".69" stop-color="#ecbb0a"/></linearGradient><linearGradient id="linear-gradient-18" x1="796.1" y1="280.56" x2="786.49" y2="272.89" gradientTransform="translate(19.56 -47.65) rotate(3.24)" gradientUnits="userSpaceOnUse"><stop offset="0" stop-color="#9b7e23"/><stop offset=".46" stop-color="#d4a911"/><stop offset=".69" stop-color="#ecbb0a"/></linearGradient><linearGradient id="linear-gradient-19" x1="809.88" y1="291.31" x2="794.77" y2="283.11" xlink:href="#linear-gradient-18"/><linearGradient id="linear-gradient-20" x1="820.32" y1="291.73" x2="807.9" y2="283.09" xlink:href="#linear-gradient-18"/><linearGradient id="linear-gradient-21" x1="1013.85" y1="279.6" x2="983.24" y2="265.03" xlink:href="#linear-gradient-16"/><linearGradient id="linear-gradient-22" x1="990.27" y1="250.49" x2="981.73" y2="241.07" xlink:href="#linear-gradient-16"/><linearGradient id="linear-gradient-23" x1="999.34" y1="272.88" x2="977.12" y2="267.88" xlink:href="#linear-gradient-16"/><linearGradient id="linear-gradient-24" x1="989.98" y1="267.1" x2="979.54" y2="255.77" xlink:href="#linear-gradient-16"/><linearGradient id="linear-gradient-25" x1="1027.14" y1="277" x2="1001.22" y2="247.78" xlink:href="#linear-gradient-16"/><linearGradient id="linear-gradient-26" x1="825.55" y1="324.22" x2="819.63" y2="220.97" gradientUnits="userSpaceOnUse"><stop offset=".13" stop-color="#525a6a"/><stop offset=".24" stop-color="#707785"/><stop offset=".39" stop-color="#949aa5"/><stop offset=".54" stop-color="#b0b5be"/><stop offset=".69" stop-color="#c4c8d0"/><stop offset=".85" stop-color="#d0d4db"/><stop offset="1" stop-color="#d4d8df"/></linearGradient><linearGradient id="linear-gradient-27" x1="774.71" y1="320.54" x2="982.52" y2="320.54" gradientUnits="userSpaceOnUse"><stop offset=".63" stop-color="#151c2b"/><stop offset=".64" stop-color="#242b3c"/><stop offset=".64" stop-color="#3c4456"/><stop offset=".65" stop-color="#50596c"/><stop offset=".65" stop-color="#5f687d"/><stop offset=".66" stop-color="#6a7389"/><stop offset=".67" stop-color="#707a90"/><stop offset=".7" stop-color="#727c92"/></linearGradient></defs><g id="Layer_1"><rect class="cls-6" x="9.24" y="6.5" width="208.31" height="90.92" rx="12" ry="12"/><path class="cls-19" d="M48.99,52.63c0,1.72-.27,3.23-.8,4.51-.54,1.28-1.3,2.34-2.28,3.19-.99.84-2.19,1.47-3.6,1.9s-3.01.63-4.77.63c-.8,0-1.74-.03-2.81-.1-1.07-.07-2.12-.21-3.16-.42v-19.38c1.03-.19,2.11-.32,3.23-.39,1.12-.07,2.08-.1,2.89-.1,1.7,0,3.25.19,4.64.57s2.58.99,3.57,1.81c1,.82,1.76,1.88,2.3,3.16.54,1.28.8,2.82.8,4.62ZM36.04,58.94c.21.02.45.03.73.04.28,0,.61.01.99.01,2.24,0,3.9-.56,4.98-1.69,1.08-1.13,1.62-2.69,1.62-4.68s-.52-3.67-1.55-4.74c-1.03-1.07-2.67-1.61-4.91-1.61-.31,0-.62,0-.95.01-.33,0-.63.03-.92.07v12.58Z"/><path class="cls-19" d="M51.72,55.15c0-1.34.21-2.51.62-3.52s.95-1.84,1.62-2.51c.67-.67,1.44-1.18,2.31-1.52s1.77-.52,2.68-.52c2.14,0,3.84.66,5.08,1.97,1.24,1.31,1.87,3.24,1.87,5.79,0,.25,0,.52-.03.82s-.04.56-.06.79h-9.7c.1.88.51,1.58,1.23,2.1.73.52,1.7.78,2.93.78.78,0,1.56-.07,2.31-.21.76-.14,1.37-.32,1.85-.53l.57,3.47c-.23.12-.54.23-.92.34-.38.12-.81.22-1.28.3-.47.09-.97.16-1.51.21-.54.06-1.07.09-1.61.09-1.36,0-2.54-.2-3.55-.6-1-.4-1.84-.95-2.5-1.65-.66-.7-1.15-1.53-1.46-2.48-.32-.96-.47-1.99-.47-3.1ZM61.77,53.52c-.02-.36-.08-.72-.19-1.06-.11-.34-.27-.65-.49-.92-.22-.27-.5-.49-.83-.66-.34-.17-.75-.26-1.25-.26s-.89.08-1.23.24c-.34.16-.63.38-.86.65-.23.27-.41.58-.53.93s-.22.71-.27,1.08h5.66Z"/><path class="cls-19" d="M83.25,55.04c0,1.17-.14,2.23-.43,3.19s-.71,1.78-1.26,2.47c-.56.69-1.24,1.22-2.07,1.61-.82.38-1.77.57-2.84.57-.59,0-1.15-.06-1.67-.17-.52-.12-1.01-.28-1.49-.49v5.68h-4.28v-19.9c.38-.11.82-.22,1.32-.33.5-.1,1.02-.2,1.56-.27.55-.08,1.1-.14,1.67-.19.56-.05,1.11-.07,1.62-.07,1.24,0,2.35.19,3.33.56.98.37,1.8.9,2.47,1.58s1.18,1.51,1.54,2.48c.35.98.53,2.07.53,3.27ZM78.88,55.15c0-1.32-.3-2.38-.89-3.17-.59-.79-1.47-1.19-2.64-1.19-.38,0-.74.01-1.06.04-.33.03-.59.06-.8.1v7.72c.27.17.62.32,1.05.43s.87.17,1.31.17c2.03,0,3.04-1.37,3.04-4.11Z"/><path class="cls-19" d="M92.58,62.88c-1.24-.02-2.25-.15-3.03-.4-.78-.25-1.39-.6-1.84-1.05-.45-.45-.76-1-.92-1.64-.16-.64-.24-1.36-.24-2.17v-16.62l4.28-.69v16.45c0,.38.03.73.09,1.03.06.31.17.56.33.78s.4.38.7.52c.31.13.72.22,1.23.26l-.6,3.53Z"/><path class="cls-19" d="M109.75,55.01c0,1.19-.17,2.27-.52,3.26-.34.99-.84,1.83-1.49,2.53-.65.7-1.43,1.24-2.34,1.62-.91.38-1.93.57-3.06.57s-2.12-.19-3.03-.57c-.91-.38-1.69-.92-2.34-1.62-.65-.7-1.16-1.54-1.52-2.53-.36-.99-.55-2.07-.55-3.26s.19-2.27.56-3.24c.37-.98.89-1.81,1.55-2.5s1.44-1.22,2.35-1.61c.91-.38,1.9-.57,2.97-.57s2.09.19,3,.57c.91.38,1.69.92,2.34,1.61.65.69,1.16,1.52,1.52,2.5.36.98.55,2.06.55,3.24ZM105.38,55.01c0-1.32-.26-2.36-.79-3.12-.53-.76-1.28-1.13-2.25-1.13s-1.73.38-2.27,1.13c-.54.76-.8,1.79-.8,3.12s.27,2.37.8,3.14c.54.77,1.29,1.16,2.27,1.16s1.73-.39,2.25-1.16c.53-.78.79-1.82.79-3.14Z"/><path class="cls-19" d="M126.08,47.49c-.86,2.91-1.77,5.64-2.71,8.18-.94,2.55-1.97,5.02-3.08,7.41-.4.86-.81,1.59-1.21,2.2-.4.6-.84,1.1-1.32,1.49-.48.39-1.02.68-1.62.86-.6.18-1.31.27-2.11.27-.67,0-1.29-.06-1.85-.19-.57-.12-1.03-.26-1.39-.42l.75-3.42c.44.15.83.26,1.18.32.34.06.71.09,1.09.09.77,0,1.35-.21,1.77-.62.41-.41.76-.98,1.05-1.71-.98-1.91-1.95-4.06-2.93-6.45-.98-2.38-1.9-5.06-2.76-8.03h4.54c.19.75.42,1.56.68,2.43.26.87.53,1.75.82,2.64.29.89.58,1.76.88,2.6.3.84.58,1.61.85,2.3.25-.69.51-1.45.78-2.3.27-.84.53-1.71.79-2.6.26-.89.51-1.77.75-2.64.24-.87.46-1.68.65-2.43h4.42Z"/><path class="cls-19" d="M136.65,54.58c0-1.38-.18-2.35-.53-2.93-.35-.57-.96-.86-1.82-.86-.27,0-.55.01-.83.04-.29.03-.56.06-.83.1v11.66h-4.28v-14.59c.36-.1.79-.2,1.28-.3.49-.11,1-.2,1.55-.29.55-.09,1.11-.15,1.68-.2s1.14-.07,1.69-.07c1.09,0,1.98.14,2.66.42.68.28,1.24.61,1.68.99.61-.44,1.32-.79,2.11-1.03.79-.25,1.53-.37,2.2-.37,1.21,0,2.2.17,2.97.5.77.33,1.39.81,1.85,1.42.46.61.78,1.34.95,2.18.17.84.26,1.78.26,2.81v8.53h-4.28v-8.01c0-1.38-.18-2.35-.53-2.93-.35-.57-.96-.86-1.82-.86-.23,0-.55.06-.96.17-.41.11-.75.26-1.02.43.13.44.22.9.26,1.39.04.49.06,1.01.06,1.56v8.24h-4.28v-8.01Z"/><path class="cls-19" d="M152.38,55.15c0-1.34.21-2.51.62-3.52s.95-1.84,1.62-2.51c.67-.67,1.44-1.18,2.31-1.52s1.77-.52,2.68-.52c2.14,0,3.84.66,5.08,1.97,1.24,1.31,1.87,3.24,1.87,5.79,0,.25,0,.52-.03.82s-.04.56-.06.79h-9.7c.1.88.51,1.58,1.23,2.1.73.52,1.7.78,2.93.78.78,0,1.56-.07,2.31-.21.76-.14,1.37-.32,1.85-.53l.57,3.47c-.23.12-.54.23-.92.34-.38.12-.81.22-1.28.3-.47.09-.97.16-1.51.21-.54.06-1.07.09-1.61.09-1.36,0-2.54-.2-3.55-.6-1-.4-1.84-.95-2.5-1.65-.66-.7-1.15-1.53-1.46-2.48-.32-.96-.47-1.99-.47-3.1ZM162.43,53.52c-.02-.36-.08-.72-.19-1.06-.11-.34-.27-.65-.49-.92-.22-.27-.5-.49-.83-.66-.34-.17-.75-.26-1.25-.26s-.89.08-1.23.24c-.34.16-.63.38-.86.65-.23.27-.41.58-.53.93s-.22.71-.27,1.08h5.66Z"/><path class="cls-19" d="M169.87,48c.73-.21,1.67-.41,2.81-.59s2.35-.27,3.62-.27,2.35.17,3.2.5c.85.33,1.53.81,2.02,1.42.5.61.85,1.34,1.06,2.18.21.84.32,1.78.32,2.81v8.53h-4.28v-8.01c0-1.38-.18-2.35-.55-2.93-.36-.57-1.04-.86-2.04-.86-.31,0-.63.01-.98.04-.34.03-.65.06-.92.1v11.66h-4.28v-14.59Z"/><path class="cls-19" d="M186.64,43.73l4.28-.69v4.45h5.14v3.56h-5.14v5.31c0,.9.16,1.62.47,2.15.32.54.95.8,1.91.8.46,0,.93-.04,1.42-.13.49-.09.93-.21,1.33-.36l.6,3.33c-.52.21-1.09.39-1.72.55-.63.15-1.41.23-2.33.23-1.17,0-2.13-.16-2.9-.47-.77-.32-1.38-.76-1.84-1.32-.46-.56-.78-1.25-.96-2.05-.18-.8-.27-1.69-.27-2.67v-12.69Z"/><rect class="cls-6" x="9.24" y="103.66" width="208.31" height="90.92" rx="12" ry="12"/><path class="cls-19" d="M48.69,139.62c2.99,0,5.27.53,6.86,1.59,1.59,1.06,2.38,2.71,2.38,4.95,0,1.4-.32,2.53-.96,3.4-.64.87-1.56,1.56-2.77,2.05.4.5.82,1.07,1.26,1.71.44.64.88,1.31,1.31,2.01.43.7.85,1.43,1.25,2.18.4.76.77,1.5,1.12,2.23h-5.01c-.37-.65-.74-1.31-1.11-1.98-.37-.67-.76-1.32-1.15-1.95s-.78-1.23-1.17-1.79-.77-1.08-1.15-1.54h-2.21v7.26h-4.48v-19.61c.98-.19,1.99-.33,3.03-.4,1.04-.08,1.98-.12,2.8-.12ZM48.95,143.44c-.33,0-.62,0-.88.03-.26.02-.5.04-.73.06v5.4h1.26c1.68,0,2.89-.21,3.62-.63.73-.42,1.09-1.14,1.09-2.15s-.37-1.67-1.11-2.08c-.74-.41-1.82-.62-3.26-.62Z"/><path class="cls-19" d="M60.29,152.31c0-1.34.21-2.51.62-3.52s.95-1.84,1.62-2.51c.67-.67,1.44-1.18,2.31-1.52s1.77-.52,2.68-.52c2.14,0,3.84.66,5.08,1.97,1.24,1.31,1.87,3.24,1.87,5.79,0,.25,0,.52-.03.82s-.04.56-.06.79h-9.7c.1.88.51,1.58,1.23,2.1.73.52,1.7.78,2.93.78.78,0,1.56-.07,2.31-.21.76-.14,1.37-.32,1.85-.53l.57,3.47c-.23.12-.54.23-.92.34-.38.12-.81.22-1.28.3-.47.09-.97.16-1.51.21-.54.06-1.07.09-1.61.09-1.36,0-2.54-.2-3.55-.6-1-.4-1.84-.95-2.5-1.65-.66-.7-1.15-1.53-1.46-2.48-.32-.96-.47-1.99-.47-3.1ZM70.34,150.67c-.02-.36-.08-.72-.19-1.06-.11-.34-.27-.65-.49-.92-.22-.27-.5-.49-.83-.66-.34-.17-.75-.26-1.25-.26s-.89.08-1.23.24c-.34.16-.63.38-.86.65-.23.27-.41.58-.53.93s-.22.71-.27,1.08h5.66Z"/><path class="cls-19" d="M91.82,152.19c0,1.17-.14,2.23-.43,3.19s-.71,1.78-1.26,2.47c-.56.69-1.24,1.22-2.07,1.61-.82.38-1.77.57-2.84.57-.59,0-1.15-.06-1.67-.17-.52-.12-1.01-.28-1.49-.49v5.68h-4.28v-19.9c.38-.11.82-.22,1.32-.33.5-.1,1.02-.2,1.56-.27.55-.08,1.1-.14,1.67-.19.56-.05,1.11-.07,1.62-.07,1.24,0,2.35.19,3.33.56.98.37,1.8.9,2.47,1.58s1.18,1.51,1.54,2.48c.35.98.53,2.07.53,3.27ZM87.45,152.31c0-1.32-.3-2.38-.89-3.17-.59-.79-1.47-1.19-2.64-1.19-.38,0-.74.01-1.06.04-.33.03-.59.06-.8.1v7.72c.27.17.62.32,1.05.43s.87.17,1.31.17c2.03,0,3.04-1.37,3.04-4.11Z"/><path class="cls-19" d="M101.15,160.03c-1.24-.02-2.25-.15-3.03-.4-.78-.25-1.39-.6-1.84-1.05-.45-.45-.76-1-.92-1.64-.16-.64-.24-1.36-.24-2.17v-16.62l4.28-.69v16.45c0,.38.03.73.09,1.03.06.31.17.56.33.78s.4.38.7.52c.31.13.72.22,1.23.26l-.6,3.53Z"/><path class="cls-19" d="M108.87,140.28c0,.79-.25,1.4-.76,1.85-.51.45-1.11.67-1.79.67s-1.29-.22-1.79-.67c-.51-.45-.76-1.07-.76-1.85s.25-1.4.76-1.85c.51-.45,1.11-.67,1.79-.67s1.29.23,1.79.67c.51.45.76,1.07.76,1.85ZM108.47,159.74h-4.28v-15.1h4.28v15.1Z"/><path class="cls-19" d="M111.77,152.19c0-1.09.18-2.12.53-3.09.35-.97.87-1.81,1.54-2.53.67-.72,1.48-1.29,2.44-1.71.96-.42,2.05-.63,3.27-.63.8,0,1.54.07,2.21.21.67.14,1.32.35,1.95.62l-.89,3.42c-.4-.15-.84-.29-1.32-.4-.48-.11-1.01-.17-1.61-.17-1.26,0-2.21.39-2.83,1.18-.62.79-.93,1.82-.93,3.1,0,1.36.29,2.41.88,3.16.58.75,1.6,1.12,3.06,1.12.52,0,1.07-.05,1.67-.14.59-.1,1.14-.25,1.64-.46l.6,3.5c-.5.21-1.12.39-1.87.54s-1.57.23-2.47.23c-1.38,0-2.57-.21-3.56-.62-1-.41-1.81-.97-2.45-1.68-.64-.71-1.11-1.55-1.41-2.51-.3-.97-.45-2.01-.45-3.14Z"/><path class="cls-19" d="M131.55,144.24c1.26,0,2.32.14,3.16.43.84.29,1.52.7,2.02,1.23s.87,1.19,1.08,1.95.32,1.62.32,2.56v8.9c-.61.13-1.46.29-2.56.47-1.09.18-2.41.27-3.96.27-.98,0-1.86-.09-2.66-.26-.79-.17-1.48-.46-2.05-.85-.57-.39-1.02-.9-1.32-1.54-.31-.63-.46-1.41-.46-2.33s.18-1.63.53-2.24c.35-.61.83-1.1,1.42-1.46.59-.36,1.27-.63,2.04-.79.77-.16,1.56-.24,2.38-.24.56,0,1.05.02,1.48.07.43.05.78.11,1.05.19v-.4c0-.73-.22-1.31-.66-1.75-.44-.44-1.21-.66-2.3-.66-.73,0-1.45.05-2.15.16-.71.11-1.32.25-1.84.45l-.55-3.45c.25-.08.56-.16.93-.24.37-.09.78-.16,1.22-.23.44-.07.9-.12,1.39-.17.49-.05.98-.07,1.48-.07ZM131.9,156.76c.42,0,.82,0,1.21-.03.38-.02.69-.05.92-.09v-3.25c-.17-.04-.43-.08-.78-.11s-.66-.06-.95-.06c-.4,0-.78.02-1.13.07-.35.05-.67.14-.93.27-.27.13-.48.32-.63.54-.15.23-.23.52-.23.86,0,.67.22,1.13.67,1.39.45.26,1.07.39,1.85.39Z"/><path class="cls-19" d="M147.72,156.33c.63,0,1.15-.05,1.56-.16.41-.11.74-.25.99-.43.25-.18.42-.4.52-.65.1-.25.14-.53.14-.83,0-.65-.31-1.19-.92-1.62-.61-.43-1.67-.89-3.16-1.39-.65-.23-1.3-.49-1.95-.79-.65-.3-1.23-.67-1.75-1.12-.52-.45-.94-1-1.26-1.64-.33-.64-.49-1.42-.49-2.34s.17-1.75.52-2.48c.34-.74.83-1.36,1.46-1.88.63-.52,1.4-.91,2.3-1.19.9-.28,1.91-.42,3.04-.42,1.34,0,2.5.14,3.47.43s1.78.6,2.41.95l-1.29,3.53c-.56-.29-1.17-.54-1.85-.76-.68-.22-1.5-.33-2.45-.33-1.07,0-1.84.15-2.31.45-.47.3-.7.75-.7,1.36,0,.36.09.67.26.92.17.25.42.47.73.67s.68.38,1.09.55c.41.16.87.33,1.36.5,1.03.38,1.93.76,2.7,1.13.77.37,1.4.81,1.91,1.31.51.5.89,1.08,1.13,1.75.25.67.37,1.48.37,2.44,0,1.86-.65,3.3-1.95,4.32-1.3,1.02-3.26,1.54-5.89,1.54-.88,0-1.68-.05-2.38-.16-.71-.11-1.33-.23-1.88-.39-.55-.15-1.02-.32-1.41-.49-.39-.17-.72-.33-.99-.49l1.26-3.56c.59.33,1.33.62,2.2.88.87.26,1.94.39,3.2.39Z"/><path class="cls-19" d="M158,152.31c0-1.34.21-2.51.62-3.52s.95-1.84,1.62-2.51c.67-.67,1.44-1.18,2.31-1.52s1.77-.52,2.68-.52c2.14,0,3.84.66,5.08,1.97,1.24,1.31,1.87,3.24,1.87,5.79,0,.25,0,.52-.03.82s-.04.56-.06.79h-9.7c.1.88.51,1.58,1.23,2.1.73.52,1.7.78,2.93.78.78,0,1.56-.07,2.31-.21.76-.14,1.37-.32,1.85-.53l.57,3.47c-.23.12-.54.23-.92.34-.38.12-.81.22-1.28.3-.47.09-.97.16-1.51.21-.54.06-1.07.09-1.61.09-1.36,0-2.54-.2-3.55-.6-1-.4-1.84-.95-2.5-1.65-.66-.7-1.15-1.53-1.46-2.48-.32-.96-.47-1.99-.47-3.1ZM168.04,150.67c-.02-.36-.08-.72-.19-1.06-.11-.34-.27-.65-.49-.92-.22-.27-.5-.49-.83-.66-.34-.17-.75-.26-1.25-.26s-.89.08-1.23.24c-.34.16-.63.38-.86.65-.23.27-.41.58-.53.93s-.22.71-.27,1.08h5.66Z"/><path class="cls-19" d="M175.34,140.88l4.28-.69v4.45h5.14v3.56h-5.14v5.31c0,.9.16,1.62.47,2.15.32.54.95.8,1.91.8.46,0,.93-.04,1.42-.13.49-.09.93-.21,1.33-.36l.6,3.33c-.52.21-1.09.39-1.72.55-.63.15-1.41.23-2.33.23-1.17,0-2.13-.16-2.9-.47-.77-.32-1.38-.76-1.84-1.32-.46-.56-.78-1.25-.96-2.05-.18-.8-.27-1.69-.27-2.67v-12.69Z"/><rect class="cls-6" x="9.24" y="200.81" width="208.31" height="90.92" rx="12" ry="12"/><path class="cls-19" d="M88.28,236.77c2.97,0,5.24.52,6.83,1.56,1.59,1.04,2.38,2.75,2.38,5.12s-.8,4.12-2.41,5.18-3.9,1.59-6.89,1.59h-1.41v6.66h-4.48v-19.61c.98-.19,2.01-.33,3.1-.4,1.09-.08,2.05-.12,2.87-.12ZM88.57,240.59c-.33,0-.65,0-.96.03-.32.02-.59.04-.82.06v5.74h1.41c1.55,0,2.72-.21,3.5-.63.78-.42,1.18-1.21,1.18-2.35,0-.55-.1-1.01-.3-1.38-.2-.36-.49-.66-.86-.88-.37-.22-.83-.37-1.36-.46-.54-.09-1.13-.13-1.78-.13Z"/><path class="cls-19" d="M114.21,249.32c0,1.19-.17,2.27-.52,3.26-.34.99-.84,1.83-1.49,2.53-.65.7-1.43,1.24-2.34,1.62-.91.38-1.93.57-3.06.57s-2.12-.19-3.03-.57c-.91-.38-1.69-.92-2.34-1.62-.65-.7-1.16-1.54-1.52-2.53-.36-.99-.55-2.07-.55-3.26s.19-2.27.56-3.24c.37-.98.89-1.81,1.55-2.5s1.44-1.22,2.35-1.61c.91-.38,1.9-.57,2.97-.57s2.09.19,3,.57c.91.38,1.69.92,2.34,1.61.65.69,1.16,1.52,1.52,2.5.36.98.55,2.06.55,3.24ZM109.85,249.32c0-1.32-.26-2.36-.79-3.12-.53-.76-1.28-1.13-2.25-1.13s-1.73.38-2.27,1.13c-.54.76-.8,1.79-.8,3.12s.27,2.37.8,3.14c.54.77,1.29,1.16,2.27,1.16s1.73-.39,2.25-1.16c.53-.78.79-1.82.79-3.14Z"/><path class="cls-19" d="M130.83,256.41c-.38.12-.82.23-1.32.33-.5.11-1.02.2-1.56.27-.55.08-1.1.14-1.67.19-.56.05-1.11.07-1.62.07-1.24,0-2.35-.18-3.33-.54-.98-.36-1.8-.89-2.47-1.57-.67-.68-1.18-1.5-1.54-2.47-.35-.97-.53-2.05-.53-3.26s.15-2.33.46-3.32c.31-.99.75-1.82,1.32-2.51.57-.69,1.28-1.21,2.11-1.58.83-.36,1.78-.54,2.86-.54.59,0,1.12.06,1.59.17.47.12.94.28,1.42.49v-6.83l4.28-.69v21.79ZM121.16,249.23c0,1.32.3,2.38.89,3.19.59.8,1.47,1.21,2.64,1.21.38,0,.74-.01,1.06-.04.33-.03.59-.06.8-.1v-7.78c-.27-.17-.62-.32-1.05-.43-.43-.12-.87-.17-1.31-.17-2.03,0-3.04,1.38-3.04,4.13Z"/><path class="cls-19" d="M139.19,253.83c.78,0,1.34-.08,1.67-.23.33-.15.49-.45.49-.89,0-.34-.21-.65-.63-.9-.42-.26-1.06-.55-1.92-.88-.67-.25-1.28-.51-1.82-.78-.55-.27-1.01-.59-1.39-.96s-.68-.82-.89-1.33c-.21-.52-.32-1.14-.32-1.87,0-1.42.53-2.54,1.58-3.36,1.05-.82,2.5-1.23,4.34-1.23.92,0,1.8.08,2.64.24.84.16,1.51.34,2.01.53l-.75,3.33c-.5-.17-1.04-.33-1.62-.46-.58-.13-1.24-.2-1.97-.2-1.34,0-2.01.37-2.01,1.12,0,.17.03.33.09.46.06.13.17.26.34.39.17.12.41.26.7.4.3.14.67.3,1.13.48.94.35,1.71.69,2.33,1.03.61.34,1.1.7,1.45,1.09.35.39.6.83.75,1.3s.22,1.03.22,1.66c0,1.49-.56,2.62-1.68,3.38s-2.7,1.15-4.75,1.15c-1.34,0-2.45-.12-3.34-.34s-1.51-.42-1.85-.57l.72-3.47c.73.29,1.47.51,2.24.67.77.16,1.52.24,2.27.24Z"/><rect class="cls-6" x="225.38" y="200.81" width="208.31" height="90.92" rx="12" ry="12"/><rect class="cls-6" x="716.44" y="60.85" width="372.91" height="292.24" rx="12" ry="12"/><path class="cls-19" d="M286.77,253.48c.63,0,1.15-.05,1.56-.16s.74-.25.99-.43c.25-.18.42-.4.52-.65.1-.25.14-.53.14-.83,0-.65-.31-1.19-.92-1.62-.61-.43-1.67-.89-3.16-1.39-.65-.23-1.3-.49-1.95-.79-.65-.3-1.23-.67-1.75-1.12-.52-.45-.94-1-1.26-1.64-.33-.64-.49-1.42-.49-2.34s.17-1.75.52-2.48c.34-.74.83-1.36,1.46-1.88.63-.52,1.4-.91,2.3-1.19.9-.28,1.91-.42,3.04-.42,1.34,0,2.5.14,3.47.43s1.78.6,2.41.95l-1.29,3.53c-.56-.29-1.17-.54-1.85-.76-.68-.22-1.5-.33-2.45-.33-1.07,0-1.84.15-2.31.45-.47.3-.7.75-.7,1.36,0,.36.09.67.26.92.17.25.42.47.73.67s.68.38,1.09.55c.41.16.87.33,1.36.5,1.03.38,1.93.76,2.7,1.13.77.37,1.4.81,1.91,1.31.51.5.89,1.08,1.13,1.75.25.67.37,1.48.37,2.44,0,1.86-.65,3.3-1.95,4.32-1.3,1.02-3.26,1.54-5.89,1.54-.88,0-1.68-.05-2.38-.16-.71-.11-1.33-.23-1.88-.39-.55-.15-1.02-.32-1.41-.49-.39-.17-.72-.33-.99-.49l1.26-3.56c.59.33,1.33.62,2.2.88.87.26,1.94.39,3.2.39Z"/><path class="cls-19" d="M297.05,249.46c0-1.34.21-2.51.62-3.52s.95-1.84,1.62-2.51c.67-.67,1.44-1.18,2.31-1.52s1.77-.52,2.68-.52c2.14,0,3.84.66,5.08,1.97,1.24,1.31,1.87,3.24,1.87,5.79,0,.25,0,.52-.03.82s-.04.56-.06.79h-9.7c.1.88.51,1.58,1.23,2.1.73.52,1.7.78,2.93.78.78,0,1.56-.07,2.31-.21.76-.14,1.37-.32,1.85-.53l.57,3.47c-.23.12-.54.23-.92.34-.38.12-.81.22-1.28.3-.47.09-.97.16-1.51.21-.54.06-1.07.09-1.61.09-1.36,0-2.54-.2-3.55-.6-1-.4-1.84-.95-2.5-1.65-.66-.7-1.15-1.53-1.46-2.48-.32-.96-.47-1.99-.47-3.1ZM307.1,247.82c-.02-.36-.08-.72-.19-1.06-.11-.34-.27-.65-.49-.92-.22-.27-.5-.49-.83-.66-.34-.17-.75-.26-1.25-.26s-.89.08-1.23.24c-.34.16-.63.38-.86.65-.23.27-.41.58-.53.93s-.22.71-.27,1.08h5.66Z"/><path class="cls-19" d="M323.63,245.59c-.38-.1-.83-.2-1.35-.3-.52-.1-1.07-.16-1.67-.16-.27,0-.59.02-.96.07-.37.05-.66.1-.85.16v11.54h-4.28v-14.3c.77-.27,1.67-.52,2.71-.76,1.04-.24,2.21-.36,3.49-.36.23,0,.51.01.83.04.33.03.65.07.98.11.33.05.65.11.98.17.33.07.6.15.83.24l-.72,3.53Z"/><path class="cls-19" d="M331.67,256.9c-.98-1.91-1.97-4.15-2.98-6.72-1.01-2.56-1.96-5.36-2.87-8.38h4.54c.19.75.42,1.56.68,2.43.26.87.53,1.75.81,2.64.28.89.56,1.76.84,2.6.28.84.55,1.61.82,2.3.25-.69.52-1.45.81-2.3.29-.84.57-1.71.85-2.6.28-.89.55-1.77.81-2.64.26-.87.49-1.68.68-2.43h4.42c-.9,3.02-1.86,5.82-2.87,8.38-1.01,2.57-2,4.8-2.98,6.72h-3.55Z"/><path class="cls-19" d="M348.01,237.43c0,.79-.25,1.4-.76,1.85-.51.45-1.11.67-1.79.67s-1.29-.22-1.79-.67c-.51-.45-.76-1.07-.76-1.85s.25-1.4.76-1.85c.51-.45,1.11-.67,1.79-.67s1.29.23,1.79.67c.51.45.76,1.07.76,1.85ZM347.61,256.9h-4.28v-15.1h4.28v15.1Z"/><path class="cls-19" d="M350.91,249.35c0-1.09.18-2.12.53-3.09.35-.97.87-1.81,1.54-2.53.67-.72,1.48-1.29,2.44-1.71.96-.42,2.05-.63,3.27-.63.8,0,1.54.07,2.21.21.67.14,1.32.35,1.95.62l-.89,3.42c-.4-.15-.84-.29-1.32-.4-.48-.11-1.01-.17-1.61-.17-1.26,0-2.21.39-2.83,1.18-.62.79-.93,1.82-.93,3.1,0,1.36.29,2.41.88,3.16.58.75,1.6,1.12,3.06,1.12.52,0,1.07-.05,1.67-.14.59-.1,1.14-.25,1.64-.46l.6,3.5c-.5.21-1.12.39-1.87.54s-1.57.23-2.47.23c-1.38,0-2.57-.21-3.56-.62-1-.41-1.81-.97-2.45-1.68-.64-.71-1.11-1.55-1.41-2.51-.3-.97-.45-2.01-.45-3.14Z"/><path class="cls-19" d="M364.55,249.46c0-1.34.21-2.51.62-3.52s.95-1.84,1.62-2.51c.67-.67,1.44-1.18,2.31-1.52s1.77-.52,2.68-.52c2.14,0,3.84.66,5.08,1.97,1.24,1.31,1.87,3.24,1.87,5.79,0,.25,0,.52-.03.82s-.04.56-.06.79h-9.7c.1.88.51,1.58,1.23,2.1.73.52,1.7.78,2.93.78.78,0,1.56-.07,2.31-.21.76-.14,1.37-.32,1.85-.53l.57,3.47c-.23.12-.54.23-.92.34-.38.12-.81.22-1.28.3-.47.09-.97.16-1.51.21-.54.06-1.07.09-1.61.09-1.36,0-2.54-.2-3.55-.6-1-.4-1.84-.95-2.5-1.65-.66-.7-1.15-1.53-1.46-2.48-.32-.96-.47-1.99-.47-3.1ZM374.6,247.82c-.02-.36-.08-.72-.19-1.06-.11-.34-.27-.65-.49-.92-.22-.27-.5-.49-.83-.66-.34-.17-.75-.26-1.25-.26s-.89.08-1.23.24c-.34.16-.63.38-.86.65-.23.27-.41.58-.53.93s-.22.71-.27,1.08h5.66Z"/><rect class="cls-6" x="9.24" y="297.97" width="208.31" height="90.92" rx="12" ry="12"/><path class="cls-19" d="M50.43,354.45c-3.24,0-5.7-.9-7.39-2.7-1.69-1.8-2.54-4.35-2.54-7.67,0-1.65.26-3.12.78-4.41.52-1.29,1.22-2.38,2.12-3.27.9-.89,1.97-1.56,3.22-2.02,1.24-.46,2.59-.69,4.05-.69.84,0,1.61.06,2.3.19.69.12,1.29.27,1.81.43.52.16.95.33,1.29.5.34.17.59.31.75.4l-1.29,3.62c-.61-.33-1.33-.6-2.14-.83-.81-.23-1.74-.34-2.77-.34-.69,0-1.36.12-2.02.34-.66.23-1.24.6-1.75,1.11-.51.51-.91,1.16-1.22,1.97-.31.8-.46,1.78-.46,2.93,0,.92.1,1.78.3,2.57.2.79.53,1.48.98,2.05.45.57,1.04,1.03,1.77,1.36.73.33,1.61.5,2.64.5.65,0,1.23-.04,1.75-.11.52-.08.98-.17,1.38-.27.4-.1.76-.22,1.06-.36.31-.13.58-.26.83-.37l1.23,3.59c-.63.38-1.52.73-2.67,1.03-1.15.31-2.48.46-3.99.46Z"/><path class="cls-19" d="M73.46,346.47c0,1.19-.17,2.27-.52,3.26-.34.99-.84,1.83-1.49,2.53-.65.7-1.43,1.24-2.34,1.62-.91.38-1.93.57-3.06.57s-2.12-.19-3.03-.57c-.91-.38-1.69-.92-2.34-1.62-.65-.7-1.16-1.54-1.52-2.53-.36-.99-.55-2.07-.55-3.26s.19-2.27.56-3.24c.37-.98.89-1.81,1.55-2.5s1.44-1.22,2.35-1.61c.91-.38,1.9-.57,2.97-.57s2.09.19,3,.57c.91.38,1.69.92,2.34,1.61.65.69,1.16,1.52,1.52,2.5.36.98.55,2.06.55,3.24ZM69.09,346.47c0-1.32-.26-2.36-.79-3.12-.53-.76-1.28-1.13-2.25-1.13s-1.73.38-2.27,1.13c-.54.76-.8,1.79-.8,3.12s.27,2.37.8,3.14c.54.77,1.29,1.16,2.27,1.16s1.73-.39,2.25-1.16c.53-.78.79-1.82.79-3.14Z"/><path class="cls-19" d="M76.76,339.47c.73-.21,1.67-.41,2.81-.59s2.35-.27,3.62-.27,2.35.17,3.2.5c.85.33,1.53.81,2.02,1.42.5.61.85,1.34,1.06,2.18.21.84.32,1.78.32,2.81v8.53h-4.28v-8.01c0-1.38-.18-2.35-.55-2.93s-1.04-.86-2.04-.86c-.31,0-.63.01-.98.04-.34.03-.65.06-.92.1v11.66h-4.28v-14.59Z"/><path class="cls-19" d="M93.52,335.19l4.28-.69v4.45h5.14v3.56h-5.14v5.31c0,.9.16,1.62.47,2.15.32.54.95.8,1.91.8.46,0,.93-.04,1.42-.13.49-.09.93-.21,1.33-.36l.6,3.33c-.52.21-1.09.39-1.72.55-.63.15-1.41.23-2.33.23-1.17,0-2.13-.16-2.9-.47-.77-.32-1.38-.76-1.84-1.32-.46-.56-.78-1.25-.96-2.05-.18-.8-.27-1.69-.27-2.67v-12.69Z"/><path class="cls-19" d="M111.27,338.55c1.26,0,2.32.14,3.16.43.84.29,1.52.7,2.02,1.23s.87,1.19,1.08,1.95.32,1.62.32,2.56v8.9c-.61.13-1.46.29-2.56.47-1.09.18-2.41.27-3.96.27-.98,0-1.86-.09-2.66-.26-.79-.17-1.48-.46-2.05-.85-.57-.39-1.02-.9-1.32-1.54-.31-.63-.46-1.41-.46-2.33s.18-1.63.53-2.24c.35-.61.83-1.1,1.42-1.46.59-.36,1.27-.63,2.04-.79.77-.16,1.56-.24,2.38-.24.56,0,1.05.02,1.48.07.43.05.78.11,1.05.19v-.4c0-.73-.22-1.31-.66-1.75-.44-.44-1.21-.66-2.3-.66-.73,0-1.45.05-2.15.16-.71.11-1.32.25-1.84.45l-.55-3.45c.25-.08.56-.16.93-.24.37-.09.78-.16,1.22-.23.44-.07.9-.12,1.39-.17.49-.05.98-.07,1.48-.07ZM111.61,351.07c.42,0,.82,0,1.21-.03.38-.02.69-.05.92-.09v-3.25c-.17-.04-.43-.08-.78-.11s-.66-.06-.95-.06c-.4,0-.78.02-1.13.07-.35.05-.67.14-.93.27-.27.13-.48.32-.63.54-.15.23-.23.52-.23.86,0,.67.22,1.13.67,1.39.45.26,1.07.39,1.85.39Z"/><path class="cls-19" d="M126.4,334.59c0,.79-.25,1.4-.76,1.85-.51.45-1.11.67-1.79.67s-1.29-.22-1.79-.67c-.51-.45-.76-1.07-.76-1.85s.25-1.4.76-1.85c.51-.45,1.11-.67,1.79-.67s1.29.23,1.79.67c.51.45.76,1.07.76,1.85ZM126,354.05h-4.28v-15.1h4.28v15.1Z"/><path class="cls-19" d="M130.02,339.47c.73-.21,1.67-.41,2.81-.59s2.35-.27,3.62-.27,2.35.17,3.2.5c.85.33,1.53.81,2.02,1.42.5.61.85,1.34,1.06,2.18.21.84.32,1.78.32,2.81v8.53h-4.28v-8.01c0-1.38-.18-2.35-.55-2.93s-1.04-.86-2.04-.86c-.31,0-.63.01-.98.04-.34.03-.65.06-.92.1v11.66h-4.28v-14.59Z"/><path class="cls-19" d="M146.21,346.62c0-1.34.21-2.51.62-3.52s.95-1.84,1.62-2.51c.67-.67,1.44-1.18,2.31-1.52s1.77-.52,2.68-.52c2.14,0,3.84.66,5.08,1.97,1.24,1.31,1.87,3.24,1.87,5.79,0,.25,0,.52-.03.82s-.04.56-.06.79h-9.7c.1.88.51,1.58,1.23,2.1.73.52,1.7.78,2.93.78.78,0,1.56-.07,2.31-.21.76-.14,1.37-.32,1.85-.53l.57,3.47c-.23.12-.54.23-.92.34-.38.12-.81.22-1.28.3-.47.09-.97.16-1.51.21-.54.06-1.07.09-1.61.09-1.36,0-2.54-.2-3.55-.6-1-.4-1.84-.95-2.5-1.65-.66-.7-1.15-1.53-1.46-2.48-.32-.96-.47-1.99-.47-3.1ZM156.26,344.98c-.02-.36-.08-.72-.19-1.06-.11-.34-.27-.65-.49-.92-.22-.27-.5-.49-.83-.66-.34-.17-.75-.26-1.25-.26s-.89.08-1.23.24c-.34.16-.63.38-.86.65-.23.27-.41.58-.53.93s-.22.71-.27,1.08h5.66Z"/><path class="cls-19" d="M172.8,342.74c-.38-.1-.83-.2-1.35-.3-.52-.1-1.07-.16-1.67-.16-.27,0-.59.02-.96.07-.37.05-.66.1-.85.16v11.54h-4.28v-14.3c.77-.27,1.67-.52,2.71-.76,1.04-.24,2.21-.36,3.49-.36.23,0,.51.01.83.04.33.03.65.07.98.11.33.05.65.11.98.17.33.07.6.15.83.24l-.72,3.53Z"/><path class="cls-19" d="M180.15,350.98c.78,0,1.34-.08,1.67-.23.33-.15.49-.45.49-.89,0-.34-.21-.65-.63-.9-.42-.26-1.06-.55-1.92-.88-.67-.25-1.28-.51-1.82-.78-.55-.27-1.01-.59-1.39-.96s-.68-.82-.89-1.33c-.21-.52-.32-1.14-.32-1.87,0-1.42.53-2.54,1.58-3.36,1.05-.82,2.5-1.23,4.34-1.23.92,0,1.8.08,2.64.24.84.16,1.51.34,2.01.53l-.75,3.33c-.5-.17-1.04-.33-1.62-.46-.58-.13-1.24-.2-1.97-.2-1.34,0-2.01.37-2.01,1.12,0,.17.03.33.09.46.06.13.17.26.34.39.17.12.41.26.7.4.3.14.67.3,1.13.48.94.35,1.71.69,2.33,1.03.61.34,1.1.7,1.45,1.09.35.39.6.83.75,1.3s.22,1.03.22,1.66c0,1.49-.56,2.62-1.68,3.38s-2.7,1.15-4.75,1.15c-1.34,0-2.45-.12-3.34-.34s-1.51-.42-1.85-.57l.72-3.47c.73.29,1.47.51,2.24.67.77.16,1.52.24,2.27.24Z"/><g id="arrow_styles_for_diagrams_etc"><g id="arrow_styles_for_diagrams_etc-2"><path class="cls-4" d="M422.51,245.23l27.48-15.8c.81-.46,1.83.12,1.83,1.06v8.15s275.35,0,275.35,0c2.43,0,4.41,1.97,4.41,4.41v6.47c0,2.43-1.97,4.4-4.4,4.4h-275.37s0,8.15,0,8.15c0,.94-1.01,1.52-1.83,1.06l-27.48-15.8c-.81-.46-.81-1.63,0-2.09Z"/></g></g><rect class="cls-6" x="520.91" y="219.91" width="120.79" height="52.72" rx="12" ry="12"/><path class="cls-19" d="M564.62,240.3v2.28h-3.58v9.59h-2.67v-9.59h-3.58v-2.28h9.83Z"/><path class="cls-19" d="M570.41,245.42c-.23-.06-.5-.12-.8-.18-.31-.06-.64-.09-.99-.09-.16,0-.35.01-.57.04-.22.03-.39.06-.5.09v6.88h-2.55v-8.52c.46-.16,1-.31,1.62-.45s1.32-.21,2.08-.21c.14,0,.3,0,.5.03.19.02.39.04.58.07s.39.06.58.1.36.09.5.15l-.43,2.11Z"/><path class="cls-19" d="M575.27,242.92c.75,0,1.38.09,1.88.26.5.17.9.42,1.21.74.3.32.52.71.64,1.16.12.46.19.96.19,1.52v5.31c-.37.08-.87.17-1.52.28s-1.44.16-2.36.16c-.58,0-1.11-.05-1.58-.15s-.88-.27-1.22-.5c-.34-.23-.6-.54-.79-.92-.18-.38-.27-.84-.27-1.39s.11-.97.32-1.33c.21-.37.49-.66.85-.87.35-.22.76-.37,1.22-.47.46-.1.93-.15,1.42-.15.33,0,.62.01.88.04.26.03.46.07.62.11v-.24c0-.43-.13-.78-.39-1.04s-.72-.39-1.37-.39c-.43,0-.86.03-1.28.09s-.79.15-1.1.27l-.33-2.05c.15-.04.33-.09.56-.15.22-.05.46-.1.73-.14.26-.04.54-.07.83-.1s.58-.04.88-.04ZM575.47,250.38c.25,0,.49,0,.72-.02.23-.01.41-.03.55-.05v-1.93c-.1-.02-.26-.04-.46-.07-.21-.02-.39-.03-.57-.03-.24,0-.46.01-.68.04s-.4.08-.56.16c-.16.08-.29.19-.38.33-.09.14-.14.31-.14.51,0,.4.13.68.4.83.27.15.64.23,1.1.23Z"/><path class="cls-19" d="M585.4,238.88c.48,0,.92.05,1.32.15.4.1.71.19.92.28l-.5,2.04c-.23-.1-.48-.18-.74-.23-.27-.05-.52-.08-.75-.08-.31,0-.57.04-.78.13-.21.09-.38.2-.5.35-.12.15-.21.33-.26.53-.05.21-.08.43-.08.67v.44h3.15v2.12h-3.15v6.88h-2.55v-9.48c0-1.16.33-2.09.98-2.77s1.63-1.03,2.92-1.03ZM592.57,238.88c.48,0,.88.04,1.19.12.31.08.58.17.8.26l-.45,2c-.18-.08-.38-.14-.61-.17-.22-.04-.45-.05-.68-.05-.31,0-.57.04-.78.13-.21.09-.38.2-.5.35-.12.15-.21.33-.26.53-.05.21-.08.43-.08.67v.44h3.15v2.12h-3.15v6.88h-2.55v-9.48c0-1.16.33-2.09.98-2.77s1.63-1.03,2.92-1.03ZM598.63,240.56c0,.47-.15.84-.45,1.1-.3.27-.66.4-1.07.4s-.77-.13-1.07-.4c-.3-.27-.45-.64-.45-1.1s.15-.84.45-1.1c.3-.27.66-.4,1.07-.4s.77.13,1.07.4c.3.27.45.64.45,1.1ZM598.39,252.16h-2.55v-9h2.55v9Z"/><path class="cls-19" d="M600.36,247.66c0-.65.11-1.26.32-1.84s.52-1.08.92-1.51c.4-.43.88-.77,1.46-1.02.57-.25,1.22-.38,1.95-.38.48,0,.92.04,1.32.13.4.09.79.21,1.16.37l-.53,2.04c-.24-.09-.5-.17-.79-.24-.29-.07-.61-.1-.96-.1-.75,0-1.32.23-1.69.7-.37.47-.56,1.08-.56,1.85,0,.81.17,1.44.52,1.88.35.45.96.67,1.82.67.31,0,.64-.03.99-.09.35-.06.68-.15.98-.27l.36,2.09c-.3.13-.67.23-1.11.33-.45.09-.94.14-1.47.14-.82,0-1.53-.12-2.12-.37-.59-.25-1.08-.58-1.46-1-.38-.42-.66-.92-.84-1.5-.18-.58-.26-1.2-.26-1.87Z"/></g><g id="Layer_2"><path class="cls-22" d="M1021.43,150.68c.19-1.31.17-2.69,1.61-4.07,3.03-2.54,6.79-4.57,11.31-7.03,2.15-1.1,4.11-1.78,6.28-3.2.49-.32,1.17-.84,1.68-1.21,3.67-2.6,4.75-7.38,2.41-10.69s-7.21-3.88-10.88-1.27c-.52.37-1.23.85-1.7,1.21-2.06,1.58-3.37,3.18-5.12,4.84-3.82,3.46-6.97,6.35-10.37,8.37-1.47.75-3.53.34-4.47.23l-2.78,1.75c3.48,4.11,6.62,8.52,9.37,13.18.81-.66,2.23-1.77,2.64-2.11Z"/><path class="cls-8" d="M1018.73,153.16l-.14-.24c-2.73-4.63-5.88-9.05-9.35-13.15l-.18-.21,3.09-1.95h.09c.11.02.24.04.38.06,1.02.14,2.72.37,3.95-.26,3.28-1.95,6.41-4.79,10.04-8.08l.28-.25c.58-.55,1.12-1.1,1.64-1.63,1.09-1.11,2.11-2.16,3.5-3.22.34-.26.8-.58,1.23-.88.17-.12.33-.23.47-.33,1.82-1.29,3.99-1.87,6.1-1.62,2.12.25,3.94,1.3,5.11,2.95,2.41,3.4,1.31,8.35-2.47,11.03-.17.12-.36.26-.55.4-.4.29-.81.59-1.14.81-1.44.94-2.81,1.57-4.14,2.18-.7.32-1.43.66-2.17,1.04-4.43,2.4-8.26,4.48-11.27,7-1.17,1.12-1.32,2.27-1.46,3.38-.02.18-.04.36-.07.53v.09s-.09.06-.09.06c-.21.17-.66.53-1.17.94-.51.4-1.06.85-1.47,1.18l-.22.18ZM1009.79,139.67c3.36,3.98,6.41,8.27,9.07,12.76.38-.3.83-.67,1.26-1,.45-.36.86-.69,1.09-.87.02-.14.04-.29.06-.43.14-1.14.3-2.43,1.61-3.68,3.06-2.56,6.9-4.65,11.36-7.06.76-.39,1.49-.73,2.2-1.05,1.37-.63,2.67-1.23,4.08-2.15.32-.21.73-.51,1.12-.79.2-.14.39-.28.56-.41,3.56-2.52,4.61-7.16,2.35-10.35-1.09-1.54-2.79-2.52-4.77-2.75-1.99-.24-4.04.31-5.77,1.53-.15.1-.31.22-.48.33-.43.3-.88.61-1.22.87-1.36,1.04-2.37,2.08-3.45,3.17-.52.54-1.07,1.09-1.66,1.65l-.28.26c-3.65,3.31-6.8,6.16-10.13,8.15-1.37.7-3.17.46-4.25.31-.1-.01-.2-.03-.29-.04l-2.47,1.56Z"/><path class="cls-26" d="M838.87,209.78c-.87,1-2.1,2.57-3.32,3-3.83.97-8.09,1.17-13.24,1.41-2.41.06-4.48-.17-7.05.17-.57.07-1.36.23-1.98.34-.02,0-.04,0-.06.01-.03,0-.08.02-.11.03-4.37.8-7.37,4.6-6.7,8.56.67,3.96,4.75,6.57,9.14,5.88.03,0,.08,0,.11,0,.05,0,.09-.03.14-.04.61-.1,1.38-.2,1.92-.31,2.54-.53,4.41-1.41,6.71-2.15,4.94-1.46,9.03-2.69,12.97-3.03,1.64-.04,3.29,1.2,4.12,1.72l3.14-.36c.08-5.47-.47-9.91-2.7-15.94l-3.08.71Z"/><path class="cls-8" d="M813.65,229.51c-3.72-.21-6.89-2.71-7.48-6.18-.69-4.06,2.4-8.02,6.89-8.84.01,0,.03,0,.04,0,.03,0,.05-.01.07-.02.04,0,.05-.01.07-.01.18-.03.39-.07.59-.11.49-.09.99-.18,1.39-.24,1.71-.22,3.22-.2,4.68-.17.77.01,1.57.03,2.39,0h.16c4.97-.25,9.26-.45,13.02-1.41,1-.35,2.09-1.62,2.88-2.55.11-.13.22-.25.32-.37l.05-.06,3.37-.78.07.2c2.37,6.4,2.79,10.88,2.71,16.03v.21s-3.44.39-3.44.39l-.07-.05c-.09-.06-.2-.13-.31-.21-.86-.56-2.29-1.51-3.67-1.48-3.84.34-7.95,1.55-12.7,2.96l-.21.06c-.76.24-1.5.51-2.2.77-1.45.53-2.82,1.03-4.52,1.38-.39.08-.88.16-1.36.23-.2.03-.39.06-.56.09,0,0-.02,0-.03.01-.03.01-.07.02-.11.03-.03,0-.06,0-.08,0h-.03c-.65.1-1.3.14-1.94.1ZM839.01,210c-.08.1-.17.2-.26.3-.88,1.03-1.97,2.31-3.11,2.7-3.83.97-8.15,1.18-13.14,1.42h-.17c-.84.03-1.64.02-2.42,0-1.51-.03-2.94-.05-4.61.17-.39.05-.89.14-1.37.23-.21.04-.41.08-.6.11h-.07s-.02.02-.04.02c-.03,0-.05.01-.07.02-4.22.77-7.14,4.49-6.5,8.28.64,3.8,4.62,6.35,8.86,5.68.02,0,.05,0,.08,0,.01,0,.02,0,.03,0,.01,0,.02,0,.04-.01.03-.01.07-.02.1-.03.19-.03.38-.06.57-.09.47-.07.96-.15,1.34-.22,1.67-.35,3.02-.84,4.46-1.36.71-.26,1.45-.53,2.23-.78l.22-.06c4.78-1.41,8.9-2.64,12.81-2.98,1.55-.04,3.06.96,3.96,1.56.08.06.16.11.24.15l2.84-.32c.06-4.95-.37-9.3-2.61-15.43l-2.8.64Z"/><path class="cls-36" d="M882.44,283.19c.41,1.27.84,2.97.42,4.17-1.63,3.6-4.28,7.35-7.3,11.53-1.45,1.93-2.92,3.4-4.26,5.63-.32.53-.74,1.35-1.05,1.92-2.11,3.92-.99,8.63,2.52,10.57,3.54,1.96,8.15.37,10.33-3.56,0,0,.01,0,.02-.01,0,0,0-.01,0-.02.31-.56.75-1.28,1.01-1.81,1.17-2.32,1.63-4.33,2.49-6.59,2.21-4.75,3.56-9.8,6.41-12.82.78-.83,1.99-1.1,3.24-1.36l1.75-2.79c-4.96-2.21-9.7-4.84-14.16-7.83l-1.43,2.96Z"/><path class="cls-8" d="M875.63,318.07c-1.02-.06-2.03-.33-2.96-.85-3.61-1.99-4.78-6.88-2.62-10.9.11-.21.24-.44.37-.69.23-.44.48-.9.69-1.24.9-1.49,1.86-2.66,2.8-3.81.48-.59.98-1.19,1.47-1.84,3.15-4.36,5.69-7.98,7.27-11.48.45-1.28-.21-3.33-.43-4l-.03-.09,1.6-3.3.23.16c4.47,2.99,9.22,5.62,14.12,7.81l.26.11-1.95,3.11-.1.02c-1.16.24-2.37.49-3.11,1.29-1.97,2.1-3.22,5.2-4.55,8.49-.57,1.4-1.15,2.85-1.81,4.27-.29.75-.54,1.5-.78,2.23-.46,1.39-.94,2.82-1.72,4.36-.18.36-.43.8-.68,1.22-.11.18-.21.36-.3.53h0s-.03.08-.03.08c-.01.02-.03.04-.04.06-1.66,2.97-4.73,4.63-7.68,4.47ZM882.71,283.21c.39,1.23.83,2.97.38,4.24-1.61,3.56-4.16,7.2-7.33,11.59-.5.66-1,1.27-1.48,1.86-.97,1.18-1.88,2.29-2.76,3.75-.2.33-.44.78-.67,1.22-.13.25-.26.49-.37.69-2.03,3.78-.95,8.38,2.43,10.24,3.41,1.88,7.89.33,10-3.46l.03-.05c.1-.18.21-.38.33-.58.24-.42.49-.86.67-1.2.76-1.51,1.21-2.86,1.69-4.3.24-.73.5-1.49.79-2.27.66-1.42,1.24-2.87,1.81-4.26,1.35-3.33,2.62-6.48,4.65-8.64.83-.88,2.11-1.17,3.27-1.41l1.55-2.46c-4.75-2.14-9.36-4.69-13.7-7.58l-1.27,2.62Z"/><path class="cls-12" d="M868.88,129.81c-1.32.1-2.66.43-4.32-.67-3.15-2.39-5.96-5.6-9.36-9.47-1.55-1.85-2.66-3.58-4.53-5.39-.42-.41-1.08-.97-1.55-1.39-1.47-1.31-3.24-2.05-4.99-2.21-2.24-.2-4.46.55-5.98,2.25-2.7,3.02-2.17,7.89,1.19,10.89.03.03.07.05.11.08.46.42,1.02.95,1.45,1.31,2,1.66,3.86,2.55,5.87,3.89,4.22,2.95,7.72,5.4,10.45,8.26,1.06,1.26,1.13,3.38,1.23,4.3l2.23,2.23c-11.96,15.96-13.13,35.96-13.24,56.74.01-1.52,5-.89,5.09-2.43,1.91-33.74,16.71-60.12,40.96-75.48l-22.06,9.11c-.78-.6-2.13-1.69-2.54-2.03Z"/><path class="cls-8" d="M847.17,200.63h0s0,0,0,0c.11-20.71,1.21-40.63,13.16-56.71l-2.14-2.14v-.09c-.02-.1-.03-.22-.04-.35-.09-1.03-.25-2.76-1.14-3.83-2.7-2.84-6.27-5.33-10.4-8.22-.68-.45-1.36-.86-2.01-1.26-1.25-.76-2.54-1.54-3.87-2.64-.31-.26-.68-.6-1.04-.93-.14-.13-.28-.26-.41-.38,0,0-.02-.02-.03-.03-.02-.02-.05-.04-.07-.06-1.67-1.49-2.71-3.48-2.94-5.59-.23-2.13.38-4.13,1.74-5.64,1.52-1.7,3.77-2.55,6.18-2.33,1.86.17,3.68.98,5.13,2.27.13.11.27.24.42.37.39.34.83.73,1.14,1.03,1.25,1.2,2.14,2.35,3.08,3.57.46.6.94,1.22,1.46,1.84l.12.13c3.28,3.73,6.11,6.95,9.2,9.3,1.36.9,2.51.78,3.63.67.18-.02.35-.04.53-.05h.1s.08.06.08.06c.4.34,1.66,1.34,2.42,1.93l21.93-9.05.22.43c-24.47,15.5-38.98,42.24-40.85,75.29-.05.96-1.44,1.2-2.77,1.44-1.08.19-2.31.41-2.32.97,0,0,0,0,0,0,0,0,0,0,0,0h-.49ZM858.67,141.56l2.31,2.32-.13.17c-11.83,15.79-13.05,35.38-13.19,55.79.52-.34,1.38-.49,2.23-.64,1.1-.2,2.34-.42,2.37-.99.95-16.71,5.03-31.76,12.13-44.73,6.59-12.04,15.59-21.96,26.78-29.53l-19.8,8.18-.11-.09c-.76-.58-2.01-1.59-2.47-1.97-.14.01-.28.03-.42.04-1.14.11-2.44.24-3.95-.76-3.14-2.39-5.99-5.62-9.29-9.38l-.12-.14c-.53-.63-1.01-1.25-1.48-1.86-.93-1.2-1.81-2.34-3.03-3.51-.31-.29-.74-.68-1.13-1.01-.15-.13-.29-.25-.42-.37-1.37-1.23-3.09-1.99-4.85-2.15-2.26-.21-4.36.59-5.77,2.17-1.26,1.41-1.83,3.28-1.61,5.26.22,2,1.21,3.87,2.78,5.28.01.01.03.02.04.03.02.02.04.03.06.05.14.12.28.25.42.38.36.33.73.67,1.02.92,1.3,1.08,2.52,1.82,3.81,2.6.66.4,1.34.81,2.03,1.28,4.16,2.91,7.75,5.41,10.49,8.3,1,1.19,1.16,3.02,1.26,4.11,0,.09.02.18.02.25Z"/><path class="cls-7" d="M950.24,103.63c-.9-.97-2.01-1.81-2.18-3.79-.1-3.95.68-8.16,1.58-13.23.47-2.37,1.15-4.32,1.39-6.9.06-.59.07-1.44.1-2.08.25-4.49-2.82-8.32-6.86-8.54h0c-4.04-.23-7.52,3.23-7.78,7.72,0,.07,0,.14,0,.2-.04.61-.11,1.34-.12,1.88-.05,2.6.4,4.61.61,7.01.33,5.14.6,9.4.06,13.32-.39,1.47-1.56,2.76-2.59,3.65l-.35,3.09-11.67,4.82c6.21-1.46,12.76-2.41,19.62-2.81,2.72-.16,5.52-1.42,8.17-1.05,0-.98,0-2.74.01-3.27Z"/><path class="cls-8" d="M922.49,111l-.15-.46,11.54-4.76.34-3.04.07-.06c.93-.8,2.12-2.06,2.51-3.51.53-3.86.26-8.16-.06-13.15v-.11c-.08-.81-.17-1.59-.27-2.34-.19-1.52-.38-2.96-.34-4.69,0-.37.04-.83.08-1.28.02-.21.03-.41.04-.6,0-.02,0-.04,0-.07,0-.04,0-.09,0-.13.13-2.23,1.03-4.29,2.54-5.79,1.52-1.51,3.47-2.27,5.49-2.16h0c2.02.11,3.88,1.1,5.21,2.76,1.33,1.66,2,3.8,1.87,6.04-.01.22-.02.47-.03.73-.02.48-.04.97-.07,1.36-.16,1.72-.51,3.13-.87,4.62-.18.74-.37,1.5-.53,2.3l-.07.38c-.86,4.81-1.6,8.96-1.51,12.79.14,1.61.95,2.44,1.74,3.24.13.13.26.26.38.4l.07.07v.1c0,.53-.02,2.28-.01,3.27v.28s-.28-.04-.28-.04c-1.54-.22-3.18.14-4.77.49-1.1.24-2.24.49-3.35.56-6.75.4-13.34,1.34-19.58,2.81ZM934.69,102.98l-.35,3.13-9.23,3.81c5.45-1.13,11.13-1.88,16.94-2.22,1.08-.06,2.19-.31,3.28-.55,1.54-.34,3.12-.69,4.66-.53,0-.95,0-2.34.01-2.91-.1-.11-.2-.21-.31-.32-.8-.82-1.71-1.75-1.87-3.55-.09-3.89.65-8.07,1.51-12.9l.07-.39c.16-.82.35-1.58.53-2.33.36-1.47.7-2.87.86-4.55.04-.37.05-.86.07-1.33,0-.26.02-.51.03-.74.12-2.11-.51-4.14-1.76-5.71-1.25-1.56-2.98-2.48-4.86-2.58h0c-1.88-.11-3.7.61-5.12,2.02-1.43,1.41-2.28,3.36-2.4,5.47,0,.03,0,.05,0,.08,0,.04,0,.08,0,.12-.01.2-.03.41-.05.62-.03.44-.07.9-.08,1.26-.03,1.69.15,3.12.34,4.62.1.76.2,1.54.27,2.37v.11c.33,5.02.6,9.35.06,13.26v.03c-.42,1.54-1.63,2.86-2.6,3.71Z"/><path class="cls-24" d="M957.07,291.12c2.91.47,5.53,1.76,8.55.81.42.85,1.19,2.49,1.4,2.9,1.23.48,2.59.77,3.61,2.48,1.8,3.52,2.94,7.63,4.32,12.59.6,2.34.84,4.39,1.75,6.83.21.55.55,1.34.8,1.93,1.72,4.16,6.14,6.26,9.88,4.72,3.71-1.54,5.35-6.09,3.7-10.22-.25-.6-.58-1.46-.84-2.02-1.08-2.36-2.37-3.98-3.59-6.05-2.52-4.49-4.62-8.22-5.83-11.98-.49-1.93.27-3.08.81-4.28-.26-.33-.75-2.16-1.05-3.02,11.17-5.77,14.28-18.64,22.22-28.03l4.28,2.84c-12.24,15.54-29.54,26.35-50,30.54Z"/><path class="cls-8" d="M984.42,324.11c-.96-.05-1.92-.3-2.84-.74-1.92-.92-3.45-2.56-4.3-4.62-.07-.17-.16-.37-.24-.57-.21-.48-.42-.97-.56-1.37-.6-1.63-.91-3.05-1.23-4.56-.16-.74-.32-1.5-.52-2.29l-.05-.2c-1.33-4.77-2.48-8.89-4.25-12.34-.83-1.4-1.92-1.79-2.98-2.18-.17-.06-.34-.12-.5-.19l-.09-.03-.04-.08c-.11-.22-.38-.77-.66-1.36-.23-.47-.47-.97-.66-1.36-2.18.62-4.19.12-6.14-.35-.76-.19-1.54-.38-2.33-.51l-1.31-.21,1.3-.27c12.46-2.55,23.81-7.55,33.59-14.71,1.66-2.37,3.15-4.93,4.68-7.55,2.19-3.75,4.45-7.64,7.32-11.03l.14-.17,4.68,3.1-.16.21c-4.77,6.05-10.23,11.33-16.3,15.78-2.66,3.79-5.75,7.1-10.09,9.38.08.25.17.55.27.86.22.72.53,1.71.68,1.9l.09.11-.06.13c-.07.17-.15.34-.23.5-.49,1.05-.96,2.04-.56,3.62,1.2,3.74,3.34,7.53,5.81,11.92.41.7.85,1.36,1.26,2.01.8,1.23,1.62,2.5,2.34,4.07.18.4.4.95.6,1.43.09.21.17.42.24.6,1.7,4.24-.02,8.96-3.83,10.54-.98.4-2.02.58-3.06.52ZM967.21,294.64c.13.05.27.1.4.15,1.08.39,2.31.84,3.24,2.4,1.8,3.51,2.95,7.65,4.29,12.45l.06.2c.2.8.37,1.57.53,2.31.32,1.49.62,2.9,1.21,4.5.14.38.35.87.55,1.35.09.2.17.39.24.57.81,1.95,2.25,3.51,4.06,4.37,1.8.86,3.76.94,5.5.21,3.56-1.47,5.16-5.92,3.57-9.91-.07-.18-.16-.39-.24-.6-.19-.48-.41-1.02-.59-1.41-.7-1.54-1.48-2.73-2.31-4-.42-.64-.85-1.31-1.28-2.03-2.48-4.42-4.63-8.23-5.85-12.03-.44-1.77.1-2.93.59-3.96.06-.13.12-.25.18-.38-.17-.32-.39-.99-.67-1.92-.12-.39-.24-.77-.33-1.04l-.07-.2.19-.1c3.89-2.01,6.77-4.85,9.24-8.14-9.25,6.53-19.84,11.16-31.42,13.69.4.09.8.19,1.19.28,2.03.5,3.95.97,6.07.3l.2-.06.09.19c.2.41.49,1,.75,1.55.25.52.49,1.01.61,1.27ZM1002.84,258.07c-2.78,3.32-4.99,7.12-7.13,10.8-1.28,2.2-2.54,4.36-3.9,6.41,5.51-4.19,10.51-9.09,14.91-14.64l-3.88-2.57Z"/><path class="cls-31" d="M1058.19,228.44c-.62-.18-1.5-.47-2.1-.62-2.52-.63-4.6-.62-6.99-.96-5.09-.83-9.3-1.5-13-2.9-1.5-.68-2.49-2.57-2.98-3.35l-2.91-1.03-3.64-12.69c-1.19,20.94-8.19,39.33-19.51,53.69l-3.18-2.29c6.93-8.2,18.02-13.1,21.87-23.19.94.2,2.57.59,3.1.72,1.14-.66,2.21-1.55,4.18-1.28,3.87.79,7.8,2.46,12.55,4.47,2.2.99,3.96,2.09,6.42,2.9.52.17,1.27.35,1.87.51.05.01.09.04.14.05.03,0,.08.01.11.02,4.29,1.18,8.63-.96,9.75-4.81,1.11-3.86-1.43-7.98-5.69-9.26Z"/><path class="cls-8" d="M1007.12,260.92l-3.58-2.58.17-.2c2.62-3.1,5.87-5.76,9.01-8.34.82-.67,1.64-1.34,2.44-2.01,6.52-12.14,10.34-26.04,11.18-40.91l.08-1.43,4,13.95,2.87,1.01.04.07c.06.09.12.2.2.32.53.89,1.42,2.37,2.68,2.94,3.62,1.37,7.87,2.06,12.78,2.86l.15.02c.81.11,1.61.19,2.37.26,1.46.14,2.97.29,4.64.7.38.1.87.24,1.33.39.27.09.54.17.77.23h0c4.37,1.32,6.99,5.61,5.85,9.56-1.14,3.96-5.65,6.19-10.04,4.98h-.03s-.06-.02-.08-.02c-.04-.01-.07-.03-.1-.04-.01,0-.02-.01-.04-.02-.21-.06-.44-.12-.68-.18-.42-.11-.85-.22-1.19-.33-1.64-.54-2.99-1.22-4.3-1.88-.69-.34-1.39-.7-2.14-1.04l-.22-.09c-4.55-1.93-8.49-3.6-12.28-4.37-1.6-.21-2.59.39-3.54.97-.16.1-.32.19-.47.29l-.09.05-.1-.03c-.5-.13-1.94-.47-2.88-.68-2.06,5.23-6.1,9.12-10.37,12.71-2.4,4.46-5.17,8.69-8.28,12.64l-.14.18ZM1004.25,258.25l2.78,2c2.78-3.55,5.29-7.33,7.5-11.3-.5.41-1,.82-1.49,1.23-3.06,2.5-6.22,5.09-8.78,8.07ZM1026.74,208.31c-.97,13.98-4.58,27.08-10.58,38.63,4.01-3.44,7.52-7.05,9.38-11.92l.07-.2.2.04c.87.19,2.38.54,3.01.7.13-.07.25-.15.38-.23.98-.6,2.08-1.28,3.87-1.04,3.85.78,7.81,2.46,12.39,4.4l.22.09c.76.34,1.48.7,2.17,1.05,1.35.68,2.63,1.32,4.24,1.85.32.11.75.22,1.16.33.24.06.48.12.7.19.04.01.07.03.1.04.01,0,.02.01.04.02h.03s.06.02.08.02c4.14,1.14,8.38-.95,9.44-4.65,1.07-3.7-1.41-7.72-5.52-8.96-.23-.07-.5-.15-.78-.24-.46-.14-.94-.29-1.31-.38-1.63-.41-3.06-.54-4.56-.69-.77-.07-1.57-.15-2.4-.27l-.16-.03c-4.94-.8-9.21-1.49-12.89-2.89-1.41-.64-2.35-2.2-2.91-3.14-.05-.09-.1-.17-.15-.24l-2.94-1.04-3.28-11.46Z"/><path class="cls-37" d="M1031.82,195.77c.01.25.03.5.04.75-.01-.25-.03-.5-.04-.75Z"/><path class="cls-19" d="M1031.83,196.53h0s0,0,0,0c0-.13-.01-.26-.02-.39,0-.02,0-.05,0-.08,0-.09-.01-.19-.02-.28h.06s0,.11,0,.11c0,.08,0,.16.01.24,0,.13.02.26.02.39h-.06Z"/><path class="cls-37" d="M926.5,295.73c-.37-.04-.74-.09-1.11-.13.37.05.74.09,1.11.13Z"/><path class="cls-19" d="M926.5,295.76c-.19-.02-.37-.04-.56-.07-.18-.02-.36-.04-.55-.07v-.06c.14.02.26.03.39.05.06,0,.11.01.17.02.19.02.37.04.56.07v.06Z"/><path class="cls-37" d="M841.63,200.31c-.03,2.95.08,5.87.32,8.76h.03c-.26-2.94-.37-5.86-.35-8.76Z"/><path class="cls-37" d="M926.58,295.74s-.05,0-.08,0c.03,0,.05,0,.08,0Z"/><path class="cls-37" d="M1009.3,139.69l.12-.07c-14.65-17.29-35.41-29.35-59.2-32.71,0,0,0,0,0,0,23.15,3.38,44.15,15.25,59.08,32.79Z"/><path class="cls-37" d="M1030.62,185.33c.6,3.5.99,6.98,1.2,10.44-.86-15.56-5.48-30.21-13.03-42.98-.03.02-.06.05-.09.07,5.78,9.74,9.9,20.67,11.92,32.47Z"/><path class="cls-37" d="M1031.86,196.52c0,.18.01.36.02.53,0-.18-.01-.36-.02-.53Z"/><path class="cls-37" d="M844.74,225h-.09c5.89,22.77,20.04,42.37,39.22,55.23l.07-.15c-18.82-12.64-33.16-31.91-39.21-55.08Z"/><path class="cls-37" d="M898.03,288.06c8.51,3.79,17.69,6.38,27.35,7.54-9.52-1.19-18.71-3.8-27.28-7.66l-.08.12Z"/><polygon class="cls-37" points="1003.53 164.96 1003.53 164.96 1003.53 164.96 1003.53 164.96"/><path class="cls-37" d="M893.47,122.73l10.5-4.34-.41-1.16c-3.52,1.64-6.89,3.47-10.09,5.5Z"/><path class="cls-37" d="M903.97,118.39l18.47-7.63c-6.7,1.57-13.01,3.74-18.88,6.47l.41,1.16Z"/><path class="cls-37" d="M953.72,291.08c-8.89,1.5-18.35,1.43-26.91.48,1.6.17,3.23,1.24,4.86,1.33,8.88.5,17.38-.13,25.4-1.77-1.07-.17-2.17-.24-3.35-.04Z"/><path class="cls-13" d="M909.47,223.99c-.51-3-3-5.16-5.91-5.37h0c-.42-.03-.85-.02-1.27.04l-.06-.08-38.14,4.27c4.92,16.46,15.07,30.22,28.25,39.78l16.64-34.54-.1-.15c.59-1.18.82-2.55.58-3.95Z"/><path class="cls-13" d="M950.24,164.8l.03.02c-.02,1.32.37,2.66,1.2,3.82,2.01,2.83,5.89,3.56,8.78,1.69l.11.05,32.52-20.4c-11.14-12.22-26.11-20.63-42.64-23.62v38.44Z"/><path class="cls-13" d="M940.31,239.65c-.56-1.2-1.49-2.23-2.74-2.92-.95-.53-1.97-.79-2.98-.81-2.23-.04-4.42,1.08-5.65,3.1h-.03s-20.48,32.53-20.48,32.53c12.61,5.11,26.75,6.89,41.17,4.46,2.57-.43,5.1-.98,7.56-1.66l-16.72-34.7h-.14Z"/><path class="cls-13" d="M886.6,143.94l30.21,24.09.06-.03c1.02.84,2.31,1.37,3.73,1.45,3.47.2,6.45-2.39,6.79-5.81l.16-.07,4.35-38.26c-2.61.17-5.24.46-7.88.9-14.44,2.43-27.21,8.76-37.42,17.72Z"/><polygon class="cls-13" points="946.89 210.14 950.16 198.88 943.36 189.31 931.59 188.65 923.74 197.36 925.72 208.93 936.03 214.62 946.89 210.14"/><path class="cls-13" d="M898.45,196.06c1.29-.28,2.52-.95,3.47-2.01,2.32-2.59,2.16-6.52-.31-8.93l.04-.15-27.28-27.33c-9.32,13.41-14.3,29.85-13.4,47.1l37.44-8.55.04-.12Z"/><path class="cls-13" d="M969.04,222.28c-.48-.12-.98-.19-1.48-.19h0c-.84,0-1.68.16-2.51.5-3.21,1.33-4.78,4.95-3.6,8.19l-.05.06,12.77,36.56c14.77-8.27,26.21-21.24,32.67-36.59l-37.74-8.6-.07.07Z"/><path class="cls-13" d="M1003.53,164.96l-30.03,23.96v.08c-1.03.81-1.84,1.94-2.23,3.31-.96,3.34.88,6.83,4.15,7.92l.02.16,36.42,12.76c1.24-7.94,1.23-16.23-.21-24.62-1.45-8.49-4.25-16.4-8.12-23.56Z"/><polygon class="cls-13" points="1003.53 164.96 1003.53 164.96 1003.53 164.96 1003.53 164.96"/><path class="cls-13" d="M969.04,222.28c-.48-.12-.98-.19-1.48-.19h0c-.84,0-1.68.16-2.51.5-3.21,1.33-4.78,4.95-3.6,8.19l-.05.06,12.77,36.56c14.77-8.27,26.21-21.24,32.67-36.59l-37.74-8.6-.07.07Z"/><path class="cls-13" d="M950.24,164.8l.03.02c-.02,1.32.37,2.66,1.2,3.82,2.01,2.83,5.89,3.56,8.78,1.69l.11.05,32.52-20.4c-11.14-12.22-26.11-20.63-42.64-23.62v38.44Z"/><path class="cls-13" d="M898.45,196.06c1.29-.28,2.52-.95,3.47-2.01,2.32-2.59,2.16-6.52-.31-8.93l.04-.15-27.28-27.33c-9.32,13.41-14.3,29.85-13.4,47.1l37.44-8.55.04-.12Z"/><path class="cls-13" d="M940.31,239.65c-.56-1.2-1.49-2.23-2.74-2.92-.95-.53-1.97-.79-2.98-.81-2.23-.04-4.42,1.08-5.65,3.1h-.03s-20.48,32.53-20.48,32.53c12.61,5.11,26.75,6.89,41.17,4.46,2.57-.43,5.1-.98,7.56-1.66l-16.72-34.7h-.14Z"/><path class="cls-13" d="M908.88,227.94c.59-1.18.82-2.55.58-3.95-.51-3-3-5.16-5.91-5.37h0c-.42-.03-.85-.02-1.27.04l-.06-.08-38.14,4.27c4.92,16.46,15.07,30.22,28.25,39.78l16.64-34.54-.1-.15Z"/><path class="cls-13" d="M886.6,143.94l30.21,24.09.06-.03c1.02.84,2.31,1.37,3.73,1.45,3.47.2,6.45-2.39,6.79-5.81l.16-.07,4.35-38.26c-2.61.17-5.24.46-7.88.9-14.44,2.43-27.21,8.76-37.42,17.72Z"/><polygon class="cls-13" points="946.89 210.14 950.16 198.88 943.36 189.31 931.59 188.65 923.74 197.36 925.72 208.93 936.03 214.62 946.89 210.14"/><polygon class="cls-13" points="1003.53 164.96 1003.53 164.96 1003.53 164.96 1003.53 164.96"/><path class="cls-13" d="M1003.53,164.96l-30.03,23.96v.08c-1.03.81-1.84,1.94-2.23,3.31-.96,3.34.88,6.83,4.15,7.92l.02.16,36.42,12.76c1.24-7.94,1.23-16.23-.21-24.62-1.45-8.49-4.25-16.4-8.12-23.56Z"/><path class="cls-13" d="M969.04,222.28c-.48-.12-.98-.19-1.48-.19h0c-.84,0-1.68.16-2.51.5-3.21,1.33-4.78,4.95-3.6,8.19l-.05.06,12.77,36.56c14.77-8.27,26.21-21.24,32.67-36.59l-37.74-8.6-.07.07Z"/><path class="cls-13" d="M940.31,239.65c-.56-1.2-1.49-2.23-2.74-2.92-.95-.53-1.97-.79-2.98-.81-2.23-.04-4.42,1.08-5.65,3.1h-.03s-20.48,32.53-20.48,32.53c12.61,5.11,26.75,6.89,41.17,4.46,2.57-.43,5.1-.98,7.56-1.66l-16.72-34.7h-.14Z"/><path class="cls-13" d="M908.88,227.94c.59-1.18.82-2.55.58-3.95-.51-3-3-5.16-5.91-5.37h0c-.42-.03-.85-.02-1.27.04l-.06-.08-38.14,4.27c4.92,16.46,15.07,30.22,28.25,39.78l16.64-34.54-.1-.15Z"/><path class="cls-13" d="M950.27,164.81c-.02,1.32.37,2.66,1.2,3.82,2.01,2.83,5.89,3.56,8.78,1.69l.11.05,32.52-20.4c-11.14-12.22-26.11-20.63-42.64-23.62v38.44s.03.02.03.02Z"/><path class="cls-13" d="M898.45,196.06c1.29-.28,2.52-.95,3.47-2.01,2.32-2.59,2.16-6.52-.31-8.93l.04-.15-27.28-27.33c-9.32,13.41-14.3,29.85-13.4,47.1l37.44-8.55.04-.12Z"/><path class="cls-13" d="M1003.53,164.96l-30.03,23.96v.08c-1.03.81-1.84,1.94-2.23,3.31-.96,3.34.88,6.83,4.15,7.92l.02.16,36.42,12.76c1.24-7.94,1.23-16.23-.21-24.62-1.45-8.49-4.25-16.4-8.12-23.56Z"/><path class="cls-13" d="M916.87,168c1.02.84,2.31,1.37,3.73,1.45,3.47.2,6.45-2.39,6.79-5.81l.16-.07,4.35-38.26c-2.61.17-5.24.46-7.88.9-14.44,2.43-27.21,8.76-37.42,17.72l30.21,24.09.06-.03Z"/><polygon class="cls-13" points="931.59 188.65 923.74 197.36 925.72 208.93 936.03 214.62 946.89 210.14 950.16 198.88 943.36 189.31 931.59 188.65"/><polygon class="cls-13" points="1003.53 164.96 1003.53 164.96 1003.53 164.96 1003.53 164.96"/><path class="cls-37" d="M1031.88,197.06c0-.18-.01-.36-.02-.53-.01-.25-.03-.5-.04-.75-.21-3.46-.6-6.95-1.2-10.44-2.02-11.8-6.14-22.72-11.92-32.47.03-.02.06-.05.09-.07-2.75-4.66-5.89-9.07-9.37-13.18h0c-14.93-17.54-36.05-29.33-59.2-32.71,0,0,0,0,0,0-2.65-.37-5.33-.65-8.05-.8-52.48-2.97-97.43,37.16-100.4,89.64-.09,1.53-.13,3.05-.15,4.57-.02,2.9.1,5.82.35,8.75h-.03c.45,5.45,1.36,10.78,2.7,15.94h.09c6.05,23.16,20.39,42.42,39.21,55.07l-.07.15c4.46,2.99,9.19,5.61,14.16,7.83l.08-.12c8.57,3.86,17.75,6.48,27.28,7.66.37.04.74.09,1.11.13.03,0,.05,0,.08,0,1.6.17,3.21.3,4.84.4,52.48,2.97,97.43-37.16,100.4-89.64.18-3.18.2-6.33.07-9.44ZM1011.86,213.15s-2.02,11.1-5.02,17.66c-6.46,15.35-17.9,28.32-32.67,36.59-8.07,4.26-17,6.96-17,6.96-2.46.67-4.99,1.22-7.56,1.66-14.42,2.43-28.56.64-41.17-4.46-9.59-3.39-16.09-8.93-16.09-8.93-13.18-9.55-23.34-23.32-28.25-39.78-2.04-6.56-3.11-18.12-3.11-18.12-.9-17.25,4.08-33.68,13.4-47.1,2.18-4.33,12.23-13.69,12.23-13.69,10.21-8.96,22.98-15.29,37.42-17.72,2.64-.44,5.27-.74,7.88-.9,0,0,9.59-.71,18.34,1.04,16.53,2.99,31.5,11.4,42.64,23.62,0,0,5.16,4.65,10.65,14.99h0s0,0,0,0h0c3.88,7.16,6.67,15.07,8.12,23.56,1.43,8.39,1.44,16.68.21,24.62Z"/><path class="cls-8" d="M931.4,296.38c-1.61-.09-3.24-.22-4.85-.4h-.08c-.24-.03-.49-.07-.73-.1l-.38-.05c-9.37-1.17-18.5-3.72-27.15-7.6l-.08.12-.19-.09c-4.93-2.2-9.7-4.84-14.19-7.85l-.18-.12.08-.15c-19.32-13.04-33.19-32.52-39.08-54.9h-.09s-.05-.19-.05-.19c-1.35-5.21-2.26-10.59-2.71-15.98l-.02-.21h.03c-.24-2.83-.35-5.71-.34-8.57.01-1.57.06-3.11.15-4.58.73-12.86,3.95-25.19,9.59-36.66,5.44-11.07,12.89-20.87,22.13-29.12,9.24-8.25,19.82-14.54,31.44-18.7,12.03-4.3,24.64-6.11,37.5-5.39,2.64.15,5.36.42,8.07.8l.22.04c23.07,3.43,44.06,15.06,59.13,32.76,3.49,4.12,6.65,8.56,9.39,13.21l.11.18-.09.07c5.9,10,9.88,20.89,11.84,32.37.59,3.44.99,6.96,1.2,10.47l.02.28c0,.16.02.31.03.47,0,.1,0,.21.01.31v.23c.14,3.15.12,6.34-.06,9.47-.73,12.86-3.95,25.19-9.59,36.66-5.44,11.07-12.89,20.87-22.13,29.12-9.24,8.25-19.82,14.54-31.44,18.7-12.03,4.3-24.64,6.11-37.5,5.39ZM898.02,287.62l.19.09c8.66,3.9,17.82,6.47,27.21,7.64l.38.05c.24.03.48.06.72.09h.08c1.6.18,3.22.31,4.83.4,52.26,2.96,97.18-37.15,100.14-89.41.18-3.11.2-6.28.07-9.42v-.23c-.01-.1-.02-.2-.02-.31,0-.16-.02-.31-.03-.46l-.02-.29c-.21-3.49-.61-7-1.19-10.41-1.96-11.49-5.96-22.39-11.89-32.38l-.11-.18.09-.07c-2.71-4.56-5.82-8.92-9.24-12.96-15.04-17.67-36.01-29.26-59.05-32.63l-.22-.03c-2.62-.36-5.25-.62-7.81-.77-52.26-2.96-97.18,37.15-100.14,89.41-.08,1.46-.13,3-.15,4.56-.02,2.91.1,5.85.35,8.73l.02.21h-.03c.44,5.23,1.32,10.43,2.62,15.49h.08s.05.19.05.19c5.85,22.42,19.74,41.93,39.11,54.94l.18.12-.07.15c4.36,2.91,8.98,5.46,13.75,7.6l.08-.12ZM932.55,277.2c-8.29-.47-16.47-2.29-24.21-5.43-9.51-3.36-16.09-8.91-16.16-8.97-6.66-4.83-12.48-10.67-17.27-17.34-4.92-6.86-8.64-14.44-11.06-22.55-2.03-6.51-3.11-18.05-3.12-18.17-.45-8.51.52-16.94,2.87-25.08,2.29-7.92,5.84-15.38,10.55-22.17,2.19-4.32,11.86-13.36,12.27-13.74,10.57-9.28,23.56-15.43,37.55-17.78,2.54-.43,5.2-.73,7.9-.91.09,0,9.72-.69,18.4,1.04,16.35,2.96,31.54,11.37,42.77,23.7.04.03,5.24,4.78,10.68,15.04,3.98,7.36,6.73,15.31,8.15,23.64,1.41,8.23,1.48,16.54.21,24.7h0c-.02.12-2.06,11.21-5.03,17.72-6.52,15.48-18.16,28.51-32.78,36.7-8,4.23-16.96,6.95-17.05,6.98-2.45.67-5,1.23-7.59,1.67-5.68.96-11.42,1.27-17.09.95ZM941.61,125.56c-5.37-.3-9.63,0-9.69,0-2.69.17-5.33.48-7.86.9-13.9,2.34-26.8,8.45-37.3,17.66-.09.09-10.03,9.38-12.17,13.62l-.02.03c-9.48,13.65-14.22,30.32-13.35,46.94,0,.11,1.09,11.6,3.1,18.06,4.8,16.07,14.54,29.78,28.16,39.65.08.07,6.59,5.56,16.03,8.89,12.96,5.25,27.16,6.79,41.05,4.45,2.57-.43,5.11-.99,7.54-1.65.08-.03,9-2.73,16.95-6.94,14.52-8.13,26.08-21.09,32.56-36.47,2.94-6.43,4.96-17.38,5-17.61,1.26-8.1,1.19-16.36-.21-24.54-1.41-8.27-4.14-16.17-8.1-23.49-5.4-10.17-10.55-14.87-10.6-14.92-11.18-12.26-26.28-20.62-42.52-23.56-2.89-.58-5.88-.88-8.59-1.04Z"/><polygon class="cls-13" points="942.43 189.26 931.59 188.65 931.44 188.81 934.38 195.75 931.44 188.81 923.74 197.36 924.02 198.98 934.02 202.19 925.55 207.95 925.72 208.93 935.93 214.57 939.53 201.96 947.1 209.41 950.16 198.88 948.37 196.35 938.14 195.97 942.43 189.26"/><polygon class="cls-13" points="942.43 189.26 938.14 195.97 948.37 196.35 943.36 189.31 942.43 189.26"/><polygon class="cls-13" points="935.93 214.57 936.03 214.62 946.89 210.14 947.1 209.41 939.53 201.96 935.93 214.57"/><polygon class="cls-13" points="924.02 198.98 925.55 207.95 934.02 202.19 924.02 198.98"/><path class="cls-27" d="M965.05,222.59c.82-.34,1.67-.51,2.51-.5h0c.5,0,1,.08,1.48.19l.07-.07,37.74,8.6c3-6.56,5.02-17.66,5.02-17.66l-36.42-12.76-.02-.16c-1.58-.53-2.83-1.62-3.59-2.99l-23.46-.88,1.79,2.52-3.06,10.54,15.37,15.13c.66-.83,1.53-1.52,2.59-1.95Z"/><path class="cls-8" d="M1006.98,231.09l-37.79-8.61-.07.08-.14-.03c-.51-.12-.97-.18-1.42-.19-.81,0-1.63.16-2.41.48-.97.4-1.83,1.05-2.49,1.88l-.17.21-15.66-15.42,3.07-10.56-2.01-2.83,24.09.91.07.12c.76,1.36,1.98,2.38,3.45,2.88l.14.05.02.16,36.47,12.78-.04.2c-.02.11-2.06,11.2-5.03,17.72l-.08.18ZM969.02,221.94l.14.03,37.54,8.56c2.68-5.99,4.59-15.69,4.88-17.22l-36.36-12.74-.02-.16c-1.48-.53-2.72-1.57-3.51-2.93l-22.83-.86,1.58,2.22-3.05,10.51,15.07,14.84c.68-.79,1.54-1.42,2.51-1.82h0c.85-.35,1.72-.53,2.6-.52.45,0,.9.06,1.39.17l.07-.07Z"/><path class="cls-35" d="M924.02,198.98l-20.96-6.74c-.27.64-.64,1.26-1.14,1.81-.95,1.06-2.18,1.74-3.47,2.01l-.04.12-37.44,8.55s1.07,11.56,3.11,18.12l38.14-4.27.06.08c.43-.05.86-.07,1.27-.04h0c1.47.1,2.83.71,3.88,1.67l18.11-12.33-1.54-8.98Z"/><path class="cls-8" d="M863.92,223.11l-.06-.19c-2.03-6.51-3.11-18.05-3.12-18.17l-.02-.21,37.51-8.56.04-.13.14-.03c1.3-.28,2.45-.95,3.34-1.94.45-.51.82-1.09,1.09-1.74l.09-.21,21.31,6.85,1.59,9.28-.13.09-18.27,12.44-.14-.13c-1.03-.94-2.36-1.51-3.74-1.6-.4-.03-.81-.02-1.22.04l-.14.02-.06-.08-38.19,4.28ZM861.24,204.91c.16,1.59,1.2,11.66,3.03,17.67l38.08-4.26.06.08c.4-.04.79-.05,1.18-.02,1.42.1,2.8.67,3.89,1.6l17.83-12.14-1.49-8.68-20.61-6.63c-.28.62-.65,1.18-1.09,1.67-.92,1.03-2.12,1.74-3.46,2.06l-.04.12-.14.03-37.23,8.5Z"/><path class="cls-11" d="M923.74,197.36l7.7-8.55-8.35-19.71c-.78.27-1.62.4-2.49.35-1.42-.08-2.71-.61-3.73-1.45l-.06.03-30.21-24.09s-10.04,9.37-12.23,13.69l27.28,27.33-.04.15c1.94,1.89,2.45,4.73,1.45,7.12l20.96,6.74-.28-1.61Z"/><path class="cls-8" d="M924.32,199.33l-21.59-6.94.1-.24c1-2.37.45-5.06-1.39-6.85l-.1-.1.04-.16-27.31-27.36.08-.16c2.17-4.31,11.87-13.38,12.28-13.76l.15-.14,30.26,24.13.07-.03.11.09c1.02.84,2.26,1.32,3.59,1.4.82.05,1.63-.07,2.4-.34l.22-.08,8.5,20.06-.1.11-7.62,8.46.32,1.89ZM903.38,192.08l20.33,6.54-.23-1.33,7.68-8.52-8.2-19.36c-.77.24-1.56.34-2.37.29-1.38-.08-2.68-.57-3.75-1.41l-.06.03-.11-.09-30.04-23.96c-1.25,1.18-9.81,9.32-11.94,13.32l27.25,27.3-.04.15c1.84,1.87,2.42,4.59,1.5,7.04Z"/><path class="cls-1" d="M946.89,210.14l-10.86,4.48-.1-.06-6.99,24.45c1.23-2.02,3.42-3.14,5.65-3.1,1.01.02,2.03.29,2.98.81,1.25.69,2.18,1.72,2.74,2.92h.14s16.72,34.71,16.72,34.71c0,0,8.94-2.69,17-6.96l-12.77-36.56.05-.06c-.79-2.18-.34-4.53,1.01-6.24l-15.37-15.13-.21.73Z"/><path class="cls-8" d="M957.04,274.65l-16.74-34.76h-.14s-.06-.14-.06-.14c-.55-1.19-1.46-2.16-2.63-2.81-.9-.5-1.87-.76-2.87-.78-2.2-.04-4.29,1.1-5.44,2.98l-.93,1.53,7.56-26.47.27.15,10.64-4.39.29-1.01,15.81,15.57-.14.17c-1.36,1.71-1.72,3.96-.98,6l.05.13-.05.06,12.79,36.63-.18.1c-8,4.23-16.96,6.95-17.05,6.98l-.2.06ZM940.47,239.41h.14s16.69,34.65,16.69,34.65c1.35-.42,9.33-2.98,16.58-6.78l-12.74-36.5.05-.06c-.72-2.1-.36-4.38.97-6.16l-14.92-14.69-.13.45-10.99,4.54-6.57,22.98c1.29-1.39,3.13-2.2,5.06-2.16,1.08.02,2.12.3,3.09.84,1.22.67,2.18,1.67,2.78,2.89Z"/><path class="cls-14" d="M931.59,188.65l10.84.61,11.79-18.42c-1.07-.45-2.03-1.19-2.75-2.21-.82-1.16-1.21-2.49-1.2-3.82l-.03-.02v-38.44c-8.75-1.74-18.34-1.04-18.34-1.04l-4.35,38.26-.16.07c-.25,2.56-1.99,4.65-4.3,5.46l8.35,19.71.15-.17Z"/><path class="cls-8" d="M931.37,189.26l-8.6-20.3.24-.09c2.27-.8,3.9-2.86,4.14-5.26v-.14s.18-.07.18-.07l4.35-38.32h.2c.1-.02,9.73-.7,18.4,1.03l.2.04v.2s0,38.3,0,38.3l.03.02v.14c-.02,1.31.38,2.58,1.15,3.67.67.94,1.58,1.67,2.65,2.12l.27.11-12.02,18.79-10.87-.62-.33.36ZM931.53,188.4l10.77.61,11.56-18.07c-1.04-.49-1.93-1.24-2.59-2.17-.8-1.13-1.23-2.45-1.24-3.82l-.03-.02v-.14s0-38.24,0-38.24c-7.87-1.53-16.46-1.1-17.88-1.01l-4.34,38.2-.16.07c-.3,2.44-1.92,4.54-4.2,5.43l8.11,19.16Z"/><path class="cls-21" d="M943.36,189.31l5,7.04,23.46.88c-.8-1.45-1.06-3.21-.56-4.93.39-1.37,1.2-2.5,2.24-3.31v-.08s30.02-23.96,30.02-23.96c-5.48-10.33-10.65-14.99-10.65-14.99l-32.52,20.4-.11-.05c-1.85,1.2-4.12,1.33-6.03.52l-11.79,18.42.93.05Z"/><path class="cls-8" d="M948.24,196.59l-5.01-7.04-1.23-.07,12.12-18.95.19.08c1.91.81,4.08.62,5.8-.5l.12-.08.11.05,32.56-20.42.14.12c.05.05,5.26,4.8,10.7,15.05l.09.18-30.08,24v.08s-.1.09-.1.09c-1.04.81-1.79,1.91-2.16,3.18-.46,1.6-.27,3.29.54,4.74l.21.38-24.01-.91ZM942.86,189.04l.63.04,5,7.04,22.93.86c-.71-1.48-.85-3.15-.39-4.74.38-1.33,1.15-2.48,2.22-3.34v-.08s29.97-23.92,29.97-23.92c-4.88-9.14-9.53-13.81-10.37-14.62l-32.48,20.37-.11-.05c-1.78,1.1-3.98,1.3-5.95.54l-11.45,17.9Z"/><path class="cls-10" d="M925.72,208.93l-.17-.97-18.11,12.33c1.03.94,1.77,2.22,2.02,3.7.24,1.4,0,2.77-.58,3.95l.1.15-16.64,34.54s6.5,5.53,16.09,8.93l20.48-32.53h.03s6.99-24.45,6.99-24.45l-10.21-5.64Z"/><path class="cls-8" d="M908.54,271.84l-.18-.06c-9.52-3.37-16.1-8.91-16.17-8.97l-.14-.12.08-.17,16.58-34.41-.1-.15.06-.13c.59-1.18.78-2.49.56-3.8-.23-1.39-.91-2.62-1.95-3.56l-.23-.21,18.68-12.72.21,1.23,10.27,5.68-7.09,24.83h-.08s-20.5,32.57-20.5,32.57ZM892.65,262.56c1,.82,7.12,5.63,15.68,8.7l20.41-32.43,6.9-24.14-10.14-5.6-.12-.72-17.55,11.95c.99.99,1.64,2.24,1.88,3.63.23,1.36.04,2.73-.54,3.97l.1.15-16.62,34.49Z"/><circle class="cls-37" cx="936.8" cy="200.74" r="49.45"/><path class="cls-8" d="M933.99,250.35c-27.36-1.55-48.35-25.07-46.8-52.42,1.55-27.36,25.07-48.35,52.42-46.8,27.36,1.55,48.35,25.07,46.8,52.42-1.55,27.36-25.07,48.35-52.42,46.8ZM939.59,151.61c-27.09-1.53-50.37,19.26-51.91,46.34-1.53,27.09,19.26,50.37,46.34,51.91,27.09,1.53,50.37-19.26,51.91-46.34,1.53-27.09-19.26-50.37-46.34-51.91Z"/><path class="cls-8" d="M880.76,241.52s4.02,12.01,4.9,13.77,3.33,6.23,4.41,7.34,3.93,3.86,5.07,4.32,9.22,3.23,11.29,3.35l2.07.12s3.02-13.93,3.59-15.21c.57-1.28,6.88-12.19,6.88-12.19l10.5-5.05,15.4-.59,13.82-9.31,3.07-9.19,5.21-18.18,3.84-15.81-3.6,4.64-9.74,13.44s-8.88,10.13-14.65,13.93c-5.77,3.8-13.01,6.61-13.01,6.61,0,0-8.98,2.88-15.01,3.22-6.03.34-9.13.25-9.13.25l-14.66,11.43-10.26,3.1Z"/><polygon class="cls-30" points="959.1 226.94 950.9 229.38 945.26 232.87 941.7 236.41 937.06 235.43 931.38 235.94 925.38 238.17 920.02 242.04 915.3 248.01 912.09 255.2 909.49 265.15 908.5 270.42 922.82 270 934.14 266.55 940.28 261.76 946.12 254.54 951.44 245.41 957.3 232.09 959.1 226.94"/><path class="cls-19" d="M870.48,223.27l4.52,17.33,31.86,2.98-1.18-16.59s-30.18-2.02-35.2-3.72Z"/><path class="cls-8" d="M976.03,182.55c-1.97-.11-4-.54-5.91-1.5-7.49-3.75-7.98-11.59-8-11.92l1.21-.06c0,.07.49,7.47,7.33,10.9,6.9,3.46,15.84-.63,15.93-.67l.51,1.1c-.29.13-5.41,2.48-11.07,2.16Z"/><ellipse class="cls-29" cx="882.76" cy="177.24" rx="22.17" ry="30.49" transform="translate(-5.57 30.47) rotate(-1.97)"/><path class="cls-8" d="M882.27,208.3c-5.55-.31-10.79-3.33-14.91-8.6-4.46-5.71-7.07-13.41-7.36-21.68-.28-8.27,1.79-16.13,5.85-22.13,4.1-6.07,9.72-9.52,15.84-9.73,6.12-.21,11.97,2.85,16.47,8.62,4.46,5.71,7.07,13.41,7.36,21.68.28,8.27-1.79,16.13-5.85,22.13-4.1,6.07-9.72,9.52-15.84,9.73-.52.02-1.04.01-1.56-.02ZM883.17,147.38c-.48-.03-.96-.03-1.44-.02-5.72.2-11,3.46-14.87,9.2-3.91,5.79-5.92,13.4-5.64,21.41.28,8.01,2.8,15.46,7.1,20.97,4.26,5.45,9.75,8.35,15.47,8.15,5.72-.2,11-3.46,14.87-9.2,3.91-5.79,5.92-13.4,5.64-21.41-.28-8.01-2.8-15.46-7.1-20.97-3.9-4.99-8.84-7.84-14.03-8.14Z"/><ellipse class="cls-25" cx="918.7" cy="170.91" rx="27.23" ry="34.03" transform="translate(-5.34 31.7) rotate(-1.97)"/><path class="cls-8" d="M917.83,205.51c-14.43-.82-26.33-15.41-26.96-33.64-.66-19.09,11.29-35.05,26.63-35.58,15.34-.53,28.36,14.57,29.02,33.66h0c.66,19.09-11.29,35.05-26.63,35.58-.69.02-1.38.02-2.06-.02ZM919.5,137.53c-.65-.04-1.3-.04-1.95-.02-14.67.51-26.09,15.9-25.46,34.32.63,18.42,13.09,32.99,27.76,32.49,14.67-.51,26.09-15.9,25.46-34.32h0c-.61-17.6-12-31.68-25.81-32.47Z"/><ellipse class="cls-8" cx="918.7" cy="170.91" rx="6.02" ry="4.13" transform="translate(722.93 1084.64) rotate(-88.45)"/><ellipse class="cls-8" cx="877.96" cy="177.4" rx="6.02" ry="4.13" transform="translate(676.82 1050.23) rotate(-88.45)"/><path class="cls-8" d="M917.98,108.66s-1.57-23.65,7.85-24.86c0,0,37.45,23.51,39.49,43.28l-3.23,9.93s-25.98-27.16-44.11-28.35Z"/><path class="cls-8" d="M854.62,149.51l-4.21-10.16s2.53-22.92,11.25-29.6c0,0,6.82-1.88,9.58,7.84,0,0-15.05,22.02-16.61,31.92Z"/><circle class="cls-17" cx="826.24" cy="258.27" r="21.51"/><path class="cls-8" d="M825.01,280.11c-12.04-.68-21.28-11.03-20.6-23.07.68-12.04,11.03-21.28,23.07-20.6,12.04.68,21.28,11.03,20.6,23.07s-11.03,21.28-23.07,20.6ZM827.44,237.16c-11.64-.66-21.65,8.27-22.31,19.91s8.27,21.65,19.91,22.31c11.64.66,21.65-8.27,22.31-19.91.66-11.64-8.27-21.65-19.91-22.31Z"/><path class="cls-2" d="M811.08,243.02s-8.36-.44-13.3-9.95c-4.94-9.5-4.61-12.65-10.21-10.52s-4.82,10.47-2.83,14.03c1.99,3.56,7.27,12.39,22.61,11.42,0,0,5.32-1.05,3.74-4.98Z"/><path class="cls-8" d="M803.22,248.39c-12.7-.72-17.22-8.8-18.8-11.63-1.38-2.47-2.17-6.96-.9-10.43.74-2.03,2.06-3.42,3.92-4.12,4.71-1.79,5.57.04,8.1,5.45.67,1.43,1.5,3.21,2.56,5.24,4.78,9.19,12.91,9.75,13,9.75h0s.23.01.23.01l.09.22c.44,1.1.43,2.11-.05,2.99-1.03,1.9-3.84,2.47-3.96,2.49h-.05c-1.47.1-2.85.1-4.14.03ZM790.44,222.28c-.72-.04-1.59.17-2.74.61-1.66.63-2.83,1.87-3.5,3.69-1.14,3.15-.46,7.46.85,9.82,1.69,3.02,6.83,12.2,22.24,11.24.25-.05,2.62-.6,3.44-2.12.34-.62.37-1.35.09-2.16-1.43-.17-8.85-1.45-13.36-10.12-1.07-2.05-1.9-3.84-2.57-5.27-1.8-3.84-2.61-5.58-4.44-5.69Z"/><path class="cls-34" d="M807.04,267.96s-8.48,2.18-11.15,6.28c-2.67,4.11-3.91,13.16-8.07,13.65-4.16.49-8.36-4.12-7.8-8.23.55-4.1,2.87-9.15,6.77-12.14,8.26-6.34,18.05-7.13,18.05-7.13,0,0,3.01,3.37,2.2,7.56Z"/><path class="cls-8" d="M786.87,288.29c-1.69-.1-3.41-.93-4.82-2.36-1.79-1.81-2.68-4.17-2.39-6.31.49-3.64,2.6-9.08,6.91-12.38,8.25-6.34,18.15-7.19,18.24-7.2h.18s.12.12.12.12c.13.14,3.13,3.56,2.29,7.88l-.04.23-.22.06c-.08.02-8.38,2.19-10.93,6.13-.91,1.4-1.64,3.36-2.41,5.45-1.47,3.94-2.98,8.02-5.92,8.37-.33.04-.66.05-1,.03ZM804.68,260.78c-1.38.15-10.21,1.31-17.67,7.03-4.14,3.17-6.16,8.4-6.63,11.9-.25,1.88.58,4.07,2.19,5.7,1.53,1.56,3.43,2.33,5.21,2.12,2.49-.3,3.93-4.16,5.32-7.9.79-2.12,1.54-4.13,2.49-5.59,2.5-3.84,9.73-5.99,11.13-6.38.55-3.4-1.52-6.24-2.04-6.89Z"/><path class="cls-3" d="M809.11,271.27s-7.55,3.9-10.61,8.47c-2.9,4.34-6.61,11.42-2.62,16.15,3.99,4.73,8.3,2.78,9.61.54s1.44-6.69,1.6-7.37,3.17-10.64,7.24-12.88c0,0,.27-4.8-5.23-4.91Z"/><path class="cls-8" d="M800.86,299.16c-1.44-.08-3.33-.75-5.26-3.03-3.15-3.73-2.27-9.31,2.59-16.59,3.07-4.6,10.43-8.43,10.75-8.59l.08-.04h.09c1.86.04,3.29.6,4.26,1.65,1.42,1.54,1.32,3.56,1.32,3.65v.2s-.19.1-.19.1c-3.76,2.07-6.77,11.39-7.06,12.65-.03.13-.07.49-.11.92-.17,1.66-.48,4.75-1.53,6.55-.81,1.39-2.45,2.38-4.16,2.52-.24.02-.5.03-.78.01ZM809.2,271.64c-.82.44-7.59,4.12-10.39,8.31-4.66,6.98-5.55,12.26-2.64,15.71,2.1,2.49,4.11,2.88,5.42,2.76,1.8-.15,3.06-1.26,3.59-2.17.98-1.66,1.28-4.65,1.44-6.26.05-.5.08-.84.13-1.01.02-.1,2.96-10.4,7.23-13.01-.02-.5-.15-1.87-1.13-2.93-.82-.88-2.05-1.35-3.65-1.41Z"/><path class="cls-20" d="M828.67,279.64s-3.64-5.96-9.68-4.17c-6.03,1.78-11.54,4.41-12.86,9.62-1.33,5.21,0,11.5,4.37,10.43s4.19-4.79,5.05-8.31c.86-3.52,4.22-5.59,6.41-6.21s6.71-1.37,6.71-1.37Z"/><path class="cls-8" d="M809.35,296c-.85-.05-1.61-.39-2.24-1.02-2.02-2.04-2.2-6.56-1.33-9.97,1.46-5.75,7.78-8.3,13.11-9.88,6.23-1.84,10.05,4.27,10.09,4.33l.28.46-.53.09s-4.46.74-6.67,1.36c-1.75.49-5.28,2.36-6.16,5.94-.15.61-.27,1.24-.38,1.84-.54,2.85-1.1,5.79-4.93,6.73-.43.11-.85.15-1.24.12ZM821.64,275.51c-.79-.04-1.64.04-2.54.31-5.15,1.52-11.24,3.96-12.61,9.36-.95,3.75-.47,7.65,1.14,9.28.74.74,1.67.98,2.79.71,3.38-.83,3.85-3.3,4.39-6.16.12-.62.24-1.25.39-1.88.83-3.39,4.04-5.73,6.67-6.47,1.79-.5,4.91-1.06,6.18-1.28-.79-1.08-3.04-3.68-6.41-3.87Z"/><path id="path32" class="cls-19" d="M987.28,167.13l.98-.69-.37-.11.11-.32.63.21.2.29-1.34.93-.22-.32"/><path id="path34" class="cls-19" d="M988.86,167.96s.09-.06.13-.1c.05-.04.09-.08.12-.13.03-.04.06-.09.07-.14.01-.05,0-.09-.03-.13s-.07-.07-.12-.07c-.05,0-.1,0-.15.02-.05.02-.11.04-.16.07-.05.03-.1.06-.14.09s-.09.07-.14.11c-.05.04-.09.08-.12.13-.03.04-.06.09-.07.14-.01.05,0,.09.03.13s.07.06.12.07c.05,0,.1,0,.15-.02.05-.02.11-.04.16-.07.05-.03.1-.06.15-.09ZM989.09,168.28c-.09.07-.19.12-.29.16-.1.04-.2.06-.29.07-.09,0-.18-.01-.27-.05-.08-.04-.16-.11-.23-.2s-.1-.19-.11-.28c0-.09,0-.18.04-.27.04-.09.09-.17.16-.25.07-.08.16-.15.25-.22s.19-.12.29-.16c.1-.04.19-.06.29-.06.09,0,.18.02.27.06.08.04.16.11.23.2s.1.19.11.28c0,.09,0,.18-.04.27-.03.09-.09.17-.16.25-.07.08-.15.15-.25.22"/><path id="path36" class="cls-19" d="M989.66,170.52l.98-.69-.37-.11.11-.32.63.21.2.29-1.34.93-.22-.32"/><path id="path38" class="cls-19" d="M991.23,171.35s.09-.06.13-.1c.05-.04.09-.08.12-.13.03-.04.06-.09.07-.14.01-.05,0-.09-.03-.13s-.07-.07-.12-.07c-.05,0-.1,0-.15.02-.05.02-.11.04-.16.07-.05.03-.1.06-.14.09s-.09.07-.14.11c-.05.04-.09.08-.12.13-.03.04-.06.09-.07.14-.01.05,0,.09.03.13s.07.06.12.07c.05,0,.1,0,.15-.02.05-.02.11-.04.16-.07.05-.03.1-.06.15-.09ZM991.46,171.67c-.09.07-.19.12-.29.16-.1.04-.2.06-.29.07-.09,0-.18-.01-.27-.05-.08-.04-.16-.11-.23-.2s-.1-.19-.11-.28c0-.09,0-.18.04-.27.04-.09.09-.17.16-.25.07-.08.16-.15.25-.22s.19-.12.29-.16c.1-.04.19-.06.29-.06s.18.02.27.06c.08.04.16.11.23.2s.1.19.11.28c0,.09,0,.18-.04.27-.03.09-.09.17-.16.25-.07.08-.15.15-.25.22"/><path id="path40" class="cls-19" d="M985.16,168.58l.98-.69-.37-.11.11-.32.63.21.2.29-1.34.93-.22-.32"/><path id="path42" class="cls-19" d="M985.94,169.69l.98-.69-.37-.11.11-.32.63.21.2.29-1.34.93-.22-.32"/><path id="path44" class="cls-19" d="M986.71,170.79l.98-.69-.37-.11.11-.32.63.21.2.29-1.34.93-.22-.32"/><path id="path46" class="cls-19" d="M988.33,171.67s.09-.06.13-.1c.05-.04.09-.08.12-.13.03-.04.06-.09.07-.14.01-.05,0-.09-.03-.13s-.07-.07-.12-.07c-.05,0-.1,0-.15.02-.05.02-.11.04-.16.07-.05.03-.1.06-.14.09s-.09.07-.14.11c-.05.04-.09.08-.12.13-.03.04-.06.09-.07.14-.01.05,0,.09.03.13s.07.06.12.07c.05,0,.1,0,.15-.02.05-.02.11-.04.16-.07.05-.03.1-.06.15-.09ZM988.56,172c-.09.07-.19.12-.29.16-.1.04-.2.06-.29.07-.09,0-.18-.01-.27-.05-.08-.04-.16-.11-.23-.2s-.1-.19-.11-.28c0-.09,0-.18.04-.27.04-.09.09-.17.16-.25.07-.08.16-.15.25-.22s.19-.12.29-.16c.1-.04.19-.06.29-.06.09,0,.18.02.27.06.08.04.16.11.23.2s.1.19.11.28c0,.09,0,.18-.04.27-.03.09-.09.17-.16.25-.07.08-.15.15-.25.22"/><path id="path48" class="cls-19" d="M984.11,170.26l.71-.5-.27-.08.08-.23.46.16.15.21-.97.68-.16-.23"/><path id="path50" class="cls-19" d="M985.23,171.87l.71-.5-.27-.08.08-.23.46.16.15.21-.97.68-.16-.23"/><path id="path52" class="cls-19" d="M984.15,169.28s.06-.05.1-.08c.03-.03.06-.06.09-.09.02-.03.04-.06.05-.1,0-.03,0-.07-.02-.1s-.05-.05-.08-.05c-.04,0-.07,0-.11.01-.04.01-.08.03-.12.05-.04.02-.07.04-.1.06s-.06.05-.1.08c-.03.03-.06.06-.09.09-.02.03-.04.07-.05.1,0,.03,0,.07.02.1s.05.05.08.05c.03,0,.07,0,.11-.01.04-.01.08-.03.12-.05.04-.02.07-.04.11-.07ZM984.31,169.52c-.07.05-.14.09-.21.12-.07.03-.14.05-.21.05-.07,0-.13,0-.19-.04-.06-.03-.12-.08-.16-.15s-.08-.14-.08-.2c0-.07,0-.13.03-.2.03-.06.06-.12.12-.18.05-.06.11-.11.18-.16s.14-.09.21-.12c.07-.03.14-.05.21-.05.07,0,.13.01.19.04.06.03.12.08.16.15s.07.14.08.2c0,.07,0,.13-.03.19-.03.06-.06.12-.12.18-.05.06-.11.11-.18.16"/><path id="path54" class="cls-19" d="M985.28,170.89s.06-.05.1-.08c.03-.03.06-.06.09-.09.02-.03.04-.06.05-.1,0-.03,0-.07-.02-.1s-.05-.05-.08-.05c-.03,0-.07,0-.11.01-.04.01-.08.03-.12.05-.04.02-.07.04-.1.06s-.06.05-.1.08c-.03.03-.06.06-.09.09-.02.03-.04.07-.05.1,0,.03,0,.07.02.1s.05.05.08.05c.03,0,.07,0,.11-.01.04-.01.08-.03.12-.05.04-.02.07-.04.11-.07ZM985.44,171.13c-.07.05-.14.09-.21.12-.07.03-.14.05-.21.05-.07,0-.13,0-.19-.04-.06-.03-.12-.08-.16-.15s-.08-.14-.08-.2c0-.07,0-.13.03-.2.03-.06.06-.12.12-.18.05-.06.11-.11.18-.16s.14-.09.21-.12c.07-.03.14-.05.21-.05.07,0,.13.01.19.04.06.03.12.08.16.15s.07.14.08.2c0,.07,0,.13-.03.19-.03.06-.06.12-.12.18-.05.06-.11.11-.18.16"/><path id="path56" class="cls-19" d="M987.1,174.54l.71-.5-.27-.08.08-.23.46.16.15.21-.97.68-.16-.23"/><path id="path58" class="cls-19" d="M987.15,173.56s.06-.05.1-.08c.03-.03.06-.06.09-.09.02-.03.04-.06.05-.1,0-.03,0-.07-.02-.1s-.05-.05-.08-.05c-.03,0-.07,0-.11.01-.04.01-.08.03-.12.05-.04.02-.07.04-.1.06s-.06.05-.1.08c-.03.03-.06.06-.09.09-.02.03-.04.07-.05.1,0,.03,0,.07.02.1s.05.05.08.05c.03,0,.07,0,.11-.01.04-.01.08-.03.12-.05.04-.02.07-.04.11-.07ZM987.31,173.8c-.07.05-.14.09-.21.12-.07.03-.14.05-.21.05-.07,0-.13,0-.19-.04-.06-.03-.12-.08-.16-.15s-.08-.14-.08-.2c0-.07,0-.13.03-.2.03-.06.06-.12.12-.18.05-.06.11-.11.18-.16s.14-.09.21-.12c.07-.03.14-.05.21-.05.07,0,.13.01.19.04.06.03.12.08.16.15s.07.14.08.2c0,.07,0,.13-.03.19-.03.06-.06.12-.12.18-.05.06-.11.11-.18.16"/><path id="path60" class="cls-19" d="M985.34,174.46l.71-.5-.27-.08.08-.23.46.16.15.21-.97.68-.16-.23"/><path id="path62" class="cls-19" d="M985.39,173.48s.06-.05.1-.08c.03-.03.06-.06.09-.09.02-.03.04-.06.05-.1,0-.03,0-.07-.02-.1s-.05-.05-.08-.05c-.03,0-.07,0-.11.01-.04.01-.08.03-.12.05-.04.02-.07.04-.1.06s-.06.05-.1.08c-.03.03-.06.06-.09.09-.02.03-.04.07-.05.1,0,.03,0,.07.02.1s.05.05.08.05c.03,0,.07,0,.11-.01.04-.01.08-.03.12-.05.04-.02.07-.04.11-.07ZM985.55,173.72c-.07.05-.14.09-.21.12-.07.03-.14.05-.21.05-.07,0-.13-.01-.19-.04-.06-.03-.12-.08-.16-.15s-.08-.14-.08-.2c0-.07,0-.13.03-.2.03-.06.06-.12.12-.18.05-.06.11-.11.18-.16s.14-.09.21-.12c.07-.03.14-.05.21-.05.07,0,.13.01.19.04.06.03.12.08.16.15s.07.14.08.2c0,.07,0,.13-.03.19-.03.06-.06.12-.12.18-.05.06-.11.11-.18.16"/><path id="path64" class="cls-19" d="M982.76,170.73l.49-.35-.18-.06.06-.16.32.11.1.15-.67.47-.11-.16"/><path id="path66" class="cls-19" d="M982.79,170.06s.04-.03.07-.05c.02-.02.04-.04.06-.06.02-.02.03-.04.03-.07,0-.02,0-.05-.01-.07s-.03-.03-.06-.04c-.02,0-.05,0-.08,0-.03,0-.05.02-.08.03-.03.02-.05.03-.07.04s-.04.03-.07.05c-.02.02-.04.04-.06.06-.02.02-.03.05-.03.07,0,.02,0,.05.01.07s.03.03.06.04c.02,0,.05,0,.08,0,.03,0,.05-.02.08-.04.03-.02.05-.03.07-.05ZM982.9,170.22s-.1.06-.15.08c-.05.02-.1.03-.15.03-.05,0-.09,0-.13-.03-.04-.02-.08-.05-.11-.1s-.05-.1-.06-.14c0-.05,0-.09.02-.14.02-.04.05-.09.08-.13.04-.04.08-.08.13-.11s.1-.06.15-.08c.05-.02.1-.03.14-.03.05,0,.09,0,.13.03.04.02.08.05.11.1s.05.09.06.14c0,.05,0,.09-.02.13-.02.04-.04.08-.08.12-.04.04-.08.08-.13.11"/><path id="path68" class="cls-19" d="M983.28,173.31l.49-.35-.18-.06.06-.16.32.11.1.15-.67.47-.11-.16"/><path id="path70" class="cls-19" d="M983.31,172.64s.04-.03.07-.05c.02-.02.04-.04.06-.06s.03-.05.03-.07c0-.02,0-.05-.01-.07s-.03-.03-.06-.04c-.02,0-.05,0-.08,0-.03,0-.05.02-.08.03-.03.02-.05.03-.07.04s-.04.03-.07.05c-.02.02-.04.04-.06.06-.02.02-.03.05-.03.07,0,.02,0,.05.01.07s.03.03.06.04c.02,0,.05,0,.08,0,.03,0,.05-.02.08-.04.03-.02.05-.03.07-.05ZM983.42,172.8s-.1.06-.15.08c-.05.02-.1.03-.15.03-.05,0-.09,0-.13-.03-.04-.02-.08-.05-.11-.1s-.05-.09-.06-.14c0-.05,0-.09.02-.14.02-.04.04-.09.08-.13.04-.04.08-.08.13-.11s.1-.06.15-.08c.05-.02.1-.03.14-.03.05,0,.09,0,.13.03.04.02.08.05.11.1s.05.09.06.14c0,.05,0,.09-.02.13-.02.04-.04.08-.08.12-.04.04-.08.08-.13.11"/><path id="path72" class="cls-19" d="M986.51,175.08s.06-.05.1-.08c.03-.03.06-.06.09-.09.02-.03.04-.06.05-.1,0-.03,0-.07-.02-.1s-.05-.05-.08-.05c-.04,0-.07,0-.11.01-.04.01-.08.03-.12.05-.04.02-.07.04-.1.06s-.06.05-.1.08c-.03.03-.06.06-.09.09-.02.03-.04.07-.05.1,0,.03,0,.07.02.1s.05.05.08.05c.03,0,.07,0,.11-.01.04-.01.08-.03.12-.05.04-.02.07-.04.11-.07ZM986.67,175.32c-.07.05-.14.09-.21.12-.07.03-.14.05-.21.05-.07,0-.13-.01-.19-.04-.06-.03-.12-.08-.16-.15s-.08-.14-.08-.2c0-.07,0-.13.03-.2.03-.06.06-.12.12-.18.05-.06.11-.11.18-.16s.14-.09.21-.12c.07-.03.14-.05.21-.05.07,0,.13.01.19.04.06.03.12.08.16.15s.07.14.08.2c0,.07,0,.13-.03.19-.03.06-.06.12-.12.18-.05.06-.11.11-.18.16"/><path id="path74" class="cls-19" d="M992.75,170.06c.94-.99,1.05-2.52.27-3.63-.12-.17-.26-.32-.4-.46,1.4-1.39,1.65-3.63.48-5.3s-3.32-2.2-5.09-1.39c-.95-1.13-2.62-1.36-3.85-.5-1.3.91-1.62,2.71-.71,4.01l2.47,3.53c.13.18.37.22.56.1s.22-.37.1-.56l-2.47-3.53c-.66-.94-.43-2.25.51-2.9.94-.66,2.25-.43,2.9.51.24.34.37.74.38,1.16,0,.22.19.4.41.39.22,0,.4-.19.39-.41,0-.39-.09-.78-.25-1.13,1.41-.59,3.1-.14,4.01,1.16.97,1.39.73,3.27-.5,4.38-.11-.05-.22-.1-.34-.14-.21-.07-.43.04-.51.25-.07.21.04.44.25.51.42.14.77.41,1.02.77.57.81.48,1.91-.19,2.63-.13.14-.14.35-.04.5.02.02.03.04.05.06.16.15.41.14.56-.02"/><path class="cls-13" d="M955.3,228.13c11.3-17.11,18.28-35.52,20.84-42.93-14.86,18.84-32.8,33.23-53.38,42.79-20.07,9.33-36.2,10.9-40.67,11.16-.52.03-1.03.05-1.52.05l9.18,23.95c30.14,7.44,52.28-14.92,65.56-35.03Z"/><path class="cls-8" d="M911.37,271.24c-8.99-.51-17.02-3.29-20.65-7.08-6.2-6.47-9.72-19.19-10.55-22.5l-5.65-.5-4.87-18.66.93.16c.35.06,35.41,6,49.81,2.65.48-.11.96-.22,1.45-.33,11.28-2.56,26.72-6.07,48.64-41.32l1.76-2.83-.65,3.27c-.03.17-3.39,16.99-9.3,35.29-7.96,24.66-16.51,40.11-25.42,45.93-7.36,4.81-16.87,6.41-25.5,5.92ZM881.46,241.78c.99,3.75,4.46,15.61,10.14,21.54,3.37,3.52,10.98,6.14,19.38,6.69,9.53.61,18.73-1.46,25.23-5.71,8.55-5.58,17.17-21.24,24.93-45.27,4.34-13.43,7.29-26.07,8.56-31.86-21.23,33.01-36.41,36.46-47.58,39-.49.11-.97.22-1.45.33-3.78.88-8.86,1.14-14.34,1.05l1.37,16.53-26.25-2.31ZM875.48,240.03l30.89,2.71-1.26-15.22c-13.82-.36-29.75-2.84-33.81-3.51l4.18,16.01Z"/><path class="cls-8" d="M909.42,270.47l-1.21-.07c0-.06.39-6.23,2.6-13.26,2.94-9.37,7.76-16.05,13.93-19.32,10.03-5.3,16.94-2.09,17.23-1.95l-.53,1.1c-.06-.03-6.68-3.06-16.14,1.93-14.29,7.55-15.87,31.34-15.89,31.58Z"/><path class="cls-8" d="M932.1,251.94l-1.07-.58c.38-.7,9.32-17.11,16.95-21.2,7.44-3.99,11.32-3.82,11.48-3.81l-.07,1.21s-3.75-.13-10.84,3.67c-7.31,3.92-16.36,20.54-16.45,20.71Z"/><rect class="cls-8" x="888.49" y="225.59" width="1.22" height="10.61" transform="translate(-22.77 119.94) rotate(-7.62)"/><path class="cls-5" d="M1017.55,275.8s-10.05,5.94-13.81,4.97c-3.76-.97-14.13,1.21-12.97,6.07,1.25,5.23,6.8,4.46,10.31,3.31,3.51-1.15,13.45-5.1,13.45-5.1l3.02-9.25Z"/><path class="cls-8" d="M995.87,291.33c-1.01-.06-2.01-.28-2.88-.77-1.31-.73-2.17-1.96-2.58-3.65-.3-1.27.1-2.49,1.15-3.52,2.74-2.69,9.38-3.73,12.26-2.98,3.57.92,13.44-4.87,13.54-4.93l.83-.49-3.38,10.33-.16.06c-.1.04-9.99,3.97-13.47,5.11-1.3.43-3.34.95-5.32.84ZM1002.28,280.93c-3.06-.17-8.04.87-10.2,2.99-.88.86-1.2,1.81-.95,2.83.35,1.48,1.1,2.55,2.22,3.18,2.33,1.3,5.77.48,7.62-.13,3.21-1.05,11.98-4.52,13.27-5.03l2.68-8.19c-2.51,1.41-10.01,5.37-13.26,4.53-.39-.1-.85-.16-1.37-.19Z"/><path class="cls-18" d="M1004.72,253.11s-10.21,1.07-12.36,3.73c-2.15,2.65-10.61,6.55-12.34,2.51-1.86-4.35,2.47-6.72,5.54-7.74,3.08-1.03,12.54-3.82,12.54-3.82l6.62,5.32Z"/><path class="cls-8" d="M982.81,261.45c-.15,0-.3-.02-.44-.04-1.31-.18-2.24-.84-2.7-1.91-.61-1.42-.64-2.75-.09-3.96,1.07-2.38,4.13-3.7,5.86-4.27,3.05-1.02,12.46-3.79,12.55-3.82l.18-.05,7.46,6-.88.09c-.1.01-10.09,1.09-12.12,3.6-1.58,1.96-6.47,4.57-9.83,4.38ZM998.02,248.19c-1.33.39-9.54,2.83-12.34,3.76-1.61.54-4.47,1.76-5.42,3.88-.46,1.02-.43,2.15.1,3.37.36.83,1.07,1.33,2.12,1.48,3.08.42,8.08-2.2,9.6-4.07,1.86-2.3,9.19-3.43,11.74-3.76l-5.8-4.66Z"/><path class="cls-15" d="M1005.05,271.44s-10.05,5.94-13.81,4.97-14.13,1.21-12.97,6.07c1.25,5.23,6.8,4.46,10.31,3.31,3.51-1.15,11.4-4.25,11.4-4.25l5.07-10.1Z"/><path class="cls-8" d="M983.37,286.98c-1.01-.06-2.01-.28-2.88-.77-1.31-.73-2.17-1.96-2.57-3.65-.3-1.27.1-2.49,1.15-3.52,2.74-2.69,9.38-3.73,12.26-2.98,3.57.92,13.44-4.87,13.54-4.93l1.07-.63-5.69,11.34-.13.05c-.08.03-7.95,3.12-11.42,4.26-1.3.43-3.34.95-5.33.84ZM989.78,276.57c-3.06-.17-8.04.87-10.2,2.99-.88.86-1.2,1.81-.95,2.83.35,1.48,1.1,2.55,2.22,3.18,2.33,1.3,5.77.48,7.62-.13,3.21-1.05,10.21-3.79,11.25-4.19l4.47-8.9c-2.71,1.5-9.87,5.22-13.04,4.41-.39-.1-.85-.16-1.37-.19Z"/><path class="cls-32" d="M1002.07,265.33s-11.08,3.69-14.55,1.95c-3.47-1.74-14.07-1.8-13.96,3.2.12,5.37,5.71,5.8,9.38,5.41,3.67-.39,10.99-1.38,10.99-1.38l8.14-9.18Z"/><path class="cls-8" d="M980.09,276.33c-1.79-.1-3.76-.53-5.14-1.74-1.12-.99-1.71-2.37-1.75-4.11-.03-1.3.62-2.41,1.87-3.2,3.24-2.05,9.95-1.67,12.62-.33,3.3,1.65,14.16-1.93,14.27-1.97l1.29-.43-9.13,10.3-.13.02c-.07,0-7.37,1-11,1.38-.78.08-1.8.14-2.9.08ZM982.69,266.61c-2.6-.15-5.49.19-7.23,1.29-1.04.66-1.55,1.52-1.53,2.57.03,1.52.54,2.73,1.5,3.57,2,1.76,5.54,1.69,7.47,1.48,3.35-.35,9.83-1.22,10.84-1.36l7.18-8.1c-3.04.92-10.68,2.98-13.57,1.53-1.04-.52-2.78-.88-4.67-.99Z"/><circle class="cls-16" cx="1011.5" cy="264.36" r="21.51"/><path class="cls-8" d="M1010.26,286.2c-12.04-.68-21.28-11.03-20.6-23.07.68-12.04,11.03-21.28,23.07-20.6,12.04.68,21.28,11.03,20.6,23.07-.68,12.04-11.03,21.28-23.07,20.6ZM1012.69,243.25c-11.64-.66-21.65,8.27-22.3,19.91-.66,11.64,8.27,21.65,19.91,22.31,11.64.66,21.65-8.27,22.31-19.91.66-11.64-8.27-21.65-19.91-22.3Z"/></g><g id="Layer_4"><path class="cls-9" d="M866.47,231.17s6.05-.97,8.16,5.59l34.62,80.19-6.35.04-36.43-85.82Z"/><path class="cls-33" d="M775.19,316.95l-36.4-82.69c-.64-1.46.43-3.09,2.02-3.09h125.67c1.86,0,3.53,1.1,4.27,2.8l36.14,82.98h-131.69Z"/><path class="cls-28" d="M775.19,316.95s-1.08,4.29,0,7.18h201.45l5.88-7.13h-75.64l-131.69-.04Z"/><ellipse class="cls-23" cx="821.43" cy="277.08" rx="6.1" ry="8.16" transform="translate(74.65 717.36) rotate(-49.16)"/></g><g id="Layer_6"><path id="path32-2" class="cls-19" d="M1066.13,329.63v-2.5l-.63.49-.42-.57,1.12-.82h.74v3.41h-.8"/><path id="path34-2" class="cls-19" d="M1069.43,327.91c0-.11,0-.22-.02-.35-.01-.13-.04-.25-.07-.36-.04-.11-.09-.2-.15-.28-.07-.08-.15-.11-.26-.11s-.19.04-.26.11c-.07.08-.12.17-.16.28-.04.11-.06.23-.07.36-.01.13-.02.25-.02.35s0,.23.02.36c.01.13.04.25.07.36.04.11.09.2.16.28.07.08.15.11.26.11s.19-.04.26-.11c.07-.08.12-.17.15-.28.04-.11.06-.23.07-.36.01-.13.02-.25.02-.36ZM1070.26,327.91c0,.24-.02.47-.07.69-.05.22-.12.41-.23.57-.11.17-.24.3-.41.39-.17.1-.37.15-.61.15s-.45-.05-.62-.15c-.17-.1-.31-.23-.42-.39-.11-.16-.19-.36-.23-.57-.05-.22-.07-.45-.07-.69s.02-.47.07-.69c.05-.22.13-.41.23-.57.11-.16.25-.29.42-.39.17-.1.38-.14.62-.14s.45.05.61.14c.17.1.3.23.41.39.11.16.18.35.23.57.05.22.07.44.07.69"/><path id="path36-2" class="cls-19" d="M1074.77,329.63v-2.5l-.63.49-.42-.57,1.12-.82h.74v3.41h-.8"/><path id="path38-2" class="cls-19" d="M1078.08,327.91c0-.11,0-.22-.02-.35-.01-.13-.04-.25-.07-.36-.04-.11-.09-.2-.15-.28-.07-.08-.15-.11-.26-.11s-.19.04-.26.11c-.07.08-.12.17-.16.28-.04.11-.06.23-.07.36-.01.13-.02.25-.02.35s0,.23.02.36c.01.13.04.25.07.36.04.11.09.2.16.28.07.08.15.11.26.11s.19-.04.26-.11c.07-.08.12-.17.15-.28.04-.11.06-.23.07-.36.01-.13.02-.25.02-.36ZM1078.9,327.91c0,.24-.02.47-.07.69-.05.22-.12.41-.23.57-.11.17-.24.3-.41.39-.17.1-.37.15-.61.15s-.45-.05-.62-.15c-.17-.1-.31-.23-.42-.39-.11-.16-.19-.36-.23-.57-.05-.22-.07-.45-.07-.69s.02-.47.07-.69c.05-.22.13-.41.23-.57s.25-.29.42-.39c.17-.1.38-.14.62-.14s.45.05.61.14c.17.1.3.23.41.39.11.16.18.35.23.57.05.22.07.44.07.69"/><path id="path40-2" class="cls-19" d="M1066.06,334.99v-2.5l-.64.49-.42-.57,1.12-.82h.74v3.41h-.8"/><path id="path42-2" class="cls-19" d="M1068.89,334.99v-2.5l-.64.49-.42-.57,1.12-.82h.74v3.41h-.8"/><path id="path44-2" class="cls-19" d="M1071.71,334.99v-2.5l-.64.49-.42-.57,1.12-.82h.74v3.41h-.8"/><path id="path46-2" class="cls-19" d="M1075.16,333.27c0-.11,0-.22-.02-.35-.01-.13-.04-.25-.07-.36-.04-.11-.09-.2-.15-.28-.07-.08-.15-.11-.26-.11s-.19.04-.26.11c-.07.08-.12.17-.16.28-.04.11-.06.23-.07.36-.01.13-.02.25-.02.35s0,.23.02.36c.01.13.04.25.07.36.04.11.09.2.16.28.07.08.15.11.26.11s.19-.04.26-.11c.07-.08.12-.17.15-.28.03-.11.06-.23.07-.36.01-.13.02-.25.02-.36ZM1075.98,333.27c0,.24-.02.47-.07.69-.05.22-.13.41-.23.58-.11.16-.24.3-.41.39-.17.1-.37.15-.61.15s-.45-.05-.62-.15c-.17-.1-.31-.23-.42-.39-.11-.17-.19-.36-.23-.58-.05-.22-.07-.45-.07-.69s.02-.47.07-.69c.05-.22.13-.41.23-.57.11-.16.25-.29.42-.39.17-.1.38-.14.62-.14s.44.05.61.14c.17.1.31.23.41.39.11.16.18.35.23.57.05.22.07.45.07.69"/><path id="path48-2" class="cls-19" d="M1067.68,338.81v-1.82l-.46.36-.3-.41.81-.6h.53v2.47h-.58"/><path id="path50-2" class="cls-19" d="M1071.77,338.81v-1.82l-.46.36-.3-.41.81-.6h.54v2.47h-.58"/><path id="path52-2" class="cls-19" d="M1066.05,337.56c0-.08,0-.16-.01-.26,0-.09-.03-.18-.05-.26-.03-.08-.06-.15-.11-.2-.05-.05-.11-.08-.19-.08s-.14.03-.19.08c-.05.05-.09.12-.11.2-.03.08-.04.17-.05.26,0,.09-.01.18-.01.26s0,.17.01.26c0,.09.03.18.05.26.03.08.06.15.11.2.05.05.11.08.19.08s.14-.03.19-.08c.05-.05.08-.12.11-.2.03-.08.04-.17.05-.26,0-.09.01-.18.01-.26ZM1066.65,337.56c0,.17-.02.34-.05.5-.03.16-.09.3-.17.42-.08.12-.18.22-.3.29-.12.07-.27.11-.45.11s-.32-.04-.45-.11c-.12-.07-.22-.17-.3-.29-.08-.12-.13-.26-.17-.42-.04-.16-.05-.32-.05-.5s.02-.34.05-.5c.03-.16.09-.29.17-.41.08-.12.18-.21.3-.28.12-.07.27-.1.45-.1s.32.04.45.1c.12.07.22.16.3.28.08.12.13.26.17.41.03.16.05.32.05.5"/><path id="path54-2" class="cls-19" d="M1070.16,337.56c0-.08,0-.16-.01-.26,0-.09-.03-.18-.05-.26-.03-.08-.06-.15-.11-.2-.05-.05-.11-.08-.19-.08s-.14.03-.19.08c-.05.05-.09.12-.11.2-.03.08-.05.17-.05.26,0,.09-.01.18-.01.26s0,.17.01.26c0,.09.03.18.05.26.03.08.06.15.11.2.05.05.11.08.19.08s.14-.03.19-.08c.05-.05.08-.12.11-.2.03-.08.04-.17.05-.26,0-.09.01-.18.01-.26ZM1070.76,337.56c0,.17-.02.34-.05.5-.04.16-.09.3-.17.42-.08.12-.18.22-.3.29-.12.07-.27.11-.45.11s-.32-.04-.45-.11c-.12-.07-.22-.17-.3-.29-.08-.12-.13-.26-.17-.42-.04-.16-.05-.32-.05-.5s.02-.34.05-.5c.03-.16.09-.29.17-.41.08-.12.18-.21.3-.28.12-.07.27-.1.45-.1s.32.04.45.1c.12.07.22.16.3.28.08.12.13.26.17.41.03.16.05.32.05.5"/><path id="path56-2" class="cls-19" d="M1078.58,338.81v-1.82l-.46.36-.3-.41.81-.6h.53v2.47h-.58"/><path id="path58-2" class="cls-19" d="M1076.97,337.56c0-.08,0-.16-.01-.26,0-.09-.03-.18-.05-.26-.03-.08-.06-.15-.11-.2-.05-.05-.11-.08-.19-.08s-.14.03-.19.08c-.05.05-.09.12-.11.2-.03.08-.04.17-.05.26,0,.09-.01.18-.01.26s0,.17.01.26c0,.09.03.18.05.26.03.08.07.15.11.2.05.05.11.08.19.08s.14-.03.19-.08c.05-.05.08-.12.11-.2.03-.08.04-.17.05-.26,0-.09.01-.18.01-.26ZM1077.57,337.56c0,.17-.02.34-.05.5-.04.16-.09.3-.17.42-.08.12-.18.22-.3.29-.12.07-.27.11-.45.11s-.32-.04-.45-.11c-.12-.07-.22-.17-.3-.29-.08-.12-.13-.26-.17-.42-.04-.16-.05-.32-.05-.5s.02-.34.05-.5c.03-.16.09-.29.17-.41.08-.12.18-.21.3-.28.12-.07.27-.1.45-.1s.32.04.45.1c.12.07.22.16.3.28.08.12.13.26.17.41.03.16.05.32.05.5"/><path id="path60-2" class="cls-19" d="M1076.34,341.72v-1.82l-.46.36-.3-.42.81-.6h.53v2.47h-.58"/><path id="path62-2" class="cls-19" d="M1074.73,340.48c0-.08,0-.16-.01-.26,0-.09-.03-.18-.05-.26-.03-.08-.06-.15-.11-.2-.05-.05-.11-.08-.19-.08s-.14.03-.19.08c-.05.05-.09.12-.11.2-.03.08-.04.17-.05.26,0,.09-.01.18-.01.26s0,.17.01.26c0,.09.03.18.05.26.03.08.06.15.11.2.05.05.11.08.19.08s.14-.03.19-.08c.05-.05.08-.12.11-.2.03-.08.04-.17.05-.26,0-.09.01-.18.01-.26ZM1075.33,340.48c0,.17-.02.34-.05.5-.03.16-.09.3-.17.42-.08.12-.18.22-.3.29-.12.07-.27.11-.45.11s-.32-.04-.45-.11c-.12-.07-.22-.17-.3-.29-.08-.12-.13-.26-.17-.42-.03-.16-.05-.32-.05-.5s.02-.34.05-.5c.03-.16.09-.3.17-.41.08-.12.18-.21.3-.28.12-.07.27-.1.45-.1s.32.04.45.1c.12.07.22.16.3.28.08.12.13.26.17.41.03.16.05.32.05.5"/><path id="path64-2" class="cls-19" d="M1066.87,341.69v-1.26l-.32.25-.21-.29.56-.41h.37v1.71h-.4"/><path id="path66-2" class="cls-19" d="M1065.75,340.82c0-.05,0-.11,0-.18,0-.06-.02-.12-.04-.18-.02-.06-.04-.1-.08-.14-.03-.04-.08-.06-.13-.06s-.1.02-.13.06c-.03.04-.06.08-.08.14-.02.06-.03.12-.04.18,0,.07,0,.12,0,.18s0,.11,0,.18c0,.07.02.13.04.18.02.06.04.1.08.14.03.04.08.06.13.06s.1-.02.13-.06c.03-.04.06-.08.08-.14.02-.06.03-.12.04-.18,0-.07,0-.13,0-.18ZM1066.17,340.82c0,.12-.01.24-.04.35-.02.11-.06.21-.12.29-.05.08-.12.15-.21.2-.08.05-.19.07-.31.07s-.22-.03-.31-.07c-.09-.05-.16-.11-.21-.2-.05-.08-.09-.18-.12-.29-.02-.11-.04-.23-.04-.35s.01-.24.04-.34c.02-.11.06-.2.12-.29.05-.08.12-.15.21-.19.09-.05.19-.07.31-.07s.22.02.31.07c.09.05.15.11.21.19.05.08.09.18.12.29.02.11.04.22.04.34"/><path id="path68-2" class="cls-19" d="M1071.9,343.89v-1.26l-.32.25-.21-.29.56-.41h.37v1.71h-.4"/><path id="path70-2" class="cls-19" d="M1070.78,343.03c0-.05,0-.11-.01-.18,0-.06-.02-.12-.04-.18s-.04-.1-.08-.14c-.03-.04-.08-.06-.13-.06s-.1.02-.13.06c-.03.04-.06.08-.08.14-.02.06-.03.12-.04.18,0,.06-.01.12-.01.18s0,.11.01.18c0,.07.02.13.04.18.02.06.04.1.08.14.03.04.08.06.13.06s.1-.02.13-.06c.03-.04.06-.08.08-.14.02-.06.03-.12.04-.18,0-.06.01-.12.01-.18ZM1071.2,343.03c0,.12-.01.24-.04.35-.02.11-.06.21-.12.29-.05.08-.12.15-.21.2-.08.05-.19.07-.31.07s-.22-.02-.31-.07c-.09-.05-.16-.12-.21-.2-.05-.08-.09-.18-.12-.29-.02-.11-.04-.23-.04-.35s.01-.24.04-.34c.02-.11.06-.2.12-.29.05-.08.12-.15.21-.2.09-.05.19-.07.31-.07s.22.02.31.07c.09.05.15.11.21.2.05.08.09.18.12.29.02.11.04.22.04.34"/><path id="path72-2" class="cls-19" d="M1078.81,340.48c0-.08,0-.16-.01-.26,0-.09-.03-.18-.05-.26-.03-.08-.06-.15-.11-.2-.05-.05-.11-.08-.19-.08s-.14.03-.19.08c-.05.05-.09.12-.11.2-.03.08-.04.17-.05.26,0,.09-.01.18-.01.26s0,.17.01.26c0,.09.03.18.05.26.03.08.06.15.11.2.05.05.11.08.19.08s.14-.03.19-.08c.05-.05.08-.12.11-.2.03-.08.04-.17.05-.26,0-.09.01-.18.01-.26ZM1079.41,340.48c0,.17-.02.34-.05.5-.03.16-.09.3-.17.42-.08.12-.18.22-.3.29-.12.07-.27.11-.45.11s-.32-.04-.45-.11c-.12-.07-.22-.17-.3-.29-.08-.12-.13-.26-.17-.42-.03-.16-.05-.32-.05-.5s.02-.34.05-.5c.03-.16.09-.3.17-.41.08-.12.18-.21.3-.28.12-.07.27-.1.45-.1s.32.04.45.1c.12.07.22.16.3.28.08.12.13.26.17.41.03.16.05.32.05.5"/><path id="path74-2" class="cls-19" d="M1077.68,323.78c-.57-2.79-3.05-4.81-5.9-4.81-.43,0-.86.05-1.28.14-.69-4.06-4.24-7.16-8.49-7.16s-7.73,3.05-8.47,7.05c-3.06.28-5.47,2.86-5.47,6,0,3.32,2.7,6.02,6.02,6.02h9.01c.46,0,.83-.37.83-.83s-.37-.83-.83-.83h-9.01c-2.4,0-4.36-1.95-4.36-4.36s1.95-4.36,4.36-4.36c.87,0,1.72.26,2.44.74.38.26.9.16,1.16-.22.26-.38.16-.9-.22-1.16-.68-.46-1.44-.77-2.24-.92.68-3.12,3.47-5.47,6.79-5.47,3.54,0,6.47,2.66,6.9,6.09-.22.12-.44.25-.65.41-.37.27-.46.79-.19,1.16.27.37.79.46,1.16.19.74-.54,1.63-.82,2.55-.82,2.06,0,3.86,1.46,4.27,3.48.08.39.43.67.82.67.05,0,.11,0,.17-.02.45-.09.74-.53.65-.98"/></g></svg>